<?xml version="1.0" standalone="no"?>
<!DOCTYPE svg PUBLIC "-//W3C//DTD SVG 1.1//EN" "http://www.w3.org/Graphics/SVG/1.1/DTD/svg11.dtd">
<svg xmlns="http://www.w3.org/2000/svg"><metadata>This SVG WebFont was generated by YouWorkForThem.
  2003 Bitstream Inc. &amp; Astigmatic. All Rights Reserved. Designed by Brian J. Bonislawsky. http://www.astigmatic.com/</metadata><defs><font horiz-adv-x="1705" id="ywftsvg"><font-face ascent="1638" bbox="-365 -528 2521 1825" cap-height="1454" descent="-410" font-family="" font-stretch="normal" font-weight="700" panose-1="2 0 8 3 3 0 0 2 0 4" underline-position="0" underline-thickness="0" unicode-range="U+0020-FB02" units-per-em="2048" x-height="942"/><missing-glyph horiz-adv-x="2048"/><glyph d="M750 53q0 -31 -25 -53t-55 -20q-30 0 -56 22q-25 22 -24 51v764h-303v-764q0 -31 -25 -53q-26 -22 -56 -20q-30 0 -54 22t-25 51v764q-37 0 -57 2q-20 1 -44 19t-24 51t25 55t55 21h45v192q0 162 94 280t252 117q53 0 129 -28t76 -68q0 -30 -24 -52t-49 -22t-65 12 t-63 13q-96 0 -143 -75t-47 -177v-192h383q32 0 56 -22t24 -52v-838zM770 1300q0 -40 -30 -68t-70 -28t-71 28q-30 28 -30 68t30 69q30 28 71 28q40 0 70 -28t30 -69z" glyph-name="uniFB01" horiz-adv-x="870" unicode="fi"/><glyph d="M287 1157v-192h149q31 0 56 -22q24 -23 24 -53t-24 -52t-56 -21h-149v-764q0 -31 -25 -53q-26 -22 -56 -20q-30 0 -54 22t-25 51v764q-37 0 -57 2q-20 1 -44 19t-24 51t25 55t55 21h45v192q0 170 90 284t256 113q41 0 90 -15t72 -44q16 49 76 49q33 0 57 -19t23 -50 v-1422q0 -31 -25 -53q-26 -22 -56 -20q-30 0 -55 22t-24 51v1362q-23 -27 -60 -26l-94 20q-102 0 -146 -72t-44 -180z" glyph-name="uniFB02" horiz-adv-x="890" unicode="fl"/><glyph glyph-name=".notdef" horiz-adv-x="2048"/><glyph glyph-name="glyph1" horiz-adv-x="0"/><glyph glyph-name="glyph2" horiz-adv-x="681"/><glyph glyph-name="space" horiz-adv-x="696" unicode=" "/><glyph d="M332 61q0 -39 -31 -65t-70 -27q-39 0 -71 27q-32 28 -31 66q0 38 32 67q33 29 71 29t69 -29t31 -68zM311 283q0 -31 -23 -51q-24 -19 -57 -19t-57 19t-22 51v1099q0 31 23 52q25 20 57 20t56 -20t23 -52v-1099z" glyph-name="exclam" horiz-adv-x="460" unicode="!"/><glyph d="M289 1161q0 -29 -25 -47q-26 -18 -56 -18t-54 18t-25 47v228q0 29 25 47q26 18 56 18t54 -18t25 -47v-228zM494 1161q0 -29 -25 -47t-55 -18t-56 18q-25 18 -24 47v228q0 29 24 47q25 18 56 18q32 0 56 -18t24 -47v-228z" glyph-name="quotedbl" horiz-adv-x="622" unicode="&quot;"/><glyph d="M969 858h-260l-93 -264h261zM1487 1004l-51 -146h-303l-93 -262h322l-51 -147h-322l-162 -453h-165l161 453h-258l-162 -453h-165l159 453h-309l53 147h310l92 262h-330l51 146h332l162 454h166l-162 -454h256l164 454h164l-160 -454h301z" glyph-name="numbersign" horiz-adv-x="1574" unicode="#"/><glyph d="M877 328q0 70 -105 127v-260q105 35 105 133zM356 963q0 -114 82 -177q56 -43 176 -96v553q-118 -20 -188 -93t-70 -187zM692 -127q-64 0 -75 61q-5 40 -4 71q1 30 1 38q-78 13 -175 69t-97 119q0 29 25 49t51 19q26 0 100 -61q20 -16 96 -43v331q-246 98 -333 199 q-86 101 -84 238q-1 177 119 291t298 135v41q0 79 53 92q11 2 33 2t48 -24q25 -24 24 -54v-57q137 -14 247 -81t157 -184q4 -16 4 -34t-39 -45q-67 -45 -117 38q-82 131 -252 160v-620q262 -111 262 -295q0 -117 -72 -190t-190 -93l2 -75q0 -97 -82 -97z" glyph-name="dollar" horiz-adv-x="1394" unicode="$"/><glyph d="M441 803q93 -1 153 73t61 169q0 95 -59 170q-58 75 -152 75t-155 -75t-61 -170t60 -169t153 -73zM1552 388q0 95 -61 169t-153 74t-154 -74t-62 -169t62 -170t153 -75q92 0 154 75q61 75 61 170zM815 1044q-1 -158 -109 -272t-264 -115q-156 0 -266 115 q-110 114 -108 272q0 158 108 275t266 117t266 -117t107 -275zM1425 1400q0 -24 -14 -44l-903 -1352q-23 -37 -60 -37q-36 0 -62 22t-26 45t15 44l903 1352q24 36 60 36t62 -21t25 -45zM1710 389q0 -159 -108 -275t-265 -116q-159 0 -267 117t-108 275t110 272t266 114 t264 -114q108 -115 108 -273z" glyph-name="percent" horiz-adv-x="1777" unicode="%"/><glyph d="M1238 1147q32 -1 58 -23t25 -57q0 -35 -83 -105t-224 -141q123 -157 123 -357t-159 -350t-376 -149q-217 0 -377 150t-159 364q0 154 87 285t228 197q-86 92 -86 216q0 125 92 209t217 84q66 0 148 -34t82 -90q0 -31 -26 -54q-26 -22 -51 -22t-69 28t-95 27 q-52 0 -95 -43t-43 -105q0 -61 44 -113t105 -52l70 12q32 0 56 -23t24 -55t-8 -41q-16 -20 -34 -26l-21 -7l-29 -6q-6 -2 -60 -2q-154 0 -266 -114t-111 -270q0 -154 111 -262q110 -108 266 -108t266 108t111 257q0 149 -102 270q-70 -45 -113 -93t-72 -122q-23 -57 -78 -57 q-32 0 -56 17t-23 51l8 39q46 148 186 242q55 38 81 52t98 54t87 47q88 49 181 141q30 31 62 31z" glyph-name="ampersand" horiz-adv-x="1325" unicode="&amp;"/><glyph d="M289 1161q0 -29 -25 -47q-26 -18 -56 -18t-54 18t-25 47v228q0 29 25 47q26 18 56 18t54 -18t25 -47v-228z" glyph-name="quotesingle" horiz-adv-x="417" unicode="'"/><glyph d="M477 -51q1 -27 -23 -49t-54 -23q-30 0 -60 23q-215 144 -263 621q-11 111 -11 239t19 268t86 291q67 152 171 219q36 20 62 20t50 -23q24 -25 24 -51t-17 -43q-16 -17 -44 -35q-192 -127 -192 -660t150 -685q8 -8 38 -28q30 -21 47 -39t17 -45z" glyph-name="parenleft" horiz-adv-x="503" unicode="("/><glyph d="M438 741q0 -435 -135 -681q-57 -103 -139 -160q-33 -23 -62 -23q-28 0 -52 23q-24 24 -24 50t18 44q17 18 47 38t38 29q150 152 150 682t-179 656q-57 28 -65 49q-8 20 -8 42q-1 22 23 46t54 23q30 0 60 -21q152 -98 213 -326t61 -471z" glyph-name="parenright" horiz-adv-x="524" unicode=")"/><glyph d="M770 1262q34 0 56 -20q24 -20 24 -58q0 -37 -49 -56l-221 -84l204 -237q16 -20 16 -46t-26 -46q-26 -21 -60 -21t-59 29l-198 235l-199 -235q-24 -29 -60 -29t-61 20t-25 49q0 28 15 44l205 240l-215 77q-49 18 -49 56t23 59q25 21 55 21t231 -80v184q0 31 24 50 q25 20 56 20t55 -20t25 -50v-182q199 80 233 80z" glyph-name="asterisk" horiz-adv-x="917" unicode="*"/><glyph d="M1452 541h-528v-541h-142v541h-528v139h528v541h142v-541h528v-139z" glyph-name="plus" unicode="+"/><glyph d="M129 44q0 38 32 60q33 22 73 21t70 -27t30 -73t-38 -95t-74 -47q-36 -1 -58 15t-21 34q0 18 31 50q-45 24 -45 62z" glyph-name="comma" horiz-adv-x="462" unicode=","/><glyph d="M582 471q0 -35 -24 -59t-56 -23h-355q-33 0 -57 24q-24 25 -22 59q0 34 24 58t55 23h355q32 1 56 -23t24 -59z" glyph-name="hyphen" horiz-adv-x="649" unicode="-"/><glyph d="M332 76q0 -39 -32 -66q-32 -26 -71 -26t-69 26t-31 66q0 40 31 64q32 24 70 24t70 -24t32 -64z" glyph-name="period" horiz-adv-x="460" unicode="."/><glyph d="M114 -31q-36 -1 -62 19t-25 51l663 1382q27 45 66 45q38 0 64 -20t26 -51l-664 -1383q-32 -43 -68 -43z" glyph-name="slash" horiz-adv-x="872" unicode="/"/><glyph d="M1180 713q0 328 -217 508q-113 92 -267 92t-266 -92q-112 -91 -164 -225q-51 -134 -51 -284t51 -282q51 -133 164 -225q112 -92 266 -92t267 92t164 225q53 133 53 283zM1339 713q-1 -191 -75 -359t-224 -278t-344 -109q-194 0 -344 110q-150 111 -224 277t-73 359 q0 193 74 359t223 277q150 109 344 109t344 -110t224 -277q74 -168 75 -358z" glyph-name="zero" horiz-adv-x="1394" unicode="0"/><glyph d="M850 51q0 -31 -24 -51t-56 -20t-56 20q-22 20 -22 51v1211q-240 -109 -272 -109t-56 23q-24 22 -24 58t47 60q317 154 390 154t73 -70v-1327z" glyph-name="one" horiz-adv-x="1394" unicode="1"/><glyph d="M328 0q-80 0 -80 120q0 56 26 143q61 209 216 338q81 67 180 130q100 63 158 102q148 99 149 227q0 128 -95 194t-231 65q-57 0 -107 -26q-50 -25 -78 -57q-73 -82 -111 -83q-39 0 -65 22q-26 23 -26 49t43 74q151 166 347 166t339 -106t143 -291t-130 -292 q-59 -48 -195 -127t-212 -145q-157 -134 -185 -358h655q31 0 55 -21t25 -52q0 -32 -24 -52t-56 -20h-741z" glyph-name="two" horiz-adv-x="1394" unicode="2"/><glyph d="M1157 459q0 -219 -148 -355t-370 -135q-100 -1 -214 55t-183 134q-46 58 4 98q26 20 54 20t78 -40t119 -80q69 -41 142 -41q160 0 260 93t100 251q0 96 -58 162q-106 120 -312 118h-60q-33 -1 -57 19t-23 44t7 36q6 14 12 22t23 14l34 12t47 7q88 17 166 73t78 143 t-54 148t-132 61t-132 -32t-94 -64t-70 -32q-28 0 -55 22q-65 54 25 125q152 127 308 127t259 -104t103 -259t-135 -259q278 -107 278 -383z" glyph-name="three" horiz-adv-x="1394" unicode="3"/><glyph d="M1303 545q0 -31 -25 -53t-55 -21h-299v-430q0 -31 -24 -51t-56 -20t-57 20q-24 20 -23 51v430h-590q-32 0 -56 16t-24 48q0 14 331 430t373 459q69 71 131 21q25 -23 25 -49t-16 -46l-602 -736h428v428q0 31 24 53q25 21 56 21q32 0 56 -22t24 -52v-428h299q33 0 57 -19 t23 -50z" glyph-name="four" horiz-adv-x="1394" unicode="4"/><glyph d="M1210 545q0 -252 -148 -414t-398 -162q-115 -1 -251 63t-208 152q-42 61 4 99q25 20 55 20t88 -49q158 -139 328 -139q170 -1 271 119t102 311q0 143 -123 243q-122 100 -256 100t-299 -71q-25 -10 -51 -10t-45 20q-20 20 -21 54v481q0 31 25 51t55 21h573q33 0 57 -20 t24 -52q0 -30 -26 -52q-24 -22 -55 -22h-493v-297q135 43 241 43q211 0 381 -140t170 -349z" glyph-name="five" horiz-adv-x="1394" unicode="5"/><glyph d="M1135 504q0 131 -118 235q-118 105 -245 105t-228 -52t-134 -159q-18 -73 -39 -91t-43 -18q-23 0 -43 8q70 -418 456 -417q172 1 283 109t111 280zM1294 504q0 -231 -160 -383t-393 -152q-317 0 -474 207t-156 535q0 188 77 359q78 171 232 283t346 111q102 0 215 -42 t168 -113q16 -23 16 -51t-24 -48q-25 -20 -57 -20t-52 20t-22 21q-106 88 -250 88t-260 -95q-116 -96 -173 -232q-56 -136 -57 -281q62 139 196 208t300 68q196 0 362 -145t166 -338z" glyph-name="six" horiz-adv-x="1394" unicode="6"/><glyph d="M553 -20q-37 0 -63 19t-26 48t544 1241h-738q-32 0 -56 22t-24 52t24 51q24 20 56 21h854q34 0 58 -18t24 -50l-585 -1339q-31 -47 -68 -47z" glyph-name="seven" horiz-adv-x="1394" unicode="7"/><glyph d="M307 426q0 -154 116 -232q115 -78 277 -79t274 77t113 235q0 157 -112 235q-113 78 -277 78t-278 -80t-113 -234zM940 1100q0 92 -72 155t-166 63t-166 -62q-72 -64 -73 -156q0 -92 73 -150q72 -58 166 -59q94 1 166 59t72 150zM1247 426q0 -219 -161 -338t-386 -119 t-389 121t-164 336q0 144 76 250t209 162q-129 108 -129 262t122 259q121 105 277 105t277 -106t121 -259t-133 -261q131 -55 205 -163t75 -249z" glyph-name="eight" horiz-adv-x="1394" unicode="8"/><glyph d="M655 1319q-173 0 -283 -109t-110 -280q0 -132 118 -236t244 -104t229 54t134 159q1 16 11 43q10 26 14 30t14 19q10 14 40 14q28 0 44 -6q-70 416 -455 416zM1286 687q0 -171 -85 -337t-237 -274t-333 -107q-105 0 -211 41t-170 115q-18 23 -18 51t30 52q55 44 125 -25 q102 -88 244 -88q209 0 352 183t143 396v29q-61 -139 -194 -208q-134 -69 -316 -69t-348 144t-166 340q0 231 160 383t393 151q170 0 295 -60t197 -170q71 -110 105 -243t34 -304z" glyph-name="nine" horiz-adv-x="1394" unicode="9"/><glyph d="M332 76q0 -39 -32 -66q-32 -26 -71 -26t-69 26t-31 66q0 40 31 64q32 24 70 24t70 -24t32 -64zM332 657q0 -39 -32 -65t-71 -25q-39 0 -69 26q-30 27 -31 65q0 38 31 64q32 26 70 26t70 -26t32 -65z" glyph-name="colon" horiz-adv-x="460" unicode=":"/><glyph d="M334 46q0 -50 -37 -106t-86 -57q-25 1 -47 19t-21 40q0 22 31 54q-45 29 -45 71q0 43 31 69q30 26 74 26t72 -33t28 -83zM332 657q0 -39 -32 -65t-71 -27q-39 0 -69 27q-30 28 -31 66q0 38 31 64q32 26 70 26t70 -26t32 -65z" glyph-name="semicolon" horiz-adv-x="462" unicode=";"/><glyph d="M1442 63l-1178 484v129l1178 483v-153l-969 -396l969 -393v-154z" glyph-name="less" unicode="&lt;"/><glyph d="M1452 342h-1198v139h1198v-139zM1452 739h-1198v140h1198v-140z" glyph-name="equal" unicode="="/><glyph d="M1442 547l-1178 -484v154l971 393l-971 396v153l1178 -483v-129z" glyph-name="greater" unicode=">"/><glyph d="M596 61q0 -39 -31 -65t-69 -27q-38 0 -71 27q-32 28 -32 66t32 67t71 29q40 0 70 -29t30 -68zM496 1464q190 0 342 -127t151 -310q1 -183 -113 -292t-301 -143v-309q0 -31 -23 -51q-24 -19 -56 -19t-57 19q-24 19 -23 51v372q0 41 43 63t103 35t120 35t104 82 q43 59 43 170t-103 195t-230 84q-80 0 -158 -39t-121 -104q-16 -27 -22 -35q-23 -31 -59 -31t-62 20t-27 48q0 28 37 77q68 97 180 153t232 56z" glyph-name="question" horiz-adv-x="1056" unicode="?"/><glyph d="M725 446q0 -102 49 -160t140 -58t170 68q79 69 106 179l59 236q-38 184 -198 184q-137 0 -231 -128t-95 -321zM1704 -70q-300 -223 -674 -223t-618 187q-306 232 -306 628q0 336 203 582q143 176 351 269t456 93q340 0 576 -183q118 -91 185 -222t67 -294t-64 -302 t-194 -245q-131 -106 -306 -103q-200 0 -200 157v19q-109 -174 -301 -174q-154 0 -234 86t-80 246q0 237 137 395t340 158q167 0 242 -150l57 115h132l-146 -576l-6 -31q-2 -10 -2 -28q0 -96 99 -95t210 103q80 76 125 186t45 234q0 260 -192 421t-478 161q-287 0 -479 -116 q-191 -114 -295 -298t-104 -385t62 -334t192 -229q212 -160 543 -160t602 190z" glyph-name="at" horiz-adv-x="2048" unicode="@"/><glyph d="M977 532l-318 660l-290 -660h608zM1382 47q0 -29 -26 -48t-64 -19q-39 0 -63 45l-182 364h-744l-164 -362q-20 -47 -62 -47t-68 19q-25 19 -25 42t448 1028l150 332q32 55 76 55t73 -51q651 -1329 651 -1358z" glyph-name="A" horiz-adv-x="1366" unicode="A"/><glyph d="M633 145q139 -1 235 87t95 228t-99 218t-246 78h-331v-611h346zM500 903q132 0 194 34t62 154q0 121 -70 159t-201 38h-198v-385h213zM1122 459q0 -201 -144 -330t-345 -129h-426q-31 0 -55 20t-25 52v1290q0 31 25 51t55 21h278q430 0 430 -344q0 -143 -79 -230 q134 -52 210 -156t76 -245z" glyph-name="B" horiz-adv-x="1177" unicode="B"/><glyph d="M1182 215q24 -1 48 -23q23 -22 23 -54t-34 -56q-72 -51 -187 -81t-215 -30q-309 0 -535 219q-226 218 -226 526t226 527t535 219q109 0 261 -41t151 -114q0 -31 -25 -53q-43 -38 -94 -13q-168 76 -293 76q-246 0 -424 -177t-178 -423t178 -423t424 -177q129 0 316 88 q25 10 49 10z" glyph-name="C" horiz-adv-x="1298" unicode="C"/><glyph d="M1225 721q0 233 -168 400t-402 167h-368v-1143h368q233 0 402 171q168 172 168 405zM1382 721q0 -295 -216 -508t-511 -213h-448q-31 0 -55 20t-25 52v1290q0 31 25 51t55 21h448q295 0 511 -209t216 -504z" glyph-name="D" horiz-adv-x="1437" unicode="D"/><glyph d="M1042 72q0 -31 -23 -52q-24 -20 -54 -20h-758q-31 0 -55 20t-25 52v1290q0 31 25 51t55 21h758q31 0 55 -20t22 -52q0 -30 -24 -52t-53 -22h-678v-475h508q31 1 55 -21t24 -53t-24 -51t-55 -20h-508v-523h678q31 0 54 -21t23 -52z" glyph-name="E" horiz-adv-x="1089" unicode="E"/><glyph d="M971 1362q0 -30 -25 -52t-55 -22h-604v-475h508q31 1 55 -21t24 -53t-24 -51t-55 -20h-508v-617q0 -31 -24 -51q-25 -20 -57 -20t-56 20t-23 51v1311q0 31 25 51t55 21h684q33 0 57 -20t23 -52z" glyph-name="F" horiz-adv-x="976" unicode="F"/><glyph d="M1393 256q0 -23 -19 -45q-86 -109 -247 -175t-310 -65q-309 0 -535 219q-226 218 -226 526t226 527t535 219q117 0 241 -37t208 -104q30 -27 30 -57t-24 -51q-44 -40 -103 -7q-182 111 -352 111q-246 0 -424 -177t-178 -423t178 -423t421 -177t419 166v381h-291 q-32 0 -56 22t-24 52t24 50t56 21h371q31 -1 55 -21t25 -51v-481z" glyph-name="G" horiz-adv-x="1478" unicode="G"/><glyph d="M1171 51q1 -31 -23 -51t-56 -20t-57 20q-24 20 -23 51v617h-725v-617q0 -31 -24 -51q-25 -20 -57 -20t-56 20t-23 51v1331q0 32 24 52q25 20 57 20t56 -20t23 -52v-569h725v569q0 31 23 52q24 20 57 20q32 0 56 -20t23 -52v-1331z" glyph-name="H" horiz-adv-x="1298" unicode="H"/><glyph d="M287 51q0 -31 -24 -51q-25 -20 -57 -20t-56 20t-23 51v1331q0 32 24 52q25 20 57 20t56 -20t23 -52v-1331z" glyph-name="I" horiz-adv-x="413" unicode="I"/><glyph d="M287 121q0 -137 -72 -247q-73 -110 -183 -159t-148 -49t-62 23t-25 55q0 32 25 47t82 31q223 70 223 299v1259q0 31 25 53q26 21 56 21t54 -22t25 -52v-1259z" glyph-name="J" horiz-adv-x="413" unicode="J"/><glyph d="M1163 47q-1 -27 -25 -47t-61 -20t-59 32l-549 740l-182 -211v-490q0 -31 -24 -51q-25 -20 -57 -20t-56 20t-23 51v1331q0 32 24 52q25 20 57 20t56 -20t23 -52v-610l575 655q25 29 59 29q33 0 59 -22t26 -48q0 -27 -19 -49l-414 -469l576 -774q14 -20 14 -47z" glyph-name="K" horiz-adv-x="1146" unicode="K"/><glyph d="M936 72q0 -32 -24 -52t-56 -20h-649q-31 0 -55 20t-25 52v1310q0 32 24 52q25 20 57 20t56 -20t23 -52v-1237h569q32 0 56 -21t24 -52z" glyph-name="L" horiz-adv-x="931" unicode="L"/><glyph d="M1671 51q1 -31 -23 -51t-57 -20t-57 20t-23 51v1063l-540 -899q-25 -43 -71 -43t-71 43l-542 899v-1063q0 -31 -24 -51q-25 -20 -57 -20t-56 20t-23 51v1323q0 35 23 58t55 22q57 0 84 -45l610 -1012l610 1012q25 45 71 45t69 -24t22 -56v-1323z" glyph-name="M" horiz-adv-x="1798" unicode="M"/><glyph d="M1235 61q-1 -33 -21 -57t-66 -22q-46 0 -73 41l-788 1126v-1098q0 -31 -24 -51q-25 -20 -57 -20t-56 20t-23 51v1321q0 35 21 58q22 22 66 22t79 -49l782 -1118v1097q0 32 24 52q25 20 57 20t56 -20t23 -52v-1321z" glyph-name="N" horiz-adv-x="1361" unicode="N"/><glyph d="M1417 717q0 246 -176 423t-423 177t-425 -177t-178 -423t178 -423t425 -177t423 177t176 423zM1577 717q0 -307 -226 -527q-227 -220 -535 -219q-308 0 -534 219q-226 218 -226 526t226 527t534 219t534 -219t227 -526z" glyph-name="O" horiz-adv-x="1632" unicode="O"/><glyph d="M887 990q0 136 -77 217t-220 81h-303v-610h303q125 0 211 88t86 224zM1047 990q-1 -198 -135 -330q-134 -130 -322 -130h-303v-479q0 -31 -24 -51q-25 -20 -57 -20t-56 20t-23 51v1311q0 31 25 51t55 21h383q207 0 332 -123t125 -321z" glyph-name="P" horiz-adv-x="1101" unicode="P"/><glyph d="M1417 708q0 255 -176 432t-423 177t-425 -177t-178 -423t178 -423t424 -177q121 0 268 76l-260 266q-20 20 -20 49q-1 28 25 50t58 22t58 -27l268 -274q203 174 203 429zM1577 717q0 -158 -68 -299t-188 -246q96 -96 96 -126q-1 -30 -25 -52t-55 -21q-51 0 -143 111 q-197 -113 -377 -113q-309 0 -535 219q-226 218 -226 526t226 527t534 219t534 -219t227 -526z" glyph-name="Q" horiz-adv-x="1632" unicode="Q"/><glyph d="M862 991q0 137 -81 217t-228 80h-266v-588h266q129 0 219 77t90 214zM1059 46q0 -28 -26 -47q-25 -19 -65 -19t-63 43l-282 538q-33 -6 -70 -6h-266v-504q0 -31 -24 -51q-25 -20 -57 -20t-56 20t-23 51v1311q0 31 25 51t55 21h346q211 0 340 -122t129 -331 q0 -266 -246 -377q283 -530 283 -558z" glyph-name="R" horiz-adv-x="1124" unicode="R"/><glyph d="M1067 412q0 -184 -163 -312t-353 -129q-127 0 -261 77t-202 185q-10 16 -10 41t30 49t61 18q32 -6 42 -18t20 -26q57 -79 146 -130q90 -50 174 -50q127 0 243 86t115 209q0 90 -45 149q-44 59 -116 87t-159 45t-174 37t-159 55q-72 34 -117 105q-45 70 -45 188t71 210 q134 174 408 174q91 0 197 -37t158 -96q18 -23 18 -49t-26 -48t-54 -22q-29 0 -61 27q-95 80 -231 80q-136 1 -228 -61t-92 -195t162 -182q72 -23 158 -39t172 -42q87 -26 159 -66t117 -122t45 -198z" glyph-name="S" horiz-adv-x="1144" unicode="S"/><glyph d="M1176 1362q0 -30 -25 -52t-55 -22h-434v-1237q0 -31 -24 -51t-56 -20t-56 20q-23 20 -22 51v1237h-441q-31 0 -55 22t-24 52t23 51q24 20 56 21h1033q32 0 56 -20t24 -52z" glyph-name="T" horiz-adv-x="1159" unicode="T"/><glyph d="M1255 549q1 -260 -149 -420t-409 -160t-417 160t-157 420v833q0 31 23 52q24 20 57 20t57 -20t23 -52v-833q1 -199 109 -317t304 -118t298 118q101 118 102 317v833q0 31 23 52q24 20 57 20q32 0 56 -20t23 -52v-833z" glyph-name="U" horiz-adv-x="1378" unicode="U"/><glyph d="M1329 1452q31 0 57 -20t25 -50l-608 -1359q-29 -51 -74 -51t-74 51q-661 1319 -661 1353t25 55q26 21 65 21t63 -45l578 -1178l530 1176q20 47 74 47z" glyph-name="V" horiz-adv-x="1404" unicode="V"/><glyph d="M2019 1382q0 -9 -413 -1022l-140 -333q-30 -55 -78 -55t-73 53l-291 645l-274 -643q-23 -55 -73 -55t-79 53q-604 1339 -604 1357q0 31 25 51q26 19 68 19t63 -47l524 -1163l264 620q-229 508 -229 520q0 31 25 51q26 19 68 19t62 -47l158 -348l149 348q20 47 74 47 q31 0 57 -19t26 -47t-218 -524l276 -616l476 1157q20 49 75 49q31 0 57 -19q25 -20 25 -51z" glyph-name="W" horiz-adv-x="2013" unicode="W"/><glyph d="M1278 44q0 -24 -26 -46t-62 -21q-36 0 -60 35l-514 740l-518 -740q-24 -35 -60 -35t-62 22q-46 39 -11 91l557 795l-319 461q-32 53 11 89q26 21 62 21t60 -35l280 -401l283 401q25 35 60 35t61 -22q46 -39 12 -88l-321 -461l553 -797q14 -20 14 -44z" glyph-name="X" horiz-adv-x="1228" unicode="X"/><glyph d="M1124 1390q0 -22 -14 -44l-471 -689v-606q0 -31 -24 -51q-25 -20 -57 -20t-56 20t-23 51v606l-471 689q-14 23 -14 45t26 44q26 21 62 21q37 0 59 -35l418 -608l418 608q23 35 59 35t63 -21q25 -23 25 -45z" glyph-name="Y" horiz-adv-x="1118" unicode="Y"/><glyph d="M1184 72q0 -32 -23 -52t-55 -20h-954q-31 0 -58 18q-26 18 -26 46t16 49l846 1175h-746q-32 0 -56 22t-24 52t24 51q24 20 56 21h891q31 0 58 -18t27 -46q0 -27 -17 -47l-846 -1178h809q30 0 54 -21t24 -52z" glyph-name="Z" horiz-adv-x="1251" unicode="Z"/><glyph d="M287 23q4 0 34 1q95 4 121 -38q10 -16 9 -40q0 -26 -25 -48t-55 -21h-164q-31 0 -55 22t-25 52v1532q0 31 25 53t55 20h164q31 0 55 -22t25 -46q0 -65 -63 -74q-39 -5 -68 -4q-30 1 -33 1v-1388z" glyph-name="bracketleft" horiz-adv-x="516" unicode="["/><glyph d="M846 40q0 -32 -26 -51t-64 -19t-66 42q-664 1346 -664 1380t26 54t65 20t65 -45q664 -1349 664 -1381z" glyph-name="backslash" horiz-adv-x="872" unicode="\"/><glyph d="M389 -49q-1 -31 -25 -53t-55 -21h-164q-31 0 -55 22q-43 38 -15 88q16 27 46 31q29 4 41 6t38 0q26 -1 29 -1v1388q-3 0 -29 -1q-33 -1 -72 4q-62 8 -62 69q0 31 24 53t55 20h164q31 0 56 -22t24 -51v-1532z" glyph-name="bracketright" horiz-adv-x="516" unicode="]"/><glyph d="M1626 901h-180l-422 420l-424 -420h-180l510 557h186z" glyph-name="asciicircum" horiz-adv-x="2048" unicode="^"/><glyph d="M1024 -483h-1024v143h1024v-143z" glyph-name="underscore" horiz-adv-x="1024" unicode="_"/><glyph d="M598 1085q0 -25 -24 -41t-54 -16t-51 19l-195 167q-20 16 -20 40t24 40q57 38 105 -4l197 -166q18 -14 18 -39z" glyph-name="grave" horiz-adv-x="1056" unicode="`"/><glyph d="M551 807q-143 -1 -247 -105t-103 -247q0 -143 103 -239t247 -97q100 0 185 49t130 135v320q-45 86 -130 135t-185 49zM1026 51q0 -31 -24 -51t-64 -20t-54 26q-15 26 -16 78q-134 -109 -328 -109q-194 1 -346 139t-153 342q0 204 153 349t348 145t326 -108v32q0 32 24 52 t56 20t54 -20q24 -20 24 -52v-823z" glyph-name="a" horiz-adv-x="1118" unicode="a"/><glyph d="M578 121q146 1 248 101t102 244t-104 253t-246 108q-100 0 -186 -49t-130 -137v-350q88 -170 316 -170zM591 975q192 1 343 -151t151 -358q-1 -206 -151 -348t-344 -142t-330 98q0 -47 -16 -71q-16 -23 -56 -23t-64 20t-24 51v1422q0 31 24 51t56 20t57 -20 q24 -20 23 -51v-613q139 115 331 115z" glyph-name="b" horiz-adv-x="1126" unicode="b"/><glyph d="M915 166q0 -27 -26 -53q-63 -59 -157 -99t-181 -39q-205 -1 -357 145t-153 350q0 204 153 342t357 138q76 0 159 -26t127 -58t44 -62t-25 -52q-26 -22 -52 -21q-26 0 -103 38t-150 38q-143 0 -247 -96q-104 -95 -103 -239q0 -144 103 -248t247 -105q84 0 171 57t116 57 t53 -20t24 -47z" glyph-name="c" horiz-adv-x="950" unicode="c"/><glyph d="M551 827q-143 0 -247 -107q-103 -108 -103 -252t102 -246t248 -101q100 0 186 50t129 138v330q-43 88 -129 138t-186 50zM1026 51q0 -31 -24 -51t-56 -20t-54 20q-24 20 -24 51v37q-140 -113 -332 -113q-192 -1 -344 143t-151 349q0 205 152 357t344 151q192 0 331 -111 v609q0 31 24 51t56 20t54 -20q24 -20 24 -51v-1422z" glyph-name="d" horiz-adv-x="1126" unicode="d"/><glyph d="M555 809q-94 0 -175 -45t-130 -123h602q-104 168 -297 168zM1049 554q0 -18 -25 -37t-55 -19h-766q-2 -12 -2 -37q0 -143 107 -244q108 -100 266 -100t255 129q7 8 14 18t14 18t11 11q4 2 14 8t36 6q26 1 52 -21q44 -37 15 -87q-63 -103 -180 -163t-244 -61 q-207 -1 -363 139t-157 349q0 209 148 348t344 139t328 -97t183 -267q5 -14 5 -32z" glyph-name="e" horiz-adv-x="1085" unicode="e"/><glyph d="M678 1458q0 -30 -24 -52t-49 -22t-65 12t-63 13q-96 0 -143 -75t-47 -177v-192h149q31 0 56 -22q24 -23 24 -53t-24 -52t-56 -21h-149v-764q0 -31 -25 -53q-26 -22 -56 -20q-30 0 -54 22t-25 51v764q-37 0 -57 2q-20 1 -44 19t-24 51t25 55t55 21h45v192q0 162 94 280 t252 117q53 0 129 -28t76 -68z" glyph-name="f" horiz-adv-x="507" unicode="f"/><glyph d="M551 807q-145 0 -247 -100q-102 -101 -103 -245q0 -144 103 -255t247 -111q100 0 186 50t129 137v340q-43 88 -129 136t-186 48zM1026 -57q0 -469 -543 -469q-33 0 -57 20t-23 51q0 31 25 53t55 21q195 0 290 70t95 254v118q-136 -106 -330 -106q-194 -1 -346 151 t-151 357q0 205 152 346t358 141q168 0 315 -110q0 35 4 54q4 20 22 36t53 16q33 0 57 -20t24 -52v-931z" glyph-name="g" horiz-adv-x="1126" unicode="g"/><glyph d="M858 53q0 -31 -24 -53t-56 -20q-32 0 -56 22t-24 51v570q0 195 -245 194q-61 0 -113 -32t-70 -87q-10 -25 -10 -39v-606q0 -31 -24 -53t-56 -20q-32 0 -56 22t-24 51v1420q0 31 24 51t56 20t57 -20q24 -20 23 -51v-572q96 63 193 64q177 0 291 -87t114 -255v-570z" glyph-name="h" horiz-adv-x="950" unicode="h"/><glyph d="M260 51q0 -31 -24 -51t-56 -20t-56 20t-24 51v842q0 31 25 53t55 21q30 0 56 -22q25 -22 24 -52v-842zM281 1294q0 -40 -30 -68t-71 -28q-40 0 -70 28t-30 68t30 69q30 28 70 28t71 -28q30 -28 30 -69z" glyph-name="i" horiz-adv-x="360" unicode="i"/><glyph d="M260 -55q0 -471 -545 -471q-31 0 -55 22t-25 52q0 30 25 52t55 21q195 0 290 69t95 255v940q0 31 25 53t55 23q30 0 56 -23q25 -23 24 -53v-940zM289 1294q0 -42 -30 -70t-71 -28q-40 0 -70 29t-30 69t30 69q30 28 70 28t71 -28q30 -28 30 -69z" glyph-name="j" horiz-adv-x="360" unicode="j"/><glyph d="M864 46q0 -26 -26 -48t-63 -21q-38 0 -60 39l-316 543l-139 -153v-355q0 -31 -24 -51t-56 -20t-56 20t-24 51v1422q0 31 24 51t56 20t57 -20q24 -20 23 -51v-842l283 311q25 29 57 29t58 -23q26 -24 26 -52t-20 -48l-156 -170l348 -592q8 -14 8 -40z" glyph-name="k" horiz-adv-x="876" unicode="k"/><glyph d="M260 53q0 -31 -24 -53t-56 -20q-32 0 -56 22t-24 51v1420q0 31 24 51t56 20t57 -20q24 -20 23 -51v-1420z" glyph-name="l" horiz-adv-x="360" unicode="l"/><glyph d="M1413 51q-1 -31 -23 -51t-55 -20t-57 20t-23 51v565q0 111 -54 151q-53 40 -153 40t-155 -53t-55 -138v-565q0 -31 -24 -51t-56 -20t-57 20q-24 20 -23 51v565q0 111 -54 151t-154 40t-156 -52q-54 -52 -54 -139v-565q0 -31 -24 -51t-56 -20t-56 20t-24 51v823 q0 32 24 52t56 20q68 0 78 -59q98 63 197 63q211 0 309 -110q106 110 275 110t271 -82t103 -252v-565z" glyph-name="m" horiz-adv-x="1505" unicode="m"/><glyph d="M940 51q0 -31 -24 -51t-56 -20t-56 20t-24 51v481q0 143 -70 209q-71 66 -216 66t-234 -125v-631q0 -31 -24 -51t-56 -20t-56 20t-24 51v823q0 32 24 52t56 20t57 -19q24 -19 23 -53q106 76 236 76q208 0 326 -108t118 -310v-481z" glyph-name="n" horiz-adv-x="1032" unicode="n"/><glyph d="M901 471q0 143 -103 239q-102 96 -246 97q-144 0 -248 -96q-104 -95 -103 -239q0 -144 103 -248q102 -104 246 -105q144 0 248 104q103 105 103 248zM552 950q204 0 356 -138t153 -342q0 -204 -153 -349q-154 -145 -358 -145t-356 144q-152 146 -153 350q0 204 153 342 q154 138 358 138z" glyph-name="o" horiz-adv-x="1101" unicode="o"/><glyph d="M926 462q0 144 -104 244t-247 99q-100 0 -186 -48t-129 -136v-328q45 -88 131 -140t184 -53q143 0 247 109t104 253zM1085 463q1 -205 -151 -357t-359 -151q-174 0 -315 108v-518q0 -31 -24 -51t-56 -20t-56 20t-24 51v1329q0 32 24 52t66 20t56 -25q14 -26 14 -79 q141 109 315 108q207 0 359 -141t151 -346z" glyph-name="p" horiz-adv-x="1126" unicode="p"/><glyph d="M551 805q-143 0 -247 -99q-104 -100 -103 -244q0 -144 103 -253t247 -109q100 0 186 50t129 139v329q-43 88 -129 138t-186 49zM1026 -455q0 -31 -24 -51t-56 -20t-56 20t-24 51v518q-139 -109 -315 -108q-207 -1 -359 151t-151 357q0 205 152 346t344 141t329 -108 q0 50 16 74t57 24q39 0 63 -20t24 -52v-1323z" glyph-name="q" horiz-adv-x="1126" unicode="q"/><glyph d="M698 827q0 -29 -26 -49t-56 -20t-56 24t-94 25q-68 -1 -136 -61q-70 -60 -70 -138v-557q0 -31 -24 -51t-56 -20t-56 20t-24 51v823q0 32 24 52t58 20t56 -18q23 -18 22 -51q96 74 219 73q67 0 143 -34t76 -89z" glyph-name="r" horiz-adv-x="692" unicode="r"/><glyph d="M764 303q0 -145 -106 -236t-257 -92q-107 1 -211 61t-145 154q-4 16 -4 34t26 40q27 22 55 21q28 1 42 -9t31 -36q80 -121 206 -121q86 0 146 50q59 51 59 123q0 124 -165 181q-69 25 -137 51t-117 76q-48 49 -48 137q0 89 77 151t161 62q85 0 155 -32t115 -82 q44 -55 -5 -95q-26 -20 -56 -20t-83 43q-55 43 -103 43t-74 -22q-26 -23 -27 -61q0 -38 73 -72q74 -34 160 -64t159 -102q73 -74 73 -183z" glyph-name="s" horiz-adv-x="815" unicode="s"/><glyph d="M625 74q0 -39 -80 -69t-129 -30q-147 0 -220 111t-73 266v461q-37 0 -57 2q-20 1 -44 19t-24 51q0 74 125 73v299q0 31 23 52q24 20 57 20t57 -20t23 -52v-299h149q32 0 56 -22t24 -52t-24 -50t-56 -21h-149v-461q0 -229 135 -229q22 0 64 12t69 12t51 -21t23 -52z" glyph-name="t" horiz-adv-x="618" unicode="t"/><glyph d="M932 51q0 -31 -24 -51t-56 -20t-56 19t-24 52q-106 -76 -235 -76q-207 0 -326 114t-119 319v466q0 32 24 52t56 20t56 -20t24 -52v-466q0 -289 285 -289q152 0 235 121v634q0 32 24 52t56 20t56 -20t24 -52v-823z" glyph-name="u" horiz-adv-x="1032" unicode="u"/><glyph d="M834 946q44 0 66 -22q24 -22 24 -46t-4 -32l-390 -813q-26 -51 -74 -51t-75 53q-387 797 -387 843q0 26 25 47q26 22 57 21q55 0 74 -45l309 -663l311 665q20 43 64 43z" glyph-name="v" horiz-adv-x="917" unicode="v"/><glyph d="M1254 946q44 0 68 -20t24 -46t-5 -34l-348 -813q-23 -51 -73 -51t-76 53q-117 268 -172 401l-172 -403q-23 -51 -73 -51t-80 60q-31 60 -187 438t-156 400t26 45q26 22 56 21q53 0 74 -47l268 -651l160 391q-90 211 -90 237t25 49q26 22 57 21q53 0 73 -47l269 -651 l270 653q18 45 62 45z" glyph-name="w" horiz-adv-x="1349" unicode="w"/><glyph d="M864 46q0 -24 -26 -46t-63 -20q-38 0 -58 32l-293 430l-293 -430q-20 -32 -58 -32t-64 22q-45 37 -11 88l332 485l-191 263q-12 14 -12 40t26 47q27 21 63 21t58 -33l150 -206l149 206q23 33 60 33t63 -22t25 -47q0 -26 -12 -39l-191 -263l332 -485q14 -20 14 -44z" glyph-name="x" horiz-adv-x="847" unicode="x"/><glyph d="M852 -61q0 -467 -545 -467q-33 0 -55 20t-23 51q0 31 23 51t55 21q195 0 291 70t96 254v86q-96 -61 -194 -62q-176 0 -292 92t-116 264v555q0 32 24 52t56 20t56 -20t24 -52v-555q0 -211 248 -210q84 0 139 55t55 139v571q0 32 24 52t56 20t54 -20q24 -20 24 -52v-935z " glyph-name="y" horiz-adv-x="952" unicode="y"/><glyph d="M733 942q29 0 57 -17t27 -41q0 -24 -18 -53l-510 -688h444q33 0 57 -20t24 -51t-24 -52q-24 -20 -57 -20h-594q-33 0 -59 17t-25 45q0 28 17 49l512 688h-445q-33 0 -57 20t-23 51q0 32 24 52t56 20h594z" glyph-name="z" horiz-adv-x="872" unicode="z"/><glyph d="M213 604q131 0 184 60t54 208v246q1 148 23 210t72 93t113 43t170 13h37v-150h-41q-121 0 -161 -45t-41 -184v-242q0 -156 -44 -226t-157 -100q115 -28 158 -96t43 -229v-242q0 -143 43 -186t161 -43h39v-148h-43q-119 0 -171 10t-105 42t-75 97t-21 208v245 q-1 150 -55 210t-185 61h-21l-22 -2v149l22 -2h23z" glyph-name="braceleft" horiz-adv-x="1024" unicode="{"/><glyph d="M588 -483h-150v2048h150v-2048z" glyph-name="bar" horiz-adv-x="1024" unicode="|"/><glyph d="M815 459q-133 1 -186 -59t-54 -212v-245q0 -143 -21 -207q-20 -64 -74 -98q-54 -32 -106 -42t-171 -10h-43v148h39q119 0 161 46t43 185v240q-1 157 45 227t156 98q-112 31 -156 101t-45 225v242q0 141 -44 185t-160 44h-39v150h37q201 0 278 -52q55 -35 78 -97t22 -210 v-246q-1 -150 53 -208t185 -60h23l22 2v-149l-22 2h-21z" glyph-name="braceright" horiz-adv-x="1024" unicode="}"/><glyph d="M563 608q-84 0 -171 -35t-214 -122v155q216 144 387 144q115 0 205 -32t106 -37t27 -9q158 -58 243 -58q161 -1 384 156v-156q-210 -141 -389 -141q-96 0 -256 57q-179 78 -322 78z" glyph-name="asciitilde" unicode="~"/><glyph d="M129 1362q0 40 31 66q32 26 70 26t70 -27t32 -65t-32 -68q-32 -28 -71 -28t-69 28t-31 68zM150 1141q0 31 23 50q25 19 57 19t56 -19t23 -50v-1100q1 -31 -23 -51t-57 -20t-57 20t-22 51v1100z" glyph-name="exclamdown" horiz-adv-x="460" unicode="¡"/><glyph d="M459 696q1 -74 39 -135t104 -96v465q-66 -33 -104 -96q-38 -64 -39 -138zM1038 446q0 -61 -99 -104t-177 -49v-137q0 -32 -24 -52t-56 -20t-56 20t-24 52v153q-131 39 -217 145t-86 242q0 135 86 244t217 147v185q0 31 24 51t56 20t56 -20t24 -51v-170q74 -6 161 -42 t87 -91q0 -31 -25 -53t-50 -22t-83 30q-58 29 -90 32v-510q46 6 110 39t90 33t50 -22q26 -22 26 -50z" glyph-name="cent" horiz-adv-x="1394" unicode="¢"/><glyph d="M1194 256q0 -102 -71 -179t-173 -77h-602q-28 0 -54 14t-26 42t42 104q126 228 126 364q0 57 -22 144h-131q-31 0 -56 22t-25 50q1 55 44 65q42 11 88 9q45 -1 49 -1q-41 172 -41 291q0 170 82 265t236 95t254 -93q101 -93 102 -232q0 -35 -23 -53t-50 -19q-74 0 -83 54 q-4 22 -8 48q-29 150 -180 150q-100 0 -135 -54t-35 -172t39 -280h151q33 0 57 -20q23 -19 23 -51t-24 -54t-56 -20h-117q23 -98 23 -160q0 -162 -115 -363h463q43 0 66 33q22 33 22 71q0 37 25 59t55 22t56 -22q24 -22 24 -52z" glyph-name="sterling" horiz-adv-x="1394" unicode="£"/><glyph d="M1282 215q24 -1 48 -23t24 -49t-10 -38t-19 -21t-21 -14t-26 -12t-16 -7q-172 -80 -347 -80q-272 0 -484 173t-263 438q-4 0 -39 -1q-58 -2 -95 7q-50 12 -50 56q0 45 25 63t50 19t36 2t33 0t28 -1l4 70q-6 0 -26 -1t-34 0t-36 2t-51 16t-29 51t23 57q24 20 56 20h127 q78 232 280 376t445 144q93 0 203 -26q212 -51 211 -129q-1 -31 -25 -53q-43 -39 -94 -13q-168 76 -295 76q-181 -1 -331 -103t-224 -272h504q33 0 56 -20q22 -20 22 -52t-24 -52q-24 -22 -54 -21h-542l-7 -70h465q31 -1 56 -23q24 -22 24 -53t-24 -50t-56 -19h-448 q49 -201 214 -333t369 -132q87 0 151 19t167 69q25 10 49 10z" glyph-name="currency" horiz-adv-x="1394" unicode="¤"/><glyph d="M887 733q106 0 106 -69q0 -36 -23 -56q-24 -20 -55 -20h-127v-80h127q31 0 55 -22t24 -52t-24 -51q-24 -20 -55 -21h-127v-311q0 -31 -24 -51t-56 -20t-56 20t-23 51v311h-131q-33 0 -57 20t-23 52q0 30 24 52t56 22h131v80h-131q-33 0 -63 25t-12 78q16 42 98 42h57 l-418 610q-32 53 11 90q27 21 63 21t59 -35l416 -606l417 606q23 35 60 35q36 0 62 -22t26 -44q0 -24 -14 -45l-418 -610h45z" glyph-name="yen" horiz-adv-x="1394" unicode="¥"/><glyph d="M588 -350h-150v758h150v-758zM588 674h-150v758h150v-758z" glyph-name="brokenbar" horiz-adv-x="1024" unicode="¦"/><glyph d="M657 434q103 59 103 166q0 53 -36 95t-142 100l-217 120q-107 -63 -107 -149q0 -53 33 -95t145 -108zM509 1513q155 0 247 -86t92 -235v-10h-170q-2 80 -49 130t-123 50t-119 -37t-43 -95t34 -98t116 -83l247 -134q111 -59 157 -130t46 -165t-52 -170t-132 -110 q104 -88 103 -222t-103 -224t-262 -90t-254 90q-94 92 -94 245h174v-4q0 -84 49 -130t134 -46t133 38t48 100q0 61 -44 109t-181 122l-182 100q-201 111 -201 284t178 287q-94 82 -93 210t95 216t249 88z" glyph-name="section" horiz-adv-x="1024" unicode="§"/><glyph d="M510 1130q0 -40 -32 -66t-70 -26t-70 27q-31 27 -31 65t31 64q31 25 70 25q38 0 70 -25t32 -64zM750 1130q0 -40 -32 -66t-71 -26t-69 27t-31 65q0 38 31 64q32 25 70 25t70 -25t32 -64z" glyph-name="dieresis" horiz-adv-x="1056" unicode="¨"/><glyph d="M1053 907q-26 160 -212 160q-97 0 -157 -88t-61 -249q0 -161 62 -248t173 -87q80 0 134 45t71 131h145q-10 -131 -109 -212t-247 -80q-180 0 -285 120q-104 121 -104 326t108 330q109 123 287 123q142 0 236 -73t106 -198h-147zM853 88q263 0 451 188q189 188 189 454 t-186 452t-450 186t-454 -188t-190 -452q0 -262 190 -452q90 -90 207 -139t243 -49zM852 1464q311 0 525 -216q103 -104 159 -238q56 -136 55 -284q0 -148 -56 -284q-112 -270 -402 -395q-133 -57 -281 -57q-302 0 -518 218q-217 218 -217 522t219 521q102 101 235 157 t281 56z" glyph-name="copyright" unicode="©"/><glyph d="M324 1321q-58 0 -104 -39t-46 -96t45 -92t105 -35q88 -1 131 65v131q-43 66 -131 66zM588 1004q0 -25 -20 -40q-20 -16 -54 -16q-35 0 -53 31q-63 -33 -155 -33t-178 68q-87 68 -87 173t87 176q88 71 182 71t153 -31q18 29 52 29t53 -16t20 -40v-372z" glyph-name="ordfeminine" horiz-adv-x="679" unicode="ª"/><glyph d="M938 71q0 -27 -26 -49t-58 -22t-59 27l-373 391q-16 16 -16 43t16 47l373 407q27 27 59 27t58 -22t26 -48q0 -27 -20 -47l-332 -362l332 -344q20 -20 20 -48zM580 71q0 -27 -26 -49t-58 -22t-60 27l-373 391q-16 16 -16 43t16 47l373 407q27 27 60 27q32 0 58 -22t26 -48 q0 -27 -21 -47l-332 -362l332 -344q21 -20 21 -48z" glyph-name="guillemotleft" horiz-adv-x="944" unicode="«"/><glyph d="M1452 358h-137v363h-1061v139h1198v-502z" glyph-name="logicalnot" unicode="¬"/><glyph d="M848 780q113 0 162 30t49 106q0 75 -51 108t-164 33h-129v-277h133zM872 1159q349 0 349 -229q-1 -90 -51 -148t-140 -77l187 -381h-177l-170 356h-155v-356h-158v835h315zM404 1183q-90 -91 -140 -213t-51 -244q0 -122 50 -241t138 -206q88 -91 206 -141t246 -50 q262 0 451 185t189 454t-186 455t-454 186q-267 0 -449 -185zM1591 724q0 -148 -56 -281q-56 -134 -162 -237q-106 -104 -244 -160t-279 -56q-142 0 -276 56t-242 165q-215 221 -215 518t223 526q209 209 517 209t521 -219q213 -224 213 -521z" glyph-name="registered" unicode="®"/><glyph d="M801 1112q0 -32 -22 -54t-52 -22h-397q-30 0 -52 23t-22 53t22 54q22 22 52 22h397q31 0 53 -22t21 -54z" glyph-name="macron" horiz-adv-x="1056" unicode="¯"/><glyph d="M339 973q81 0 136 58t55 139q0 80 -55 136t-136 56t-138 -55t-57 -137t56 -140q58 -57 139 -57zM625 1168q0 -120 -84 -204t-205 -83q-121 0 -204 83q-83 84 -83 204t84 204t204 84t204 -84t84 -204z" glyph-name="degree" horiz-adv-x="673" unicode="°"/><glyph d="M1452 29h-1198v141h1198v-141zM1452 713h-528v-340h-142v340h-528v139h528v340h142v-340h528v-139z" glyph-name="plusminus" unicode="±"/><glyph d="M651 604q1 -31 -23 -50t-57 -19h-444q-80 0 -80 92q1 68 31 137q30 70 53 96t39 45q16 18 64 52t94 61q47 27 61 37q94 59 94 121q0 115 -164 114q-47 0 -96 -48t-81 -48t-60 22t-27 46q0 24 35 63q102 109 231 109t225 -66t97 -197q0 -131 -133 -212q-56 -33 -116 -67 q-149 -84 -179 -214h356q31 0 55 -22t25 -52z" glyph-name="uni00B2" horiz-adv-x="698" unicode="²"/><glyph d="M682 842q0 -150 -100 -232q-100 -84 -248 -84q-68 0 -145 36t-121 87q-20 20 -20 48t24 48q26 21 54 21t92 -48t134 -48q68 0 120 42t52 120t-58 108t-138 31h-33q-29 0 -57 14t-29 47q0 33 36 57q36 23 78 29q41 6 77 26t36 57q0 38 -24 68q-25 29 -67 29t-94 -38 t-80 -37q-27 -1 -53 21t-26 52t39 62q101 84 209 84t182 -71t74 -159t-57 -145q143 -75 143 -225z" glyph-name="uni00B3" horiz-adv-x="729" unicode="³"/><glyph d="M803 1256q0 -22 -19 -42l-196 -167q-23 -19 -53 -19q-29 0 -53 16t-24 40t21 40l195 166q52 42 106 4q24 -16 23 -38z" glyph-name="acute" horiz-adv-x="1056" unicode="´"/><glyph d="M889 202q0 -32 15 -47t57 -16h18q2 0 7 1t7 1l-30 -143q-35 -10 -103 -10t-102 28q-35 28 -53 101q-95 -133 -261 -132q-167 1 -266 117l-110 -530h-181l318 1499h180l-129 -600q-14 -68 -14 -149q0 -80 52 -136t148 -55q131 0 209 92q76 92 123 312l115 536h178 l-156 -731l-4 -21q-18 -85 -18 -117z" glyph-name="uni00B5" horiz-adv-x="1150" unicode="µ"/><glyph d="M958 1393h-120v-1393h-111v1393h-176v-1393h-113v782q-172 10 -272 104t-100 248q0 152 108 248q109 96 285 97h499v-86z" glyph-name="paragraph" horiz-adv-x="1024" unicode="¶"/><glyph d="M406 702q0 -49 -37 -86q-37 -36 -88 -36t-87 36t-36 86q0 51 36 87t87 36t88 -37t37 -86z" glyph-name="periodcentered" horiz-adv-x="561" unicode="·"/><glyph d="M721 -171q0 -54 -53 -95q-54 -41 -106 -41q-52 1 -107 27t-55 57t24 48t50 17t48 -15t27 -15q27 0 26 26q0 20 -50 34t-50 56v72q0 29 22 45t52 16q80 0 74 -88q98 -41 98 -144z" glyph-name="cedilla" horiz-adv-x="1056" unicode="¸"/><glyph d="M332 604q0 -31 -23 -50t-55 -19t-56 19t-24 50v647q-66 -33 -98 -33t-54 21q-24 20 -24 51t111 87t149 57q74 0 74 -70v-760z" glyph-name="uni00B9" horiz-adv-x="419" unicode="¹"/><glyph d="M471 1194q0 57 -44 92t-103 35q-58 0 -104 -35t-46 -92t46 -96t104 -39t102 39q45 39 45 96zM324 1434q108 0 194 -68t86 -173t-86 -176t-194 -71t-196 71q-87 71 -87 176t87 173t196 68z" glyph-name="ordmasculine" horiz-adv-x="645" unicode="º"/><glyph d="M897 461q0 -25 -18 -43l-373 -391q-23 -27 -57 -27q-33 0 -59 22t-26 50t21 47l330 344l-332 362q-18 18 -18 46t25 50q26 21 60 21t56 -27l373 -407q18 -22 18 -47zM539 461q0 -25 -19 -43l-373 -391q-23 -27 -57 -27t-58 22q-26 22 -26 50t21 47l329 344l-331 362 q-19 18 -19 46t26 50q26 21 60 21t55 -27l373 -407q19 -22 19 -47z" glyph-name="guillemotright" horiz-adv-x="944" unicode="»"/><glyph d="M332 604q0 -31 -23 -50t-55 -19t-56 19t-24 50v647q-66 -33 -98 -33t-54 21q-24 20 -24 51t111 87t149 57q74 0 74 -70v-760zM1223 1400q0 -24 -13 -44l-903 -1352q-23 -37 -59 -37t-63 22q-45 38 -11 89l901 1352q23 36 60 36t63 -21t25 -45zM1171 420v182l-159 -182 h159zM1556 348q0 -31 -24 -51t-55 -21h-146v-206q0 -31 -23 -51q-24 -19 -57 -19t-57 19t-23 51v206h-323q-28 0 -56 18t-28 44q0 27 22 53l420 479q27 31 60 31q32 1 58 -21t26 -48t-19 -48l-63 -71q63 -16 63 -72v-221h146q33 0 56 -20t23 -52z" glyph-name="onequarter" horiz-adv-x="1603" unicode="¼"/><glyph d="M1573 72q0 -31 -24 -50t-56 -20h-444q-80 0 -80 92q1 74 47 176q17 36 54 78q38 43 86 77t94 60q46 27 61 37q94 59 94 121q0 115 -164 115q-47 0 -96 -48t-81 -48t-60 22t-27 45q0 24 35 64q102 109 231 109t225 -66t96 -198t-132 -211q-56 -34 -116 -68 q-151 -86 -179 -214h356q31 0 55 -21t25 -52zM1223 1400q0 -24 -13 -44l-903 -1352q-23 -37 -59 -37t-63 22q-45 38 -11 89l901 1352q23 36 60 36t63 -21t25 -45zM332 604q0 -31 -23 -50t-55 -19t-56 19t-24 50v647q-66 -33 -98 -33t-54 21q-24 20 -24 51t111 87t149 57 q74 0 74 -70v-760z" glyph-name="onehalf" horiz-adv-x="1619" unicode="½"/><glyph d="M682 842q0 -150 -100 -232q-100 -84 -248 -84q-68 0 -145 36t-121 87q-20 20 -20 48t24 48q26 21 54 21t92 -48t134 -48q68 0 120 42t52 120t-58 108t-138 31h-33q-29 0 -57 14t-29 47q0 33 36 57q36 23 78 29q41 6 77 26t36 57q0 38 -24 68q-25 29 -67 29t-94 -38 t-80 -37q-27 -1 -53 21t-26 52t39 62q101 84 209 84t182 -71t74 -159t-57 -145q143 -75 143 -225zM1479 1400q0 -24 -13 -44l-903 -1352q-23 -37 -59 -37t-63 22q-45 38 -11 89l901 1352q23 36 60 36t63 -21t25 -45zM1427 420v182l-159 -182h159zM1812 348q0 -31 -24 -51 t-55 -21h-146v-206q0 -31 -23 -51q-24 -19 -57 -19t-57 19t-23 51v206h-323q-28 0 -56 18t-28 44q0 27 22 53l420 479q27 31 60 31q32 1 58 -21t26 -48t-19 -48l-63 -71q63 -16 63 -72v-221h146q33 0 56 -20t23 -52z" glyph-name="threequarters" horiz-adv-x="1859" unicode="¾"/><glyph d="M440 1372q0 39 31 66q31 26 70 26t71 -26t31 -66q0 -40 -32 -68q-33 -28 -71 -28t-69 28t-31 68zM47 407q0 183 114 291t300 144v309q0 31 23 50q24 19 57 19t57 -18q24 -20 23 -51v-373q0 -40 -43 -62q-44 -22 -104 -35t-120 -36t-104 -82q-43 -59 -43 -155 q0 -125 103 -209t231 -84q79 0 157 39t121 104q17 27 23 35q24 29 59 30t62 -19t27 -48q0 -27 -38 -78q-68 -96 -180 -152t-231 -57q-190 -1 -342 127t-152 311z" glyph-name="questiondown" horiz-adv-x="1056" unicode="¿"/><glyph d="M977 532l-318 660l-290 -660h608zM1382 47q0 -29 -26 -48t-64 -19q-39 0 -63 45l-182 364h-744l-164 -362q-20 -47 -62 -47t-68 19q-25 19 -25 42t448 1028l150 332q32 55 76 55t73 -51q651 -1329 651 -1358zM700 1597q0 -25 -24 -41t-52 -16q-30 0 -53 19l-194 167 q-21 16 -21 40t24 40q57 38 105 -4l197 -166q18 -14 18 -39z" glyph-name="Agrave" horiz-adv-x="1366" unicode="À"/><glyph d="M977 532l-318 660l-290 -660h608zM1382 47q0 -29 -26 -48t-64 -19q-39 0 -63 45l-182 364h-744l-164 -362q-20 -47 -62 -47t-68 19q-25 19 -25 42t448 1028l150 332q32 55 76 55t73 -51q651 -1329 651 -1358zM987 1768q0 -22 -18 -42l-197 -167q-22 -19 -52 -19t-54 16 t-23 40q0 24 21 40l194 166q52 42 106 4q24 -16 23 -38z" glyph-name="Aacute" horiz-adv-x="1366" unicode="Á"/><glyph d="M977 532l-318 660l-290 -660h608zM1382 47q0 -29 -26 -48t-64 -19q-39 0 -63 45l-182 364h-744l-164 -362q-20 -47 -62 -47t-68 19q-25 19 -25 42t448 1028l150 332q32 55 76 55t73 -51q651 -1329 651 -1358zM922 1596q0 -24 -25 -40t-53 -16q-51 0 -143 91 q-48 48 -50 48q-41 -47 -99 -93t-91 -46t-57 16t-24 40t16 37t76 69t99 87q39 32 81 32q42 1 96 -47t153 -138q21 -16 21 -40z" glyph-name="Acircumflex" horiz-adv-x="1366" unicode="Â"/><glyph d="M383 1591q0 78 48 129q48 52 135 52t143 -72q35 -47 39 -47q27 0 26 63q0 55 76 56q28 0 50 -14t22 -42q0 -76 -50 -126t-110 -50q-104 0 -147 59q-38 58 -58 60q-30 0 -27 -60q2 -23 -16 -41t-59 -18q-72 0 -72 51zM977 532l-318 660l-290 -660h608zM1382 47 q0 -29 -26 -48t-64 -19q-39 0 -63 45l-182 364h-744l-164 -362q-20 -47 -62 -47t-68 19q-25 19 -25 42t448 1028l150 332q32 55 76 55t73 -51q651 -1329 651 -1358z" glyph-name="Atilde" horiz-adv-x="1366" unicode="Ã"/><glyph d="M977 532l-318 660l-290 -660h608zM1382 47q0 -29 -26 -48t-64 -19q-39 0 -63 45l-182 364h-744l-164 -362q-20 -47 -62 -47t-68 19q-25 19 -25 42t448 1028l150 332q32 55 76 55t73 -51q651 -1329 651 -1358zM643 1642q0 -40 -32 -66q-33 -26 -71 -26t-69 27t-31 65 t31 64q31 25 70 25t71 -25t31 -64zM883 1642q0 -40 -32 -66t-71 -26q-40 0 -70 27t-30 65t31 64q31 25 69 25t71 -25q32 -25 32 -64z" glyph-name="Adieresis" horiz-adv-x="1366" unicode="Ä"/><glyph d="M977 532l-318 660l-290 -660h608zM688 1487q0 31 -33 31t-32 -31t33 -31t32 31zM1382 51q0 -33 -26 -52t-64 -19q-39 0 -63 45l-182 364h-744l-164 -362q-20 -47 -62 -47t-68 19q-25 19 -25 43t581 1324q-84 42 -84 112q1 70 55 111t120 41t118 -40q53 -40 53 -112 t-77 -110q632 -1284 632 -1317z" glyph-name="Aring" horiz-adv-x="1366" unicode="Å"/><glyph d="M926 532v592l-432 -592h432zM1841 72q0 -31 -23 -52q-24 -20 -57 -20h-755q-33 0 -57 20t-23 52v317h-541l-274 -377q-25 -35 -61 -35t-62 22t-25 46q0 24 14 47l947 1280q43 61 110 62h727q33 0 57 -20t24 -52q0 -30 -26 -52q-24 -22 -55 -22h-676v-475h508q31 1 55 -21 t24 -53t-24 -51q-22 -20 -55 -20h-508v-525h676q33 0 57 -20t23 -51z" glyph-name="AE" horiz-adv-x="1888" unicode="Æ"/><glyph d="M889 -57q98 -41 98 -145q0 -54 -53 -95q-54 -41 -106 -41t-107 27t-55 57t24 48q52 35 98 2q23 -15 27 -15q27 0 27 26q0 19 -50 35t-51 56v77q-287 29 -487 242t-199 510t227 516t535 219q109 0 261 -41t151 -114q0 -31 -25 -53q-43 -38 -103 -11q-162 74 -284 74 q-246 0 -424 -177t-178 -423t178 -423t424 -177q109 0 207 41q30 12 82 34t76 23q24 -1 48 -23q23 -22 23 -55q0 -84 -274 -146q-53 -11 -90 -16v-32z" glyph-name="Ccedilla" horiz-adv-x="1298" unicode="Ç"/><glyph d="M639 1597q0 -25 -24 -41q-23 -16 -53 -16t-52 19l-195 167q-20 16 -20 40t23 40q58 38 106 -4l197 -166q18 -14 18 -39zM1042 72q0 -31 -23 -52q-24 -20 -54 -20h-758q-31 0 -55 20t-25 52v1290q0 31 25 51t55 21h758q31 0 55 -20t22 -52q0 -30 -24 -52t-53 -22h-678 v-475h508q31 1 55 -21t24 -53t-24 -51t-55 -20h-508v-523h678q31 0 54 -21t23 -52z" glyph-name="Egrave" horiz-adv-x="1089" unicode="È"/><glyph d="M1042 72q0 -31 -23 -52q-24 -20 -54 -20h-758q-31 0 -55 20t-25 52v1290q0 31 25 51t55 21h758q31 0 55 -20t22 -52q0 -30 -24 -52t-53 -22h-678v-475h508q31 1 55 -21t24 -53t-24 -51t-55 -20h-508v-523h678q31 0 54 -21t23 -52zM844 1768q0 -22 -19 -42l-196 -167 q-23 -19 -53 -19t-54 16t-22 40q0 24 20 40l195 166q51 42 105 4q24 -16 24 -38z" glyph-name="Eacute" horiz-adv-x="1089" unicode="É"/><glyph d="M850 1596q0 -24 -25 -40t-53 -16q-50 0 -142 91q-48 48 -50 48q-42 -47 -100 -93t-91 -46t-57 16t-23 40q-1 24 15 37t76 69t100 87q40 32 81 32q42 1 96 -47t152 -138q21 -16 21 -40zM1042 72q0 -31 -23 -52q-24 -20 -54 -20h-758q-31 0 -55 20t-25 52v1290q0 31 25 51 t55 21h758q31 0 55 -20t22 -52q0 -30 -24 -52t-53 -22h-678v-475h508q31 1 55 -21t24 -53t-24 -51t-55 -20h-508v-523h678q31 0 54 -21t23 -52z" glyph-name="Ecircumflex" horiz-adv-x="1089" unicode="Ê"/><glyph d="M1042 72q0 -31 -23 -52q-24 -20 -54 -20h-758q-31 0 -55 20t-25 52v1290q0 31 25 51t55 21h758q31 0 55 -20t22 -52q0 -30 -24 -52t-53 -22h-678v-475h508q31 1 55 -21t24 -53t-24 -51t-55 -20h-508v-523h678q31 0 54 -21t23 -52zM571 1642q1 -40 -31 -66t-71 -26t-70 27 t-31 65t31 64q31 25 70 25t71 -25t31 -64zM811 1642q0 -40 -32 -66q-33 -26 -71 -26t-69 27t-31 65t31 64q31 25 70 25t71 -25t31 -64z" glyph-name="Edieresis" horiz-adv-x="1089" unicode="Ë"/><glyph d="M240 1597q0 -25 -24 -41t-54 -16t-51 19l-195 167q-20 16 -20 40t23 40q56 38 106 -4l196 -166q19 -14 19 -39zM287 51q0 -31 -24 -51q-25 -20 -57 -20t-56 20t-23 51v1331q0 32 24 52q25 20 57 20t56 -20t23 -52v-1331z" glyph-name="Igrave" horiz-adv-x="413" unicode="Ì"/><glyph d="M287 51q0 -31 -24 -51q-25 -20 -57 -20t-56 20t-23 51v1331q0 32 24 52q25 20 57 20t56 -20t23 -52v-1331zM506 1768q0 -22 -19 -42l-196 -167q-23 -19 -53 -19t-53 16t-23 40t20 40l195 166q51 42 105 4q24 -16 24 -38z" glyph-name="Iacute" horiz-adv-x="413" unicode="Í"/><glyph d="M471 1596q0 -24 -25 -40q-24 -16 -52 -16q-50 0 -143 91q-48 48 -50 48q-41 -47 -99 -93t-92 -46q-32 0 -56 16t-24 40t16 37t76 69t99 87q39 32 81 32q42 1 96 -47t153 -138q20 -16 20 -40zM287 51q0 -31 -24 -51q-25 -20 -57 -20t-56 20t-23 51v1331q0 32 24 52 q25 20 57 20t56 -20t23 -52v-1331z" glyph-name="Icircumflex" horiz-adv-x="413" unicode="Î"/><glyph d="M287 51q0 -31 -24 -51q-25 -20 -57 -20t-56 20t-23 51v1331q0 32 24 52q25 20 57 20t56 -20t23 -52v-1331zM193 1642q0 -40 -32 -66t-71 -26t-70 27q-30 27 -30 65t30 64q31 25 70 25t71 -25t32 -64zM432 1642q0 -40 -32 -66t-70 -26t-70 27q-31 27 -31 65t31 64 q31 25 70 25q38 0 70 -25t32 -64z" glyph-name="Idieresis" horiz-adv-x="413" unicode="Ï"/><glyph d="M1223 721q0 233 -168 400t-402 167h-368v-495h254q33 -1 57 -21t22 -51q0 -31 -24 -51t-55 -21h-254v-504h368q233 0 402 171q168 172 168 405zM1382 722q0 -294 -217 -508t-512 -214h-448q-31 0 -55 20t-25 52v577q-2 0 -39 -1t-76 5t-50 24q-11 19 -11 44t10 41t37 22 t40 8t50 2q37 -1 39 -1v569q0 31 25 51t55 21h448q295 0 512 -209t217 -503z" glyph-name="Eth" horiz-adv-x="1437" unicode="Ð"/><glyph d="M1235 61q-1 -33 -21 -57t-66 -22q-46 0 -73 41l-788 1126v-1098q0 -31 -24 -51q-25 -20 -57 -20t-56 20t-23 51v1321q0 35 21 58q22 22 66 22t79 -49l782 -1118v1097q0 32 24 52q25 20 57 20t56 -20t23 -52v-1321zM434 1591q0 78 48 129q48 52 135 52t143 -72 q35 -47 39 -47q27 0 26 63q0 55 76 56q29 0 51 -14t21 -42q0 -76 -49 -126q-48 -50 -110 -50q-106 0 -146 59q-39 59 -60 60q-31 0 -26 -60q2 -23 -16 -41t-60 -18q-72 0 -72 51z" glyph-name="Ntilde" horiz-adv-x="1361" unicode="Ñ"/><glyph d="M1417 717q0 246 -176 423t-423 177t-425 -177t-178 -423t178 -423t425 -177t423 177t176 423zM1577 717q0 -307 -226 -527q-227 -220 -535 -219q-308 0 -534 219q-226 218 -226 526t226 527t534 219t534 -219t227 -526zM834 1597q0 -25 -24 -41t-54 -16t-51 19l-195 167 q-20 16 -20 40t23 40q57 38 105 -4l197 -166q19 -14 19 -39z" glyph-name="Ograve" horiz-adv-x="1632" unicode="Ò"/><glyph d="M1417 717q0 246 -176 423t-423 177t-425 -177t-178 -423t178 -423t425 -177t423 177t176 423zM1577 717q0 -307 -226 -527q-227 -220 -535 -219q-308 0 -534 219q-226 218 -226 526t226 527t534 219t534 -219t227 -526zM1110 1768q0 -22 -18 -42l-197 -167 q-23 -19 -53 -19t-52 16q-24 16 -24 40t20 40l195 166q51 42 105 4q24 -16 24 -38z" glyph-name="Oacute" horiz-adv-x="1632" unicode="Ó"/><glyph d="M1085 1596q-1 -24 -25 -40t-52 -16q-51 0 -143 91q-48 48 -50 48q-41 -47 -99 -93t-92 -46t-56 16q-24 16 -24 40t16 37t76 69t99 87q39 32 81 32q42 1 96 -47t153 -138q20 -16 20 -40zM1417 717q0 246 -176 423t-423 177t-425 -177t-178 -423t178 -423t425 -177t423 177 t176 423zM1577 717q0 -307 -226 -527q-227 -220 -535 -219q-308 0 -534 219q-226 218 -226 526t226 527t534 219t534 -219t227 -526z" glyph-name="Ocircumflex" horiz-adv-x="1632" unicode="Ô"/><glyph d="M1417 717q0 246 -176 423t-423 177t-425 -177t-178 -423t178 -423t425 -177t423 177t176 423zM1577 717q0 -307 -226 -527q-227 -220 -535 -219q-308 0 -534 219q-226 218 -226 526t226 527t534 219t534 -219t227 -526zM557 1591q0 78 48 129q48 52 135 52t143 -72 q35 -47 39 -47q27 0 26 63q0 55 76 56q28 0 50 -14t22 -42q0 -76 -49 -126t-111 -50q-106 0 -145 59t-60 60q-31 0 -26 -60q1 -23 -17 -41t-59 -18q-72 0 -72 51z" glyph-name="Otilde" horiz-adv-x="1632" unicode="Õ"/><glyph d="M1417 717q0 246 -176 423t-423 177t-425 -177t-178 -423t178 -423t425 -177t423 177t176 423zM1577 717q0 -307 -226 -527q-227 -220 -535 -219q-308 0 -534 219q-226 218 -226 526t226 527t534 219t534 -219t227 -526zM797 1642q0 -40 -32 -66t-71 -26q-40 0 -70 27 t-30 65t31 64q31 25 69 25t71 -25q32 -25 32 -64zM1036 1642q0 -40 -32 -66t-70 -26q-39 0 -70 27q-30 27 -30 65t30 64q31 25 70 25q38 0 70 -25t32 -64z" glyph-name="Odieresis" horiz-adv-x="1632" unicode="Ö"/><glyph d="M1427 141l-98 -96l-469 467l-469 -467l-98 96l469 469l-469 469l98 99l469 -469l469 469l98 -99l-469 -469z" glyph-name="multiply" unicode="×"/><glyph d="M817 1317q-246 0 -424 -177t-178 -423q0 -158 81 -296t218 -220l524 1073q-104 43 -221 43zM1417 717q0 141 -64 268q-65 127 -179 211l-517 -1059q74 -20 160 -20q248 0 424 177t176 423zM1577 717q0 -307 -226 -527t-534 -219q-119 0 -223 33q-23 -35 -61 -35 q-37 -1 -63 19t-26 51q0 2 7 27q-180 100 -288 275t-108 376q1 307 227 526t535 219q150 0 285 -55q29 59 80 59q30 0 56 -22t26 -46q0 -26 -23 -65q156 -106 246 -269t90 -347z" glyph-name="Oslash" horiz-adv-x="1632" unicode="Ø"/><glyph d="M1255 549q1 -260 -149 -420t-409 -160t-417 160t-157 420v833q0 31 23 52q24 20 57 20t57 -20t23 -52v-833q1 -199 109 -317t304 -118t298 118q101 118 102 317v833q0 31 23 52q24 20 57 20q32 0 56 -20t23 -52v-833zM741 1597q1 -25 -23 -41t-54 -16t-52 19l-194 167 q-20 16 -20 40t23 40q57 38 105 -4l197 -166q18 -14 18 -39z" glyph-name="Ugrave" horiz-adv-x="1378" unicode="Ù"/><glyph d="M1255 549q1 -260 -149 -420t-409 -160t-417 160t-157 420v833q0 31 23 52q24 20 57 20t57 -20t23 -52v-833q1 -199 109 -317t304 -118t298 118q101 118 102 317v833q0 31 23 52q24 20 57 20q32 0 56 -20t23 -52v-833zM1008 1768q0 -22 -19 -42l-196 -167q-23 -19 -53 -19 t-54 16t-22 40q0 24 20 40l195 166q51 42 105 4q24 -16 24 -38z" glyph-name="Uacute" horiz-adv-x="1378" unicode="Ú"/><glyph d="M963 1596q0 -24 -25 -40q-24 -16 -52 -16q-51 0 -144 91q-48 48 -50 48q-41 -47 -99 -93t-91 -46t-57 16q-23 16 -23 40t15 37t75 69t100 87q39 32 81 32q43 1 97 -47t152 -138q21 -16 21 -40zM1255 549q1 -260 -149 -420t-409 -160t-417 160t-157 420v833q0 31 23 52 q24 20 57 20t57 -20t23 -52v-833q1 -199 109 -317t304 -118t298 118q101 118 102 317v833q0 31 23 52q24 20 57 20q32 0 56 -20t23 -52v-833z" glyph-name="Ucircumflex" horiz-adv-x="1378" unicode="Û"/><glyph d="M694 1642q0 -40 -32 -66t-70 -26q-39 0 -70 27q-30 27 -30 65t30 64q31 25 70 25q38 0 70 -25t32 -64zM934 1642q0 -40 -32 -66t-71 -26t-69 27t-31 65q0 38 31 64q32 25 70 25t70 -25t32 -64zM1255 549q1 -260 -149 -420t-409 -160t-417 160t-157 420v833q0 31 23 52 q24 20 57 20t57 -20t23 -52v-833q1 -199 109 -317t304 -118t298 118q101 118 102 317v833q0 31 23 52q24 20 57 20q32 0 56 -20t23 -52v-833z" glyph-name="Udieresis" horiz-adv-x="1378" unicode="Ü"/><glyph d="M1124 1390q0 -22 -14 -44l-471 -689v-606q0 -31 -24 -51q-25 -20 -57 -20t-56 20t-23 51v606l-471 689q-14 23 -14 45t26 44q26 21 62 21q37 0 59 -35l418 -608l418 608q23 35 59 35t63 -21q25 -23 25 -45zM768 1720q28 0 52 -16t24 -38t-19 -42l-196 -168 q-23 -18 -53 -18t-54 16t-22 40q0 24 20 40l195 166q25 20 53 20z" glyph-name="Yacute" horiz-adv-x="1118" unicode="Ý"/><glyph d="M887 734q0 138 -76 218t-221 80h-303v-610h303q129 0 213 87t84 225zM1047 736q-1 -198 -135 -329q-134 -130 -322 -131h-303v-225q0 -31 -24 -51q-25 -20 -57 -20t-56 20t-23 51v1331q0 32 24 52q25 20 57 20t56 -20t23 -52v-202h303q207 0 332 -123t125 -321z" glyph-name="Thorn" horiz-adv-x="1101" unicode="Þ"/><glyph d="M1096 459q0 -201 -144 -330t-346 -129h-172q-32 0 -56 20t-24 52t24 51q24 20 56 20h172q139 0 235 88q95 89 95 229t-98 218t-246 78h-119q-33 0 -57 20t-25 52q0 32 25 54t57 21q127 0 192 42t65 162t-73 166q-72 46 -183 46q-110 0 -162 -68t-52 -166v-1034 q0 -31 -24 -51t-56 -20t-56 20t-24 51v1034q0 160 100 270q100 109 274 109q175 0 295 -87t120 -271q0 -147 -82 -244q137 -52 213 -156t76 -247z" glyph-name="germandbls" horiz-adv-x="1140" unicode="ß"/><glyph d="M608 1085q0 -25 -24 -41t-54 -16t-51 19l-194 167q-21 16 -21 40t24 40q57 38 105 -4l197 -166q18 -14 18 -39zM551 807q-143 -1 -247 -105t-103 -247q0 -143 103 -239t247 -97q100 0 185 49t130 135v320q-45 86 -130 135t-185 49zM1026 51q0 -31 -24 -51t-64 -20t-54 26 q-15 26 -16 78q-134 -109 -328 -109q-194 1 -346 139t-153 342q0 204 153 349t348 145t326 -108v32q0 32 24 52t56 20t54 -20q24 -20 24 -52v-823z" glyph-name="agrave" horiz-adv-x="1118" unicode="à"/><glyph d="M551 807q-143 -1 -247 -105t-103 -247q0 -143 103 -239t247 -97q100 0 185 49t130 135v320q-45 86 -130 135t-185 49zM1026 51q0 -31 -24 -51t-64 -20t-54 26q-15 26 -16 78q-134 -109 -328 -109q-194 1 -346 139t-153 342q0 204 153 349t348 145t326 -108v32q0 32 24 52 t56 20t54 -20q24 -20 24 -52v-823zM834 1256q0 -22 -19 -42l-197 -167q-22 -19 -52 -19t-54 16t-23 40q0 24 21 40l195 166q51 42 105 4q24 -16 24 -38z" glyph-name="aacute" horiz-adv-x="1118" unicode="á"/><glyph d="M551 807q-143 -1 -247 -105t-103 -247q0 -143 103 -239t247 -97q100 0 185 49t130 135v320q-45 86 -130 135t-185 49zM1026 51q0 -31 -24 -51t-64 -20t-54 26q-15 26 -16 78q-134 -109 -328 -109q-194 1 -346 139t-153 342q0 204 153 349t348 145t326 -108v32q0 32 24 52 t56 20t54 -20q24 -20 24 -52v-823zM819 1084q-1 -24 -25 -40t-52 -16q-50 0 -143 91q-48 48 -50 48q-41 -47 -99 -93t-92 -46t-56 16q-24 16 -24 40t16 37t76 69t99 87q39 32 81 32q42 1 96 -47t153 -138q20 -16 20 -40z" glyph-name="acircumflex" horiz-adv-x="1118" unicode="â"/><glyph d="M551 807q-143 -1 -247 -105t-103 -247q0 -143 103 -239t247 -97q100 0 185 49t130 135v320q-45 86 -130 135t-185 49zM1026 51q0 -31 -24 -51t-64 -20t-54 26q-15 26 -16 78q-134 -109 -328 -109q-194 1 -346 139t-153 342q0 204 153 349t348 145t326 -108v32q0 32 24 52 t56 20t54 -20q24 -20 24 -52v-823zM645 1141q27 0 27 63q0 55 76 56q29 0 50 -14t21 -42q0 -76 -49 -126q-48 -50 -110 -50q-106 0 -146 59q-39 59 -59 60q-32 0 -27 -60q2 -23 -16 -41t-60 -18q-72 0 -71 51q0 78 48 129q48 52 135 52t142 -72q35 -47 39 -47z" glyph-name="atilde" horiz-adv-x="1118" unicode="ã"/><glyph d="M541 1130q0 -40 -32 -66t-71 -26q-40 0 -70 27t-30 65t31 64q31 25 69 25t71 -25q32 -25 32 -64zM780 1130q0 -40 -32 -66t-70 -26q-39 0 -70 27q-30 27 -30 65t30 64q31 25 70 25q38 0 70 -25t32 -64zM551 807q-143 -1 -247 -105t-103 -247q0 -143 103 -239t247 -97 q100 0 185 49t130 135v320q-45 86 -130 135t-185 49zM1026 51q0 -31 -24 -51t-64 -20t-54 26q-15 26 -16 78q-134 -109 -328 -109q-194 1 -346 139t-153 342q0 204 153 349t348 145t326 -108v32q0 32 24 52t56 20t54 -20q24 -20 24 -52v-823z" glyph-name="adieresis" horiz-adv-x="1118" unicode="ä"/><glyph d="M551 807q-143 -1 -247 -105t-103 -247q0 -143 103 -239t247 -97q100 0 185 49t130 135v320q-45 86 -130 135t-185 49zM584 1169q0 31 -33 31t-33 -31t33 -31t33 31zM1026 51q0 -31 -24 -51t-64 -20t-54 26q-15 26 -16 78q-134 -109 -328 -109q-194 1 -346 139t-153 342 q0 204 153 349t348 145t326 -108v32q0 32 24 52t56 20t54 -20q24 -20 24 -52v-823zM551 1313q66 -1 119 -41t53 -102t-53 -102t-119 -40t-120 40t-54 101t54 103t120 41z" glyph-name="aring" horiz-adv-x="1118" unicode="å"/><glyph d="M668 340q0 92 -67 161t-160 69t-167 -70t-74 -164t73 -156q73 -61 167 -61q94 1 161 65t67 156zM1196 809q-94 0 -175 -45t-130 -123h604q-104 168 -299 168zM1690 569q0 -31 -25 -51t-55 -20h-764q-4 -25 -4 -35q0 -143 107 -244q108 -100 251 -100q174 0 270 127 q4 4 10 11q7 10 22 30t50 20q35 1 61 -21q46 -38 11 -87q-154 -223 -422 -224q-120 -1 -234 51t-188 144q-51 -90 -142 -142t-196 -53q-164 1 -282 101t-119 260q0 160 120 268t281 107q123 0 213 -56q-43 152 -223 152q-94 1 -170 -65q-53 -45 -108 -2q-25 19 -25 48t31 64 q96 98 272 98q111 0 205 -49t145 -143q72 92 181 142t229 50q178 0 310 -97t184 -267q4 -13 4 -17z" glyph-name="ae" horiz-adv-x="1726" unicode="æ"/><glyph d="M623 -57q98 -41 98 -145q0 -54 -53 -95q-54 -41 -106 -41t-107 27t-55 57t24 48q52 35 98 2q23 -15 27 -15q27 0 26 26q0 21 -50 35t-50 56q0 76 2 84q-182 29 -309 168q-127 140 -127 332t153 330t357 138q74 0 160 -26t128 -60t42 -62t-25 -50q-26 -22 -52 -21 q-26 0 -106 38t-147 38q-143 0 -247 -96q-104 -95 -103 -239q0 -144 103 -248t247 -105q91 0 216 86q73 50 124 8q24 -20 24 -47t-26 -53q-100 -100 -268 -131q2 -12 2 -39z" glyph-name="ccedilla" horiz-adv-x="950" unicode="ç"/><glyph d="M578 1085q0 -25 -24 -41t-54 -16t-51 19l-195 167q-20 16 -20 40t23 40q57 38 105 -4l197 -166q19 -14 19 -39zM555 809q-94 0 -175 -45t-130 -123h602q-104 168 -297 168zM1049 554q0 -18 -25 -37t-55 -19h-766q-2 -12 -2 -37q0 -143 107 -244q108 -100 266 -100 t255 129q7 8 14 18t14 18t11 11q4 2 14 8t36 6q26 1 52 -21q44 -37 15 -87q-63 -103 -180 -163t-244 -61q-207 -1 -363 139t-157 349q0 209 148 348t344 139t328 -97t183 -267q5 -14 5 -32z" glyph-name="egrave" horiz-adv-x="1085" unicode="è"/><glyph d="M555 809q-94 0 -175 -45t-130 -123h602q-104 168 -297 168zM1049 554q0 -18 -25 -37t-55 -19h-766q-2 -12 -2 -37q0 -143 107 -244q108 -100 266 -100t255 129q7 8 14 18t14 18t11 11q4 2 14 8t36 6q26 1 52 -21q44 -37 15 -87q-63 -103 -180 -163t-244 -61 q-207 -1 -363 139t-157 349q0 209 148 348t344 139t328 -97t183 -267q5 -14 5 -32zM834 1256q0 -22 -19 -42l-197 -167q-22 -19 -52 -19t-54 16t-23 40q0 24 21 40l195 166q51 42 105 4q24 -16 24 -38z" glyph-name="eacute" horiz-adv-x="1085" unicode="é"/><glyph d="M555 809q-94 0 -175 -45t-130 -123h602q-104 168 -297 168zM1049 554q0 -18 -25 -37t-55 -19h-766q-2 -12 -2 -37q0 -143 107 -244q108 -100 266 -100t255 129q7 8 14 18t14 18t11 11q4 2 14 8t36 6q26 1 52 -21q44 -37 15 -87q-63 -103 -180 -163t-244 -61 q-207 -1 -363 139t-157 349q0 209 148 348t344 139t328 -97t183 -267q5 -14 5 -32zM819 1084q-1 -24 -25 -40t-52 -16q-50 0 -143 91q-48 48 -50 48q-41 -47 -99 -93t-92 -46t-56 16q-24 16 -24 40t16 37t76 69t99 87q39 32 81 32q42 1 96 -47t153 -138q20 -16 20 -40z" glyph-name="ecircumflex" horiz-adv-x="1085" unicode="ê"/><glyph d="M530 1130q0 -40 -32 -66t-70 -26q-39 0 -70 27q-30 27 -30 65t30 64q31 25 70 25q38 0 70 -25t32 -64zM770 1130q0 -40 -32 -66t-70 -26t-70 27q-31 27 -31 65t31 64q31 25 70 25q38 0 70 -25t32 -64zM555 809q-94 0 -175 -45t-130 -123h602q-104 168 -297 168zM1049 554 q0 -18 -25 -37t-55 -19h-766q-2 -12 -2 -37q0 -143 107 -244q108 -100 266 -100t255 129q7 8 14 18t14 18t11 11q4 2 14 8t36 6q26 1 52 -21q44 -37 15 -87q-63 -103 -180 -163t-244 -61q-207 -1 -363 139t-157 349q0 209 148 348t344 139t328 -97t183 -267q5 -14 5 -32z " glyph-name="edieresis" horiz-adv-x="1085" unicode="ë"/><glyph d="M199 1085q0 -25 -24 -41q-25 -16 -55 -16t-50 19l-195 167q-20 16 -20 40t23 40q56 38 106 -4l196 -166q19 -14 19 -39zM260 51q0 -31 -24 -51t-56 -20t-56 20t-24 51v842q0 31 25 53t55 21q30 0 56 -22q25 -22 24 -52v-842z" glyph-name="igrave" horiz-adv-x="360" unicode="ì"/><glyph d="M260 51q0 -31 -24 -51t-56 -20t-56 20t-24 51v842q0 31 25 53t55 21q30 0 56 -22q25 -22 24 -52v-842zM475 1256q0 -22 -18 -42l-197 -167q-22 -19 -52 -19t-54 16t-23 40q0 24 21 40l194 166q52 42 106 4q24 -16 23 -38z" glyph-name="iacute" horiz-adv-x="360" unicode="í"/><glyph d="M260 51q0 -31 -24 -51t-56 -20t-56 20t-24 51v842q0 31 25 53t55 21q30 0 56 -22q25 -22 24 -52v-842zM451 1084q0 -24 -25 -40q-24 -16 -52 -16q-51 0 -144 91q-48 48 -50 48q-41 -47 -99 -93t-91 -46t-57 16q-23 16 -23 40t15 37t75 69t100 87q39 32 81 32q43 1 97 -47 t152 -138q21 -16 21 -40z" glyph-name="icircumflex" horiz-adv-x="360" unicode="î"/><glyph d="M162 1130q0 -40 -32 -66t-71 -26t-69 27t-31 65q0 38 31 64q32 25 70 25t70 -25t32 -64zM401 1130q1 -40 -31 -66t-71 -26t-70 27t-31 65t31 64q31 25 70 25t71 -25t31 -64zM260 51q0 -31 -24 -51t-56 -20t-56 20t-24 51v842q0 31 25 53t55 21q30 0 56 -22q25 -22 24 -52 v-842z" glyph-name="idieresis" horiz-adv-x="360" unicode="ï"/><glyph d="M901 479q0 143 -103 243q-102 100 -246 99q-144 0 -248 -99q-104 -98 -103 -242q0 -144 103 -252q102 -108 246 -108t248 108q103 108 103 251zM1061 479q0 -205 -153 -355q-154 -150 -358 -149q-204 0 -356 150q-152 151 -153 355q0 204 152 345t349 141t341 -120 q-33 154 -125 264q-125 -68 -153 -68q-29 0 -53 22t-24 44t10 43t53 41q42 20 46 22q-119 74 -248 74q-31 0 -55 22t-25 52q0 72 97 72q195 0 378 -142q119 64 143 64q25 0 49 -24t23 -54q0 -47 -102 -96q164 -207 164 -500v-203z" glyph-name="eth" horiz-adv-x="1101" unicode="ð"/><glyph d="M940 51q0 -31 -24 -51t-56 -20t-56 20t-24 51v481q0 143 -70 209q-71 66 -216 66t-234 -125v-631q0 -31 -24 -51t-56 -20t-56 20t-24 51v823q0 32 24 52t56 20t57 -19q24 -19 23 -53q106 76 236 76q208 0 326 -108t118 -310v-481zM645 1141q27 0 27 63q0 55 76 56 q29 0 50 -14t21 -42q0 -76 -49 -126q-48 -50 -110 -50q-106 0 -146 59q-39 59 -59 60q-32 0 -27 -60q2 -23 -16 -41t-60 -18q-72 0 -71 51q0 78 48 129q48 52 135 52t142 -72q35 -47 39 -47z" glyph-name="ntilde" horiz-adv-x="1032" unicode="ñ"/><glyph d="M567 1085q1 -25 -23 -41t-54 -16t-52 19l-194 167q-20 16 -20 40t23 40q57 38 105 -4l197 -166q18 -14 18 -39zM901 471q0 143 -103 239q-102 96 -246 97q-144 0 -248 -96q-104 -95 -103 -239q0 -144 103 -248q102 -104 246 -105q144 0 248 104q103 105 103 248zM552 950 q204 0 356 -138t153 -342q0 -204 -153 -349q-154 -145 -358 -145t-356 144q-152 146 -153 350q0 204 153 342q154 138 358 138z" glyph-name="ograve" horiz-adv-x="1101" unicode="ò"/><glyph d="M901 471q0 143 -103 239q-102 96 -246 97q-144 0 -248 -96q-104 -95 -103 -239q0 -144 103 -248q102 -104 246 -105q144 0 248 104q103 105 103 248zM552 950q204 0 356 -138t153 -342q0 -204 -153 -349q-154 -145 -358 -145t-356 144q-152 146 -153 350q0 204 153 342 q154 138 358 138zM823 1256q0 -22 -18 -42l-197 -167q-22 -19 -52 -19t-54 16t-23 40q0 24 21 40l194 166q53 42 106 4q23 -16 23 -38z" glyph-name="oacute" horiz-adv-x="1101" unicode="ó"/><glyph d="M901 471q0 143 -103 239q-102 96 -246 97q-144 0 -248 -96q-104 -95 -103 -239q0 -144 103 -248q102 -104 246 -105q144 0 248 104q103 105 103 248zM552 950q204 0 356 -138t153 -342q0 -204 -153 -349q-154 -145 -358 -145t-356 144q-152 146 -153 350q0 204 153 342 q154 138 358 138zM819 1084q-1 -24 -25 -40t-52 -16q-50 0 -143 91q-48 48 -50 48q-41 -47 -99 -93t-92 -46t-56 16q-24 16 -24 40t16 37t76 69t99 87q39 32 81 32q42 1 96 -47t153 -138q20 -16 20 -40z" glyph-name="ocircumflex" horiz-adv-x="1101" unicode="ô"/><glyph d="M901 471q0 143 -103 239q-102 96 -246 97q-144 0 -248 -96q-104 -95 -103 -239q0 -144 103 -248q102 -104 246 -105q144 0 248 104q103 105 103 248zM552 950q204 0 356 -138t153 -342q0 -204 -153 -349q-154 -145 -358 -145t-356 144q-152 146 -153 350q0 204 153 342 q154 138 358 138zM645 1141q27 0 27 63q0 55 76 56q29 0 50 -14t21 -42q0 -76 -49 -126q-48 -50 -110 -50q-106 0 -146 59q-39 59 -59 60q-32 0 -27 -60q2 -23 -16 -41t-60 -18q-72 0 -71 51q0 78 48 129q48 52 135 52t142 -72q35 -47 39 -47z" glyph-name="otilde" horiz-adv-x="1101" unicode="õ"/><glyph d="M530 1130q0 -40 -32 -66t-70 -26q-39 0 -70 27q-30 27 -30 65t30 64q31 25 70 25q38 0 70 -25t32 -64zM770 1130q0 -40 -32 -66t-70 -26t-70 27q-31 27 -31 65t31 64q31 25 70 25q38 0 70 -25t32 -64zM901 471q0 143 -103 239q-102 96 -246 97q-144 0 -248 -96 q-104 -95 -103 -239q0 -144 103 -248q102 -104 246 -105q144 0 248 104q103 105 103 248zM552 950q204 0 356 -138t153 -342q0 -204 -153 -349q-154 -145 -358 -145t-356 144q-152 146 -153 350q0 204 153 342q154 138 358 138z" glyph-name="odieresis" horiz-adv-x="1101" unicode="ö"/><glyph d="M979 242q0 -51 -37 -88t-88 -37t-88 37t-37 88t37 88t88 37t88 -37t37 -88zM1452 541h-1198v139h1198v-139zM979 980q0 -52 -37 -89t-88 -37t-88 37t-37 89t37 89t88 37t88 -37t37 -89z" glyph-name="divide" unicode="÷"/><glyph d="M551 807q-143 0 -247 -96t-103 -240q0 -176 141 -281l303 605q-47 12 -94 12zM901 476q0 148 -119 247l-299 -598q33 -6 68 -6q143 0 247 104q103 105 103 253zM1061 471q0 -205 -153 -350t-357 -146q-68 0 -133 19q-25 -25 -59 -25q-33 1 -59 21t-26 40t2 25 q-109 70 -172 181t-63 235q0 203 153 341t357 138q84 0 164 -24q20 14 53 14q34 0 60 -24t20 -56q98 -68 156 -170t57 -219z" glyph-name="oslash" horiz-adv-x="1101" unicode="ø"/><glyph d="M557 1085q1 -25 -23 -41t-54 -16t-52 19l-195 167q-20 16 -20 40t24 40q57 38 105 -4l197 -166q18 -14 18 -39zM932 51q0 -31 -24 -51t-56 -20t-56 19t-24 52q-106 -76 -235 -76q-207 0 -326 114t-119 319v466q0 32 24 52t56 20t56 -20t24 -52v-466q0 -289 285 -289 q152 0 235 121v634q0 32 24 52t56 20t56 -20t24 -52v-823z" glyph-name="ugrave" horiz-adv-x="1032" unicode="ù"/><glyph d="M932 51q0 -31 -24 -51t-56 -20t-56 19t-24 52q-106 -76 -235 -76q-207 0 -326 114t-119 319v466q0 32 24 52t56 20t56 -20t24 -52v-466q0 -289 285 -289q152 0 235 121v634q0 32 24 52t56 20t56 -20t24 -52v-823zM813 1256q0 -22 -18 -42l-197 -167q-22 -19 -52 -19 t-54 16t-23 40q0 24 20 40l195 166q52 42 106 4q24 -16 23 -38z" glyph-name="uacute" horiz-adv-x="1032" unicode="ú"/><glyph d="M932 51q0 -31 -24 -51t-56 -20t-56 19t-24 52q-106 -76 -235 -76q-207 0 -326 114t-119 319v466q0 32 24 52t56 20t56 -20t24 -52v-466q0 -289 285 -289q152 0 235 121v634q0 32 24 52t56 20t56 -20t24 -52v-823zM799 1084q0 -24 -25 -40q-24 -16 -52 -16q-52 0 -143 91 q-48 48 -51 48q-41 -47 -99 -93t-91 -46q-32 0 -56 16t-24 40t16 37t75 69q60 56 99 87q39 32 81 32q43 1 97 -47t152 -138q21 -16 21 -40z" glyph-name="ucircumflex" horiz-adv-x="1032" unicode="û"/><glyph d="M500 1130q0 -40 -32 -66t-71 -26t-69 27t-31 65q0 38 31 64q32 25 70 25t70 -25t32 -64zM739 1130q1 -40 -31 -66t-71 -26t-70 27t-31 65t31 64q31 25 70 25t71 -25t31 -64zM932 51q0 -31 -24 -51t-56 -20t-56 19t-24 52q-106 -76 -235 -76q-207 0 -326 114t-119 319v466 q0 32 24 52t56 20t56 -20t24 -52v-466q0 -289 285 -289q152 0 235 121v634q0 32 24 52t56 20t56 -20t24 -52v-823z" glyph-name="udieresis" horiz-adv-x="1032" unicode="ü"/><glyph d="M772 1256q0 -22 -18 -42l-197 -167q-20 -19 -51 -19q-30 0 -54 16t-24 40t21 40l194 166q51 42 105 4q24 -16 24 -38zM852 -61q0 -467 -545 -467q-33 0 -55 20t-23 51q0 31 23 51t55 21q195 0 291 70t96 254v86q-96 -61 -194 -62q-176 0 -292 92t-116 264v555q0 32 24 52 t56 20t56 -20t24 -52v-555q0 -211 248 -210q84 0 139 55t55 139v571q0 32 24 52t56 20t54 -20q24 -20 24 -52v-935z" glyph-name="yacute" horiz-adv-x="952" unicode="ý"/><glyph d="M926 473q0 145 -102 245t-249 101q-100 0 -186 -49t-129 -137v-332q45 -88 130 -140t185 -52q143 -1 247 109t104 255zM1085 473q1 -207 -151 -361t-344 -153q-192 0 -330 111v-523q0 -31 -24 -53t-56 -20q-32 0 -56 22t-24 51v1842q0 31 25 53t59 20q34 0 55 -19 q22 -19 21 -54v-533q142 111 332 111q190 1 342 -143t151 -351z" glyph-name="thorn" horiz-adv-x="1126" unicode="þ"/><glyph d="M852 -61q0 -467 -545 -467q-33 0 -55 20t-23 51q0 31 23 51t55 21q195 0 291 70t96 254v86q-96 -61 -194 -62q-176 0 -292 92t-116 264v555q0 32 24 52t56 20t56 -20t24 -52v-555q0 -211 248 -210q84 0 139 55t55 139v571q0 32 24 52t56 20t54 -20q24 -20 24 -52v-935z M459 1130q0 -40 -32 -66t-71 -26q-40 0 -70 27t-30 65t31 64q31 25 69 25t71 -25q32 -25 32 -64zM698 1130q0 -40 -32 -66t-70 -26q-39 0 -70 27q-30 27 -30 65t30 64q31 25 70 25q38 0 70 -25t32 -64z" glyph-name="ydieresis" horiz-adv-x="952" unicode="ÿ"/><glyph d="M1182 215q24 -1 48 -23q23 -22 23 -54t-34 -56q-72 -51 -187 -81t-215 -30q-309 0 -535 219q-226 218 -226 526t226 527t535 219q109 0 261 -41t151 -114q0 -31 -25 -53q-43 -38 -94 -13q-168 76 -293 76q-246 0 -424 -177t-178 -423t178 -423t424 -177q129 0 316 88 q25 10 49 10zM1110 1768q0 -22 -18 -42l-197 -167q-23 -19 -53 -19t-52 16q-24 16 -24 40t20 40l195 166q51 42 105 4q24 -16 24 -38z" glyph-name="Cacute" horiz-adv-x="1298" unicode="Ć"/><glyph d="M834 1256q0 -22 -19 -42l-197 -167q-20 -19 -51 -19t-55 16t-23 40q0 24 21 40l195 166q51 42 105 4q24 -16 24 -38zM915 166q0 -27 -26 -53q-63 -59 -157 -99t-181 -39q-205 -1 -357 145t-153 350q0 204 153 342t357 138q76 0 159 -26t127 -58t44 -62t-25 -52 q-26 -22 -52 -21q-26 0 -103 38t-150 38q-143 0 -247 -96q-104 -95 -103 -239q0 -144 103 -248t247 -105q84 0 171 57t116 57t53 -20t24 -47z" glyph-name="cacute" horiz-adv-x="950" unicode="ć"/><glyph d="M1182 215q24 -1 48 -23q23 -22 23 -54t-34 -56q-72 -51 -187 -81t-215 -30q-309 0 -535 219q-226 218 -226 526t226 527t535 219q109 0 261 -41t151 -114q0 -31 -25 -53q-43 -38 -94 -13q-168 76 -293 76q-246 0 -424 -177t-178 -423t178 -423t424 -177q129 0 316 88 q25 10 49 10zM1085 1764q0 -24 -15 -37q-16 -13 -76 -68t-99 -87t-81 -32t-84 37t-91 82t-71 63t-23 43q0 25 23 40q58 36 106 -3l141 -121l141 121q51 40 105 2q24 -16 24 -40z" glyph-name="Ccaron" horiz-adv-x="1298" unicode="Č"/><glyph d="M819 1252q0 -24 -15 -37q-16 -13 -76 -68t-99 -87t-81 -32t-84 37t-92 82q-48 45 -70 63t-23 43q0 25 23 40q58 36 106 -3l141 -121l141 121q50 38 104 2q24 -16 25 -40zM915 166q0 -27 -26 -53q-63 -59 -157 -99t-181 -39q-205 -1 -357 145t-153 350q0 204 153 342 t357 138q76 0 159 -26t127 -58t44 -62t-25 -52q-26 -22 -52 -21q-26 0 -103 38t-150 38q-143 0 -247 -96q-104 -95 -103 -239q0 -144 103 -248t247 -105q84 0 171 57t116 57t53 -20t24 -47z" glyph-name="ccaron" horiz-adv-x="950" unicode="č"/><glyph d="M1393 256q0 -23 -19 -45q-86 -109 -247 -175t-310 -65q-309 0 -535 219q-226 218 -226 526t226 527t535 219q117 0 241 -37t208 -104q30 -27 30 -57t-24 -51q-44 -40 -103 -7q-182 111 -352 111q-246 0 -424 -177t-178 -423t178 -423t421 -177t419 166v381h-291 q-32 0 -56 22t-24 52t24 50t56 21h371q31 -1 55 -21t25 -51v-481zM553 1767q0 55 74 57q73 1 73 -67q0 -39 38 -69t87 -31q49 0 87 31q38 32 38 70q0 65 74 67q30 -1 52 -15t22 -43q0 -100 -85 -163q-85 -64 -187 -64t-188 64q-85 64 -85 163z" glyph-name="Gbreve" horiz-adv-x="1478" unicode="Ğ"/><glyph d="M674 1255q0 55 74 58q29 -1 51 -15t22 -43q0 -100 -85 -163q-85 -64 -187 -64q-101 0 -187 64t-86 163q0 29 23 43q54 33 102 0q23 -14 23 -53t38 -69t87 -31q49 0 87 31t38 79zM551 807q-145 0 -247 -100q-102 -101 -103 -245q0 -144 103 -255t247 -111q100 0 186 50 t129 137v340q-43 88 -129 136t-186 48zM1026 -57q0 -469 -543 -469q-33 0 -57 20t-23 51q0 31 25 53t55 21q195 0 290 70t95 254v118q-136 -106 -330 -106q-194 -1 -346 151t-151 357q0 205 152 346t358 141q168 0 315 -110q0 35 4 54q4 20 22 36t53 16q33 0 57 -20t24 -52 v-931z" glyph-name="gbreve" horiz-adv-x="1126" unicode="ğ"/><glyph d="M260 51q0 -31 -24 -51t-56 -20t-56 20t-24 51v842q0 31 25 53t55 21q30 0 56 -22q25 -22 24 -52v-842z" glyph-name="dotlessi" horiz-adv-x="360" unicode="ı"/><glyph d="M936 72q0 -32 -24 -52t-56 -20h-649q-31 0 -55 20t-25 52v403q-66 -41 -113 -1q-69 61 58 152q47 33 55 40v716q0 32 24 52q25 20 57 20t56 -20t23 -52v-589q67 42 114 1q25 -22 25 -46q0 -45 -53 -85q-18 -15 -49 -35t-37 -28v-455h569q32 0 56 -21t24 -52z" glyph-name="Lslash" horiz-adv-x="931" unicode="Ł"/><glyph d="M324 895q26 1 50 -21t25 -46q0 -55 -102 -121q-31 -20 -37 -27v-627q0 -31 -24 -53t-56 -20q-32 0 -56 22t-24 51v502q-36 -23 -62 -23t-50 22t-25 55q0 33 53 75q18 14 47 34t37 27v728q0 31 24 51t56 20t57 -20q24 -20 23 -51v-601q38 23 64 23z" glyph-name="lslash" horiz-adv-x="360" unicode="ł"/><glyph d="M1417 717q0 246 -176 423t-423 177t-425 -177t-178 -423t178 -423t425 -177t423 177t176 423zM2335 72q0 -31 -25 -53t-55 -21h-758q-31 0 -55 22t-25 52v192q-109 -139 -267 -216t-333 -77q-309 0 -535 219q-226 218 -226 526t226 527t535 219q176 0 334 -77t266 -216 v193q0 30 25 52t55 22h758q31 0 55 -22t25 -52q0 -30 -24 -51q-24 -20 -56 -21h-678v-477h508q31 1 55 -21t25 -53q0 -31 -24 -51t-56 -20h-508v-525h678q33 0 57 -20t23 -51z" glyph-name="OE" horiz-adv-x="2381" unicode="Œ"/><glyph d="M901 471q0 143 -103 239q-102 96 -246 97q-144 0 -248 -96q-104 -95 -103 -239q0 -144 103 -248q102 -104 246 -105q144 0 248 104q103 105 103 248zM1415 809q-94 0 -175 -45t-130 -123h602q-104 168 -297 168zM1909 554q0 -18 -25 -37t-55 -19h-766q-2 -12 -2 -37 q0 -143 107 -244q108 -100 264 -100t254 125q4 4 10 13t23 31t52 21q33 1 59 -21q44 -37 15 -87q-65 -103 -181 -163t-245 -60t-248 60q-119 62 -192 169q-71 -109 -185 -169t-243 -61q-205 -1 -357 145t-153 350q0 204 153 342t357 138q129 0 244 -59t186 -164 q73 107 187 165t243 58q178 0 310 -97t184 -267q4 -14 4 -32z" glyph-name="oe" horiz-adv-x="1945" unicode="œ"/><glyph d="M623 -57q98 -41 98 -145q0 -54 -53 -95q-54 -41 -106 -41t-107 27t-55 57t24 48q52 35 98 2q23 -15 27 -15q27 0 26 26q0 19 -50 35t-50 56l-2 56q0 13 2 23q-111 21 -223 93t-164 163q-10 20 -10 43t30 47t62 17q33 -7 53 -33q69 -93 158 -141q88 -49 170 -49 q127 0 243 86t115 209q0 90 -45 149q-44 59 -116 87t-159 45t-174 37t-159 55q-72 34 -117 105q-45 70 -45 188t71 210q134 174 408 174q90 0 198 -37t157 -96q18 -23 18 -49t-26 -48t-52 -22q-27 0 -63 27q-103 80 -235 80q-132 1 -224 -61t-92 -195t162 -182 q72 -23 158 -39t172 -42q87 -26 159 -66t117 -122t45 -198q0 -168 -136 -290t-310 -147q2 -10 2 -32z" glyph-name="Scedilla" horiz-adv-x="1144" unicode="Ş"/><glyph d="M479 -57q99 -41 99 -145q0 -54 -54 -95t-105 -41q-52 0 -108 27q-55 27 -55 57t25 48q52 35 98 2q23 -15 27 -15q27 0 26 26q0 21 -50 35t-50 56q0 76 2 84q-92 16 -174 72t-115 136q-4 16 -4 34t26 40q27 22 55 21q28 1 42 -9t31 -36q84 -121 206 -121q86 0 146 50 q59 51 59 123q0 124 -165 181q-69 25 -137 51t-117 76q-48 49 -48 137q0 89 77 151t161 62t157 -32t103 -70q31 -38 31 -62t-27 -44t-55 -21q-28 0 -83 43t-103 43t-74 -22q-26 -23 -27 -61q0 -38 73 -72q74 -34 160 -64t159 -102q73 -74 73 -191t-81 -204t-206 -109 q2 -12 2 -39z" glyph-name="scedilla" horiz-adv-x="815" unicode="ş"/><glyph d="M1067 412q0 -184 -163 -312t-353 -129q-127 0 -261 77t-202 185q-10 16 -10 41t30 49t61 18q32 -6 42 -18t20 -26q57 -79 146 -130q90 -50 174 -50q127 0 243 86t115 209q0 90 -45 149q-44 59 -116 87t-159 45t-174 37t-159 55q-72 34 -117 105q-45 70 -45 188t71 210 q134 174 408 174q91 0 197 -37t158 -96q18 -23 18 -49t-26 -48t-54 -22q-29 0 -61 27q-95 80 -231 80q-136 1 -228 -61t-92 -195t162 -182q72 -23 158 -39t172 -42q87 -26 159 -66t117 -122t45 -198zM829 1764q0 -24 -15 -37q-16 -13 -76 -68t-99 -87t-81 -32t-84 37t-91 82 t-71 63t-23 43q0 25 23 40q58 36 106 -3l141 -121l141 121q51 40 105 2q24 -16 24 -40z" glyph-name="Scaron" horiz-adv-x="1144" unicode="Š"/><glyph d="M676 1252q0 -24 -16 -37t-75 -68q-60 -55 -99 -87t-81 -32q-43 0 -85 37t-91 82t-71 63t-22 43t23 40t53 15t52 -18l142 -121l141 121q51 38 105 2q24 -16 24 -40zM764 303q0 -145 -106 -236t-257 -92q-107 1 -211 61t-145 154q-4 16 -4 34t26 40q27 22 55 21q28 1 42 -9 t31 -36q80 -121 206 -121q86 0 146 50q59 51 59 123q0 124 -165 181q-69 25 -137 51t-117 76q-48 49 -48 137q0 89 77 151t161 62q85 0 155 -32t115 -82q44 -55 -5 -95q-26 -20 -56 -20t-83 43q-55 43 -103 43t-74 -22q-26 -23 -27 -61q0 -38 73 -72q74 -34 160 -64 t159 -102q73 -74 73 -183z" glyph-name="scaron" horiz-adv-x="815" unicode="š"/><glyph d="M541 1540q0 -40 -32 -66t-71 -26q-40 0 -70 27t-30 65t31 64q31 24 69 24t71 -24q32 -24 32 -64zM780 1540q0 -40 -32 -66t-70 -26q-39 0 -70 27q-30 27 -30 65t30 64q31 24 70 24t71 -24q31 -25 31 -64zM1124 1390q0 -22 -14 -44l-471 -689v-606q0 -31 -24 -51 q-25 -20 -57 -20t-56 20t-23 51v606l-471 689q-14 23 -14 45t26 44q26 21 62 21q37 0 59 -35l418 -608l418 608q23 35 59 35t63 -21q25 -23 25 -45z" glyph-name="Ydieresis" horiz-adv-x="1118" unicode="Ÿ"/><glyph d="M1184 72q0 -32 -23 -52t-55 -20h-954q-31 0 -58 18q-26 18 -26 46t16 49l846 1175h-746q-32 0 -56 22t-24 52t24 51q24 20 56 21h891q31 0 58 -18t27 -46q0 -27 -17 -47l-846 -1178h809q30 0 54 -21t24 -52zM881 1764q1 -24 -15 -37t-76 -68t-100 -87t-81 -32 q-42 0 -84 37t-91 82q-50 45 -72 63t-22 43t24 40t54 15t51 -18l141 -121l142 121q50 38 104 2q24 -16 25 -40z" glyph-name="Zcaron" horiz-adv-x="1251" unicode="Ž"/><glyph d="M717 1252q1 -24 -15 -37t-76 -68t-100 -87t-81 -32q-42 0 -84 37t-91 82t-71 63q-23 18 -23 43t24 40t54 15t51 -18l141 -121l142 121q50 38 104 2q24 -16 25 -40zM733 942q29 0 57 -17t27 -41q0 -24 -18 -53l-510 -688h444q33 0 57 -20t24 -51t-24 -52q-24 -20 -57 -20 h-594q-33 0 -59 17t-25 45q0 28 17 49l512 688h-445q-33 0 -57 20t-23 51q0 32 24 52t56 20h594z" glyph-name="zcaron" horiz-adv-x="872" unicode="ž"/><glyph d="M1198 1362q0 -30 -24 -52t-50 -22t-66 12q-84 25 -145 -3t-101 -120q-39 -92 -49 -290q-3 -59 -5 -78h147q33 -1 55 -21t21 -52q0 -32 -26 -52t-58 -20h-154l-59 -674q-14 -162 -118 -281t-261 -119q-51 0 -126 28t-75 69q0 31 26 53t51 22t65 -13t61 -13q96 0 153 78 q56 78 64 180l60 670h-125q-33 0 -55 19t-22 51t27 54q26 22 58 21h131l23 252q14 161 117 279t261 118q55 0 127 -26t72 -70z" glyph-name="florin" horiz-adv-x="1394" unicode="ƒ"/><glyph d="M799 1084q0 -24 -25 -40q-24 -16 -52 -16q-52 0 -143 91q-48 48 -51 48q-41 -47 -99 -93t-91 -46q-32 0 -56 16t-24 40t16 37t75 69q60 56 99 87q39 32 81 32q43 1 97 -47t152 -138q21 -16 21 -40z" glyph-name="circumflex" horiz-adv-x="1056" unicode="ˆ"/><glyph d="M799 1252q1 -24 -15 -37t-76 -68t-100 -87t-81 -32q-42 0 -84 37t-91 82t-71 63q-23 18 -23 43t24 40t54 15t51 -18l141 -121l142 121q50 38 104 2q24 -16 25 -40z" glyph-name="caron" horiz-adv-x="1056" unicode="ˇ"/><glyph d="M801 1255q0 -100 -85 -163q-86 -64 -188 -64t-187 64t-85 163q0 29 23 43q54 33 102 0q23 -14 23 -53t37 -69q38 -30 87 -31q49 0 87 31q38 32 38 70q0 65 74 67q29 -1 51 -15t23 -43z" glyph-name="breve" horiz-adv-x="1056" unicode="˘"/><glyph d="M633 1133q0 -39 -32 -66t-71 -27q-40 0 -70 27t-30 66t31 63t69 25q38 -1 71 -25q32 -24 32 -63z" glyph-name="dotaccent" horiz-adv-x="1056" unicode="˙"/><glyph d="M563 1149q0 31 -33 31t-32 -31q0 -31 32 -31t33 31zM702 1150q0 -62 -53 -102t-119 -40t-120 40t-54 101t54 102t120 41t119 -40t53 -102z" glyph-name="ring" horiz-adv-x="1056" unicode="˚"/><glyph d="M618 -115q26 0 50 -16t24 -48t-54 -58q-54 -25 -108 -25t-109 41q-54 41 -54 102t54 103t120 41q27 1 51 -15t22 -43q0 -41 -50 -53t-50 -33q0 -27 27 -26q3 0 27 15t50 15z" glyph-name="ogonek" horiz-adv-x="1056" unicode="˛"/><glyph d="M260 1079q0 78 48 129q48 52 135 52t143 -72q35 -47 39 -47q27 0 26 63q0 55 76 56q29 0 51 -14t21 -42q0 -76 -49 -126q-48 -50 -110 -50q-106 0 -146 59q-39 59 -60 60q-31 0 -26 -60q2 -23 -16 -41t-60 -18q-72 0 -72 51z" glyph-name="tilde" horiz-adv-x="1056" unicode="˜"/><glyph d="M649 1256q0 -22 -18 -42l-197 -167q-20 -19 -51 -19t-55 16t-23 40q0 24 21 40l194 166q52 42 106 4q24 -16 23 -38zM918 1256q0 -22 -19 -42l-197 -167q-50 -39 -104 -3q-25 16 -25 40t21 40l194 166q52 42 106 4q24 -16 24 -38z" glyph-name="hungarumlaut" horiz-adv-x="1056" unicode="˝"/><glyph d="M664 186q0 96 55 351l80 376h-326l-194 -913h-181l195 913h-41q-105 0 -123 -133h-160q27 166 100 228t236 63h889l-35 -158h-182l-105 -487q-30 -143 -30 -194q0 -101 102 -101q35 0 100 10l-30 -141q-50 -16 -111 -16q-239 0 -239 202z" glyph-name="pi" horiz-adv-x="1206" unicode="π"/><glyph d="M956 471q0 -35 -24 -59t-55 -23h-730q-33 0 -57 24q-24 25 -22 59q0 34 24 58t55 23h730q33 1 56 -23t23 -59z" glyph-name="endash" horiz-adv-x="1024" unicode="–"/><glyph d="M2089 389h-2130v164h2130v-164z" glyph-name="emdash" horiz-adv-x="2048" unicode="—"/><glyph d="M334 1296q0 -38 -32 -60t-73 -22t-71 27t-29 74q0 47 38 94t74 47q35 0 57 -15t22 -33t-31 -50q45 -23 45 -62z" glyph-name="quoteleft" horiz-adv-x="462" unicode="‘"/><glyph d="M334 1356q0 -47 -38 -94q-38 -48 -74 -48t-58 16t-21 34q0 18 31 49q-45 23 -45 61t32 61q33 21 73 21t70 -26t30 -74z" glyph-name="quoteright" horiz-adv-x="462" unicode="’"/><glyph d="M129 44q0 38 32 60q33 22 73 21t70 -27t30 -73t-38 -95t-74 -47q-36 -1 -58 15t-21 34q0 18 31 50q-45 24 -45 62z" glyph-name="quotesinglbase" horiz-adv-x="462" unicode="‚"/><glyph d="M631 1296q0 -38 -32 -60t-73 -22q-40 0 -70 27t-30 74t38 94t74 47t58 -15t20 -33q0 -18 -30 -50q45 -23 45 -62zM334 1296q0 -38 -32 -60t-73 -22t-71 27t-29 74q0 47 38 94t74 47q35 0 57 -15t22 -33t-31 -50q45 -23 45 -62z" glyph-name="quotedblleft" horiz-adv-x="759" unicode="“"/><glyph d="M334 1356q0 -47 -38 -94q-38 -48 -74 -48t-58 16t-21 34q0 18 31 49q-45 23 -45 61t32 61q33 21 73 21t70 -26t30 -74zM631 1356q0 -47 -38 -94q-38 -48 -74 -48q-35 0 -57 16t-22 34t31 49q-45 23 -45 61t32 61q32 21 72 21t71 -26q30 -26 30 -74z" glyph-name="quotedblright" horiz-adv-x="759" unicode="”"/><glyph d="M129 44q0 38 32 60q33 22 73 21t70 -27t30 -73t-38 -95t-74 -47q-36 -1 -58 15t-21 34q0 18 31 50q-45 24 -45 62zM426 44q0 38 32 60t72 21t71 -27q30 -26 30 -73t-38 -95t-74 -47q-35 -1 -57 15t-22 34t31 50q-45 24 -45 62z" glyph-name="quotedblbase" horiz-adv-x="759" unicode="„"/><glyph d="M965 911h-367v-1128h-172v1128h-367v156h367v406h172v-406h367v-156z" glyph-name="dagger" horiz-adv-x="1024" unicode="†"/><glyph d="M965 186h-367v-403h-172v403h-367v154h367v571h-367v156h367v406h172v-406h367v-156h-367v-571h367v-154z" glyph-name="daggerdbl" horiz-adv-x="1024" unicode="‡"/><glyph d="M899 763q0 -122 -88 -210t-209 -88t-208 87t-87 210t86 209t210 86t210 -86t86 -208z" glyph-name="bullet" horiz-adv-x="1208" unicode="•"/><glyph d="M1049 76q0 -39 -32 -66q-32 -26 -71 -26q-40 0 -70 26t-30 66t31 64t69 24t71 -24q32 -24 32 -64zM690 76q0 -39 -32 -66q-32 -26 -70 -26t-70 26q-31 26 -31 66t31 64t70 24q38 0 70 -24t32 -64zM332 76q0 -39 -32 -66q-32 -26 -71 -26t-69 26t-31 66q0 40 31 64 q32 24 70 24t70 -24t32 -64z" glyph-name="ellipsis" horiz-adv-x="1177" unicode="…"/><glyph d="M441 803q93 -1 153 73t61 169q0 95 -59 170q-58 75 -152 75t-155 -75t-61 -170t60 -169t153 -73zM1552 388q0 95 -61 169t-153 74t-154 -74t-62 -169t62 -170t153 -75q92 0 154 75q61 75 61 170zM2361 388q0 95 -60 169q-59 74 -153 74t-155 -74t-61 -169t60 -170 q62 -75 154 -75t154 75q61 75 61 170zM815 1044q-1 -158 -109 -272t-264 -115q-156 0 -266 115q-110 114 -108 272q0 158 108 275t266 117t266 -117t107 -275zM1425 1400q0 -24 -14 -44l-903 -1352q-23 -37 -60 -37q-36 0 -62 22t-26 45t15 44l903 1352q24 36 60 36t62 -21 t25 -45zM1710 389q0 -159 -108 -275t-265 -116q-159 0 -267 117t-108 275t110 272t266 114t264 -114q108 -115 108 -273zM2521 389q-1 -159 -109 -275t-266 -116t-266 117t-108 275t109 272t265 114t266 -114q109 -115 109 -273z" glyph-name="perthousand" horiz-adv-x="2588" unicode="‰"/><glyph d="M580 71q0 -27 -26 -49t-58 -22t-60 27l-373 391q-16 16 -16 43t16 47l373 407q27 27 60 27q32 0 58 -22t26 -48q0 -27 -21 -47l-332 -362l332 -344q21 -20 21 -48z" glyph-name="guilsinglleft" horiz-adv-x="585" unicode="‹"/><glyph d="M539 461q0 -25 -19 -43l-373 -391q-23 -27 -57 -27t-58 22q-26 22 -26 50t21 47l329 344l-331 362q-19 18 -19 46t26 50q26 21 60 21t55 -27l373 -407q19 -22 19 -47z" glyph-name="guilsinglright" horiz-adv-x="585" unicode="›"/><glyph d="M1069 1400q0 -24 -12 -44l-903 -1352q-23 -37 -60 -37q-36 0 -62 22t-26 45t14 44l902 1352q24 36 60 36t62 -21t25 -45z" glyph-name="fraction" horiz-adv-x="1075" unicode="⁄"/><glyph d="M1681 827q1 -29 -25 -49t-57 -20t-57 24t-92 25q-68 -1 -138 -61t-69 -138v-557q1 -31 -23 -51t-57 -20t-57 20t-23 51v823q0 32 24 52q23 20 57 20t57 -18t22 -51q96 74 219 73q66 0 142 -34t77 -89zM971 1362q0 -30 -25 -52t-55 -22h-604v-475h508q31 1 55 -21t24 -53 t-24 -51t-55 -20h-508v-617q0 -31 -24 -51q-25 -20 -57 -20t-56 20t-23 51v1311q0 31 25 51t55 21h684q33 0 57 -20t23 -52z" glyph-name="franc" horiz-adv-x="1675" unicode="₣"/><glyph d="M1282 215q24 -1 48 -23t24 -49t-10 -38t-19 -21t-21 -14t-26 -12t-16 -7q-172 -80 -347 -80q-272 0 -484 173t-263 438q-4 0 -39 -1q-58 -2 -95 7q-50 12 -50 56q0 45 25 63t50 19t36 2t33 0t28 -1l4 70q-6 0 -26 -1t-34 0t-36 2t-51 16t-29 51t23 57q24 20 56 20h127 q78 232 280 376t445 144q93 0 203 -26q212 -51 211 -129q-1 -31 -25 -53q-43 -39 -94 -13q-168 76 -295 76q-181 -1 -331 -103t-224 -272h504q33 0 56 -20q22 -20 22 -52t-24 -52q-24 -22 -54 -21h-542l-7 -70h465q31 -1 56 -23q24 -22 24 -53t-24 -50t-56 -19h-448 q49 -201 214 -333t369 -132q87 0 151 19t167 69q25 10 49 10z" glyph-name="Euro" horiz-adv-x="1394" unicode="€"/><glyph d="M694 1378h-172v-458h-108v458h-172v80h452v-80zM1405 920h-98v444l-166 -444h-56l-174 444v-444h-98v538h150l151 -385l141 385h150v-538z" glyph-name="trademark" unicode="™"/><glyph d="M1487 0h-600v178q180 98 277 263q98 165 98 387t-132 367q-132 144 -348 144q-215 0 -348 -145q-133 -144 -133 -364t98 -387t279 -265v-178h-600v178h319q-159 138 -231 286t-72 335q0 319 190 516t496 197q305 0 498 -196t192 -507q0 -193 -70 -340t-233 -291h320v-178 z" glyph-name="uni2126" horiz-adv-x="1564" unicode="Ω"/><glyph d="M707 494q0 117 -44 179t-122 62q-106 0 -179 -129q-72 -131 -71 -336q0 -117 43 -178t123 -61q109 0 179 129t71 334zM786 946q0 262 -145 260q-57 0 -128 -58t-105 -58t-62 22q-25 23 -24 53q0 61 70 111t175 49q178 1 286 -153t108 -420q-1 -336 -145 -556t-357 -221 q-152 -1 -253 107q-102 108 -102 288t111 310q111 129 272 129q197 0 269 -188q30 180 30 325z" glyph-name="partialdiff" horiz-adv-x="1058" unicode="∂"/><glyph d="M1102 178l-418 1084l-418 -1084h836zM1376 0h-1382l579 1473h224z" glyph-name="uni2206" horiz-adv-x="1370" unicode="∆"/><glyph d="M1393 -393h-240v1661h-758v-1661h-239v1866h1237v-1866z" glyph-name="product" horiz-adv-x="1550" unicode="∏"/><glyph d="M1339 -393h-1314v149l725 801l-695 739v177h1258v-193h-959l672 -717l-694 -764h1007v-192z" glyph-name="summation" horiz-adv-x="1380" unicode="∑"/><glyph d="M1452 541h-1198v141h1198v-141z" glyph-name="minus" unicode="−"/><glyph d="M1305 1565h-115l-594 -1606h-66l-319 883l-125 -45l-25 80l283 98l256 -709l516 1395h189v-96z" glyph-name="radical" horiz-adv-x="1304" unicode="√"/><glyph d="M297 610q0 -104 58 -173q59 -69 145 -69t150 66q64 64 143 232q-98 176 -267 176q-100 0 -164 -64t-65 -168zM1411 617q0 103 -58 171q-59 68 -145 68t-152 -67t-141 -230q99 -178 267 -178q100 0 164 67t65 169zM1165 1006q133 0 227 -113t95 -283q0 -170 -83 -277 t-218 -108q-92 1 -166 59t-156 199q-135 -260 -321 -262q-137 0 -230 111q-92 112 -92 282t84 279t217 108q96 -1 173 -65t147 -199q132 269 323 269z" glyph-name="infinity" unicode="∞"/><glyph d="M838 1550q82 0 126 -39t44 -107t-27 -94t-76 -26q-89 0 -117 74q-8 18 -10 52t-20 34q-109 0 -121 -619q0 -18 -8 -303q-19 -487 -113 -690t-289 -203q-82 0 -131 43q-49 42 -49 102t34 91t82 31q105 0 121 -100q9 -58 27 -58q102 0 119 688q4 143 4 166q12 516 108 737 t296 221z" glyph-name="integral" horiz-adv-x="1067" unicode="∫"/><glyph d="M1141 289q-95 -1 -285 67t-293 68q-158 0 -385 -158v156q209 145 387 145q109 -1 302 -69t281 -68q167 0 382 156v-156q-200 -141 -389 -141zM1141 657q-95 0 -285 68t-286 68t-179 -35q-84 -35 -213 -123v156q214 143 387 143q115 0 305 -68t274 -68t171 34 q88 33 215 122v-155q-201 -142 -389 -142z" glyph-name="approxequal" unicode="≈"/><glyph d="M1452 344h-709l-249 -317l-105 84l184 233h-319v135h408l204 262h-612v136h702l252 317l105 -82l-187 -235h326v-136h-416l-205 -262h621v-135z" glyph-name="notequal" unicode="≠"/><glyph d="M1446 23h-1184v139h1184v-139zM1444 295l-1182 395v121l1182 395v-147l-936 -309l936 -306v-149z" glyph-name="lessequal" unicode="≤"/><glyph d="M1446 23h-1184v139h1184v-139zM1446 690l-1184 -395v149l938 306l-938 309v147l1184 -395v-121z" glyph-name="greaterequal" unicode="≥"/><glyph d="M891 592l-385 817l-385 -817l385 -825zM1006 592l-500 -1069l-500 1069l500 1061z" glyph-name="lozenge" horiz-adv-x="1011" unicode="◊"/><glyph d="M287 51q0 -31 -24 -51q-25 -20 -57 -20t-56 20t-23 51v1331q0 32 24 52q25 20 57 20t56 -20t23 -52v-1331zM305 1645q0 -39 -32 -66q-33 -27 -71 -27t-69 27t-31 66t31 63t70 25q39 -1 71 -25t31 -63z" glyph-name="uniE000" horiz-adv-x="413" unicode=""/><glyph d="M1272 741q0 -233 233 -338q-115 -250 -206 -344t-203 -94q-51 0 -131 33t-125 33t-129 -33t-137 -33q-119 0 -248 176q-102 141 -158 297t-55 299q0 219 125 357t323 137q68 0 154 -34t122 -34t124 35t177 35q190 0 335 -164q-102 -66 -152 -145q-49 -80 -49 -183z M1167 1552q0 -131 -103 -234t-204 -104h-16l-4 3h-4l-2 14v22q0 123 96 230q98 106 235 131l2 -23v-39z" glyph-name="uniE001" horiz-adv-x="1617" unicode=""/><glyph d="M551 827q-143 0 -247 -107q-103 -108 -103 -252t102 -246t248 -101q100 0 186 50t129 138v330q-43 88 -129 138t-186 50zM1026 1145v-1094q0 -31 -24 -51t-56 -20t-54 20q-24 20 -24 51v37q-140 -113 -332 -113q-192 -1 -344 143t-151 349q0 205 152 357t344 151 q192 0 331 -111v281h-250q-32 -1 -56 21t-23 53q0 31 23 51q24 20 56 20h250v183q0 31 24 51t56 20t54 -20q24 -20 24 -51v-183q6 0 40 2q47 3 95 -8q47 -11 47 -66t-44 -65q-44 -11 -89 -9q-45 1 -49 1z" glyph-name="uniE002" horiz-adv-x="1126" unicode=""/><glyph glyph-name="uniE003" horiz-adv-x="696" unicode=""/><glyph d="M582 471q0 -35 -24 -59t-56 -23h-355q-33 0 -57 24q-24 25 -22 59q0 34 24 58t55 23h355q32 1 56 -23t24 -59z" glyph-name="uniE004" horiz-adv-x="649" unicode=""/></font>
</defs>
</svg>
