<?xml version="1.0" encoding="UTF-8"?>
<svg width="113px" height="113px" viewBox="0 0 113 113" version="1.1" xmlns="http://www.w3.org/2000/svg" xmlns:xlink="http://www.w3.org/1999/xlink">
    <!-- Generator: Sketch 50.2 (55047) - http://www.bohemiancoding.com/sketch -->
    <title>flickr</title>
    <desc>Created with Sketch.</desc>
    <defs></defs>
    <g id="Page-1" stroke="none" stroke-width="1" fill="none" fill-rule="evenodd">
        <g id="flickr" transform="translate(0.000000, 0.062085)" fill="#906290">
            <path d="M72.2754697,69.2771769 C65.4189697,69.2771769 59.8574697,63.7121769 59.8574697,56.8556769 C59.8574697,49.9991769 65.4189697,44.4341769 72.2754697,44.4341769 C79.1354697,44.4341769 84.6969697,49.9991769 84.6969697,56.8556769 C84.6969697,63.7121769 79.1354697,69.2771769 72.2754697,69.2771769 L72.2754697,69.2771769 Z M41.1149697,69.2771769 C34.2549697,69.2771769 28.6969697,63.7121769 28.6969697,56.8556769 C28.6969697,49.9991769 34.2549697,44.4341769 41.1149697,44.4341769 C47.9714697,44.4341769 53.5364697,49.9991769 53.5364697,56.8556769 C53.5364697,63.7121769 47.9714697,69.2771769 41.1149697,69.2771769 L41.1149697,69.2771769 Z M56.6969697,0.855676912 C25.7674697,0.855676912 0.696969697,25.9296769 0.696969697,56.8556769 C0.696969697,87.7886769 25.7674697,112.855677 56.6969697,112.855677 C87.6264697,112.855677 112.69697,87.7886769 112.69697,56.8556769 C112.69697,25.9296769 87.6264697,0.855676912 56.6969697,0.855676912 L56.6969697,0.855676912 Z" id="Flickr"></path>
        </g>
    </g>
</svg>