<?xml version="1.0" encoding="UTF-8"?>
<svg width="113" height="113" viewBox="0 0 113 113" fill="none" xmlns="http://www.w3.org/2000/svg">
  <path d="M77.9667 84.8125C81.6767 84.8125 84.6867 81.8048 84.6867 78.1042V49.4485H74.2333C75.12 51.6675 75.6333 54.0918 75.6333 56.6305C75.6333 67.1842 67.0467 75.7708 56.5 75.7708C45.9533 75.7708 37.3667 67.1842 37.3667 56.6305C37.3667 54.0918 37.8567 51.6675 38.7667 49.4485H28.3133V78.1042C28.3133 81.8048 31.3233 84.8125 35.0333 84.8125H77.9667Z" fill="#517FA4"/>
  <path d="M56.5 44.3128C52.3933 44.3128 48.7533 46.3452 46.5133 49.4485C45.0433 51.4715 44.18 53.9518 44.18 56.6305C44.18 63.4205 49.71 68.9482 56.5 68.9482C63.29 68.9482 68.82 63.4205 68.82 56.6305C68.82 53.9518 67.9567 51.4715 66.4867 49.4485C64.2467 46.3452 60.6067 44.3128 56.5 44.3128Z" fill="#517FA4"/>
  <path d="M83.4033 29.6922L81.8633 29.7015L71.5267 29.7342L71.5733 41.5968L83.4033 41.5548V29.6922Z" fill="#517FA4"/>
  <path fill-rule="evenodd" clip-rule="evenodd" d="M56.5 112.631C87.4167 112.631 112.5 87.5565 112.5 56.6305C112.5 25.6998 87.4167 0.630508 56.5 0.630508C25.5833 0.630508 0.5 25.6998 0.5 56.6305C0.5 87.5565 25.5833 112.631 56.5 112.631ZM35.0333 21.6305H77.9667C85.4333 21.6305 91.5 27.6972 91.5 35.1568V78.1042C91.5 85.5638 85.4333 91.6305 77.9667 91.6305H35.0333C27.5667 91.6305 21.5 85.5638 21.5 78.1042V35.1568C21.5 27.6972 27.5667 21.6305 35.0333 21.6305Z" fill="#517FA4"/>
</svg>
