<?xml version="1.0" encoding="UTF-8"?>
<svg width="112" height="113" viewBox="0 0 112 113" fill="none" xmlns="http://www.w3.org/2000/svg">
  <path d="M77.4667 85.8125C81.1767 85.8125 84.1867 82.8048 84.1867 79.1042V50.4485H73.7333C74.62 52.6675 75.1333 55.0918 75.1333 57.6305C75.1333 68.1842 66.5467 76.7708 56 76.7708C45.4533 76.7708 36.8667 68.1842 36.8667 57.6305C36.8667 55.0918 37.3567 52.6675 38.2667 50.4485H27.8133V79.1042C27.8133 82.8048 30.8233 85.8125 34.5333 85.8125H77.4667Z" fill="#906290"/>
  <path d="M56 45.3128C51.8933 45.3128 48.2533 47.3452 46.0133 50.4485C44.5433 52.4715 43.68 54.9518 43.68 57.6305C43.68 64.4205 49.21 69.9482 56 69.9482C62.79 69.9482 68.32 64.4205 68.32 57.6305C68.32 54.9518 67.4567 52.4715 65.9867 50.4485C63.7467 47.3452 60.1067 45.3128 56 45.3128Z" fill="#906290"/>
  <path d="M82.9033 30.6922L81.3633 30.7015L71.0267 30.7342L71.0733 42.5968L82.9033 42.5548V30.6922Z" fill="#906290"/>
  <path fill-rule="evenodd" clip-rule="evenodd" d="M56 112.631C86.9167 112.631 112 87.5565 112 56.6305C112 25.6998 86.9167 0.630508 56 0.630508C25.0833 0.630508 0 25.6998 0 56.6305C0 87.5565 25.0833 112.631 56 112.631ZM34.5333 22.6305H77.4667C84.9333 22.6305 91 28.6972 91 36.1568V79.1042C91 86.5638 84.9333 92.6305 77.4667 92.6305H34.5333C27.0667 92.6305 21 86.5638 21 79.1042V36.1568C21 28.6972 27.0667 22.6305 34.5333 22.6305Z" fill="#906290"/>
</svg>
