<?xml version="1.0" encoding="UTF-8"?>
<svg width="113px" height="113px" viewBox="0 0 113 113" version="1.1" xmlns="http://www.w3.org/2000/svg" xmlns:xlink="http://www.w3.org/1999/xlink">
    <!-- Generator: Sketch 50.2 (55047) - http://www.bohemiancoding.com/sketch -->
    <title>pinterest</title>
    <desc>Created with Sketch.</desc>
    <defs></defs>
    <g id="Page-1" stroke="none" stroke-width="1" fill="none" fill-rule="evenodd">
        <g id="pinterest" transform="translate(0.000000, 0.046120)" fill="#906290">
            <path d="M63.1733971,71.3305628 C59.1433801,71.3305628 55.3489891,69.1530536 54.0530461,66.6789806 C54.0530461,66.6789806 51.883662,75.2793295 51.42866,76.9368364 C49.8077157,82.8112363 45.0505081,88.6815735 44.6848816,89.1568881 C44.428943,89.4900145 43.8561281,89.3884515 43.7992528,88.9456372 C43.6936274,88.198134 42.4789347,80.7962277 43.9089408,74.7552647 C44.6280063,71.7246269 48.7148986,54.4142413 48.7148986,54.4142413 C48.7148986,54.4142413 47.5205185,52.0336063 47.5205185,48.5073414 C47.5205185,42.9701305 50.7299071,38.8466756 54.7233614,38.8466756 C58.1196258,38.8466756 59.7527577,41.3898113 59.7527577,44.4448242 C59.7527577,47.8573387 57.5833735,52.9679852 56.4621188,57.6967552 C55.5236773,61.6577094 58.4446272,64.8874106 62.3527687,64.8874106 C69.425611,64.8874106 74.1909436,55.7995597 74.1909436,45.0338892 C74.1909436,36.8519797 68.6821704,30.7257038 58.655878,30.7257038 C47.3336427,30.7257038 40.2729879,39.179802 40.2729879,48.6129668 C40.2729879,51.8670431 41.2358045,54.1583028 42.7389358,55.9295602 C43.4295638,56.7461262 43.5230016,57.0792526 43.2751881,58.0136315 C43.0923748,58.6961344 42.6861231,60.3536414 42.5114349,61.0077067 C42.2676838,61.9583357 41.4958056,62.2914621 40.642677,61.9420856 C35.426405,59.8173892 32.9970197,54.1014275 32.9970197,47.6745254 C32.9970197,37.0754181 41.9426825,24.3556769 59.6836949,24.3556769 C73.9390676,24.3556769 83.3194197,34.670408 83.3194197,45.7488923 C83.3194197,60.3861416 75.1740728,71.3305628 63.1733971,71.3305628 L63.1733971,71.3305628 Z M56.6969697,0.855676912 C25.7709697,0.855676912 0.696969697,25.9296769 0.696969697,56.8556769 C0.696969697,87.7886769 25.7709697,112.855677 56.6969697,112.855677 C87.6229697,112.855677 112.69697,87.7886769 112.69697,56.8556769 C112.69697,25.9296769 87.6229697,0.855676912 56.6969697,0.855676912 L56.6969697,0.855676912 Z" id="Fill-594"></path>
        </g>
    </g>
</svg>