<?xml version="1.0" encoding="UTF-8"?>
<svg width="113px" height="113px" viewBox="0 0 113 113" version="1.1" xmlns="http://www.w3.org/2000/svg" xmlns:xlink="http://www.w3.org/1999/xlink">
    <!-- Generator: Sketch 50.2 (55047) - http://www.bohemiancoding.com/sketch -->
    <title>twitter_hv</title>
    <desc>Created with Sketch.</desc>
    <defs></defs>
    <g id="Page-1" stroke="none" stroke-width="1" fill="none" fill-rule="evenodd">
        <g id="twitter_hv" transform="translate(-0.500000, 0.815255)" fill="#39A0CD">
            <path d="M78.8124545,44.583 C78.8369545,45.0765 78.8474545,45.57 78.8474545,46.067 C78.8474545,61.25 67.2904545,78.757 46.1574545,78.757 C39.6684545,78.757 33.6309545,76.8565 28.5454545,73.5945 C29.4484545,73.6995 30.3619545,73.752 31.2859545,73.752 C36.6724545,73.752 41.6214545,71.9215 45.5519545,68.838 C40.5294545,68.7435 36.2839545,65.422 34.8244545,60.8615 C35.5244545,60.991 36.2419545,61.0645 36.9839545,61.0645 C38.0339545,61.0645 39.0489545,60.921 40.0079545,60.662 C34.7579545,59.6015 30.7959545,54.9605 30.7959545,49.3955 L30.7959545,49.252 C32.3464545,50.113 34.1174545,50.6275 36.0004545,50.6905 C32.9169545,48.6325 30.8904545,45.1115 30.8904545,41.125 C30.8904545,39.0215 31.4574545,37.044 32.4444545,35.35 C38.1074545,42.301 46.5774545,46.8755 56.1254545,47.3515 C55.9294545,46.5115 55.8279545,45.6365 55.8279545,44.7335 C55.8279545,38.3915 60.9729545,33.25 67.3184545,33.25 C70.6189545,33.25 73.6079545,34.6465 75.7044545,36.8725 C78.3189545,36.3615 80.7794545,35.4025 83.0019545,34.083 C82.1409545,36.771 80.3209545,39.0215 77.9479545,40.4425 C80.2719545,40.1695 82.4874545,39.5465 84.5454545,38.6365 C83.0089545,40.9395 81.0594545,42.9625 78.8124545,44.583 L78.8124545,44.583 Z M56.5454545,0 C25.6194545,0 0.545454545,25.074 0.545454545,56 C0.545454545,86.933 25.6194545,112 56.5454545,112 C87.4714545,112 112.545455,86.933 112.545455,56 C112.545455,25.074 87.4714545,0 56.5454545,0 L56.5454545,0 Z" id="twitter"></path>
        </g>
    </g>
</svg>