<?xml version="1.0" encoding="UTF-8" standalone="no"?>
<svg width="121px" height="119px" viewBox="0 0 121 119" version="1.1" xmlns="http://www.w3.org/2000/svg" xmlns:xlink="http://www.w3.org/1999/xlink" xmlns:sketch="http://www.bohemiancoding.com/sketch/ns">
    <!-- Generator: Sketch 3.3 (11970) - http://www.bohemiancoding.com/sketch -->
    <title>blog_btn</title>
    <desc>Created with Sketch.</desc>
    <defs></defs>
    <g id="Page-1" stroke="none" stroke-width="1" fill="none" fill-rule="evenodd" sketch:type="MSPage">
        <g id="nav_btns" sketch:type="MSLayerGroup" transform="translate(-567.000000, 0.000000)">
            <g id="blog_x5F_btn-link" transform="translate(627.500000, 60.500000) scale(1, -1) translate(-627.500000, -60.500000) translate(567.000000, 1.000000)" sketch:type="MSShapeGroup">
                <g id="blog_x5F_btn">
                    <path d="M61.8153534,115.8125 C55.3585431,109.4375 50.3714655,101.968125 50.5498362,89.0375 C45.9184569,100.53375 53.9597414,111.5625 60.6877586,115.8125 L61.8153534,115.8125 L61.8153534,115.8125 Z" id="Shape" fill="#987086"></path>
                    <path d="M64.0684569,115.923 C64.745431,116.02925 64.8393103,115.56175 64.442931,115.5405 C62.6592241,110.16425 59.9043879,103.800938 59.1856897,97.1805 C58.9562069,95.013 60.1036207,91.84675 58.0591379,90.2955 C56.6916293,92.261125 57.1307759,95.2265625 57.3081034,97.563 C57.8818103,104.757188 60.3122414,111.896125 64.0684569,115.923 L64.0684569,115.923 Z" id="Shape" fill="#987086"></path>
                    <path d="M67.8236293,114.394063 C72.26725,108.815938 73.0600086,98.0103125 72.7053534,88.7665625 C71.4744914,88.7878125 71.2763017,89.8503125 69.7012155,89.5315625 C70.5242241,98.9346875 69.6281983,106.754688 67.8236293,114.394063 L67.8236293,114.394063 Z" id="Shape" fill="#987086"></path>
                    <path d="M65.5694828,114.011562 C64.46275,106.095938 63.1693017,98.3609375 62.1898276,90.2965625 C60.1662069,89.4996875 60.1036207,91.9445 59.9377672,92.975125 C59.1022414,98.202625 61.7412931,104.407625 62.9419052,108.274062 C63.6606034,110.558437 63.7023276,113.607812 65.5694828,114.011562 L65.5694828,114.011562 Z" id="Shape" fill="#987086"></path>
                    <path d="M70.0767328,113.629063 C75.4382845,108.178438 78.3162069,97.2240625 76.4594828,86.853 C75.3861293,87.278 74.2491466,87.649875 73.4563879,88.383 C74.8948276,95.703625 72.6521552,106.158625 70.0767328,113.629063 L70.0767328,113.629063 Z" id="Shape" fill="#987086"></path>
                    <path d="M60.3122414,113.2455 C60.7607759,113.18175 60.6366466,112.54425 60.6867155,112.098 C56.9419741,106.987375 56.0459483,98.9750625 56.1815517,89.913 C54.4082759,90.06175 53.0522414,89.7855 51.6753448,89.5305 C51.3624138,100.687813 55.2740517,107.551563 60.3122414,113.2455 L60.3122414,113.2455 Z" id="Shape" fill="#987086"></path>
                    <path d="M65.945,112.099063 C66.6230172,112.205313 66.7168966,111.73675 66.3205172,111.716563 C66.4988879,106.563437 67.5524224,100.135312 66.6960345,94.505125 C66.4988879,93.1334375 66.3205172,90.542 64.8174052,90.2965625 C62.92,90.2859375 63.6699914,93.1334375 63.6908534,94.505125 C63.7857759,99.4446875 65.652931,105.967375 65.945,112.099063 L65.945,112.099063 Z" id="Shape" fill="#987086"></path>
                    <path d="M67.447069,110.186563 C68.4067241,107.136125 69.2505948,102.17425 69.3246552,97.9455 C69.3778534,95.193625 69.4613017,91.602375 67.8236293,89.913 C66.1223276,90.9319375 67.3855259,93.1005 67.4481121,94.503 C67.6869828,99.3809375 67.5722414,104.672188 67.447069,110.186563 L67.447069,110.186563 Z" id="Shape" fill="#987086"></path>
                    <path d="M48.2967328,89.148 C42.7568103,96.1190625 34.1000948,99.9228125 21.6339655,99.858 C23.282069,101.57925 26.3800862,101.558 28.7687931,101.771563 C37.3639655,102.524875 47.3568966,97.83925 48.2967328,89.148 L48.2967328,89.148 Z" id="Shape" fill="#987086"></path>
                    <path d="M25.7646552,98.8125 C34.5475862,98.8125 44.9681897,94.9269375 46.7936207,87.86025 C44.9900948,87.7954375 43.4139655,89.62825 41.9108534,90.6578125 C37.6768966,93.5595 32.5761207,96.6875 26.5156897,98.8125 L25.7646552,98.8125 L25.7646552,98.8125 Z" id="Shape" fill="#987086"></path>
                    <path d="M20.8839741,98.3290625 C31.3358707,97.2346875 37.9063793,92.2090625 44.5415603,87.2365625 C44.2807845,85.3346875 42.1319914,85.3665625 41.1629483,84.1765625 C37.6894138,86.4078125 34.7989741,89.3509375 31.3984569,91.8265625 C28.1116379,94.2171875 24.2114741,95.7684375 20.8839741,98.3290625 L20.8839741,98.3290625 Z" id="Shape" fill="#987086"></path>
                    <path d="M19.3808621,96.798 C19.4747414,97.276125 20.1329397,97.1805 20.1329397,96.798 C24.3773276,95.852375 27.49725,92.9953125 30.6474224,90.678 C33.7767328,88.372375 37.6153534,86.5555 39.6598362,83.028 C37.7196638,81.9006875 35.9359569,84.249875 34.4025948,85.323 C29.4781034,88.7771875 23.9809483,92.9953125 19.3808621,96.798 L19.3808621,96.798 Z" id="Shape" fill="#987086"></path>
                    <path d="M16.3767241,96.4155 C22.0918879,90.3805 27.0466293,83.55925 34.0260345,78.8205 C33.8278448,77.2384375 32.7221552,76.578625 32.1484483,75.3790625 C24.7215517,80.1815625 19.8825948,87.6084375 16.3767241,96.4155 L16.3767241,96.4155 Z" id="Shape" fill="#987086"></path>
                    <path d="M18.2543103,95.6515625 C18.3481897,96.128625 19.0063879,96.033 19.0063879,95.6515625 C24.9312155,91.2315625 32.2329397,86.162375 36.6556983,81.4990625 C36.7182845,80.41425 35.5291466,80.6065625 35.5291466,79.5855 C27.9666466,83.0928125 23.7003534,89.9671875 18.2543103,95.6515625 L18.2543103,95.6515625 Z" id="Shape" fill="#987086"></path>
                    <path d="M105.749828,93.7390625 C98.0527672,92.4109375 91.1161293,90.3178125 85.4729397,86.4715625 C83.9500086,85.4303125 81.957681,82.7421875 79.840181,84.558 C82.3749224,91.1253125 91.3779483,95.5984375 101.995698,94.8865625 C103.195267,94.8015625 105.217845,95.0459375 105.749828,93.7390625 L105.749828,93.7390625 Z" id="Shape" fill="#987086"></path>
                    <path d="M16.3767241,92.9740625 C20.8933621,86.2165625 24.9103534,78.96925 31.3963707,74.2315625 C30.9582672,72.6378125 30.0299052,71.553 29.5198276,70.023 C21.6663017,74.1253125 18.160431,82.6678125 16.3767241,92.9740625 L16.3767241,92.9740625 Z" id="Shape" fill="#987086"></path>
                    <path d="M108.378448,92.9740625 C99.6059483,89.7971875 92.3459483,85.078625 84.719819,80.733 C84.4486121,81.5946875 83.5932672,81.869875 82.8432759,82.263 C88.591819,88.6603125 97.6657759,91.6459375 108.378448,92.9740625 L108.378448,92.9740625 Z" id="Shape" fill="#987086"></path>
                    <path d="M105.749828,90.6790625 C106.418457,90.391125 105.813457,89.9778125 105.749828,89.5315625 C99.6893966,85.5046875 94.5260345,80.5640625 88.1005172,76.9090625 C87.8501724,77.9290625 86.9739655,78.3115625 86.222931,78.8215625 C90.8647414,84.6865625 98.8757759,87.0984375 105.749828,90.6790625 L105.749828,90.6790625 Z" id="Shape" fill="#987086"></path>
                    <path d="M60.6877586,86.0890625 C61.8779397,86.162375 62.4923276,86.8009375 62.5663879,88.0005 C61.2718966,89.33925 59.3630172,87.4065625 60.6877586,86.0890625 L60.6877586,86.0890625 Z M65.945,89.148 C66.7805259,82.603 56.2337069,81.923 57.3091466,89.148 C61.094569,89.4890625 61.9707759,89.3934375 65.945,89.148 L65.945,89.148 Z" id="Shape" fill="#E0383E"></path>
                    <path d="M52.4263793,87.125 L51.2998276,87.125 C49.3596552,83.9375 54.3665517,83.9375 52.4263793,87.125 L52.4263793,87.125 Z M55.055,89.148 C58.2896638,84.133 48.8683534,80.54175 47.5446552,86.0890625 C48.7963793,88.3840625 52.5828448,88.096125 55.055,89.148 L55.055,89.148 Z" id="Shape" fill="#E0383E"></path>
                    <path d="M111.382586,89.148 C113.615871,77.01425 112.603017,65.188625 100.493629,63.5215625 C108.566207,67.53675 110.986207,77.3128125 111.382586,89.148 L111.382586,89.148 Z" id="Shape" fill="#987086"></path>
                    <path d="M14.8746552,88.7665625 C16.5540517,81.00925 18.5682845,70.6934375 26.5156897,68.1115625 C18.0571638,68.5578125 14.1455259,78.9384375 14.8746552,88.7665625 L14.8746552,88.7665625 Z" id="Shape" fill="#987086"></path>
                    <path d="M67.447069,88.7665625 C68.7822414,88.4265625 68.375431,88.712375 69.7001724,88.3840625 C69.7627586,87.29925 68.5736207,87.4915625 68.5736207,86.4715625 C68.9063707,85.9084375 69.1368966,85.25925 70.0756897,85.3240625 C71.1292241,85.29325 71.1292241,87.649875 70.0756897,87.6190625 C71.4838793,88.9046875 72.8294828,86.8646875 74.2053362,86.853 C74.6434397,82.58175 68.9793879,82.167375 67.0705086,84.558 C66.8942241,86.2696875 67.2697414,87.4171875 67.447069,88.7665625 L67.447069,88.7665625 Z" id="Shape" fill="#E0383E"></path>
                    <path d="M106.125345,88.7665625 C105.259569,85.8446875 101.681724,82.7315625 98.615,79.9690625 C97.3528448,78.8215625 95.6108621,77.2171875 94.1087931,76.143 C92.6703534,75.0921875 90.6050086,73.1478125 89.227069,74.9955 C93.7019828,80.7659375 100.774224,83.9003125 106.125345,88.7665625 L106.125345,88.7665625 Z" id="Shape" fill="#987086"></path>
                    <path d="M107.628457,88.3840625 C107.993543,88.3734375 107.919483,87.9165625 108.002931,87.6190625 C104.247759,79.9690625 99.2836293,73.5515625 92.23225,69.2590625 C91.949569,70.3640625 91.637681,71.4584375 90.730181,71.937625 C96.4453448,77.3340625 103.111819,81.7646875 107.628457,88.3840625 L107.628457,88.3840625 Z" id="Shape" fill="#987086"></path>
                    <path d="M109.505,86.4715625 C110.433362,85.6959375 109.963966,84.1234375 109.880517,83.0290625 C109.12844,73.2115625 105.030086,63.9146875 94.4832672,63.522625 C101.504397,69.1209375 107.158017,76.1121875 109.505,86.4715625 L109.505,86.4715625 Z" id="Shape" fill="#987086"></path>
                    <path d="M43.0384483,80.733 C44.4789741,80.41425 44.4987931,81.5405 44.9170776,82.263 C44.4163879,82.379875 44.2077672,82.804875 43.4150086,82.6455 C43.2053448,81.8496875 42.339569,81.4034375 43.0384483,80.733 L43.0384483,80.733 Z M38.9088017,81.1165625 C40.3795776,83.1884375 43.2585431,83.8259375 44.9170776,85.7055 C49.9750862,81.8805 41.6511207,76.1653125 38.9088017,81.1165625 L38.9088017,81.1165625 Z" id="Shape" fill="#E0383E"></path>
                    <path d="M56.1815517,85.7055 C58.4033621,83.13425 63.1286207,81.5096875 65.5694828,84.9415625 C66.9255172,83.2734375 70.2738793,80.37175 73.0787845,82.6465625 C73.3927586,78.6621875 75.8430086,75.1240625 80.2146552,76.5265625 C80.9020603,73.65675 82.0619914,71.2555 85.4718966,71.1705 C85.0442241,66.1778125 86.1071466,62.0128125 91.1046552,61.608 C87.5372414,59.46175 86.9426724,53.21425 89.9781034,50.133 C85.7118103,50.1553125 84.438181,44.7471875 86.2218879,40.953 C83.2386121,41.44175 82.2382759,39.91175 80.2136121,39.423 C80.0675776,37.202375 79.1287845,34.7055 79.8380948,33.6865625 C75.968181,35.0253125 71.0447328,32.6771875 71.5767155,27.183 C70.0224914,31.783625 62.1887845,32.0609375 60.6867155,27.183 C59.1856897,30.3184375 53.9701724,31.96425 51.2987845,28.7140625 C51.7160259,33.62175 47.1055086,34.9296875 42.662931,33.6865625 C43.6121552,37.436125 40.3795776,41.9740625 35.9036207,40.188 C35.0274138,41.1134375 37.217931,42.1546875 37.4056897,43.2490625 C37.499569,47.6796875 34.9533534,49.4221875 31.7739741,50.5165625 C35.382069,52.3759375 35.7158621,59.5584375 31.3974138,60.8440625 C35.2881897,61.83325 37.4682759,68.027625 34.0270776,71.1715625 C38.074319,71.6390625 40.3378534,73.9234375 40.4108707,78.4390625 C44.5196552,77.0695 47.5655172,79.715125 47.9212155,83.412625 C50.5175,81.34925 55.7956034,82.2215625 56.1815517,85.7055 L56.1815517,85.7055 Z" id="Shape" fill="#DBD27C"></path>
                    <path d="M76.4594828,81.8805 C76.5231121,81.0421875 77.4087069,81.0528125 78.3381121,81.1155 C78.8596638,81.60425 78.9952672,83.3988125 77.9625948,83.4105 C77.8468103,82.507375 76.1882759,83.1778125 76.4594828,81.8805 L76.4594828,81.8805 Z M76.0839655,85.7055 C78.2118966,84.1765625 80.8300862,83.1459375 82.4667155,81.1165625 C82.0505172,79.1190625 80.2146552,78.567625 79.0881034,77.2905 C74.2272414,76.8878125 73.6441466,82.868625 76.0839655,85.7055 L76.0839655,85.7055 Z" id="Shape" fill="#E0383E"></path>
                    <path d="M16.7532845,85.3240625 C17.1913879,85.388875 17.4208707,85.2390625 17.504319,84.942625 C19.7156983,78.132 22.8251897,72.256375 28.7698362,69.2590625 C21.3533707,69.6096875 18.2021552,77.6103125 16.7532845,85.3240625 L16.7532845,85.3240625 Z" id="Shape" fill="#987086"></path>
                    <path d="M35.9036207,74.6140625 C36.612931,74.5290625 36.7391466,75.0390625 37.4056897,74.9955 C37.4275948,76.1546875 37.6247414,77.5146875 36.2791379,77.2905 C35.0274138,76.7178125 35.1744914,75.5703125 35.9036207,74.6140625 L35.9036207,74.6140625 Z M35.9036207,72.318 C34.6101724,72.6484375 33.4429397,73.114875 32.8994828,74.2315625 C33.8706121,76.8134375 35.9244828,78.28925 37.4056897,80.3515625 C41.2338793,78.788625 38.3340517,73.2009375 35.9036207,72.318 L35.9036207,72.318 Z" id="Shape" fill="#E0383E"></path>
                    <path d="M83.9708707,75.3790625 C86.2542241,75.1771875 86.0977586,77.8546875 84.3453448,78.0565625 C83.782069,77.5146875 83.1666379,76.1971875 83.9708707,75.3790625 L83.9708707,75.3790625 Z M88.8525948,74.2315625 C87.3505259,73.3390625 85.9944914,72.2978125 83.2198362,72.7015625 C80.8937155,74.2209375 81.685431,78.6090625 83.5943103,79.9690625 C85.9412931,78.6515625 87.0887069,76.1228125 88.8525948,74.2315625 L88.8525948,74.2315625 Z" id="Shape" fill="#E0383E"></path>
                    <path d="M88.1005172,66.5805 C89.1655259,66.8896875 89.0810345,66.038625 89.9791466,66.1990625 C90.730181,67.6865625 90.3442328,69.717 88.1005172,69.2590625 C87.3609569,68.5365625 87.9231897,67.45175 88.1005172,66.5805 L88.1005172,66.5805 Z M93.3588017,63.1390625 C86.7663879,60.471125 84.095,70.2578125 88.8525948,72.7015625 C91.3769052,70.55425 92.1686207,66.6453125 93.3588017,63.1390625 L93.3588017,63.1390625 Z" id="Shape" fill="#E0383E"></path>
                    <path d="M32.1484483,65.433 C33.0246552,65.7209375 33.4627586,68.4090625 31.7739741,68.1115625 C30.6474224,68.08925 30.6150862,64.98675 32.1484483,65.433 L32.1484483,65.433 Z M31.7739741,71.9365625 C36.3010431,70.0028125 35.6532759,60.641125 28.394319,62.3740625 C28.6446638,64.976125 30.7193966,68.8978125 31.7739741,71.9365625 L31.7739741,71.9365625 Z" id="Shape" fill="#E0383E"></path>
                    <path d="M27.2677672,62.7555 C27.2781983,61.2159375 25.3056897,61.693 23.8881121,61.608 C17.2216379,59.727375 10.2641379,58.14425 5.86328448,53.9590625 C7.1984569,57.9540625 15.1886293,61.7684375 20.8839741,63.1390625 C22.7813793,63.594875 26.0880172,64.614875 27.2677672,62.7555 L27.2677672,62.7555 Z" id="Shape" fill="#987086"></path>
                    <path d="M117.453448,43.2490625 C111.977155,51.0478125 104.310345,56.8065625 94.9224138,60.4605 L94.9224138,61.608 C106.396552,61.0140625 114.427405,53.6721875 117.453448,43.2490625 L117.453448,43.2490625 Z" id="Shape" fill="#987086"></path>
                    <path d="M31.3974138,55.08 C31.449569,56.0139375 31.46,57.375 31.0218966,57.375 L29.8953448,57.375 C29.050431,56.3125 29.5511207,54.46375 31.3974138,55.08 L31.3974138,55.08 Z M28.394319,61.2265625 C34.5799224,61.172375 35.5698276,50.717375 28.394319,50.898 C28.5393103,54.27675 27.3293103,58.1453125 28.394319,61.2265625 L28.394319,61.2265625 Z" id="Shape" fill="#E0383E"></path>
                    <path d="M27.1206897,60.5625 L27.1206897,56.6365625 C18.7758621,55.2659375 10.2015517,53.8645 4.09939655,50.1340625 C4.14112069,51.8659375 6.05521552,53.6381875 7.42168103,54.5838125 C12.0426293,57.780875 19.3808621,59.5 25.7646552,60.5625 L27.1206897,60.5625 L27.1206897,60.5625 Z" id="Shape" fill="#987086"></path>
                    <path d="M90.3536207,57.018 C90.2701724,55.6590625 90.8960345,55.0109375 92.23225,55.1065625 C92.5556121,55.5528125 92.7318966,56.1255 92.6067241,57.018 C92.1268966,57.538625 90.8334483,57.538625 90.3536207,57.018 L90.3536207,57.018 Z M93.7332759,60.4605 C94.390431,58.048625 93.7019828,53.97925 93.7332759,50.133 C91.1359483,50.6419375 88.642931,52.6309375 88.8515517,55.488 C88.9975862,57.3165625 90.457931,61.1309375 93.7332759,60.4605 L93.7332759,60.4605 Z" id="Shape" fill="#E0383E"></path>
                    <path d="M27.2677672,55.4890625 C26.9642241,54.1609375 27.83,54.011125 27.6422414,52.8115625 C20.3196552,50.7609375 13.5394828,50.4953125 5.1112069,49.7505 C11.1299138,53.0559375 18.6819828,54.808 27.2677672,55.4890625 L27.2677672,55.4890625 Z" id="Shape" fill="#987086"></path>
                    <path d="M116.26431,42.483 C113.114138,43.5678125 110.142336,46.11675 106.501905,47.8390625 C103.038802,49.47425 99.0854397,51.0478125 94.8608707,51.6640625 C94.9130259,52.757375 94.6637241,54.1609375 95.2353448,54.7240625 C104.174741,52.5990625 110.319664,47.6478125 116.26431,42.483 L116.26431,42.483 Z" id="Shape" fill="#987086"></path>
                    <path d="M27.6422414,50.1340625 C27.2041379,46.8296875 20.8099138,46.968875 16.7532845,47.0740625 C12.8197414,47.1696875 8.81526724,47.9665625 5.86328448,48.2215625 C7.91819828,49.2946875 10.1504397,49.0928125 13.3736293,49.3690625 C18.442069,49.7940625 23.9392241,51.8340625 27.6422414,50.1340625 L27.6422414,50.1340625 Z" id="Shape" fill="#987086"></path>
                    <path d="M94.9224138,50.5165625 C103.267241,49.7303125 110.235172,45.0021875 116.326897,40.9540625 C109.035603,41.6765625 102.224138,45.8734375 94.9224138,48.2215625 L94.9224138,50.5165625 L94.9224138,50.5165625 Z" id="Shape" fill="#987086"></path>
                    <path d="M31.3974138,44.625 L33.2760431,44.625 C33.1289655,45.6875 33.9644914,45.5313125 33.6505172,46.6150625 C33.0987155,46.8063125 32.7127672,47.138875 32.1494914,47.34075 C31.4182759,46.2261875 30.9186293,46.75 31.3974138,44.625 L31.3974138,44.625 Z M28.7687931,49.3690625 C35.7993103,51.29325 38.8868966,42.047375 32.8994828,40.5715625 C30.5003448,42.4521875 29.5511207,45.8203125 28.7687931,49.3690625 L28.7687931,49.3690625 Z" id="Shape" fill="#E0383E"></path>
                    <path d="M88.8525948,44.3965625 C90.406819,44.087375 90.7823362,44.979875 90.730181,46.308 C89.8331121,46.1496875 89.9165603,46.998625 88.8525948,46.6915625 C88.4343103,45.4803125 88.8202586,45.8203125 88.8525948,44.3965625 L88.8525948,44.3965625 Z M93.3588017,48.9855 C92.9415603,45.3305 91.1463793,43.088625 89.6025862,40.5705 C83.45975,42.058 87.8293103,51.5578125 93.3588017,48.9855 L93.3588017,48.9855 Z" id="Shape" fill="#E0383E"></path>
                    <path d="M114.763284,39.8065625 C107.430267,39.7321875 99.7624138,42.6328125 93.734319,45.1615625 C93.5872414,46.0753125 94.4227672,45.9903125 94.1087931,47.0740625 C100.336121,45.489875 107.795353,41.8890625 114.763284,39.8065625 L114.763284,39.8065625 Z" id="Shape" fill="#987086"></path>
                    <path d="M6.61327586,46.6915625 C10.5885431,47.26425 17.3050862,45.9159375 22.3860431,46.308 C25.117931,46.5215625 28.9680259,48.422375 29.1443103,44.7790625 C27.4336207,43.0896875 24.3773276,43.1640625 21.6339655,43.250125 C16.3881983,43.407375 10.285,44.9171875 6.61327586,46.6915625 L6.61327586,46.6915625 Z" id="Shape" fill="#987086"></path>
                    <path d="M6.23775862,45.1615625 C10.7335345,44.7790625 17.0130172,41.9421875 24.2615431,42.1015625 C26.5042155,42.143 28.7166379,43.4605 30.2708621,42.483 C30.2187069,42.03675 30.3532672,41.803 30.6463793,41.718 C29.1954224,39.44425 25.6801638,39.327375 22.7594741,39.423 C16.6687931,39.6046875 9.97311207,42.854875 6.23775862,45.1615625 L6.23775862,45.1615625 Z" id="Shape" fill="#987086"></path>
                    <path d="M4.73568966,45.1615625 C10.8065517,40.4759375 21.0821638,36.6934375 31.0218966,39.4240625 C30.5733621,37.5009375 28.1846552,36.3534375 26.8912069,35.982625 C18.4013879,33.5271875 8.07362069,40.103 4.73568966,45.1615625 L4.73568966,45.1615625 Z" id="Shape" fill="#987086"></path>
                    <path d="M111.612069,39.0405 C104.957069,38.243625 97.0086207,40.103 92.8362069,42.483 L92.8362069,43.6305 C98.0517241,42.9834375 104.884052,39.8490625 111.612069,39.0405 L111.612069,39.0405 Z" id="Shape" fill="#987086"></path>
                    <path d="M91.4801724,41.3355 C97.8639655,39.157375 104.988362,37.7453125 113.260172,37.5105 C107.545009,35.013625 95.8194828,35.523625 89.9791466,37.5105 C90.0302586,39.2434375 91.042069,39.9978125 91.4801724,41.3355 L91.4801724,41.3355 Z" id="Shape" fill="#987086"></path>
                    <path d="M84.3453448,34.8340625 C85.5136207,34.7905 85.4718966,35.9815625 85.4718966,37.1290625 C84.5748276,36.9696875 84.6582759,37.818625 83.5932672,37.5105 C83.1457759,37.0005 83.2187931,34.8755 84.3453448,34.8340625 L84.3453448,34.8340625 Z M88.4760345,37.893 C86.8592241,35.0784375 85.3571552,32.1459375 82.4667155,30.6255 C81.8210345,32.463625 80.6412845,33.0809375 80.5901724,34.8340625 C80.475431,39.0946875 85.8067328,42.058 88.4760345,37.893 L88.4760345,37.893 Z" id="Shape" fill="#E0383E"></path>
                    <path d="M39.2832759,35.2165625 C40.6601724,38.6484375 37.4578448,37.5540625 37.4275948,36.3746875 C37.4056897,35.9178125 37.8761293,35.438625 39.2832759,35.2165625 L39.2832759,35.2165625 Z M40.7853448,31.773 C38.0221638,33.28175 36.26975,35.83175 34.0270776,37.893 C37.6247414,42.2503125 44.2275862,36.8421875 40.7853448,31.773 L40.7853448,31.773 Z" id="Shape" fill="#E0383E"></path>
                    <path d="M32.8994828,37.5115625 C34.172069,36.2259375 31.6686207,34.08925 30.6474224,32.5390625 C27.5587931,27.8109375 24.7841379,21.4890625 23.8881121,14.1790625 C22.2702586,24.6234375 27.4857759,31.422375 31.7750172,37.130125 C32.3153448,37.096125 32.8368966,37.0653125 32.8994828,37.5115625 L32.8994828,37.5115625 Z" id="Shape" fill="#987086"></path>
                    <path d="M111.382586,35.9815625 C111.747672,34.2921875 109.2025,34.779875 108.002931,34.4515625 C102.964741,33.0596875 93.4631121,32.2628125 88.1005172,34.4515625 C88.2475948,38.158625 92.3261293,35.5671875 94.8598276,35.2165625 C99.6998276,34.5365625 106.605172,34.8021875 111.382586,35.9815625 L111.382586,35.9815625 Z" id="Shape" fill="#987086"></path>
                    <path d="M35.9036207,34.8340625 C31.7531121,27.33175 26.2142328,21.243625 25.0146638,10.7355 C24.1175948,21.4678125 29.4061293,29.212375 34.0270776,35.598 C35.2266466,35.927375 35.1943103,34.9934375 35.9036207,34.8340625 L35.9036207,34.8340625 Z" id="Shape" fill="#987086"></path>
                    <path d="M115.137759,35.2165625 C115.785526,35.35575 115.847069,34.920125 115.889836,34.4515625 C112.843974,32.5284375 109.078371,28.9159375 103.872241,28.3305 C101.608707,28.0765625 98.3740431,28.0765625 96.3618966,29.478 C102.891724,28.9265625 110.996638,30.5628125 115.137759,35.2165625 L115.137759,35.2165625 Z" id="Shape" fill="#987086"></path>
                    <path d="M38.9088017,31.0090625 C33.4731897,24.9528125 29.5417328,17.354875 26.5156897,8.8240625 C25.4423362,15.2840625 28.4464741,20.7028125 31.3974138,25.6540625 C33.255181,28.7565625 34.6529397,31.2428125 36.6556983,33.687625 C37.9793966,33.36675 38.4175,32.1565625 38.9088017,31.0090625 L38.9088017,31.0090625 Z" id="Shape" fill="#987086"></path>
                    <path d="M47.5446552,29.1975 C47.6698276,30.09 48.1392241,29.75 47.9201724,31.875 L46.0425862,31.875 C45.8965517,29.75 46.1886207,29.208125 47.5446552,29.1975 L47.5446552,29.1975 Z M49.0477672,26.4190625 C46.8781121,28.149875 43.7905259,28.9584375 41.9118966,31.008 C44.2588793,35.9921875 53.7417328,31.5721875 49.0477672,26.4190625 L49.0477672,26.4190625 Z" id="Shape" fill="#E0383E"></path>
                    <path d="M75.332931,28.6163125 C76.2414741,28.764 76.1580259,27.865125 77.2115603,28.1828125 C77.9625948,28.906375 77.399319,29.75 77.2115603,30.8125 L75.7094914,30.8125 C75.281819,30.8125 75.29225,29.55025 75.332931,28.6163125 L75.332931,28.6163125 Z M81.7177672,29.8605 C79.3593103,28.05425 76.7734569,26.48175 73.4563879,25.653 C70.5148362,32.7505 79.5481121,35.0784375 81.7177672,29.8605 L81.7177672,29.8605 Z" id="Shape" fill="#E0383E"></path>
                    <path d="M86.222931,32.5390625 C92.8675,27.5771875 92.7204224,11.1934375 87.3494828,4.9990625 C90.6342155,12.9455 88.9141379,24.52675 85.4718966,31.008 C85.2017328,32.04925 86.222931,31.773 86.222931,32.5390625 L86.222931,32.5390625 Z" id="Shape" fill="#987086"></path>
                    <path d="M40.7853448,30.6255 C37.6779397,22.9446875 31.8146552,14.773 27.6422414,6.9115625 C27.3293103,11.8734375 30.4805259,16.02675 32.5239655,19.9155 C34.6529397,23.9434375 36.9686293,27.7471875 39.6598362,31.008 C40.2637931,31.1153125 40.3065603,30.6478125 40.7853448,30.6255 L40.7853448,30.6255 Z" id="Shape" fill="#987086"></path>
                    <path d="M83.5943103,30.2440625 C88.4447414,25.5371875 89.8425,13.1696875 86.5994914,5.7640625 C85.566819,9.0896875 86.1916379,17.9296875 84.3463879,24.1240625 C83.6673276,26.3978125 81.7375862,28.766125 83.5943103,30.2440625 L83.5943103,30.2440625 Z" id="Shape" fill="#987086"></path>
                    <path d="M64.8184483,25.6540625 C66.3205172,25.3990625 67.12475,25.854875 67.0715517,27.183 C66.8212069,27.9384375 66.0712155,28.2040625 65.1950086,28.3305 C64.6515517,27.3753125 64.2864655,26.82175 64.8184483,25.6540625 L64.8184483,25.6540625 Z M70.8267241,25.6540625 C68.4578362,23.062625 63.5562931,24.1145 60.6867155,23.7415625 C60.187069,30.1484375 69.9505172,32.1671875 70.8267241,25.6540625 L70.8267241,25.6540625 Z" id="Shape" fill="#E0383E"></path>
                    <path d="M55.055,25.6540625 C56.0761983,25.2396875 56.8178448,25.4096875 57.3081034,26.420125 C56.7448276,26.9928125 56.7448276,28.1296875 55.4305172,27.9490625 C55.0028448,27.4921875 55.0132759,26.5890625 55.055,25.6540625 L55.055,25.6540625 Z M59.1856897,24.1240625 C56.1293966,24.05925 54.4708621,25.4415625 51.6753448,25.653 C52.1447414,30.4884375 60.5531983,30.8178125 59.1856897,24.1240625 L59.1856897,24.1240625 Z" id="Shape" fill="#E0383E"></path>
                    <path d="M44.5405172,27.9490625 C40.6601724,20.5646875 35.8201724,14.1365625 30.2708621,8.442625 C32.6282759,15.348875 37.802069,22.701375 41.9108534,29.0965625 C43.3305172,29.2665625 43.6747414,28.3421875 44.5405172,27.9490625 L44.5405172,27.9490625 Z" id="Shape" fill="#987086"></path>
                    <path d="M81.7177672,27.9490625 C84.9816379,22.5303125 85.8265517,11.2455 84.7208621,3.8515625 C82.6669914,11.3103125 82.0192241,20.2140625 78.7125862,26.4190625 C79.6513793,26.99175 80.2469914,27.9171875 81.7177672,27.9490625 L81.7177672,27.9490625 Z" id="Shape" fill="#987086"></path>
                    <path d="M77.2115603,26.0365625 C80.445181,21.0428125 82.1026724,14.433 82.844319,6.9115625 C79.819319,12.3621875 77.8061293,18.853 75.7084483,25.2715625 C76.4083707,25.323625 76.9706034,25.5159375 77.2115603,26.0365625 L77.2115603,26.0365625 Z" id="Shape" fill="#987086"></path>
                    <path d="M53.9284483,24.5055 C54.2309483,24.3046875 54.5438793,24.10175 55.055,24.1240625 C54.6054224,20.1290625 51.5814655,16.356125 48.6712069,13.7955 C44.6552586,10.24675 39.1268103,7.048625 33.275,5.763 C41.6198276,10.533625 49.6412931,15.6134375 53.9284483,24.5055 L53.9284483,24.5055 Z" id="Shape" fill="#987086"></path>
                    <path d="M73.4563879,24.5055 C74.0613879,24.61175 74.102069,24.14425 74.5829397,24.1240625 C77.6392328,17.2815625 80.172931,9.9290625 83.2187931,3.0855 C79.8182759,6.3165625 77.429569,12.4365625 75.3318879,17.6205 C74.5099224,19.6721875 72.4237155,21.9555 73.4563879,24.5055 L73.4563879,24.5055 Z" id="Shape" fill="#987086"></path>
                    <path d="M81.7177672,3.4690625 C76.6795776,5.1584375 69.6386293,16.558 69.3246552,23.3590625 C69.9192241,23.3909375 70.765181,23.1678125 70.8267241,23.7415625 C75.1451724,17.6853125 76.6900086,8.7921875 81.7177672,3.4690625 L81.7177672,3.4690625 Z" id="Shape" fill="#987086"></path>
                    <path d="M68.1981034,23.358 C69.8775,14.1046875 74.4994914,7.8455 80.2156983,2.7040625 C72.0481983,4.7121875 66.2589741,14.4871875 64.4439741,22.9765625 C66.5291379,22.8171875 66.6334483,22.7003125 68.1981034,23.358 L68.1981034,23.358 Z" id="Shape" fill="#987086"></path>
                    <path d="M56.1815517,22.9765625 C56.6196552,23.0403125 56.8491379,22.8915625 56.9325862,22.5940625 C54.0744828,11.098875 45.4281983,5.4984375 32.5239655,4.2340625 C43.2053448,7.6340625 51.8213793,13.1378125 56.1815517,22.9765625 L56.1815517,22.9765625 Z" id="Shape" fill="#987086"></path>
                    <path d="M62.1898276,23.375 C66.2381121,17 68.4588793,8.395875 74.9574138,4.43275 C71.8802586,4.624 68.97,7.435375 66.6960345,10.0714375 C63.9735345,13.2270625 61.7830172,17.2433125 60.6867155,22.07875 C60.489569,22.9276875 61.4075,22.3125 61.4387931,23.375 L62.1898276,23.375 L62.1898276,23.375 Z" id="Shape" fill="#987086"></path>
                    <path d="M58.8112155,21.8290625 C61.0528448,19.0028125 61.7319052,15.1459375 63.6918966,12.2665625 C65.6539741,9.3978125 68.4807845,6.0403125 71.2032845,4.233 C72.7679397,3.1928125 74.8113793,3.606125 75.7084483,1.5555 C66.7899138,4.9555 59.0824224,9.6103125 58.8112155,21.8290625 L58.8112155,21.8290625 Z" id="Shape" fill="#987086"></path>
                    <path d="M78.3381121,85.7055 C77.2522414,88.2555 78.1399224,91.6884375 77.9625948,94.8865625 C77.6183707,101.02675 76.3040603,106.744063 73.8319052,110.569063 C78.9837931,108.422813 84.2420776,93.228 78.3381121,85.7055 L78.3381121,85.7055 Z" id="Shape" fill="#987086"></path>
                    <path d="M94.1087931,65.433 C93.7760431,66.2415625 92.9718103,66.5603125 92.9822414,67.728 C98.6567241,72.9246875 104.321819,78.1096875 108.002931,85.3240625 C108.253276,82.07175 105.249138,78.0671875 103.121207,74.6140625 C100.878534,70.9590625 98.3855172,67.0055 94.1087931,65.433 L94.1087931,65.433 Z" id="Shape" fill="#987086"></path>
                    <path d="M27.6422414,65.8165625 C22.1555172,63.49925 14.7400948,63.148625 10.3684483,59.6955 C12.694569,63.5428125 20.277931,67.0703125 27.6422414,65.8165625 L27.6422414,65.8165625 Z" id="Shape" fill="#987086"></path>
                    <path d="M94.9224138,56.2540625 L94.9224138,58.548 C103.267241,56.5505 108.953198,52.173 113.323802,46.3069375 C108.555776,49.484875 102.224138,53.8846875 94.9224138,56.2540625 L94.9224138,56.2540625 Z" id="Shape" fill="#987086"></path>
                    <path d="M111.758103,34.4515625 C108.316905,30.308875 94.3184569,28.5855 88.1005172,32.5390625 C95.6943103,32.1990625 105.134397,31.592375 111.758103,34.4515625 L111.758103,34.4515625 Z" id="Shape" fill="#987086"></path>
                    <path d="M45.667069,27.183 C47.0022414,27.002375 47.7219828,26.2171875 48.6712069,25.6540625 C45.1037931,17.6853125 39.0016379,12.2984375 31.7739741,8.058 C35.8733707,13.444875 41.6198276,20.4690625 45.667069,27.183 L45.667069,27.183 Z" id="Shape" fill="#987086"></path>
                    <path d="M52.0508621,24.8890625 C50.1524138,16.7715625 39.1998276,9.0471875 32.1484483,7.2940625 C38.99225,10.618625 43.8625,16.6759375 48.6712069,22.593 C49.4337155,23.5184375 49.902069,26.0365625 52.0508621,24.8890625 L52.0508621,24.8890625 Z" id="Shape" fill="#987086"></path>
                    <path d="M62.5653448,88.0005 C62.4923276,86.8009375 61.8768966,86.1634375 60.6867155,86.0890625 C59.3630172,87.4065625 61.2718966,89.33925 62.5653448,88.0005 L62.5653448,88.0005 Z" id="Shape" fill="#000000"></path>
                    <path d="M51.2998276,87.125 L52.4263793,87.125 C54.3665517,83.9375 49.3596552,83.9375 51.2998276,87.125 L51.2998276,87.125 Z" id="Shape" fill="#000000"></path>
                    <path d="M77.9615517,83.4115625 C78.9942241,83.399875 78.8586207,81.6053125 78.337069,81.1165625 C77.4076638,81.0528125 76.522069,81.04325 76.4584397,81.8815625 C76.1882759,83.1778125 77.8468103,82.507375 77.9615517,83.4115625 L77.9615517,83.4115625 Z" id="Shape" fill="#000000"></path>
                    <path d="M43.4139655,82.6465625 C44.2077672,82.804875 44.4153448,82.3809375 44.9160345,82.2640625 C44.4987931,81.5405 44.477931,80.4153125 43.0374052,80.7340625 C42.339569,81.4034375 43.2053448,81.8496875 43.4139655,82.6465625 L43.4139655,82.6465625 Z" id="Shape" fill="#000000"></path>
                    <path d="M84.3453448,78.0565625 C86.0977586,77.85575 86.2542241,75.1771875 83.9708707,75.3790625 C83.1666379,76.1971875 83.782069,77.5146875 84.3453448,78.0565625 L84.3453448,78.0565625 Z" id="Shape" fill="#000000"></path>
                    <path d="M36.2791379,77.2905 C37.6247414,77.5146875 37.4275948,76.1546875 37.4056897,74.9955 C36.7381034,75.0390625 36.6118879,74.5290625 35.9036207,74.6140625 C35.1744914,75.5703125 35.0274138,76.7178125 36.2791379,77.2905 L36.2791379,77.2905 Z" id="Shape" fill="#000000"></path>
                    <path d="M88.1005172,69.2590625 C90.3431897,69.717 90.730181,67.687625 89.9791466,66.1990625 C89.0820776,66.0396875 89.1655259,66.8896875 88.1005172,66.5805 C87.9231897,67.45175 87.3609569,68.5365625 88.1005172,69.2590625 L88.1005172,69.2590625 Z" id="Shape" fill="#000000"></path>
                    <path d="M31.7739741,68.1105 C33.4627586,68.408 33.0246552,65.719875 32.1484483,65.4319375 C30.6150862,64.98675 30.6474224,68.08925 31.7739741,68.1105 L31.7739741,68.1105 Z" id="Shape" fill="#000000"></path>
                    <path d="M29.8953448,57.375 L31.0218966,57.375 C31.46,57.375 31.449569,56.0139375 31.3963707,55.08 C29.5511207,54.46375 29.050431,56.3125 29.8953448,57.375 L29.8953448,57.375 Z" id="Shape" fill="#000000"></path>
                    <path d="M92.6067241,57.018 C92.7318966,56.1255 92.554569,55.5528125 92.23225,55.1065625 C90.8960345,55.0109375 90.2701724,55.6590625 90.3536207,57.018 C90.8334483,57.538625 92.1268966,57.538625 92.6067241,57.018 L92.6067241,57.018 Z" id="Shape" fill="#000000"></path>
                    <path d="M32.1484483,47.379 C32.7117241,47.1781875 33.0976724,46.7680625 33.6494741,46.5768125 C33.9644914,45.492 33.1289655,45.6875 33.275,44.625 L31.3974138,44.625 C30.9186293,46.75 31.4182759,46.2644375 32.1484483,47.379 L32.1484483,47.379 Z" id="Shape" fill="#000000"></path>
                    <path d="M88.8525948,46.6915625 C89.9165603,46.998625 89.832069,46.148625 90.730181,46.308 C90.7823362,44.979875 90.406819,44.087375 88.8525948,44.3965625 C88.8202586,45.8203125 88.4343103,45.4803125 88.8525948,46.6915625 L88.8525948,46.6915625 Z" id="Shape" fill="#000000"></path>
                    <path d="M39.2832759,35.2165625 C37.8750862,35.4396875 37.4056897,35.9178125 37.4275948,36.3746875 C37.4578448,37.5540625 40.6601724,38.6484375 39.2832759,35.2165625 L39.2832759,35.2165625 Z" id="Shape" fill="#000000"></path>
                    <path d="M83.5943103,37.5115625 C84.659319,37.8196875 84.5748276,36.9696875 85.4729397,37.130125 C85.4729397,35.982625 85.5146638,34.7915625 84.3463879,34.835125 C83.2187931,34.8755 83.1457759,37.0005 83.5943103,37.5115625 L83.5943103,37.5115625 Z" id="Shape" fill="#000000"></path>
                    <path d="M46.0436293,31.875 L47.9212155,31.875 C48.1402672,29.75 47.6708707,30.09 47.5456983,29.1975 C46.1886207,29.208125 45.8965517,29.75 46.0436293,31.875 L46.0436293,31.875 Z" id="Shape" fill="#000000"></path>
                    <path d="M75.7084483,30.8125 L77.2105172,30.8125 C77.3982759,29.75 77.9615517,28.95525 77.2105172,28.23275 C76.1569828,27.9150625 76.240431,28.715125 75.3318879,28.5674375 C75.29225,29.501375 75.281819,30.8125 75.7084483,30.8125 L75.7084483,30.8125 Z" id="Shape" fill="#000000"></path>
                    <path d="M65.1950086,28.3305 C66.0712155,28.2040625 66.8212069,27.9384375 67.0715517,27.183 C67.12475,25.854875 66.3205172,25.398 64.8184483,25.6540625 C64.2864655,26.82175 64.6515517,27.3753125 65.1950086,28.3305 L65.1950086,28.3305 Z" id="Shape" fill="#000000"></path>
                    <path d="M55.4315603,27.9490625 C56.7458707,28.1296875 56.7458707,26.9928125 57.3091466,26.420125 C56.8188879,25.4096875 56.0772414,25.24075 55.0560431,25.6540625 C55.0132759,26.5890625 55.0028448,27.4921875 55.4315603,27.9490625 L55.4315603,27.9490625 Z" id="Shape" fill="#000000"></path>
                    <path d="M75.7084483,1.5565625 C74.8113793,3.6071875 72.7679397,3.1928125 71.2032845,4.2340625 C68.4807845,6.0403125 65.6539741,9.3978125 63.6918966,12.267625 C61.7319052,15.147 61.0538879,19.003875 58.8112155,21.830125 C59.0824224,9.6103125 66.7899138,4.9555 75.7084483,1.5565625 L75.7084483,1.5565625 Z M61.4387931,23.375 C61.4075,22.3125 60.489569,22.87775 60.6867155,22.02775 C61.7830172,17.1923125 63.9724914,13.226 66.6960345,10.070375 C68.97,7.435375 71.8802586,4.672875 74.9574138,4.481625 C68.4588793,8.4458125 66.2381121,17 62.1898276,23.375 L61.4387931,23.375 L61.4387931,23.375 Z M32.5239655,4.233 C45.4281983,5.497375 54.0744828,11.0978125 56.9325862,22.593 C56.8491379,22.8905 56.6196552,23.03925 56.1815517,22.9755 C51.8213793,13.1378125 43.2053448,7.6340625 32.5239655,4.233 L32.5239655,4.233 Z M64.442931,22.9765625 C66.257931,14.4871875 72.0471552,4.7121875 80.2146552,2.7040625 C74.4994914,7.8465625 69.8775,14.1046875 68.1970603,23.358 C66.6334483,22.7003125 66.5291379,22.8171875 64.442931,22.9765625 L64.442931,22.9765625 Z M70.8267241,23.7415625 C70.7641379,23.1678125 69.9192241,23.3909375 69.3246552,23.3590625 C69.6386293,16.5590625 76.6795776,5.1584375 81.7177672,3.4690625 C76.6900086,8.7921875 75.1451724,17.6853125 70.8267241,23.7415625 L70.8267241,23.7415625 Z M75.332931,17.6205 C77.4306121,12.4365625 79.819319,6.3165625 83.2198362,3.0855 C80.1739741,9.928 77.6392328,17.2805 74.5839828,24.1240625 C74.1031121,24.1453125 74.062431,24.61175 73.457431,24.5055 C72.4237155,21.9555 74.5099224,19.6721875 75.332931,17.6205 L75.332931,17.6205 Z M33.275,5.7640625 C39.1257672,7.0496875 44.6552586,10.2478125 48.6712069,13.7965625 C51.5814655,16.3571875 54.6054224,20.130125 55.055,24.125125 C54.5438793,24.1028125 54.2309483,24.30575 53.9284483,24.5065625 C49.6412931,15.6134375 41.6198276,10.533625 33.275,5.7640625 L33.275,5.7640625 Z M48.6712069,22.5940625 C43.8635431,16.677 38.99225,10.618625 32.1484483,7.295125 C39.1998276,9.0471875 50.1524138,16.772625 52.0508621,24.890125 C49.902069,26.0365625 49.4337155,23.5184375 48.6712069,22.5940625 L48.6712069,22.5940625 Z M75.7084483,25.2715625 C77.8061293,18.853 79.8182759,12.3621875 82.844319,6.9115625 C82.1026724,14.433 80.4441379,21.0428125 77.2115603,26.0365625 C76.9706034,25.5159375 76.4083707,25.323625 75.7084483,25.2715625 L75.7084483,25.2715625 Z M31.7739741,8.058 C39.002681,12.297375 45.1037931,17.6853125 48.6712069,25.6540625 C47.7219828,26.2171875 47.0022414,27.0034375 45.667069,27.183 C41.6198276,20.4690625 35.8733707,13.444875 31.7739741,8.058 L31.7739741,8.058 Z M78.7125862,26.4190625 C82.0192241,20.2140625 82.6669914,11.30925 84.7208621,3.8515625 C85.8275948,11.2455 84.9816379,22.5303125 81.7177672,27.9490625 C80.2469914,27.9171875 79.6513793,26.99175 78.7125862,26.4190625 L78.7125862,26.4190625 Z M41.9118966,29.0965625 C37.8031121,22.7003125 32.629319,15.348875 30.2719052,8.442625 C35.8201724,14.1365625 40.6612155,20.5646875 44.5415603,27.9490625 C43.6747414,28.3421875 43.3305172,29.2665625 41.9118966,29.0965625 L41.9118966,29.0965625 Z M51.6753448,25.6540625 C54.4719052,25.442625 56.1304397,24.0603125 59.1856897,24.125125 C60.5531983,30.8178125 52.1447414,30.4884375 51.6753448,25.6540625 L51.6753448,25.6540625 Z M60.6877586,23.7415625 C63.5573362,24.1145 68.4588793,23.0615625 70.8277672,25.6540625 C69.9505172,32.1671875 60.187069,30.1484375 60.6877586,23.7415625 L60.6877586,23.7415625 Z M84.3453448,24.1240625 C86.1916379,17.9296875 85.5657759,9.0896875 86.5984483,5.7640625 C89.8414569,13.1696875 88.4447414,25.5371875 83.5932672,30.2440625 C81.7375862,28.766125 83.6673276,26.3978125 84.3453448,24.1240625 L84.3453448,24.1240625 Z M39.6598362,31.0090625 C36.9686293,27.74825 34.6529397,23.9445 32.5239655,19.9165625 C30.4805259,16.0278125 27.3303534,11.8745 27.6422414,6.912625 C31.8146552,14.7740625 37.6768966,22.94575 40.7853448,30.6265625 C40.3065603,30.6478125 40.2637931,31.1153125 39.6598362,31.0090625 L39.6598362,31.0090625 Z M85.4718966,31.0090625 C88.9141379,24.52675 90.6342155,12.9465625 87.3494828,5.000125 C92.7204224,11.1945 92.8675,27.57825 86.222931,32.540125 C86.222931,31.773 85.2017328,32.04925 85.4718966,31.0090625 L85.4718966,31.0090625 Z M73.4563879,25.6540625 C76.7734569,26.4828125 79.3593103,28.0553125 81.7177672,29.8615625 C79.5481121,35.0784375 70.5148362,32.7505 73.4563879,25.6540625 L73.4563879,25.6540625 Z M41.9118966,31.0090625 C43.7905259,28.9584375 46.8781121,28.1509375 49.0477672,26.420125 C53.7417328,31.5721875 44.2588793,35.9921875 41.9118966,31.0090625 L41.9118966,31.0090625 Z M36.6556983,33.6865625 C34.6529397,31.24175 33.255181,28.7555 31.3974138,25.653 C28.4464741,20.70175 25.4423362,15.283 26.5156897,8.823 C29.5406897,17.3538125 33.4731897,24.95175 38.9088017,31.008 C38.4175,32.1565625 37.9793966,33.36675 36.6556983,33.6865625 L36.6556983,33.6865625 Z M88.1005172,32.5390625 C94.3184569,28.5855 108.316905,30.3078125 111.758103,34.4515625 C105.134397,31.592375 95.6943103,32.1990625 88.1005172,32.5390625 L88.1005172,32.5390625 Z M96.3618966,29.478 C98.3750862,28.0765625 101.608707,28.0765625 103.872241,28.3305 C109.077328,28.9159375 112.843974,32.5284375 115.889836,34.4515625 C115.847069,34.9190625 115.785526,35.35575 115.137759,35.2165625 C110.996638,30.5628125 102.891724,28.9265625 96.3618966,29.478 L96.3618966,29.478 Z M34.0260345,35.5990625 C29.4050862,29.212375 24.1165517,21.4678125 25.0136207,10.7365625 C26.2131897,21.2446875 31.752069,27.3328125 35.9025776,34.835125 C35.1943103,34.9934375 35.2266466,35.927375 34.0260345,35.5990625 L34.0260345,35.5990625 Z M94.8598276,35.2165625 C92.3250862,35.5671875 88.2465517,38.1596875 88.1005172,34.4515625 C93.4631121,32.2628125 102.964741,33.0596875 108.002931,34.4515625 C109.2025,34.7809375 111.747672,34.29325 111.382586,35.9815625 C106.605172,34.8021875 99.6998276,34.5365625 94.8598276,35.2165625 L94.8598276,35.2165625 Z M31.7739741,37.1290625 C27.4857759,31.422375 22.2702586,24.622375 23.887069,14.178 C24.7830948,21.488 27.5587931,27.809875 30.6463793,32.538 C31.6675776,34.0881875 34.1710259,36.224875 32.8984397,37.5105 C32.8368966,37.0653125 32.3153448,37.096125 31.7739741,37.1290625 L31.7739741,37.1290625 Z M34.0260345,37.893 C36.2687069,35.8328125 38.0211207,33.28175 40.7843017,31.773 C44.2275862,36.8421875 37.6247414,42.2503125 34.0260345,37.893 L34.0260345,37.893 Z M80.5912155,34.8340625 C80.6423276,33.0809375 81.8220776,32.4646875 82.4677586,30.6255 C85.3581983,32.1459375 86.8602672,35.077375 88.4770776,37.893 C85.8067328,42.058 80.475431,39.0946875 80.5912155,34.8340625 L80.5912155,34.8340625 Z M89.9791466,37.5115625 C95.8205259,35.5246875 107.545009,35.0146875 113.260172,37.5115625 C104.988362,37.746375 97.8639655,39.1584375 91.4801724,41.3365625 C91.042069,39.9978125 90.0302586,39.2434375 89.9791466,37.5115625 L89.9791466,37.5115625 Z M92.8362069,43.6305 L92.8362069,42.483 C97.0086207,40.103 104.957069,38.243625 111.612069,39.0405 C104.884052,39.8490625 98.0517241,42.9834375 92.8362069,43.6305 L92.8362069,43.6305 Z M26.8912069,35.9815625 C28.1846552,36.3534375 30.5733621,37.5009375 31.0218966,39.423 C21.0821638,36.6934375 10.8065517,40.474875 4.73568966,45.1605 C8.07362069,40.103 18.4013879,33.5271875 26.8912069,35.9815625 L26.8912069,35.9815625 Z M22.7605172,39.423 C25.6812069,39.327375 29.1964655,39.4453125 30.6474224,41.718 C30.3543103,41.803 30.21975,42.03675 30.2719052,42.483 C28.717681,43.4605 26.5063017,42.143 24.2625862,42.1015625 C17.0140603,41.9421875 10.7335345,44.7790625 6.23880172,45.1615625 C9.97311207,42.854875 16.6687931,39.6046875 22.7605172,39.423 L22.7605172,39.423 Z M21.6339655,43.2490625 C24.3773276,43.1640625 27.4346638,43.0896875 29.1443103,44.778 C28.9669828,48.422375 25.117931,46.5215625 22.3860431,46.3069375 C17.3050862,45.914875 10.5875,47.2631875 6.61327586,46.6905 C10.285,44.9171875 16.3881983,43.407375 21.6339655,43.2490625 L21.6339655,43.2490625 Z M94.1087931,47.0740625 C94.4227672,45.9903125 93.5872414,46.076375 93.734319,45.1615625 C99.7624138,42.6328125 107.430267,39.7321875 114.763284,39.8065625 C107.795353,41.8890625 100.336121,45.489875 94.1087931,47.0740625 L94.1087931,47.0740625 Z M89.6025862,40.5715625 C91.1453362,43.0896875 92.9405172,45.3305 93.3588017,48.9865625 C87.8293103,51.5578125 83.45975,42.058 89.6025862,40.5715625 L89.6025862,40.5715625 Z M32.8994828,40.5715625 C38.8868966,42.0484375 35.7993103,51.29325 28.7687931,49.3690625 C29.5511207,45.8203125 30.5003448,42.4521875 32.8994828,40.5715625 L32.8994828,40.5715625 Z M94.9224138,48.2215625 C102.224138,45.8734375 109.03456,41.6765625 116.326897,40.9540625 C110.235172,45.0021875 103.267241,49.7303125 94.9224138,50.5165625 L94.9224138,48.2215625 L94.9224138,48.2215625 Z M13.3725862,49.3690625 C10.1493966,49.0928125 7.91715517,49.2946875 5.86224138,48.2215625 C8.81422414,47.9665625 12.8197414,47.1696875 16.7522414,47.0740625 C20.8099138,46.9678125 27.2041379,46.8296875 27.6411983,50.1340625 C23.9392241,51.8340625 18.442069,49.7940625 13.3725862,49.3690625 L13.3725862,49.3690625 Z M95.2353448,54.7240625 C94.662681,54.1609375 94.9119828,52.757375 94.8608707,51.6640625 C99.0854397,51.0478125 103.038802,49.47425 106.501905,47.8390625 C110.142336,46.11675 113.115181,43.56675 116.26431,42.483 C110.319664,47.6478125 104.174741,52.5990625 95.2353448,54.7240625 L95.2353448,54.7240625 Z M5.1112069,49.7505 C13.5394828,50.4953125 20.3196552,50.7609375 27.6422414,52.8115625 C27.83,54.011125 26.9642241,54.1609375 27.2677672,55.4890625 C18.6819828,54.808 11.1299138,53.0559375 5.1112069,49.7505 L5.1112069,49.7505 Z M113.323802,46.308 C108.953198,52.173 103.267241,56.5515625 94.9224138,58.548 L94.9224138,56.2540625 C102.224138,53.8846875 108.555776,49.484875 113.323802,46.308 L113.323802,46.308 Z M88.8525948,55.4890625 C88.6439741,52.632 91.1359483,50.643 93.734319,50.1340625 C93.7030259,53.9803125 94.3914741,58.0496875 93.734319,60.4615625 C90.457931,61.1309375 88.9975862,57.3165625 88.8525948,55.4890625 L88.8525948,55.4890625 Z M25.7646552,60.5625 C19.3808621,59.5 11.9852586,57.780875 7.36431034,54.5838125 C5.99680172,53.6381875 4.14112069,51.79475 4.09939655,50.0639375 C10.2015517,53.7933125 18.7758621,55.2659375 27.1206897,56.6365625 L27.1206897,60.5625 L25.7646552,60.5625 L25.7646552,60.5625 Z M28.394319,50.898 C35.5698276,50.717375 34.5799224,61.172375 28.394319,61.2265625 C27.3293103,58.1453125 28.5393103,54.27675 28.394319,50.898 L28.394319,50.898 Z M94.9224138,61.608 L94.9224138,60.4605 C104.310345,56.8065625 111.977155,51.0478125 117.453448,43.2490625 C114.427405,53.6721875 106.396552,61.0140625 94.9224138,61.608 L94.9224138,61.608 Z M20.8839741,63.1390625 C15.1886293,61.7684375 7.1984569,57.9540625 5.86328448,53.9590625 C10.265181,58.14425 17.222681,59.7284375 23.8881121,61.608 C25.3056897,61.693 27.2781983,61.2159375 27.2677672,62.7555 C26.0880172,64.614875 22.7813793,63.594875 20.8839741,63.1390625 L20.8839741,63.1390625 Z M10.3684483,59.6965625 C14.7390517,63.1496875 22.1555172,63.5003125 27.6422414,65.817625 C20.277931,67.0703125 12.694569,63.5428125 10.3684483,59.6965625 L10.3684483,59.6965625 Z M28.394319,62.3740625 C35.6532759,60.641125 36.3010431,70.0028125 31.7739741,71.9365625 C30.7193966,68.8978125 28.6446638,64.976125 28.394319,62.3740625 L28.394319,62.3740625 Z M88.8525948,72.7015625 C84.095,70.2578125 86.7663879,60.471125 93.3588017,63.1390625 C92.1686207,66.6453125 91.3769052,70.55425 88.8525948,72.7015625 L88.8525948,72.7015625 Z M83.5943103,79.9690625 C81.685431,78.6090625 80.8926724,74.2209375 83.2198362,72.7015625 C85.9944914,72.2978125 87.3505259,73.340125 88.8525948,74.2315625 C87.0887069,76.1228125 85.9412931,78.6515625 83.5943103,79.9690625 L83.5943103,79.9690625 Z M37.4056897,80.3515625 C35.9244828,78.2903125 33.869569,76.8134375 32.8994828,74.2315625 C33.4429397,73.114875 34.6101724,72.6484375 35.9036207,72.318 C38.3340517,73.2009375 41.2338793,78.788625 37.4056897,80.3515625 L37.4056897,80.3515625 Z M28.7687931,69.2590625 C22.8241466,72.2553125 19.7146552,78.132 17.5032759,84.942625 C17.4198276,85.2390625 17.1903448,85.388875 16.7522414,85.3240625 C18.2021552,77.6103125 21.3533707,69.6096875 28.7687931,69.2590625 L28.7687931,69.2590625 Z M103.121207,74.6140625 C105.249138,78.0671875 108.253276,82.0728125 108.002931,85.3240625 C104.321819,78.1096875 98.6567241,72.9246875 92.9822414,67.728 C92.9718103,66.55925 93.7760431,66.2415625 94.1087931,65.433 C98.3855172,67.0055 100.878534,70.9590625 103.121207,74.6140625 L103.121207,74.6140625 Z M79.0881034,77.2905 C80.2146552,78.5665625 82.0505172,79.1190625 82.4667155,81.1165625 C80.8300862,83.1459375 78.2118966,84.1765625 76.0839655,85.7055 C73.6441466,82.868625 74.2272414,76.8878125 79.0881034,77.2905 L79.0881034,77.2905 Z M47.9201724,83.4115625 C47.5644741,79.715125 44.5186121,77.0684375 40.4098276,78.438 C40.3368103,73.922375 38.0732759,71.6390625 34.0260345,71.1705 C37.4682759,68.0265625 35.2881897,61.8321875 31.3963707,60.843 C35.7158621,59.557375 35.3810259,52.374875 31.772931,50.5155 C34.9533534,49.421125 37.4985259,47.678625 37.4046466,43.248 C37.2158448,42.153625 35.0263707,41.112375 35.9025776,40.1869375 C40.3785345,41.973 43.6121552,37.4350625 42.6618879,33.6855 C47.1055086,34.928625 51.7160259,33.6206875 51.2977414,28.713 C53.9691293,31.9631875 59.1846466,30.317375 60.6856724,27.1819375 C62.1877414,32.059875 70.0214483,31.7825625 71.5756724,27.1819375 C71.0436897,32.676125 75.9671379,35.02425 79.8370517,33.6855 C79.1277414,34.7044375 80.0675776,37.202375 80.212569,39.4219375 C82.2361897,39.9106875 83.2365259,41.4406875 86.2208448,40.9519375 C84.4371379,44.7450625 85.7107672,50.1531875 89.9770603,50.1319375 C86.9416293,53.212125 87.5361983,59.4606875 91.1036121,61.6069375 C86.1061034,62.01175 85.0421379,66.17675 85.4708534,71.1694375 C82.0599052,71.2544375 80.9010172,73.6556875 80.2136121,76.5255 C75.8430086,75.123 73.3917155,78.661125 73.0777414,82.6455 C70.2728362,80.3706875 66.9244741,83.272375 65.5684397,84.9405 C63.1275776,81.508625 58.402319,83.1331875 56.1805086,85.7044375 C55.7956034,82.2215625 50.5175,81.34925 47.9201724,83.4115625 L47.9201724,83.4115625 Z M44.9170776,85.7055 C43.2585431,83.824875 40.3795776,83.1884375 38.9088017,81.1165625 C41.6511207,76.1653125 49.9750862,81.8805 44.9170776,85.7055 L44.9170776,85.7055 Z M94.4843103,63.5215625 C105.030086,63.913625 109.129483,73.2105 109.88156,83.028 C109.965009,84.122375 110.433362,85.694875 109.506043,86.4705 C107.158017,76.1121875 101.504397,69.1209375 94.4843103,63.5215625 L94.4843103,63.5215625 Z M90.7291379,71.9365625 C91.6366379,71.4584375 91.949569,70.3640625 92.2312069,69.258 C99.2825862,73.5505 104.247759,79.968 108.001888,87.618 C107.91844,87.9144375 107.991457,88.372375 107.627414,88.383 C103.111819,81.7646875 96.4453448,77.3340625 90.7291379,71.9365625 L90.7291379,71.9365625 Z M89.227069,74.9955 C90.6039655,73.1478125 92.6703534,75.0921875 94.1087931,76.143 C95.6108621,77.2171875 97.3528448,78.8215625 98.615,79.9690625 C101.681724,82.732625 105.259569,85.8446875 106.125345,88.7665625 C100.774224,83.9003125 93.7019828,80.7659375 89.227069,74.9955 L89.227069,74.9955 Z M67.0715517,84.558 C68.980431,82.167375 74.6444828,82.5828125 74.2063793,86.853 C72.8305259,86.8646875 71.4849224,88.9046875 70.0767328,87.6190625 C71.1302672,87.649875 71.1302672,85.29325 70.0767328,85.3240625 C69.1379397,85.25925 68.9074138,85.9084375 68.5746638,86.4715625 C68.5746638,87.4915625 69.7638017,87.29925 69.7012155,88.3840625 C68.375431,88.7134375 68.7832845,88.4265625 67.4481121,88.7665625 C67.2697414,87.4171875 66.8942241,86.2696875 67.0715517,84.558 L67.0715517,84.558 Z M26.5156897,68.1105 C18.5682845,70.6934375 16.5540517,81.00925 14.8746552,88.7655 C14.1455259,78.9384375 18.0571638,68.5578125 26.5156897,68.1105 L26.5156897,68.1105 Z M100.493629,63.5215625 C112.603017,65.188625 113.615871,77.01425 111.382586,89.148 C110.986207,77.3128125 108.566207,67.53675 100.493629,63.5215625 L100.493629,63.5215625 Z M47.5446552,86.0890625 C48.8693966,80.54175 58.2896638,84.133 55.055,89.148 C52.5828448,88.096125 48.7963793,88.3840625 47.5446552,86.0890625 L47.5446552,86.0890625 Z M57.3081034,89.148 C56.2337069,81.923 66.7794828,82.603 65.9439569,89.148 C61.9707759,89.3934375 61.094569,89.4890625 57.3081034,89.148 L57.3081034,89.148 Z M86.222931,78.8215625 C86.9739655,78.312625 87.8501724,77.9290625 88.1005172,76.9090625 C94.5260345,80.563 99.6893966,85.5046875 105.749828,89.5315625 C105.813457,89.9778125 106.418457,90.3921875 105.749828,90.6790625 C98.8757759,87.0984375 90.8647414,84.6865625 86.222931,78.8215625 L86.222931,78.8215625 Z M82.844319,82.2640625 C83.5943103,81.8709375 84.4496552,81.5946875 84.7208621,80.7340625 C92.3469914,85.0796875 99.6069914,89.7971875 108.379491,92.975125 C97.6657759,91.6459375 88.591819,88.6603125 82.844319,82.2640625 L82.844319,82.2640625 Z M29.5208707,70.023 C30.0309483,71.553 30.9593103,72.6378125 31.3974138,74.2315625 C24.9103534,78.96925 20.8944052,86.2155 16.3777672,92.9740625 C18.160431,82.6678125 21.6663017,74.1253125 29.5208707,70.023 L29.5208707,70.023 Z M101.994655,94.8865625 C91.3758621,95.5984375 82.3728362,91.1253125 79.8391379,84.558 C81.9566379,82.7421875 83.9489655,85.42925 85.4718966,86.4715625 C91.1150862,90.3178125 98.0527672,92.4109375 105.748784,93.7390625 C105.217845,95.0459375 103.195267,94.8015625 101.994655,94.8865625 L101.994655,94.8865625 Z M35.5291466,79.5855 C35.5291466,80.6065625 36.7182845,80.41425 36.6556983,81.4990625 C32.2329397,86.1634375 24.9312155,91.2315625 19.0063879,95.6515625 C19.0063879,96.033 18.3481897,96.128625 18.2543103,95.6515625 C23.7003534,89.9671875 27.9666466,83.0928125 35.5291466,79.5855 L35.5291466,79.5855 Z M32.1484483,75.3790625 C32.7221552,76.578625 33.8268017,77.2384375 34.0260345,78.8205 C27.0476724,83.55925 22.092931,90.3805 16.3767241,96.4155 C19.8825948,87.6084375 24.7215517,80.1815625 32.1484483,75.3790625 L32.1484483,75.3790625 Z M34.4015517,85.3240625 C35.9349138,84.2509375 37.7186207,81.90175 39.6587931,83.0290625 C37.6143103,86.5565625 33.7756897,88.3734375 30.6463793,90.6790625 C27.4951638,92.996375 24.3762845,95.8534375 20.1318966,96.7990625 C20.1318966,97.1815625 19.4736983,97.2771875 19.379819,96.7990625 C23.9809483,92.9953125 29.4781034,88.7771875 34.4015517,85.3240625 L34.4015517,85.3240625 Z M31.3974138,91.8265625 C34.7989741,89.3509375 37.6883707,86.40675 41.1619052,84.1765625 C42.1319914,85.3665625 44.2797414,85.3346875 44.5405172,87.2365625 C37.9063793,92.210125 31.3348276,97.2346875 20.882931,98.3290625 C24.2114741,95.7684375 28.1116379,94.2171875 31.3974138,91.8265625 L31.3974138,91.8265625 Z M26.5156897,98.8125 C32.5771638,96.6875 37.6768966,93.438375 41.9118966,90.53775 C43.4139655,89.507125 44.9900948,87.917625 46.7946638,87.981375 C44.9681897,95.0480625 34.5475862,98.8125 25.7646552,98.8125 L26.5156897,98.8125 L26.5156897,98.8125 Z M28.7687931,101.771563 C26.3800862,101.558 23.282069,101.57925 21.6339655,99.858 C34.0990517,99.9228125 42.7568103,96.118 48.2967328,89.148 C47.3568966,97.83925 37.3639655,102.524875 28.7687931,101.771563 L28.7687931,101.771563 Z M67.447069,94.5040625 C67.3844828,93.1015625 66.1212845,90.933 67.8225862,89.9140625 C69.4602586,91.6034375 69.3768103,95.1946875 69.3236121,97.9465625 C69.2505948,102.17425 68.405681,107.136125 67.4460259,110.187625 C67.5722414,104.672188 67.6869828,99.3809375 67.447069,94.5040625 L67.447069,94.5040625 Z M73.8308621,110.568 C76.3030172,106.743 77.6173276,101.02675 77.9615517,94.8855 C78.1388793,91.687375 77.2511983,88.2555 78.337069,85.7044375 C84.2420776,93.228 78.9837931,108.422813 73.8308621,110.568 L73.8308621,110.568 Z M63.6918966,94.5040625 C63.6710345,93.132375 62.9210431,90.284875 64.8184483,90.2955 C66.3205172,90.539875 66.4988879,93.132375 66.6970776,94.5040625 C67.5524224,100.13425 66.499931,106.563438 66.3215603,111.7155 C66.7179397,111.73675 66.6240603,112.20425 65.9460431,112.098 C65.652931,105.967375 63.7857759,99.4446875 63.6918966,94.5040625 L63.6918966,94.5040625 Z M51.6753448,89.5315625 C53.0522414,89.7865625 54.4082759,90.0628125 56.1815517,89.9140625 C56.0459483,98.976125 56.9419741,106.988438 60.6867155,112.099063 C60.6356034,112.545313 60.7597328,113.182813 60.3122414,113.246563 C55.2740517,107.551563 51.3624138,100.687813 51.6753448,89.5315625 L51.6753448,89.5315625 Z M73.4563879,88.3840625 C74.2491466,87.6509375 75.3861293,87.2790625 76.4594828,86.8540625 C78.3162069,97.225125 75.4382845,108.178438 70.0767328,113.630125 C72.6521552,106.158625 74.8948276,95.703625 73.4563879,88.3840625 L73.4563879,88.3840625 Z M62.9419052,108.273 C61.7423362,104.4055 59.1022414,98.2015625 59.9377672,92.9740625 C60.1036207,91.9434375 60.1662069,89.498625 62.1898276,90.2955 C63.1693017,98.359875 64.4637931,106.094875 65.5694828,114.0105 C63.7023276,113.607813 63.6606034,110.558438 62.9419052,108.273 L62.9419052,108.273 Z M69.7001724,89.5315625 C71.2752586,89.8503125 71.4734483,88.7878125 72.7043103,88.7665625 C73.0589655,98.00925 72.2662069,108.814875 67.8225862,114.394063 C69.6281983,106.754688 70.5242241,98.9346875 69.7001724,89.5315625 L69.7001724,89.5315625 Z M57.3081034,97.563 C57.1307759,95.2265625 56.6916293,92.261125 58.0591379,90.2955 C60.1036207,91.8478125 58.9562069,95.013 59.1856897,97.1805 C59.9043879,103.799875 62.6592241,110.16425 64.442931,115.5405 C64.8393103,115.56175 64.745431,116.02925 64.0684569,115.923 C60.3122414,111.896125 57.8818103,104.757188 57.3081034,97.563 L57.3081034,97.563 Z M60.6877586,115.8125 C53.9607845,111.5625 45.9184569,100.53375 50.5498362,89.0375 C50.3714655,101.968125 55.3575,109.4375 61.8153534,115.8125 L60.6877586,115.8125 L60.6877586,115.8125 Z M80.9656897,89.148 C86.4117328,94.534875 101.880957,98.00925 112.509138,93.738 C112.081466,89.647375 113.479224,85.3655 113.63569,81.1155 C114.010164,71.2756875 109.587405,63.998625 100.117069,62.373 C110.369733,58.27175 117.255259,50.74925 120.01844,39.0394375 C115.346379,29.0306875 101.274914,24.197375 89.9781034,30.243 C93.9731897,19.989875 91.8974138,5.688625 85.0953362,0.0265625 C70.4825,-0.282625 59.6237931,6.0828125 58.0591379,20.298 C55.9312069,18.162375 55.6485259,15.3478125 53.9284483,13.0305 C48.4417241,5.6355 37.6768966,2.9590625 26.1401724,3.0855 C19.672931,12.361125 22.8439655,29.382375 29.5198276,35.9815625 C16.3339569,32.251125 5.77775,40.0721875 0.980517241,48.603 C5.03818966,58.239875 11.5575862,65.3703125 23.1349914,67.3465625 C13.8941379,71.1078125 12.9021466,87.479875 14.8736121,99.0940625 C25.2743966,105.033437 42.2978448,103.694688 47.9201724,94.1205 C48.5043103,105.203438 55.1175862,116.232188 66.3205172,118.984063 C74.4671552,112.608 84.8773276,104.193 80.9656897,89.148 L80.9656897,89.148 Z" id="Shape" fill="#000000"></path>
                </g>
            </g>
        </g>
    </g>
</svg>