<?xml version="1.0" encoding="UTF-8" standalone="no"?>
<svg width="122px" height="119px" viewBox="0 0 122 119" version="1.1" xmlns="http://www.w3.org/2000/svg" xmlns:xlink="http://www.w3.org/1999/xlink" xmlns:sketch="http://www.bohemiancoding.com/sketch/ns">
    <!-- Generator: Sketch 3.2.2 (9983) - http://www.bohemiancoding.com/sketch -->
    <title>contact_btn</title>
    <desc>Created with Sketch.</desc>
    <defs></defs>
    <g id="Page-1" stroke="none" stroke-width="1" fill="none" fill-rule="evenodd" sketch:type="MSPage">
        <g id="nav_btns" sketch:type="MSLayerGroup" transform="translate(-427.000000, 0.000000)">
            <g id="contact_x5F_btn-link" transform="translate(487.686675, 81.406250) scale(1, -1) translate(-487.686675, -81.406250) translate(434.491822, 55.812500)" sketch:type="MSShapeGroup">
                <g id="contact_x5F_btn">
                    <path d="M88.2432353,47.7398713 C88.0515331,47.4478015 87.8608346,47.1477022 87.8809081,46.6559007 C86.7276838,46.3437574 86.7678309,47.2279963 86.0752941,47.3785478 C86.3753934,48.0710846 87.6611029,48.3511103 88.2432353,47.7398713 L88.2432353,47.7398713 Z" id="Shape" fill="#00B58C"></path>
                    <path d="M92.2167904,47.0162206 C92.407489,45.0189044 91.4851103,44.1366728 89.3262022,44.4869559 C88.3727096,46.2634632 89.9585184,47.3885846 92.2167904,47.0162206 L92.2167904,47.0162206 Z" id="Shape" fill="#00B58C"></path>
                    <path d="M94.7460551,39.9864706 C95.3783713,40.3176838 95.5389596,41.1507353 95.4687022,42.1544118 L94.0244118,42.1544118 C93.7323419,41.1507353 93.4011287,40.0667647 94.7460551,39.9864706 L94.7460551,39.9864706 Z M97.9979669,41.9586949 C98.1083713,37.8125074 92.3281985,37.8827647 91.4951471,40.5134007 C90.7213125,42.9523346 92.6192647,44.6294779 94.7470588,44.4879596 C96.1220956,44.3976287 96.8236654,42.5207537 97.9979669,41.9586949 L97.9979669,41.9586949 Z" id="Shape" fill="#00B58C"></path>
                    <path d="M98.3592904,35.4548713 C99.1521949,34.3508272 100.468015,35.0232904 100.527232,36.5388419 C99.6741066,37.3518199 98.1384816,36.7997978 98.3592904,35.4548713 L98.3592904,35.4548713 Z M101.611202,38.3454596 C104.803897,32.182886 96.1923529,31.7201912 96.5526728,36.5388419 C96.7433713,39.0480331 98.9113125,39.2377279 101.611202,38.3454596 L101.611202,38.3454596 Z" id="Shape" fill="#00B58C"></path>
                    <path d="M95.4687022,35.8151912 C96.4623419,33.3270772 94.4850993,31.6107904 92.2167904,32.5642831 C91.7761765,33.5890368 91.7761765,34.7924449 92.2167904,35.8151912 C93.2405404,36.2578125 94.4459559,36.2578125 95.4687022,35.8151912 L95.4687022,35.8151912 Z" id="Shape" fill="#00B58C"></path>
                    <path d="M103.0575,32.2019559 C102.886875,31.0678015 104.031066,31.2494669 104.141471,30.3953382 C103.829327,29.0203015 102.855761,28.3076912 101.249879,28.2273971 C100.015357,29.2621875 100.00532,33.2869301 103.0575,32.2019559 L103.0575,32.2019559 Z" id="Shape" fill="#00B58C"></path>
                    <path d="M95.4687022,27.1434265 C97.1157353,27.0741728 97.8975993,28.0868824 97.2763235,29.3113676 C95.7708088,29.4930331 95.5389596,28.3980221 95.4687022,27.1434265 L95.4687022,27.1434265 Z M98.720614,31.1179853 C100.71793,28.4281324 98.0872941,24.4435368 94.7460551,26.0604596 C92.3372316,28.6288676 94.6757978,33.1253382 98.720614,31.1179853 L98.720614,31.1179853 Z" id="Shape" fill="#00B58C"></path>
                    <path d="M10.1963493,31.1139706 L12.0441176,31.1139706 L12.0441176,28.2284007 C10.0367647,27.7667096 10.0558346,29.1066176 10.1963493,31.1139706 L10.1963493,31.1139706 Z" id="Shape" fill="#00B58C"></path>
                    <path d="M15.2548787,30.7576654 C14.8634449,29.8242463 15.0250368,28.3388051 14.1709081,27.8660735 C12.725614,27.6251912 13.1371213,29.242114 13.0869375,30.3963419 C13.5195221,30.8078493 14.3626103,30.8078493 15.2548787,30.7576654 L15.2548787,30.7576654 Z" id="Shape" fill="#00B58C"></path>
                    <path d="M16.7011765,30.7576654 C17.0213493,30.5358529 17.3435294,30.3160478 17.4238235,30.7576654 C18.4877206,29.9035368 16.991239,28.5696507 17.0625,27.5057537 C15.1444743,27.4154228 16.1581875,30.1454228 16.7011765,30.7576654 L16.7011765,30.7576654 Z" id="Shape" fill="#00B58C"></path>
                    <path d="M7.66808824,30.1102941 L8.75205882,30.1102941 C9.05215809,30.1102941 9.22378676,29.2802537 9.11237868,28.4472022 C8.45998897,28.497386 8.34958456,27.9333199 7.66808824,28.013614 C7.84774632,29.1477684 6.87418015,30.1102941 7.66808824,30.1102941 L7.66808824,30.1102941 Z" id="Shape" fill="#00B58C"></path>
                    <path d="M20.6747316,30.0340147 C20.4238125,28.8406434 20.0925993,27.7255588 19.9530882,26.4207794 C19.6319118,26.7008051 19.1391066,26.8132169 18.5077941,26.7810993 C18.4365331,28.6599816 18.5067904,30.3853015 20.6747316,30.0340147 L20.6747316,30.0340147 Z" id="Shape" fill="#00B58C"></path>
                    <path d="M6.22179044,29.6736949 L6.22179044,28.2284007 L4.77649632,28.2284007 C4.60587132,29.3615515 5.08763603,29.8443199 6.22179044,29.6736949 L6.22179044,29.6736949 Z" id="Shape" fill="#00B58C"></path>
                    <path d="M22.4813493,29.6736949 C22.7724154,29.4829963 23.0634816,29.2912941 23.5653199,29.3123713 C23.4147684,28.0176287 22.6007868,27.3853125 22.8416691,25.6981324 C20.0223419,25.6880956 21.3883456,28.7894559 22.4813493,29.6736949 L22.4813493,29.6736949 Z" id="Shape" fill="#00B58C"></path>
                    <path d="M92.578114,26.7821029 C91.765136,26.0805331 89.8581507,26.4709632 88.963875,26.7821029 C88.3827463,29.9637574 93.5125368,30.9985478 92.578114,26.7821029 L92.578114,26.7821029 Z" id="Shape" fill="#00B58C"></path>
                    <path d="M24.6502941,28.1029412 L26.0945846,28.1029412 C25.7131875,27.0992647 24.5087757,25.6840809 25.3719375,24.1273787 C23.2150368,24.1083088 23.9677941,27.0992647 24.6502941,28.1029412 L24.6502941,28.1029412 Z" id="Shape" fill="#00B58C"></path>
                    <path d="M14.5322316,26.7821029 C14.2913493,25.5174706 9.75473162,25.7292463 9.47370221,26.7821029 C10.0969853,28.4190993 13.4884081,27.0741728 14.5322316,26.7821029 L14.5322316,26.7821029 Z" id="Shape" fill="#C3C02F"></path>
                    <path d="M28.9861765,27.1434265 C29.4980515,26.0293456 29.145761,25.5174706 28.6238493,24.6131581 C26.9888603,24.4234632 26.2652096,25.1461103 26.4569118,26.7810993 C26.9175993,27.2839412 28.0216434,27.1434265 28.9861765,27.1434265 L28.9861765,27.1434265 Z" id="Shape" fill="#00B58C"></path>
                    <path d="M16.3388493,26.7821029 C17.6335919,25.3669191 16.649989,23.4910478 17.0614963,21.7245772 C17.9146213,18.1013051 21.0159816,15.6131912 23.2039963,13.4131324 C27.1173309,12.7808162 30.0992537,12.8902169 32.2370846,14.8584265 C33.5217904,16.0337316 33.2307243,18.6623603 35.4889963,18.4716618 C34.8366066,12.6001544 28.1822316,10.5928015 23.2039963,11.2441875 C18.8791544,14.0053015 13.7995478,19.5265257 16.3388493,26.7821029 L16.3388493,26.7821029 Z" id="Shape" fill="#987086"></path>
                    <path d="M101.611202,22.4472243 C100.08461,22.7282537 99.6841434,24.1334007 99.443261,25.6981324 C102.144154,28.4993934 105.406103,23.1999816 101.611202,22.4472243 L101.611202,22.4472243 Z" id="Shape" fill="#00B58C"></path>
                    <path d="M6.9444375,26.0604596 C5.09767279,11.7259522 17.1227206,0.856136029 29.7078199,3.29607353 C31.8065074,3.69654044 35.3785919,4.811625 37.2966176,6.54698162 C39.5649265,8.59548529 39.5448529,12.0180221 42.7164706,13.7744559 C41.6114228,4.28870956 27.6402463,-1.23151103 18.5077941,2.21109926 C17.9457353,2.42187132 17.4238235,3.31614706 16.3398529,4.01771691 C10.0156875,8.09364706 4.11406985,14.9186471 6.9444375,26.0604596 L6.9444375,26.0604596 Z" id="Shape" fill="#987086"></path>
                    <path d="M18.5067904,26.0604596 C19.0879191,26.1608272 19.1290699,25.7182059 19.5897574,25.6981324 C18.2056875,21.0621507 23.0825515,15.2006801 28.6228456,16.3047243 C30.8319375,16.7453382 31.0417059,18.703511 33.3210551,19.556636 C30.0691434,8.94677206 15.6874632,16.0538051 18.5067904,26.0604596 L18.5067904,26.0604596 Z" id="Shape" fill="#F05E51"></path>
                    <path d="M34.0437022,24.2538419 C33.9132243,23.1799081 33.4224265,22.4683015 32.5994118,22.0859007 C27.4104044,22.3067096 32.0875368,28.5385368 34.0437022,24.2538419 L34.0437022,24.2538419 Z" id="Shape" fill="#00B58C"></path>
                    <path d="M8.02941176,25.3378125 C11.0404412,25.4682904 11.7229412,24.6944559 14.1719118,24.9774926 C14.5733824,21.6452868 9.03308824,23.099614 8.02941176,23.1698713 L8.02941176,25.3378125 L8.02941176,25.3378125 Z" id="Shape" fill="#C3C02F"></path>
                    <path d="M24.2879669,19.9169559 C24.6884338,19.8366618 24.8500257,19.516489 25.010614,19.1943088 C26.3354669,19.0738676 26.8674154,19.7463309 27.1785551,20.6396029 C26.4659449,21.2508419 26.3455037,22.4562574 24.6492904,22.0838934 C24.9102463,20.9818566 24.027011,21.0220037 24.2879669,19.9169559 L24.2879669,19.9169559 Z M20.6747316,25.3378125 C24.7697316,24.2538419 27.7918015,22.0959375 31.5154412,20.6406066 C29.2260551,14.608511 19.1491434,18.0812316 20.6747316,25.3378125 L20.6747316,25.3378125 Z" id="Shape" fill="#F26D24"></path>
                    <path d="M101.611202,18.1113419 C99.7945478,18.4626287 99.5345956,20.4599449 97.9969632,21.3632537 C95.1675993,23.0183162 89.9886287,23.3495294 86.7959338,22.8085478 C80.8441324,21.8048713 76.5594375,15.9233272 77.7628456,8.71492279 C78.0348419,7.11907721 79.92075,5.18198162 78.4864963,3.65739706 C75.4463603,5.152875 75.1041066,10.7634265 75.5959081,14.1347757 C77.3523419,26.0504228 96.2917169,28.9400074 101.611202,18.1113419 L101.611202,18.1113419 Z" id="Shape" fill="#F4B033"></path>
                    <path d="M39.1022316,22.0848971 C39.1233088,20.1387684 37.9580404,19.3759743 35.8513235,19.5556324 C33.1203199,21.8650919 37.6669743,24.9253015 39.1022316,22.0848971 L39.1022316,22.0848971 Z" id="Shape" fill="#00B58C"></path>
                    <path d="M14.5322316,21.7245772 C14.0303934,19.4562684 11.1498419,19.5666728 8.38973162,19.556636 C8.6506875,20.6606801 8.01837132,20.8714522 8.02840809,21.7245772 C9.04212132,21.9955699 12.7055404,22.5164779 14.5322316,21.7245772 L14.5322316,21.7245772 Z" id="Shape" fill="#C3C02F"></path>
                    <path d="M90.4101728,22.0848971 C91.7561029,22.1049706 92.6985551,21.7245772 93.6620846,21.36225 C92.5178934,19.8456949 93.3609816,16.3649449 91.4941434,15.5800699 C89.919375,16.4954228 89.8079669,20.1176912 90.4101728,22.0848971 L90.4101728,22.0848971 Z" id="Shape" fill="#F05E51"></path>
                    <path d="M40.9088493,19.1953125 C40.8185184,18.0220147 41.3414338,17.4599559 42.3541434,17.3896985 C42.4344375,17.6697243 42.6552463,17.8112426 43.0767904,17.7500184 C43.1871949,18.5830699 43.0165699,19.1350919 42.7164706,19.556636 C41.6917169,19.857739 41.7830515,19.044761 40.9088493,19.1953125 L40.9088493,19.1953125 Z M40.9088493,16.6650441 C40.7091176,17.1879596 40.3467904,17.5492831 39.8248787,17.7490147 C39.9653934,26.9326544 50.7850257,16.9270037 40.9088493,16.6650441 L40.9088493,16.6650441 Z" id="Shape" fill="#00B58C"></path>
                    <path d="M88.9648787,21.7245772 C88.9859559,19.5857426 90.9230515,15.1585257 87.8809081,15.21975 C87.4402941,17.6687206 85.5132353,18.6332537 84.9913235,21.0009265 C85.8344118,21.7245772 87.288739,21.8339779 88.9648787,21.7245772 L88.9648787,21.7245772 Z" id="Shape" fill="#F05E51"></path>
                    <path d="M94.7460551,21.0009265 C95.7708088,21.3030331 95.6794743,20.4890515 96.5526728,20.6406066 C95.9805772,18.4425551 95.4877721,16.1642096 93.6620846,15.21975 C93.4212022,17.7399816 94.0434816,19.4151176 94.7460551,21.0009265 L94.7460551,21.0009265 Z" id="Shape" fill="#F05E51"></path>
                    <path d="M53.9175,19.1953125 C53.8161287,16.9169669 51.7284816,18.7235846 50.6655882,18.4726654 C47.9857721,17.8303125 46.1390074,16.004625 47.0523529,12.691489 C41.0192537,15.5409265 49.921864,23.0393934 53.9175,19.1953125 L53.9175,19.1953125 Z" id="Shape" fill="#00B58C"></path>
                    <path d="M74.150614,17.028375 C74.2610184,17.8604228 74.0903934,18.4114412 73.7902941,18.8329853 L72.7063235,18.8329853 C72.4353309,17.4790257 73.1178309,17.0775551 74.150614,17.028375 L74.150614,17.028375 Z M74.5119375,20.2792831 C74.4908603,19.6570037 74.7839338,19.3448603 75.2345846,19.1953125 C74.7126728,10.9039412 65.789989,20.3093934 74.5119375,20.2792831 L74.5119375,20.2792831 Z" id="Shape" fill="#00B58C"></path>
                    <path d="M86.7969375,14.4971029 C84.3891176,15.3401912 83.0542279,17.2582169 81.7394118,19.1943088 C84.6089228,21.9343456 86.1044007,17.1779228 86.7969375,14.4971029 L86.7969375,14.4971029 Z" id="Shape" fill="#F05E51"></path>
                    <path d="M15.6172059,18.8329853 C14.3415331,16.9771875 11.6125368,16.5747132 9.11338235,15.9444044 C9.00398162,16.7874926 8.54128676,17.2993676 8.7530625,18.4726654 C11.3907243,18.0109743 13.8999154,20.6697132 15.6172059,18.8329853 L15.6172059,18.8329853 Z" id="Shape" fill="#C3C02F"></path>
                    <path d="M97.2763235,19.556636 C98.2589228,19.8175919 97.9979669,18.8329853 98.720614,18.8329853 C98.7005404,16.485386 96.9541434,14.2060368 95.4687022,14.4971029 C95.8902463,16.3659485 97.0846213,17.4599559 97.2763235,19.556636 L97.2763235,19.556636 Z" id="Shape" fill="#F05E51"></path>
                    <path d="M69.0930882,18.8329853 C69.3229301,17.2792941 68.7719118,16.5054596 68.0091176,15.9444044 C65.3393382,16.0136581 66.7735919,20.6697132 69.0930882,18.8329853 L69.0930882,18.8329853 Z" id="Shape" fill="#00B58C"></path>
                    <path d="M57.5297316,18.8329853 C57.469511,18.0410846 57.8207978,17.679761 58.6137022,17.7490147 C58.3838603,16.6550074 58.0516434,15.6613676 56.8070846,15.5800699 C55.7020368,15.5599963 55.9439228,16.8868566 54.6391434,16.6650441 C54.3179669,18.6723971 55.6428199,19.0347243 57.5297316,18.8329853 L57.5297316,18.8329853 Z" id="Shape" fill="#00B58C"></path>
                    <path d="M62.588261,14.8594301 C63.0700257,14.8594301 62.9194743,15.4907426 63.3109081,15.5810735 C63.270761,16.5064632 62.7879926,16.9872243 61.865614,17.028375 C61.5755515,16.144136 61.2443382,14.9397243 62.588261,14.8594301 L62.588261,14.8594301 Z M63.6722316,18.8329853 C64.4350257,17.9106066 64.7762757,16.5656801 65.1165221,15.21975 C62.1476471,9.57908824 56.5963125,19.2756066 63.6722316,18.8329853 L63.6722316,18.8329853 Z" id="Shape" fill="#00B58C"></path>
                    <path d="M80.6544375,18.1113419 C82.2302096,16.4352022 84.8899522,15.8430331 84.9903199,12.691489 C82.722011,13.0718824 81.5165956,14.5181801 79.5704669,15.2207537 C79.7611654,16.3549081 80.2027831,17.2381434 80.6544375,18.1113419 L80.6544375,18.1113419 Z" id="Shape" fill="#F05E51"></path>
                    <path d="M36.9352941,17.3886949 C38.0293015,16.072875 40.5977096,16.2344669 40.5485294,13.7744559 C38.6917279,14.0855956 37.6278309,15.1896397 36.2126471,15.9434007 C36.4023419,16.4753493 36.7435919,16.8567463 36.9352941,17.3886949 L36.9352941,17.3886949 Z" id="Shape" fill="#C3C02F"></path>
                    <path d="M16.7011765,16.6650441 C15.4857243,14.6275809 12.8269853,14.0354118 11.2813235,12.3291618 C10.408125,12.7808162 10.1170588,13.8135993 9.83703309,14.8594301 C12.253886,15.0993088 14.1709081,17.7399816 16.7011765,16.6650441 L16.7011765,16.6650441 Z" id="Shape" fill="#C3C02F"></path>
                    <path d="M50.3042647,14.8594301 C50.5852941,13.4944301 49.8626471,13.1321029 49.9429412,11.9678382 C51.1072059,11.4057794 52.1911765,12.2087206 53.1948529,12.691489 L53.1948529,14.8594301 C52.1911765,15.1193824 51.7395221,15.1193824 50.3042647,14.8594301 L50.3042647,14.8594301 Z M52.8335294,17.028375 C55.1219118,15.1394559 55.111875,10.9641618 52.1098787,10.5235478 C47.8643272,9.89022794 45.5056875,18.2508529 52.8335294,17.028375 L52.8335294,17.028375 Z" id="Shape" fill="#00B58C"></path>
                    <path d="M99.443261,17.028375 C101.239842,15.8229596 98.2990699,13.4442463 97.2763235,12.691489 C96.7042279,14.1157059 99.1521949,15.2900074 99.443261,17.028375 L99.443261,17.028375 Z" id="Shape" fill="#F05E51"></path>
                    <path d="M18.1454669,14.4971029 C16.6700625,12.6001544 15.1956618,10.6931691 13.0869375,9.43857353 C12.6864706,10.001636 11.912636,10.1913309 12.0029669,11.2451912 C13.4181507,12.7808162 15.526875,15.3612684 18.1454669,14.4971029 L18.1454669,14.4971029 Z" id="Shape" fill="#C3C02F"></path>
                    <path d="M68.730761,15.0551471 L70.2573529,15.0551471 L70.2573529,12.3291618 C69.2536765,12.4194926 69.1322316,14.0514706 68.730761,15.0551471 L68.730761,15.0551471 Z" id="Shape" fill="#00B58C"></path>
                    <path d="M96.1923529,11.2451912 C93.2104301,15.8530699 83.2449265,13.1832904 87.1592647,6.18666176 C83.8662022,7.23048529 85.5734559,11.1046765 86.435614,13.4131324 C89.5269375,15.7426654 95.8500993,14.8594301 96.1923529,11.2451912 L96.1923529,11.2451912 Z" id="Shape" fill="#F4B033"></path>
                    <path d="M35.1276728,14.4971029 C37.2153199,14.53725 38.1286654,13.4020919 39.4635551,12.6904853 C39.553886,11.6356213 38.6495735,11.5764044 38.7399044,10.5225441 C36.8941434,11.0444559 34.565614,12.7406691 35.1276728,14.4971029 L35.1276728,14.4971029 Z" id="Shape" fill="#C3C02F"></path>
                    <path d="M67.6467904,14.4971029 C67.8174154,13.4532794 69.0218272,12.3693088 68.3694375,11.6065147 C67.3456875,10.7634265 66.8348162,12.7406691 65.4788493,12.6904853 C65.6996581,13.7945294 66.2817904,14.53725 67.6467904,14.4971029 L67.6467904,14.4971029 Z" id="Shape" fill="#00B58C"></path>
                    <path d="M73.4279669,14.4971029 C73.5775147,13.8045662 74.2108346,13.5937941 74.150614,12.6904853 C73.1770478,11.9166507 72.2335919,11.9166507 71.2600257,12.6904853 C71.420614,13.8557537 71.8120478,14.7881691 73.4279669,14.4971029 L73.4279669,14.4971029 Z" id="Shape" fill="#00B58C"></path>
                    <path d="M58.2523787,13.0518088 C56.4256875,13.0417721 56.616386,11.1147132 56.445761,9.43857353 C60.5106507,6.59816912 61.8164338,13.0708787 58.2523787,13.0518088 L58.2523787,13.0518088 Z M61.865614,11.9678382 C63.1814338,5.99696691 56.0041434,6.66943015 54.6401471,9.79989706 C54.6391434,14.3766618 59.7478566,14.9688309 61.865614,11.9678382 L61.865614,11.9678382 Z" id="Shape" fill="#00B58C"></path>
                    <path d="M79.2904412,14.1357794 C80.2941176,13.17225 83.9776103,13.0417721 84.7102941,10.8838676 C82.5323162,11.1759375 81.2977941,11.0153493 79.2904412,11.6075184 L79.2904412,14.1357794 L79.2904412,14.1357794 Z" id="Shape" fill="#F05E51"></path>
                    <path d="M19.9530882,12.691489 C19.4100993,10.2214412 17.7148897,8.906625 16.3388493,7.27163603 C14.943739,6.95949265 15.0541434,8.15487132 14.1709081,8.35560662 C15.7065331,10.0708897 17.2120478,13.3328382 19.9530882,12.691489 L19.9530882,12.691489 Z" id="Shape" fill="#C3C02F"></path>
                    <path d="M37.295614,9.43857353 C37.4853088,8.16390441 36.7134816,7.85276471 36.2116434,7.27063235 C34.1430662,7.97320588 34.1541066,10.7543934 32.9597316,12.3291618 C35.0273051,13.3127647 35.9005037,10.2916985 37.295614,9.43857353 L37.295614,9.43857353 Z" id="Shape" fill="#C3C02F"></path>
                    <path d="M89.3262022,10.5225441 C89.376386,9.36831618 90.1492169,8.93673529 91.4941434,9.07725 C91.9056507,9.49979779 91.9056507,10.3529228 91.8554669,11.2451912 C91.213114,11.8484007 89.205761,11.7681066 89.3262022,10.5225441 L89.3262022,10.5225441 Z M94.7460551,10.5225441 C92.6373309,9.25791176 91.2121103,7.31077941 88.2432353,6.90930882 C84.6189596,11.9286949 92.9695478,14.8273125 94.7460551,10.5225441 L94.7460551,10.5225441 Z" id="Shape" fill="#F26D24"></path>
                    <path d="M57.8920588,11.9678382 C59.4076103,11.8975809 60.0800735,10.5938051 58.9760294,9.79989706 C58.3236397,9.75071691 58.2122316,10.2415147 57.5307353,10.1612206 C57.4193272,10.9942721 57.5899522,11.5462941 57.8920588,11.9678382 L57.8920588,11.9678382 Z" id="Shape" fill="#00B58C"></path>
                    <path d="M64.0335551,11.9678382 C65.3584081,12.2087206 65.4196324,11.1859743 66.5638235,11.2451912 C66.7344485,10.1110368 66.0509449,9.83000735 65.8411765,9.07725 C64.5454301,8.86647794 64.0947794,9.49979779 63.3109081,9.79989706 C63.6019743,10.4723603 63.9141176,11.12475 64.0335551,11.9678382 L64.0335551,11.9678382 Z" id="Shape" fill="#00B58C"></path>
                    <path d="M31.5144375,11.6065147 C33.2307243,10.6730956 33.4414963,8.23416176 34.7663493,6.90930882 C34.4451728,5.90563235 33.3110184,5.71493382 32.2360809,5.46401471 C31.875761,7.18030147 29.9386654,10.2525551 31.5144375,11.6065147 L31.5144375,11.6065147 Z" id="Shape" fill="#C3C02F"></path>
                    <path d="M68.3694375,5.82634191 C69.3118897,5.28335294 71.5219853,4.63196691 72.7053199,5.46501838 C73.3075257,6.06722426 72.9953824,7.58277574 73.0656397,8.71592647 C71.3513603,11.4961103 66.4132721,9.67042279 68.3694375,5.82634191 L68.3694375,5.82634191 Z M70.5373787,11.2451912 C71.9625993,11.3465625 74.2108346,10.5225441 74.5119375,7.99428309 C75.4252831,0.375375 64.0747059,4.41115809 67.2854669,9.79989706 C67.6367537,10.3820294 68.7006507,11.1147132 70.5373787,11.2451912 L70.5373787,11.2451912 Z" id="Shape" fill="#00B58C"></path>
                    <path d="M22.1200257,11.2451912 C22.0798787,8.51519118 20.5241801,7.29973897 19.9530882,5.10269118 C19.0497794,5.40479779 18.5379044,6.09633088 17.4228199,6.18666176 C18.8279669,8.03342647 19.1200368,10.9942721 22.1200257,11.2451912 L22.1200257,11.2451912 Z" id="Shape" fill="#C3C02F"></path>
                    <path d="M23.2039963,10.0367647 L24.6492904,10.0367647 C24.5479191,8.02941176 24.1765588,5.93373529 23.5653199,4.13715441 C22.4612757,3.87519485 22.5004191,4.63798897 21.3973787,4.37703309 C21.2769375,7.02673897 22.8938603,8.02941176 23.2039963,10.0367647 L23.2039963,10.0367647 Z" id="Shape" fill="#C3C02F"></path>
                    <path d="M28.6238493,10.0367647 L29.7078199,10.0367647 C30.3110294,9.03308824 30.8128676,6.56605147 31.153114,4.49847794 C30.0490699,4.75943382 30.0892169,3.75375 28.9861765,4.01570956 C29.1859081,5.29037868 28.2223787,8.02941176 28.6238493,10.0367647 L28.6238493,10.0367647 Z" id="Shape" fill="#C3C02F"></path>
                    <path d="M25.7342647,10.0367647 L26.4569118,10.0367647 C28.1832353,9.03308824 27.7616912,6.586125 27.9022059,4.31781618 C26.7770846,4.31781618 25.5425625,3.43357721 24.6502941,4.28670221 C25.0306875,6.1936875 25.2113493,8.02941176 25.7342647,10.0367647 L25.7342647,10.0367647 Z" id="Shape" fill="#C3C02F"></path>
                    <path d="M78.8478199,10.1612206 C80.0632721,9.84104779 82.24125,10.4522868 83.9073529,9.79989706 C83.6463971,8.69585294 84.5286287,8.736 84.2676728,7.63195588 C82.4409816,7.89391544 81.6280037,7.14115809 80.293114,6.9103125 C79.5102463,7.69217647 78.7183456,8.46500735 78.8478199,10.1612206 L78.8478199,10.1612206 Z" id="Shape" fill="#F05E51"></path>
                    <path d="M71.9826728,6.54698162 C70.3577206,6.48776471 70.1770588,6.10636765 69.0930882,6.90930882 C68.6404301,10.4121397 73.4179301,8.82633088 71.9826728,6.54698162 L71.9826728,6.54698162 Z" id="Shape" fill="#00B58C"></path>
                    <path d="M65.8411765,7.99428309 C66.1212022,6.02607353 64.2041801,6.25792279 62.9495846,5.82634191 C63.2416544,7.0809375 62.4086029,7.21041176 62.5892647,8.35560662 C63.3610919,9.02706618 64.5153199,7.87283824 65.8411765,7.99428309 L65.8411765,7.99428309 Z" id="Shape" fill="#00B58C"></path>
                    <path d="M84.9913235,5.82634191 C83.8059816,5.05250735 80.2138235,2.65472426 80.293114,5.82634191 C81.9291066,5.73601103 84.0970478,7.39107353 84.9913235,5.82634191 L84.9913235,5.82634191 Z" id="Shape" fill="#F05E51"></path>
                    <path d="M65.8411765,5.82634191 C66.9050735,5.56438235 67.1248787,4.46134191 67.6477941,3.65840074 C66.3721213,3.81898897 65.5601471,4.46134191 64.0335551,4.38104779 C63.8027096,5.69486029 65.7608824,4.82266544 65.8411765,5.82634191 L65.8411765,5.82634191 Z" id="Shape" fill="#00B58C"></path>
                    <path d="M94.0244118,42.1544118 L95.4687022,42.1544118 C95.5389596,41.1507353 95.3783713,40.3176838 94.7460551,39.9864706 C93.4011287,40.0667647 93.7323419,41.1507353 94.0244118,42.1544118 L94.0244118,42.1544118 Z" id="Shape" fill="#000000"></path>
                    <path d="M100.527232,36.5388419 C100.467011,35.0232904 99.1521949,34.3508272 98.3592904,35.4548713 C98.1384816,36.7997978 99.6741066,37.3518199 100.527232,36.5388419 L100.527232,36.5388419 Z" id="Shape" fill="#000000"></path>
                    <path d="M97.2763235,29.3123713 C97.8975993,28.087886 97.1157353,27.0751765 95.4687022,27.1444301 C95.5389596,28.3980221 95.7708088,29.4930331 97.2763235,29.3123713 L97.2763235,29.3123713 Z" id="Shape" fill="#000000"></path>
                    <path d="M24.6502941,22.0848971 C26.3455037,22.4562574 26.4669485,21.2518456 27.1795588,20.6406066 C26.8674154,19.7463309 26.3364706,19.0738676 25.0116176,19.1953125 C24.8510294,19.516489 24.6904412,19.8376654 24.2889706,19.9179596 C24.027011,21.0220037 24.9102463,20.9818566 24.6502941,22.0848971 L24.6502941,22.0848971 Z" id="Shape" fill="#000000"></path>
                    <path d="M42.7164706,19.556636 C43.0175735,19.1350919 43.1881985,18.5820662 43.0767904,17.7500184 C42.6552463,17.8112426 42.4344375,17.6697243 42.3541434,17.3896985 C41.3404301,17.4599559 40.8185184,18.0220147 40.9088493,19.1953125 C41.7830515,19.044761 41.6917169,19.857739 42.7164706,19.556636 L42.7164706,19.556636 Z" id="Shape" fill="#000000"></path>
                    <path d="M72.7053199,18.8329853 L73.7892904,18.8329853 C74.0903934,18.4114412 74.2610184,17.8604228 74.1496103,17.028375 C73.1178309,17.0775551 72.4353309,17.4790257 72.7053199,18.8329853 L72.7053199,18.8329853 Z" id="Shape" fill="#000000"></path>
                    <path d="M61.865614,17.028375 C62.7889963,16.9872243 63.270761,16.5054596 63.3109081,15.5810735 C62.9194743,15.4907426 63.0710294,14.8594301 62.588261,14.8594301 C61.2443382,14.9397243 61.5755515,16.144136 61.865614,17.028375 L61.865614,17.028375 Z" id="Shape" fill="#000000"></path>
                    <path d="M53.1948529,14.8594301 L53.1948529,12.691489 C52.1911765,12.2097243 51.1062022,11.4067831 49.9419375,11.9678382 C49.8616434,13.1321029 50.5852941,13.4944301 50.3042647,14.8594301 C51.7405257,15.1193824 52.1911765,15.1193824 53.1948529,14.8594301 L53.1948529,14.8594301 Z" id="Shape" fill="#000000"></path>
                    <path d="M57.5297316,10.1612206 C58.2122316,10.2415147 58.322636,9.75071691 58.9750257,9.79989706 C60.0790699,10.5938051 59.4066066,11.8975809 57.8910551,11.9678382 C57.5899522,11.5462941 57.4193272,10.9942721 57.5297316,10.1612206 L57.5297316,10.1612206 Z M56.445761,9.43857353 C56.616386,11.1147132 56.4246838,13.0417721 58.2523787,13.0518088 C61.8164338,13.0708787 60.5106507,6.59816912 56.445761,9.43857353 L56.445761,9.43857353 Z" id="Shape" fill="#000000"></path>
                    <path d="M91.8564706,11.2451912 C91.9066544,10.3519191 91.9066544,9.49979779 91.4951471,9.07725 C90.1502206,8.93673529 89.3773897,9.36831618 89.3272059,10.5225441 C89.205761,11.7681066 91.213114,11.8484007 91.8564706,11.2451912 L91.8564706,11.2451912 Z" id="Shape" fill="#000000"></path>
                    <path d="M69.0930882,6.9103125 C70.1770588,6.10636765 70.3577206,6.48876838 71.9826728,6.54798529 C73.4179301,8.82633088 68.6404301,10.4121397 69.0930882,6.9103125 L69.0930882,6.9103125 Z M73.0666434,8.71592647 C72.996386,7.58277574 73.3075257,6.06622059 72.7063235,5.46501838 C71.5219853,4.63196691 69.3128934,5.28335294 68.3704412,5.82634191 C66.4132721,9.67042279 71.3513603,11.4961103 73.0666434,8.71592647 L73.0666434,8.71592647 Z" id="Shape" fill="#000000"></path>
                    <path d="M64.0335551,4.38004412 C65.5601471,4.46033824 66.3721213,3.81798529 67.6477941,3.65739706 C67.1248787,4.46033824 66.9050735,5.56337868 65.8411765,5.82533824 C65.7608824,4.82266544 63.8027096,5.69486029 64.0335551,4.38004412 L64.0335551,4.38004412 Z M80.293114,5.82634191 C80.2138235,2.65472426 83.8059816,5.05250735 84.9913235,5.82634191 C84.0970478,7.39107353 81.9291066,5.73601103 80.293114,5.82634191 L80.293114,5.82634191 Z M62.588261,8.35460294 C62.4075993,7.20940809 63.2406507,7.07993382 62.9485809,5.82533824 C64.2031765,6.25691912 66.1201985,6.02506985 65.8401728,7.99327941 C64.5153199,7.87283824 63.3610919,9.02706618 62.588261,8.35460294 L62.588261,8.35460294 Z M80.293114,6.9103125 C81.6280037,7.14015441 82.4409816,7.89291176 84.2676728,7.63195588 C84.5286287,8.73700368 83.6463971,8.69685662 83.9073529,9.79989706 C82.24125,10.4522868 80.0632721,9.84104779 78.8478199,10.1612206 C78.7183456,8.46500735 79.5102463,7.69217647 80.293114,6.9103125 L80.293114,6.9103125 Z M24.6502941,4.31781618 C25.5435662,3.4636875 26.7770846,4.28670221 27.9022059,4.28670221 C27.7606875,6.55501103 28.1822316,9.03308824 26.4569118,10.0367647 L25.7342647,10.0367647 C25.2113493,8.02941176 25.0306875,6.22480147 24.6502941,4.31781618 L24.6502941,4.31781618 Z M28.9861765,4.13715441 C30.0902206,3.87519485 30.0500735,4.63798897 31.153114,4.37703309 C30.811864,6.44460662 30.3100257,9.03308824 29.7078199,10.0367647 L28.6238493,10.0367647 C28.2223787,8.02941176 29.1859081,5.41282721 28.9861765,4.13715441 L28.9861765,4.13715441 Z M21.3973787,4.49847794 C22.5014228,4.75943382 22.4622794,3.75375 23.5653199,4.01570956 C24.1765588,5.81229044 24.5479191,8.02941176 24.6492904,10.0367647 L23.2039963,10.0367647 C22.8938603,8.02941176 21.2769375,7.14818382 21.3973787,4.49847794 L21.3973787,4.49847794 Z M17.4228199,6.18666176 C18.5369007,6.09633088 19.0487757,5.40479779 19.9530882,5.10269118 C20.5241801,7.29973897 22.0798787,8.51519118 22.1200257,11.2451912 C19.1200368,10.9942721 18.8279669,8.03342647 17.4228199,6.18666176 L17.4228199,6.18666176 Z M67.2854669,9.79989706 C64.0747059,4.41115809 75.4252831,0.375375 74.5119375,7.99428309 C74.2108346,10.5235478 71.9625993,11.3465625 70.5373787,11.2451912 C68.7006507,11.1147132 67.6367537,10.3820294 67.2854669,9.79989706 L67.2854669,9.79989706 Z M32.2370846,5.46401471 C33.3110184,5.71493382 34.4451728,5.90563235 34.7673529,6.90930882 C33.4425,8.23315809 33.2317279,10.6730956 31.5154412,11.6065147 C29.9386654,10.2525551 31.875761,7.18030147 32.2370846,5.46401471 L32.2370846,5.46401471 Z M63.3109081,9.79989706 C64.0937757,9.49979779 64.5444265,8.86647794 65.8411765,9.07725 C66.0509449,9.83000735 66.7344485,10.1110368 66.5638235,11.2451912 C65.4196324,11.1849706 65.3594118,12.2087206 64.0335551,11.9678382 C63.9141176,11.12475 63.6019743,10.4723603 63.3109081,9.79989706 L63.3109081,9.79989706 Z M88.2432353,6.9103125 C91.213114,7.31077941 92.6383346,9.25891544 94.7460551,10.5235478 C92.9695478,14.8273125 84.6189596,11.9286949 88.2432353,6.9103125 L88.2432353,6.9103125 Z M32.9597316,12.3291618 C34.1541066,10.7543934 34.1440699,7.97320588 36.2116434,7.27063235 C36.7134816,7.85276471 37.4863125,8.16490809 37.295614,9.43857353 C35.9005037,10.2916985 35.0273051,13.3127647 32.9597316,12.3291618 L32.9597316,12.3291618 Z M14.1709081,8.35460294 C15.0541434,8.15386765 14.9447426,6.95848897 16.3388493,7.27063235 C17.713886,8.906625 19.4100993,10.2204375 19.9530882,12.6904853 C17.2120478,13.3328382 15.7065331,10.0708897 14.1709081,8.35460294 L14.1709081,8.35460294 Z M79.2904412,11.6065147 C81.2977941,11.0143456 82.5323162,11.1749338 84.7102941,10.882864 C83.9776103,13.0407684 80.2941176,13.1712463 79.2904412,14.1347757 L79.2904412,11.6065147 L79.2904412,11.6065147 Z M54.6391434,9.79989706 C56.0031397,6.66943015 63.1804301,5.99696691 61.8646103,11.9678382 C59.7478566,14.9688309 54.6391434,14.3766618 54.6391434,9.79989706 L54.6391434,9.79989706 Z M71.2600257,12.691489 C72.2335919,11.9176544 73.1770478,11.9176544 74.150614,12.691489 C74.2118382,13.5937941 73.5785184,13.8045662 73.4279669,14.4981066 C71.8120478,14.7881691 71.420614,13.8557537 71.2600257,12.691489 L71.2600257,12.691489 Z M65.4788493,12.691489 C66.8348162,12.7416728 67.3456875,10.7644301 68.3694375,11.6075184 C69.0218272,12.3703125 67.8174154,13.4542831 67.6467904,14.4981066 C66.2817904,14.53725 65.6996581,13.7945294 65.4788493,12.691489 L65.4788493,12.691489 Z M38.7409081,10.5225441 C38.6505772,11.5764044 39.5548897,11.6356213 39.4645588,12.6904853 C38.1296691,13.4020919 37.2163235,14.53725 35.1286765,14.4971029 C34.565614,12.7406691 36.8941434,11.0444559 38.7409081,10.5225441 L38.7409081,10.5225441 Z M86.435614,13.4131324 C85.5734559,11.1046765 83.8651985,7.23048529 87.1592647,6.18666176 C83.2449265,13.1832904 93.2104301,15.8530699 96.1923529,11.2451912 C95.8500993,14.8594301 89.5269375,15.7426654 86.435614,13.4131324 L86.435614,13.4131324 Z M70.2573529,12.3291618 L70.2573529,15.0551471 L68.730761,15.0551471 C69.1322316,14.0514706 69.2536765,12.4194926 70.2573529,12.3291618 L70.2573529,12.3291618 Z M12.0029669,11.2451912 C11.912636,10.1913309 12.6864706,10.001636 13.0869375,9.43857353 C15.1956618,10.6931691 16.6700625,12.6001544 18.1454669,14.4971029 C15.526875,15.3612684 13.4181507,12.7808162 12.0029669,11.2451912 L12.0029669,11.2451912 Z M97.2763235,12.691489 C98.3000735,13.4442463 101.239842,15.8229596 99.443261,17.028375 C99.1521949,15.2900074 96.7042279,14.1157059 97.2763235,12.691489 L97.2763235,12.691489 Z M52.1098787,10.5225441 C55.1108713,10.9631581 55.1219118,15.1394559 52.8335294,17.0273713 C45.5056875,18.2508529 47.8643272,9.89022794 52.1098787,10.5225441 L52.1098787,10.5225441 Z M9.83602941,14.8594301 C10.1160551,13.8146029 10.4071213,12.7818199 11.2803199,12.3291618 C12.8259816,14.0354118 15.4847206,14.6275809 16.7001728,16.6650441 C14.1709081,17.7399816 12.253886,15.0993088 9.83602941,14.8594301 L9.83602941,14.8594301 Z M36.2116434,15.9444044 C37.6268272,15.1906434 38.6917279,14.0855956 40.5475257,13.7754596 C40.5977096,16.2344669 38.0282978,16.0738787 36.9342904,17.3896985 C36.7435919,16.8567463 36.4023419,16.4753493 36.2116434,15.9444044 L36.2116434,15.9444044 Z M79.5704669,15.21975 C81.5165956,14.5181801 82.7230147,13.0708787 84.9903199,12.6904853 C84.8889485,15.8430331 82.2302096,16.4341985 80.6544375,18.1103382 C80.2027831,17.2381434 79.7611654,16.3549081 79.5704669,15.21975 L79.5704669,15.21975 Z M65.1175257,15.21975 C64.7762757,16.5656801 64.4350257,17.9106066 63.6732353,18.8329853 C56.5963125,19.2756066 62.1476471,9.57908824 65.1175257,15.21975 L65.1175257,15.21975 Z M54.6391434,16.6650441 C55.9439228,16.8868566 55.7030404,15.5599963 56.8070846,15.5800699 C58.0516434,15.6613676 58.3828566,16.6550074 58.6137022,17.7490147 C57.8207978,17.679761 57.469511,18.0410846 57.5297316,18.8329853 C55.6428199,19.0347243 54.3179669,18.6723971 54.6391434,16.6650441 L54.6391434,16.6650441 Z M68.0091176,15.9444044 C68.7719118,16.5064632 69.3239338,17.2792941 69.0930882,18.8329853 C66.7735919,20.6697132 65.3393382,16.0136581 68.0091176,15.9444044 L68.0091176,15.9444044 Z M95.4687022,14.4971029 C96.9541434,14.2060368 98.7015441,16.4843824 98.720614,18.8329853 C97.9969632,18.8329853 98.2589228,19.8165882 97.2763235,19.556636 C97.0846213,17.4599559 95.8902463,16.3659485 95.4687022,14.4971029 L95.4687022,14.4971029 Z M8.75205882,18.4726654 C8.54028309,17.2993676 9.00297794,16.7874926 9.11237868,15.9444044 C11.6115331,16.5757169 14.3415331,16.9771875 15.6162022,18.8329853 C13.8999154,20.6697132 11.3907243,18.0109743 8.75205882,18.4726654 L8.75205882,18.4726654 Z M81.7384081,19.1953125 C83.0532243,17.2592206 84.388114,15.3411949 86.7959338,14.4981066 C86.1044007,17.1779228 84.6089228,21.9343456 81.7384081,19.1953125 L81.7384081,19.1953125 Z M75.2345846,19.1953125 C74.7839338,19.3448603 74.491864,19.6570037 74.5119375,20.2792831 C65.789989,20.3093934 74.7126728,10.9039412 75.2345846,19.1953125 L75.2345846,19.1953125 Z M47.0523529,12.691489 C46.1390074,16.004625 47.9857721,17.8303125 50.6655882,18.4726654 C51.7294853,18.7235846 53.8171324,16.9169669 53.9175,19.1953125 C49.921864,23.0393934 41.0192537,15.5409265 47.0523529,12.691489 L47.0523529,12.691489 Z M93.6620846,15.21975 C95.4877721,16.1632059 95.9805772,18.4415515 96.5526728,20.6406066 C95.6794743,20.4900551 95.7708088,21.3030331 94.7460551,21.0009265 C94.0434816,19.4151176 93.4212022,17.7399816 93.6620846,15.21975 L93.6620846,15.21975 Z M84.9913235,21.0009265 C85.5132353,18.6332537 87.4392904,17.6687206 87.8809081,15.21975 C90.9230515,15.1585257 88.9859559,19.5857426 88.9648787,21.7245772 C87.288739,21.8339779 85.8344118,21.7245772 84.9913235,21.0009265 L84.9913235,21.0009265 Z M39.8248787,17.7500184 C40.3477941,17.5502868 40.7091176,17.1879596 40.9088493,16.6660478 C50.7850257,16.9270037 39.9653934,26.9326544 39.8248787,17.7500184 L39.8248787,17.7500184 Z M91.4941434,15.5800699 C93.3609816,16.3649449 92.5188971,19.8456949 93.6620846,21.36225 C92.6985551,21.7235735 91.7561029,22.1039669 90.4101728,22.0848971 C89.8079669,20.1176912 89.919375,16.4954228 91.4941434,15.5800699 L91.4941434,15.5800699 Z M8.02840809,21.7245772 C8.01837132,20.8704485 8.6506875,20.6596765 8.38973162,19.556636 C11.1498419,19.5666728 14.0303934,19.4562684 14.5322316,21.7245772 C12.7055404,22.5164779 9.04212132,21.9955699 8.02840809,21.7245772 L8.02840809,21.7245772 Z M35.8513235,19.556636 C37.9590441,19.3759743 39.1233088,20.1387684 39.1022316,22.0859007 C37.6669743,24.9253015 33.1203199,21.8650919 35.8513235,19.556636 L35.8513235,19.556636 Z M75.5959081,14.1357794 C75.1041066,10.7644301 75.4463603,5.15387868 78.4864963,3.65840074 C79.9217537,5.18398897 78.0348419,7.12008088 77.7628456,8.71592647 C76.5594375,15.9243309 80.8441324,21.805875 86.7959338,22.8095515 C89.9886287,23.3505331 95.1675993,23.0193199 97.9969632,21.3642574 C99.5335919,20.4619522 99.7945478,18.4636324 101.611202,18.1123456 C96.2917169,28.9400074 77.3523419,26.0504228 75.5959081,14.1357794 L75.5959081,14.1357794 Z M31.5144375,20.6406066 C27.7907978,22.0949338 24.7687279,24.2538419 20.6737279,25.3378125 C19.1491434,18.0812316 29.2260551,14.608511 31.5144375,20.6406066 L31.5144375,20.6406066 Z M8.02941176,23.1688676 C9.03308824,23.0986103 14.574386,21.6432794 14.1719118,24.976489 C11.7229412,24.6944559 11.0404412,25.4682904 8.02941176,25.3378125 L8.02941176,23.1688676 L8.02941176,23.1688676 Z M32.5984081,22.0848971 C33.4214228,22.4672978 33.9132243,23.1789044 34.0426985,24.2528382 C32.0875368,28.5385368 27.4104044,22.3067096 32.5984081,22.0848971 L32.5984081,22.0848971 Z M33.3210551,19.556636 C31.0417059,18.703511 30.8329412,16.7463419 28.6228456,16.3047243 C23.0825515,15.1996765 18.2056875,21.0621507 19.5897574,25.6981324 C19.1290699,25.7192096 19.0879191,26.1608272 18.5067904,26.0604596 C15.6874632,16.0538051 30.0691434,8.94677206 33.3210551,19.556636 L33.3210551,19.556636 Z M16.3388493,4.01872059 C17.4228199,3.31715074 17.9457353,2.422875 18.5067904,2.21210294 C27.6402463,-1.23151103 41.6114228,4.28870956 42.7154669,13.7754596 C39.5438493,12.0190257 39.5629191,8.59648897 37.295614,6.54798529 C35.3785919,4.81262868 31.8055037,3.69754412 29.7068162,3.29707721 C17.1217169,0.857139706 5.09666912,11.7269559 6.94343382,26.0614632 C4.11406985,14.9186471 10.0156875,8.09364706 16.3388493,4.01872059 L16.3388493,4.01872059 Z M99.443261,25.6981324 C99.6841434,24.1323971 100.085614,22.7282537 101.611202,22.4472243 C105.406103,23.1999816 102.144154,28.4993934 99.443261,25.6981324 L99.443261,25.6981324 Z M23.2039963,11.2451912 C28.1822316,10.5938051 34.8366066,12.6011581 35.4889963,18.4726654 C33.2307243,18.6623603 33.5217904,16.0347353 32.2370846,14.8594301 C30.0992537,12.8912206 27.1173309,12.7818199 23.2039963,13.414136 C21.0159816,15.6131912 17.9136176,18.1023088 17.0614963,21.7255809 C16.649989,23.4920515 17.6335919,25.3679228 16.3388493,26.7831066 C13.7995478,19.5265257 18.8791544,14.0053015 23.2039963,11.2451912 L23.2039963,11.2451912 Z M26.4559081,26.7821029 C26.2652096,25.147114 26.9878566,24.4234632 28.6228456,24.6141618 C29.145761,25.5174706 29.4970478,26.0293456 28.9851728,27.1444301 C28.0216434,27.1434265 26.9175993,27.2839412 26.4559081,26.7821029 L26.4559081,26.7821029 Z M9.47370221,26.7821029 C9.75473162,25.7292463 14.2913493,25.5174706 14.5322316,26.7821029 C13.4884081,27.0741728 10.0969853,28.4190993 9.47370221,26.7821029 L9.47370221,26.7821029 Z M25.3719375,24.1273787 C24.5087757,25.6840809 25.7131875,27.0992647 26.0945846,28.1029412 L24.6502941,28.1029412 C23.9677941,27.0992647 23.2150368,24.1083088 25.3719375,24.1273787 L25.3719375,24.1273787 Z M88.9648787,26.7821029 C89.8591544,26.4709632 91.7661397,26.0805331 92.5791176,26.7821029 C93.5125368,30.9985478 88.3827463,29.9637574 88.9648787,26.7821029 L88.9648787,26.7821029 Z M22.8426728,25.6981324 C22.6017904,27.3853125 23.4147684,28.0176287 23.5663235,29.3123713 C23.0644853,29.2912941 22.7734191,29.4829963 22.4823529,29.6736949 C21.3883456,28.7894559 20.0223419,25.6880956 22.8426728,25.6981324 L22.8426728,25.6981324 Z M4.77649632,28.2284007 L6.22179044,28.2284007 L6.22179044,29.6736949 C5.08763603,29.8443199 4.60587132,29.3615515 4.77649632,28.2284007 L4.77649632,28.2284007 Z M18.5067904,26.7821029 C19.1391066,26.8132169 19.6309081,26.7018088 19.9520846,26.4217831 C20.0915956,27.7265625 20.4228088,28.8406434 20.6737279,30.0350184 C18.5067904,30.3853015 18.4365331,28.6599816 18.5067904,26.7821029 L18.5067904,26.7821029 Z M7.66808824,28.084875 C8.35058824,28.0045809 8.45998897,28.4251213 9.11237868,28.3749375 C9.22278309,29.2089926 9.05215809,30.1102941 8.75205882,30.1102941 L7.66808824,30.1102941 C6.87418015,30.1102941 7.84774632,29.2190294 7.66808824,28.084875 L7.66808824,28.084875 Z M17.0614963,27.5057537 C16.991239,28.5706544 18.4867169,29.9045404 17.4228199,30.7576654 C17.3425257,30.3160478 17.0213493,30.5358529 16.7001728,30.7576654 C16.1581875,30.1454228 15.1444743,27.4154228 17.0614963,27.5057537 L17.0614963,27.5057537 Z M13.0869375,30.3963419 C13.1371213,29.2431176 12.725614,27.6251912 14.1709081,27.8660735 C15.0250368,28.3388051 14.8634449,29.8242463 15.2548787,30.7576654 C14.3626103,30.8078493 13.5195221,30.8078493 13.0869375,30.3963419 L13.0869375,30.3963419 Z M12.0441176,28.2284007 L12.0441176,31.1139706 L10.1963493,31.1139706 C10.0558346,29.1066176 10.0367647,27.7667096 12.0441176,28.2284007 L12.0441176,28.2284007 Z M94.7460551,26.0604596 C98.0872941,24.4435368 100.71793,28.4281324 98.720614,31.1179853 C94.6757978,33.1253382 92.3372316,28.6288676 94.7460551,26.0604596 L94.7460551,26.0604596 Z M101.249879,28.2284007 C102.855761,28.3086949 103.829327,29.0213051 104.141471,30.3963419 C104.031066,31.2504706 102.886875,31.0688051 103.0575,32.2029596 C100.00532,33.2869301 100.015357,29.2621875 101.249879,28.2284007 L101.249879,28.2284007 Z M92.2167904,35.8151912 C91.7761765,34.7914412 91.7761765,33.5880331 92.2167904,32.5642831 C94.4850993,31.6107904 96.4623419,33.3270772 95.4687022,35.8151912 C94.4459559,36.2578125 93.2405404,36.2578125 92.2167904,35.8151912 L92.2167904,35.8151912 Z M96.5526728,36.5388419 C96.1923529,31.7201912 104.803897,32.182886 101.611202,38.3454596 C98.9113125,39.2377279 96.7433713,39.0480331 96.5526728,36.5388419 L96.5526728,36.5388419 Z M94.7460551,44.4879596 C92.618261,44.6294779 90.7203088,42.9523346 91.4941434,40.5134007 C92.3271949,37.8837684 98.1083713,37.813511 97.9969632,41.9586949 C96.8236654,42.5207537 96.1220956,44.3976287 94.7460551,44.4879596 L94.7460551,44.4879596 Z M89.3262022,44.4879596 C91.4841066,44.1366728 92.407489,45.0189044 92.2167904,47.0172243 C89.9585184,47.3885846 88.3727096,46.2634632 89.3262022,44.4879596 L89.3262022,44.4879596 Z M86.0752941,47.3785478 C86.7668272,47.229 86.7266801,46.344761 87.8809081,46.6559007 C87.8608346,47.1477022 88.0515331,47.4478015 88.2432353,47.7398713 C87.6611029,48.3511103 86.3753934,48.0710846 86.0752941,47.3785478 L86.0752941,47.3785478 Z M44.160761,13.0518088 C43.0476838,12.2388309 42.6953934,10.6630588 42.3541434,9.07725 C38.2290331,3.12544853 29.6475993,-0.598191176 22.1200257,0.405485294 C10.9089596,1.90096324 3.05017279,13.3328382 6.22179044,27.1434265 C3.47171691,27.8359632 2.45800368,24.6241985 0.802941176,26.4207794 C3.16158088,31.2785735 10.5275625,32.6536103 18.8691176,31.4793088 C26.2862868,30.4354853 33.4224265,25.938011 41.6325,23.5301912 C54.8107721,19.6650331 74.3021691,18.4907316 84.2676728,25.6971287 C85.8735551,26.8513566 89.1856875,29.7901213 90.0488493,33.0621066 C92.3874154,41.9135294 85.9538493,46.168114 81.015761,50.1828199 L81.7394118,50.1828199 C88.3335662,50.1828199 94.2151103,47.9466287 98.3602941,44.2641397 C100.859449,42.045011 104.091287,37.3889559 104.863114,33.7155 C105.205368,32.1096176 105.566691,29.6666691 105.586765,27.9001985 C105.636949,24.5378824 103.669743,21.4897169 103.418824,18.1284044 C101.66239,17.8373382 101.511838,15.9323603 100.889559,14.506136 C99.6048529,13.8637831 98.5800993,12.9564596 98.3592904,11.2492059 C93.4322426,8.33954779 88.2121213,5.07458824 82.0997316,3.29808088 C80.6644743,2.87653676 78.5166066,3.93943015 77.7638493,1.85178309 C70.6477831,3.28704044 64.155,2.66476103 58.6147059,4.74237132 C53.2942169,6.7396875 49.1791434,10.7835 44.160761,13.0518088 L44.160761,13.0518088 Z" id="Shape" fill="#000000"></path>
                </g>
            </g>
        </g>
    </g>
</svg>