<?xml version="1.0" encoding="UTF-8" standalone="no"?>
<svg width="122px" height="119px" viewBox="0 0 122 119" version="1.1" xmlns="http://www.w3.org/2000/svg" xmlns:xlink="http://www.w3.org/1999/xlink" xmlns:sketch="http://www.bohemiancoding.com/sketch/ns">
    <!-- Generator: Sketch 3.2.2 (9983) - http://www.bohemiancoding.com/sketch -->
    <title>gallery_btn</title>
    <desc>Created with Sketch.</desc>
    <defs></defs>
    <g id="Page-1" stroke="none" stroke-width="1" fill="none" fill-rule="evenodd" sketch:type="MSPage">
        <g id="nav_btns" sketch:type="MSLayerGroup" transform="translate(-145.000000, 0.000000)">
            <g id="gallery_x5F_btn-link" transform="translate(205.080607, 34.062500) scale(1, -1) translate(-205.080607, -34.062500) translate(154.015187, 1.125000)" sketch:type="MSShapeGroup">
                <g id="gallery_x5F_btn">
                    <path d="M64.6222259,64.1718125 C59.2178022,62.4399375 54.0059377,60.0174375 53.5165607,54.227875 C52.9420748,47.427875 58.9422617,44.1235 64.6222259,45.430375 C68.1021215,46.22725 69.1659844,49.297875 71.9001121,50.785375 C70.4426199,45.111625 62.4945,41.265375 56.580486,44.665375 C51.9526822,47.8093125 50.9313738,55.5868125 54.2836059,60.347875 C56.5475062,63.5661875 60.6444424,64.7030625 64.6222259,64.1718125 L64.6222259,64.1718125 Z" id="Shape" fill="#F4B033"></path>
                    <path d="M69.9851589,56.522875 C69.6872773,58.2749375 67.4627399,61.10225 66.1541885,61.495375 C60.515715,63.174125 54.027215,56.151 57.3454034,49.255375 C63.2072882,44.5155625 71.1128536,49.977875 69.9851589,56.522875 L69.9851589,56.522875 Z M62.3253458,61.8768125 C67.8989237,63.0349375 72.188419,59.7624375 71.5171215,53.8443125 C70.6766698,46.4599375 56.3145202,43.3361875 54.6655327,51.16575 C53.5803925,56.34225 57.2826355,60.8249375 62.3253458,61.8768125 L62.3253458,61.8768125 Z" id="Shape" fill="#F4B033"></path>
                    <path d="M65.0062804,60.347875 C66.6127134,59.859125 65.0371324,58.052875 63.8573084,58.052875 C63.4626153,59.5935 64.4530717,59.7518125 65.0062804,60.347875 L65.0062804,60.347875 Z" id="Shape" fill="#F26D24"></path>
                    <path d="M62.7679128,59.965375 L62.7679128,57.670375 C61.7040498,57.1061875 61.2029704,57.6586875 60.4699688,58.4343125 C60.8731729,59.3055625 61.7040498,59.82725 62.7679128,59.965375 L62.7679128,59.965375 Z" id="Shape" fill="#F26D24"></path>
                    <path d="M66.9201698,58.817875 C67.6446604,58.7743125 67.1861355,57.5535 68.0691417,57.670375 C67.5372103,56.671625 66.0914206,56.5855625 65.0062804,56.140375 C64.7924439,57.882875 65.963757,58.2430625 66.9201698,58.817875 L66.9201698,58.817875 Z" id="Shape" fill="#F26D24"></path>
                    <path d="M58.8784299,57.670375 C60.3157087,57.819125 60.857215,55.9268125 60.0274019,54.9918125 C59.1018411,54.8335 59.1975888,55.6930625 58.1124486,55.3743125 C57.9315919,56.5749375 58.6550187,56.8735 58.8784299,57.670375 L58.8784299,57.670375 Z" id="Shape" fill="#F26D24"></path>
                    <path d="M48.5376822,56.140375 C48.803648,50.870375 52.4420592,47.5235 53.5165607,44.282875 C48.431296,45.6535 45.9418567,51.1561875 48.5376822,56.140375 L48.5376822,56.140375 Z" id="Shape" fill="#F4B033"></path>
                    <path d="M64.7679751,56.140375 C65.3424611,53.9835 62.7679128,53.2918125 61.7040498,54.227875 L61.7040498,54.992875 C60.6401869,56.416625 63.4072944,56.097875 64.7679751,56.140375 L64.7679751,56.140375 Z" id="Shape" fill="#987086"></path>
                    <path d="M69.2181137,55.757875 C69.2287523,54.85475 68.5595826,54.631625 68.8361869,53.462875 C67.1967741,53.229125 67.2712445,54.706 65.7711978,54.610375 C65.963757,55.896 68.1340374,56.5643125 69.2181137,55.757875 L69.2181137,55.757875 Z" id="Shape" fill="#F26D24"></path>
                    <path d="M57.4485981,54.1875 L59.6433474,54.1875 C59.0060935,53.125 58.5124611,52.071 57.4485981,51.932875 L57.4485981,54.1875 L57.4485981,54.1875 Z" id="Shape" fill="#F26D24"></path>
                    <path d="M64.6222259,53.845375 C66.4105794,53.972875 66.7499517,52.655375 68.0691417,52.315375 C67.6116807,51.49725 67.345715,50.487875 66.538243,50.020375 C65.1541573,50.43475 64.2296604,52.8785 64.6222259,53.845375 L64.6222259,53.845375 Z" id="Shape" fill="#F26D24"></path>
                    <path d="M84.9207305,53.4618125 L85.6877757,53.4618125 C85.6133053,53.1324375 85.8367165,53.1005625 86.0697025,53.080375 L86.0697025,52.3143125 C85.739905,52.3886875 85.7079891,52.1655625 85.6877757,51.932875 L84.9207305,51.932875 C84.9952009,52.2633125 84.7717897,52.294125 84.5388037,52.3143125 L84.5388037,53.080375 C84.8686012,53.006 84.9005171,53.229125 84.9207305,53.4618125 L84.9207305,53.4618125 Z" id="Shape" fill="#E0383E"></path>
                    <path d="M61.7040498,52.697875 L61.7040498,48.8718125 C60.6401869,48.22475 59.576324,49.58475 59.0220514,50.402875 C59.4178084,51.66725 59.576324,52.655375 61.7040498,52.697875 L61.7040498,52.697875 Z" id="Shape" fill="#F26D24"></path>
                    <path d="M62.3253458,52.697875 C64.2190218,52.421625 64.4307305,50.4655625 65.0073442,48.8718125 C63.6775156,49.181 63.5381495,48.299125 62.3253458,48.490375 C61.9519299,49.49975 61.5806417,51.762875 62.3253458,52.697875 L62.3253458,52.697875 Z" id="Shape" fill="#F26D24"></path>
                    <path d="M84.9207305,50.402875 C85.1558442,48.0005625 84.2515607,46.7361875 83.0068411,45.812875 C78.0598785,46.492875 82.4004393,53.675375 84.9207305,50.402875 L84.9207305,50.402875 Z" id="Shape" fill="#E0383E"></path>
                    <path d="M90.6666542,50.0193125 C92.336919,50.4135 92.4326667,49.234125 93.3475888,48.8718125 C93.1252414,48.0749375 92.6145872,47.566 91.81669,47.342875 C90.3794112,47.194125 89.8368411,49.085375 90.6666542,50.0193125 L90.6666542,50.0193125 Z" id="Shape" fill="#FFFFFF"></path>
                    <path d="M46.8099688,48.8718125 C47.8738318,45.6843125 51.8111885,44.686625 53.7038006,41.987875 C50.3005031,41.902875 48.9376947,43.8143125 46.8099688,45.0468125 L46.8099688,48.8718125 L46.8099688,48.8718125 Z" id="Shape" fill="#F4B033"></path>
                    <path d="M78.4109533,46.577875 C83.2834455,44.931 85.3792555,40.53225 86.453757,35.102875 C85.0505218,31.617875 85.0813738,28.8235 82.2408598,26.305375 C80.4439953,24.711625 76.9864408,22.799125 75.7300187,22.4793125 C73.3788816,21.8843125 68.9744891,21.8843125 67.3042243,24.392875 C68.2829782,25.094125 69.9319657,23.9030625 71.1351947,23.6268125 C78.3471215,25.1568125 85.6984143,28.9711875 84.9217944,37.015375 C84.4643333,41.7849375 81.1769969,43.411625 78.4109533,46.577875 L78.4109533,46.577875 Z" id="Shape" fill="#67B6A2"></path>
                    <path d="M87.2186745,45.430375 C87.3995312,43.964125 87.1122882,42.986625 86.4526931,42.370375 C85.4313847,42.880375 84.2079424,43.1885 84.5377399,45.047875 C85.592028,45.5036875 86.1345981,45.876625 87.2186745,45.430375 L87.2186745,45.430375 Z" id="Shape" fill="#E0383E"></path>
                    <path d="M77.2619813,44.665375 C79.3248115,43.687875 76.7609019,41.222875 75.7300187,40.840375 C75.9853458,42.370375 76.8789907,43.262875 77.2619813,44.665375 L77.2619813,44.665375 Z" id="Shape" fill="#F26D24"></path>
                    <path d="M47.3642414,43.135375 C49.6302695,41.7849375 51.0654206,40.0105625 54.2570093,40.840375 L54.2570093,38.927875 C51.0654206,38.4168125 47.5025436,39.777875 47.3642414,43.135375 L47.3642414,43.135375 Z" id="Shape" fill="#F4B033"></path>
                    <path d="M79.1769346,43.135375 C80.655704,43.46475 80.5386791,42.200375 81.4748785,41.987875 C80.2939907,40.74475 79.1875732,39.4283125 76.8789907,39.3093125 C77.3151745,40.91475 78.6875576,41.584125 79.1769346,43.135375 L79.1769346,43.135375 Z" id="Shape" fill="#F26D24"></path>
                    <path d="M81.8578692,40.840375 C82.782366,40.3611875 83.0919502,39.267875 83.3887679,38.1618125 C81.6546713,37.980125 80.2503723,37.4711875 78.4098894,37.3968125 C78.8684143,39.236 80.8897539,39.51225 81.8578692,40.840375 L81.8578692,40.840375 Z" id="Shape" fill="#F26D24"></path>
                    <path d="M90.6666542,39.692875 C90.4964361,38.4911875 91.4858287,38.471 92.5826713,38.545375 C93.0071526,40.0955625 91.3996558,40.436625 90.6666542,39.692875 L90.6666542,39.692875 Z M93.3465249,40.075375 C93.7093022,38.1851875 92.8794891,37.4839375 92.197553,36.632875 C91.2932695,36.62225 91.0709221,37.291625 89.9006729,37.015375 C87.3899564,39.4485 91.102838,42.381 93.3465249,40.075375 L93.3465249,40.075375 Z" id="Shape" fill="#E0383E"></path>
                    <path d="M75.3459642,33.1893125 C75.6661869,33.6355625 75.8470436,34.221 75.7289548,35.102875 C75.2821324,35.421625 74.7076464,35.60225 73.8140016,35.4843125 C73.3576044,34.41225 73.5916542,33.041625 75.3459642,33.1893125 L75.3459642,33.1893125 Z M74.9640374,39.3093125 C79.538648,37.100375 77.0375062,30.0018125 71.5171215,30.512875 C72.0916075,34.019125 73.9746449,36.2185 74.9640374,39.3093125 L74.9640374,39.3093125 Z" id="Shape" fill="#67B6A2"></path>
                    <path d="M48.1291589,38.162875 C49.0972741,38.354125 53.1931464,37.6635 54.2570093,37.397875 L54.2570093,35.4843125 C52.1292835,34.901 48.8951402,35.77225 48.1291589,38.162875 L48.1291589,38.162875 Z" id="Shape" fill="#F4B033"></path>
                    <path d="M83.3898318,37.015375 C83.8260156,36.5574375 83.8260156,35.6649375 83.7717586,34.720375 C82.5164003,35.379125 80.1769657,34.954125 79.1769346,35.867875 C79.9854704,36.845375 81.8248894,36.79225 83.3898318,37.015375 L83.3898318,37.015375 Z" id="Shape" fill="#F26D24"></path>
                    <path d="M54.6655327,34.720375 C55.5910935,34.36975 55.6762025,33.17975 55.8145047,32.0418125 C53.219743,31.617875 52.3878022,32.9555625 51.2186168,33.955375 C51.504796,35.071 54.3782897,33.60475 54.6655327,34.720375 L54.6655327,34.720375 Z" id="Shape" fill="#F4B033"></path>
                    <path d="M78.4109533,34.720375 C79.8897227,34.15725 81.9099984,34.136 83.3898318,33.572875 C83.7089907,32.4880625 82.8472617,32.58475 83.007905,31.660375 C81.23019,32.436 79.3790685,33.13725 78.4109533,34.720375 L78.4109533,34.720375 Z" id="Shape" fill="#F26D24"></path>
                    <path d="M89.9006729,33.1893125 C90.0176978,31.4149375 89.2304393,30.5436875 87.602729,30.5118125 C87.1984611,30.9049375 86.8165343,33.2424375 87.602729,33.5718125 C88.1974283,34.19975 89.0910732,33.445375 89.9006729,33.1893125 L89.9006729,33.1893125 Z" id="Shape" fill="#E0383E"></path>
                    <path d="M30.9201121,32.9375 L32.0690841,32.9375 C33.0797539,32.9375 33.0797539,30.1633125 33.2180561,29.620375 C32.9946449,28.6970625 31.7712025,28.70875 30.9201121,28.41125 C30.3349875,29.973125 30.6328692,31.875 30.9201121,32.9375 L30.9201121,32.9375 Z" id="Shape" fill="#F4B033"></path>
                    <path d="M33.6010467,32.9375 L35.8989907,32.9375 C36.1330405,31.875 36.3245358,30.8125 36.2819813,28.6875 L35.1330093,28.6875 C33.707433,29.75 33.8989283,31.875 33.6010467,32.9375 L33.6010467,32.9375 Z" id="Shape" fill="#F4B033"></path>
                    <path d="M37.0479626,32.9375 L38.9629159,32.9375 C39.1756885,31.875 40.3459377,28.05 37.4309533,28.7310625 C37.6224486,30.45125 37.2394579,31.875 37.0479626,32.9375 L37.0479626,32.9375 Z" id="Shape" fill="#F4B033"></path>
                    <path d="M77.6439081,33.1893125 C79.0694844,32.446625 80.6237882,31.830375 81.8578692,30.8943125 C82.1451121,29.716 80.8046449,30.16225 81.090824,28.982875 C79.6556729,30.066625 76.6023863,30.8093125 77.6439081,33.1893125 L77.6439081,33.1893125 Z" id="Shape" fill="#F26D24"></path>
                    <path d="M94.8795514,32.807875 C95.1029626,31.30975 94.5497539,30.58725 94.1135701,29.7468125 C92.7411869,29.52475 92.2624486,30.194125 91.4326355,30.512875 C91.2305016,32.510375 92.9752368,34.125375 94.8795514,32.807875 L94.8795514,32.807875 Z" id="Shape" fill="#E0383E"></path>
                    <path d="M28.2391776,32.807875 C30.0477445,31.98975 29.547729,31.256625 29.7711402,28.982875 C29.5370903,28.451625 28.2923707,28.9286875 28.2391776,28.2168125 C27.5263894,29.2899375 27.1859533,30.7349375 26.707215,32.0418125 C26.9412648,32.5730625 28.1859844,32.096 28.2391776,32.807875 L28.2391776,32.807875 Z" id="Shape" fill="#F4B033"></path>
                    <path d="M40.4267913,32.9375 L42.0268411,32.9375 C42.9098474,30.8125 43.6183801,28.9085 40.4267913,28.982875 L40.4267913,32.9375 L40.4267913,32.9375 Z" id="Shape" fill="#F4B033"></path>
                    <path d="M26.707215,28.600375 C26.3986947,28.271 25.6539907,28.37725 25.558243,27.835375 C24.3135234,28.016 24.1326667,31.2343125 24.409271,31.660375 C25.6646293,32.436 26.5582741,30.141 26.707215,28.600375 L26.707215,28.600375 Z" id="Shape" fill="#F4B033"></path>
                    <path d="M43.9417944,31.875 L45.473757,31.875 C46.2290997,30.8125 46.0269657,27.6579375 43.5588037,28.4335625 C43.6332741,29.6341875 43.3034766,31.875 43.9417944,31.875 L43.9417944,31.875 Z" id="Shape" fill="#F4B033"></path>
                    <path d="M23.2602991,26.5625 L21.7283364,26.5625 C21.3559844,28.6875 20.9410779,28.846875 20.5793645,30.005 C22.6219813,32.268125 24.5582118,28.6875 23.2602991,26.5625 L23.2602991,26.5625 Z" id="Shape" fill="#F4B033"></path>
                    <path d="M47.0131667,31.277875 C48.0993707,31.5955625 47.8738318,30.736 48.9376947,30.8943125 L48.9376947,28.600375 C48.9376947,28.069125 47.2738131,28.217875 46.2525047,28.217875 C46.4546386,29.2899375 46.8120966,30.20475 47.0131667,31.277875 L47.0131667,31.277875 Z" id="Shape" fill="#F4B033"></path>
                    <path d="M56.580486,31.277875 C56.4219704,30.3524375 57.2826355,30.4480625 56.9634766,29.3643125 C56.5166542,29.429125 56.2815405,29.2793125 56.1964315,28.982875 C54.8559642,28.9180625 54.9410732,30.2780625 53.8984875,30.5118125 C54.4740374,31.0749375 55.579391,31.129125 56.580486,31.277875 L56.580486,31.277875 Z" id="Shape" fill="#F4B033"></path>
                    <path d="M75.7300187,30.8943125 C78.0705171,31.0643125 78.4864875,29.31225 79.1769346,27.835375 C77.0066542,26.4636875 75.9959844,29.131625 75.7300187,30.8943125 L75.7300187,30.8943125 Z" id="Shape" fill="#F26D24"></path>
                    <path d="M50.068581,30.130375 C51.675014,30.4480625 52.0367274,28.37725 51.217553,27.4518125 C50.5366807,27.3986875 50.4090171,27.9193125 49.6855903,27.8343125 C49.6760156,28.7385 50.3451854,28.961625 50.068581,30.130375 L50.068581,30.130375 Z" id="Shape" fill="#F4B033"></path>
                    <path d="M18.6644112,29.7468125 C20.1006262,29.492875 20.8666075,27.0693125 20.1963738,25.9218125 C18.1005639,25.8686875 18.1963115,28.005375 17.5154393,29.3643125 C18.0580093,29.3335 18.6005794,29.3005625 18.6644112,29.7468125 L18.6644112,29.7468125 Z" id="Shape" fill="#F4B033"></path>
                    <path d="M74.1969922,29.325 C75.4959688,28.8266875 76.8896293,27.625 76.1130093,25.5 L74.5821106,25.5 C74.7087103,27.625 73.9001745,27.625 74.1969922,29.325 L74.1969922,29.325 Z" id="Shape" fill="#F26D24"></path>
                    <path d="M87.602729,29.7468125 C87.485704,28.8436875 86.997391,28.3124375 87.2197383,27.0693125 C85.6675623,27.6005625 86.0069346,26.241625 84.9217944,26.3043125 C85.2515919,28.016 85.5707508,29.7361875 87.602729,29.7468125 L87.602729,29.7468125 Z" id="Shape" fill="#E0383E"></path>
                    <path d="M72.2831028,29.365375 C73.6235701,29.046625 73.1873863,26.9535 73.8140016,25.922875 C73.081,25.7635 73.1224907,24.8295625 71.8990483,25.157875 C72.4852368,25.710375 71.2607305,28.366625 72.2831028,29.365375 L72.2831028,29.365375 Z" id="Shape" fill="#F26D24"></path>
                    <path d="M92.9645981,25.9218125 C91.3156106,24.6680625 88.1878536,25.455375 88.3687103,28.2168125 C89.5708754,30.597875 93.5922773,28.8543125 92.9645981,25.9218125 L92.9645981,25.9218125 Z" id="Shape" fill="#E0383E"></path>
                    <path d="M52.7505794,28.982875 C53.6867788,28.7693125 54.7187259,28.6524375 54.6655327,27.452875 C54.2931807,27.4411875 54.368715,26.985375 54.2836059,26.687875 C53.1974019,26.3680625 53.2931495,27.22975 52.3675888,27.0693125 C52.0484299,28.1530625 52.909095,28.0574375 52.7505794,28.982875 L52.7505794,28.982875 Z" id="Shape" fill="#F4B033"></path>
                    <path d="M70.3681495,28.982875 C72.1448006,28.7693125 70.1872928,26.602875 70.3681495,25.540375 C69.6872773,25.4861875 69.5596137,26.0068125 68.8372508,25.9218125 C69.091514,27.197875 70.0266495,27.7918125 70.3681495,28.982875 L70.3681495,28.982875 Z" id="Shape" fill="#F26D24"></path>
                    <path d="M15.600486,28.217875 C17.1430872,28.175375 18.0260935,26.03975 17.1324486,24.775375 C15.7175109,24.945375 14.8345047,27.0799375 15.600486,28.217875 L15.600486,28.217875 Z" id="Shape" fill="#F4B033"></path>
                    <path d="M56.9634766,27.835375 C57.0794377,28.356 57.9209533,28.1530625 58.4943754,28.2168125 C58.5486324,27.5049375 58.7497025,26.942875 59.2614206,26.687875 C58.4528847,25.52975 57.8358442,27.7811875 56.9634766,27.835375 L56.9634766,27.835375 Z" id="Shape" fill="#F4B033"></path>
                    <path d="M13.3025421,27.070375 C14.1429938,26.220375 15.9621994,24.84975 14.8345047,23.245375 C13.8344735,24.180375 11.6854704,25.774125 13.3025421,27.070375 L13.3025421,27.070375 Z" id="Shape" fill="#F4B033"></path>
                    <path d="M55.431514,27.070375 C56.3357975,26.826 57.2188037,26.560375 57.3454034,25.5414375 C56.898581,26.241625 54.8463894,25.3385 55.431514,27.070375 L55.431514,27.070375 Z" id="Shape" fill="#F4B033"></path>
                    <path d="M87.9857196,25.9218125 C87.8463536,25.27475 88.2825374,25.1993125 88.7517009,25.1568125 C88.347433,24.286625 87.5920903,23.7649375 86.453757,23.6268125 C86.4760981,24.286625 86.1654502,24.616 85.6877757,24.7743125 C85.9111869,25.69975 87.1335654,25.625375 87.9857196,25.9218125 L87.9857196,25.9218125 Z" id="Shape" fill="#E0383E"></path>
                    <path d="M13.3025421,22.097875 C12.1748474,21.545375 10.7386324,23.4685 10.2386168,24.775375 C11.6854704,25.636 13.3876511,23.9774375 13.3025421,22.097875 L13.3025421,22.097875 Z" id="Shape" fill="#F4B033"></path>
                    <path d="M84.0451713,24.392875 L84.0451713,21.715375 C82.9813084,20.8335 81.6078614,20.8335 80.5982555,21.715375 C79.9056807,24.6893125 82.9813084,25.721 84.0451713,24.392875 L84.0451713,24.392875 Z" id="Shape" fill="#E0383E"></path>
                    <path d="M92.5816075,24.392875 C92.5273505,22.140375 89.9953567,21.226625 87.9857196,22.097875 C88.6878692,24.4035 90.4006885,24.201625 92.5816075,24.392875 L92.5816075,24.392875 Z" id="Shape" fill="#E0383E"></path>
                    <path d="M11.0045981,20.1843125 C9.55774455,20.2693125 9.38752648,21.630375 7.9406729,21.715375 C7.91939564,24.616 12.5471994,22.055375 11.0045981,20.1843125 L11.0045981,20.1843125 Z" id="Shape" fill="#F4B033"></path>
                    <path d="M78.7928801,22.4793125 C79.2397025,21.906625 79.9003614,21.545375 79.941852,20.567875 C79.1758707,20.567875 79.4524751,19.526625 78.4109533,19.8018125 C78.3152056,20.8536875 77.2821947,20.9705625 76.4949361,21.33075 C76.3140794,22.6599375 78.5705327,21.556 78.7928801,22.4793125 L78.7928801,22.4793125 Z" id="Shape" fill="#E0383E"></path>
                    <path d="M66.9201698,21.715375 L68.0691417,21.715375 C68.3893645,21.2680625 68.5702212,20.6836875 68.4521324,19.8018125 C67.0382586,19.53725 66.7616542,20.4085 66.9201698,21.715375 L66.9201698,21.715375 Z" id="Shape" fill="#E0383E"></path>
                    <path d="M9.47263551,18.2739375 C7.96195016,18.5608125 5.30229283,19.271625 6.02571963,20.5689375 C7.1427757,21.099125 9.96201246,20.567875 9.47263551,18.2739375 L9.47263551,18.2739375 Z" id="Shape" fill="#F4B033"></path>
                    <path d="M87.9857196,20.1843125 C88.3155171,18.071 87.2293131,17.36975 85.6877757,17.1264375 C82.6557664,18.1783125 85.452662,22.714125 87.9857196,20.1843125 L87.9857196,20.1843125 Z" id="Shape" fill="#E0383E"></path>
                    <path d="M73.0480202,20.1843125 C73.283134,18.166625 72.708648,16.955375 71.1341308,16.742875 C68.9106573,17.816 70.3043178,22.08725 73.0480202,20.1843125 L73.0480202,20.1843125 Z" id="Shape" fill="#E0383E"></path>
                    <path d="M75.3459642,20.1843125 C76.8353723,20.2693125 77.7513583,19.781625 78.0279626,18.655375 C78.2620125,17.146625 75.9225779,18.209125 74.9640374,17.890375 C74.9097804,18.836 74.9097804,19.7274375 75.3459642,20.1843125 L75.3459642,20.1843125 Z" id="Shape" fill="#E0383E"></path>
                    <path d="M83.0068411,14.447875 C80.9642243,14.1939375 79.5907773,14.6061875 78.7928801,15.595375 C77.9641308,21.545375 85.5601121,19.399125 83.0068411,14.447875 L83.0068411,14.447875 Z" id="Shape" fill="#E0383E"></path>
                    <path d="M4.49375701,18.655375 C6.03635826,18.2835 8.07897508,18.411 7.9406729,16.360375 C7.24916199,15.45725 4.87674766,17.41225 4.11076636,16.360375 C2.86604673,17.019125 5.10015888,17.359125 4.49375701,18.655375 L4.49375701,18.655375 Z" id="Shape" fill="#F4B033"></path>
                    <path d="M77.6439081,16.742875 C77.8460421,15.6686875 78.2077555,14.756 78.4109533,13.682875 C77.6875265,14.107875 76.6023863,14.171625 75.7289548,14.447875 C75.836405,15.319125 75.6332072,15.8833125 74.9629735,15.977875 C75.0172305,17.07225 76.5598318,16.6801875 77.6439081,16.742875 L77.6439081,16.742875 Z" id="Shape" fill="#E0383E"></path>
                    <path d="M15.600486,11.387875 C14.1217165,10.8035 13.6004237,12.35475 12.1535701,12.535375 C6.68531464,13.20475 1.58941121,8.2535 5.25973832,2.5914375 C-3.72990343,8.23225 10.3237259,19.8230625 15.600486,11.387875 L15.600486,11.387875 Z" id="Shape" fill="#F26D24"></path>
                    <path d="M7.17469159,5.650375 C8.50452025,0.8585 18.068648,4.5570625 13.3025421,9.8589375 C9.64285358,11.29225 6.35551713,8.6158125 7.17469159,5.650375 L7.17469159,5.650375 Z M9.08964486,11.0064375 C17.8133209,13.11975 16.5047695,1.64475 9.85562617,1.825375 C4.13204361,1.9858125 2.98307165,9.5285 9.08964486,11.0064375 L9.08964486,11.0064375 Z" id="Shape" fill="#987086"></path>
                    <path d="M9.85562617,6.032875 C10.3450031,5.5133125 11.6641931,5.5133125 12.1535701,6.032875 C12.2493178,7.276 11.696109,7.8699375 10.6216075,7.945375 C10.462028,7.2133125 9.52582866,7.25475 9.85562617,6.032875 L9.85562617,6.032875 Z M12.1535701,4.502875 C9.39816511,4.1958125 8.15344548,5.650375 8.32366355,7.1814375 C8.77048598,11.12225 16.2175265,8.136625 12.1535701,4.502875 L12.1535701,4.502875 Z" id="Shape" fill="#F26D24"></path>
                    <path d="M53.8984875,62.260375 C53.739972,59.6158125 49.8675109,55.3318125 51.6016075,50.785375 C48.5270436,52.30475 50.0792196,61.729125 53.8984875,62.260375 L53.8984875,62.260375 Z" id="Shape" fill="#F4B033"></path>
                    <path d="M94.4954969,50.402875 L95.2625421,50.402875 C95.2838193,50.8905625 95.751919,50.934125 95.6444688,51.5493125 L94.4954969,51.5493125 L94.4954969,50.402875 L94.4954969,50.402875 Z M91.0496449,54.6093125 C91.4113583,55.3105625 92.9848115,54.0143125 94.1135701,54.227875 C93.8369657,53.229125 92.2943645,53.49475 92.197553,52.3143125 C93.1029003,52.017875 94.6880561,52.187875 94.8795514,53.4618125 C95.7200031,53.0261875 96.1561869,52.187875 97.1774953,51.932875 C97.1998364,51.274125 96.8891885,50.94475 96.411514,50.785375 C97.1445156,48.745375 99.0498941,51.476 99.4754393,48.490375 C98.5190265,48.5551875 98.5498785,47.6286875 97.9434766,47.342875 C96.8689751,47.71475 98.4977492,48.362875 97.5615498,48.8718125 C96.0923551,48.3735 96.4327913,48.044125 96.0295872,46.1943125 C94.9550857,45.6099375 93.6358956,45.271 91.81669,45.4293125 C92.1890421,46.3961875 93.6784502,46.9911875 94.114634,45.8118125 C94.4550701,45.9818125 94.7965701,46.1518125 94.8806153,46.5768125 C94.4018769,48.4245 94.6465654,49.871625 92.5837352,51.5493125 C90.3591978,50.9543125 91.0836885,51.7830625 89.9017368,52.6968125 C89.4974688,50.4230625 88.5080763,47.226 91.0507087,45.812875 C87.3048474,46.1093125 88.2740265,51.5174375 89.5187461,53.845375 C90.699634,54.1333125 90.2528115,52.7945625 91.4347632,53.080375 C92.336919,53.186625 91.3996558,54.504125 91.0496449,54.6093125 L91.0496449,54.6093125 Z" id="Shape" fill="#F4B033"></path>
                    <path d="M87.602729,53.080375 C88.3155171,52.9411875 87.5601745,51.136 87.2197383,50.785375 C86.7516386,49.552875 87.2516542,52.7085 87.602729,53.080375 L87.602729,53.080375 Z" id="Shape" fill="#E0383E"></path>
                    <path d="M94.8795514,40.075375 C94.3252788,41.796625 91.47519,42.5818125 88.7517009,41.6043125 C84.3473084,34.592875 96.9434455,33.679125 94.8795514,40.075375 L94.8795514,40.075375 Z M86.8367477,40.840375 C91.1453925,46.6405625 98.9318053,41.1686875 94.1135701,36.250375 C91.5177445,33.60475 86.0803411,34.66725 86.8367477,40.840375 L86.8367477,40.840375 Z" id="Shape" fill="#E0383E"></path>
                    <path d="M2.57880374,14.447875 C4.11076636,14.936625 4.57886604,15.892875 6.40871028,15.212875 C5.24909969,13.9495625 4.13204361,12.641625 2.57880374,11.770375 C1.40855452,8.40225 2.44050156,12.747875 2.57880374,14.447875 L2.57880374,14.447875 Z" id="Shape" fill="#F4B033"></path>
                    <path d="M62.3253458,48.490375 C63.5381495,48.299125 63.6775156,49.181 65.0073442,48.8718125 C64.4317944,50.4655625 64.2200857,52.421625 62.3253458,52.697875 C61.5806417,51.762875 61.9519299,49.49975 62.3253458,48.490375 L62.3253458,48.490375 Z M59.0220514,50.402875 C59.576324,49.58475 60.6401869,48.22475 61.7040498,48.8718125 L61.7040498,52.697875 C59.576324,52.655375 59.4178084,51.66725 59.0220514,50.402875 L59.0220514,50.402875 Z M66.538243,50.0193125 C67.3467788,50.4868125 67.6127445,51.49725 68.0691417,52.3143125 C66.7499517,52.6543125 66.4095156,53.972875 64.6222259,53.8443125 C64.2296604,52.8785 65.1541573,50.43475 66.538243,50.0193125 L66.538243,50.0193125 Z M57.4485981,51.932875 C58.5124611,52.071 59.0060935,53.125 59.6433474,54.1875 L57.4485981,54.1875 L57.4485981,51.932875 L57.4485981,51.932875 Z M65.7711978,54.6093125 C67.2712445,54.7049375 67.1967741,53.2280625 68.8361869,53.4618125 C68.5595826,54.631625 69.2287523,54.85475 69.2181137,55.7568125 C68.1340374,56.5643125 65.963757,55.896 65.7711978,54.6093125 L65.7711978,54.6093125 Z M61.7040498,54.992875 L61.7040498,54.227875 C62.7679128,53.2918125 65.3424611,53.9835 64.7679751,56.140375 C63.4072944,56.097875 60.6401869,56.416625 61.7040498,54.992875 L61.7040498,54.992875 Z M58.1124486,55.375375 C59.1975888,55.694125 59.1018411,54.8335 60.0274019,54.992875 C60.857215,55.927875 60.3157087,57.819125 58.8784299,57.6714375 C58.6550187,56.8735 57.9315919,56.5749375 58.1124486,55.375375 L58.1124486,55.375375 Z M65.0062804,56.140375 C66.0914206,56.586625 67.5372103,56.671625 68.0691417,57.670375 C67.1861355,57.5535 67.6446604,58.7743125 66.9201698,58.817875 C65.963757,58.2430625 64.7924439,57.882875 65.0062804,56.140375 L65.0062804,56.140375 Z M60.4699688,58.4343125 C61.2029704,57.65975 61.7040498,57.1061875 62.7679128,57.670375 L62.7679128,59.965375 C61.7040498,59.82725 60.8731729,59.3055625 60.4699688,58.4343125 L60.4699688,58.4343125 Z M63.8573084,58.052875 C65.0371324,58.052875 66.6127134,59.859125 65.0062804,60.347875 C64.4530717,59.7518125 63.4626153,59.5935 63.8573084,58.052875 L63.8573084,58.052875 Z M57.3454034,49.255375 C54.027215,56.1499375 60.515715,63.174125 66.1541885,61.495375 C67.461676,61.10225 69.6862134,58.276 69.9851589,56.522875 C71.1128536,49.977875 63.2072882,44.5155625 57.3454034,49.255375 L57.3454034,49.255375 Z" id="Shape" fill="#000000"></path>
                    <path d="M94.4954969,51.550375 L95.6444688,51.550375 C95.751919,50.9351875 95.2827555,50.891625 95.2625421,50.4039375 L94.4954969,50.4039375 L94.4954969,51.550375 L94.4954969,51.550375 Z" id="Shape" fill="#000000"></path>
                    <path d="M89.9006729,37.015375 C91.071986,37.291625 91.2943333,36.62225 92.197553,36.632875 C92.8794891,37.4839375 93.7093022,38.1851875 93.3465249,40.075375 C91.102838,42.381 87.3899564,39.4485 89.9006729,37.015375 L89.9006729,37.015375 Z M88.7517009,41.6043125 C91.47519,42.5818125 94.3252788,41.796625 94.8795514,40.075375 C96.9434455,33.679125 84.3473084,34.592875 88.7517009,41.6043125 L88.7517009,41.6043125 Z" id="Shape" fill="#000000"></path>
                    <path d="M92.5816075,38.545375 C91.4847648,38.471 90.4953723,38.4911875 90.6655903,39.692875 C91.3996558,40.436625 93.0071526,40.0955625 92.5816075,38.545375 L92.5816075,38.545375 Z" id="Shape" fill="#000000"></path>
                    <path d="M73.8150654,35.4843125 C74.7087103,35.6011875 75.2831963,35.4205625 75.7300187,35.102875 C75.8470436,34.221 75.6661869,33.6355625 75.347028,33.1893125 C73.5916542,33.041625 73.3576044,34.41225 73.8150654,35.4843125 L73.8150654,35.4843125 Z" id="Shape" fill="#000000"></path>
                    <path d="M8.32366355,7.180375 C8.15344548,5.650375 9.39816511,4.19475 12.1535701,4.5018125 C16.2175265,8.136625 8.77048598,11.12225 8.32366355,7.180375 L8.32366355,7.180375 Z M13.3025421,9.8589375 C18.068648,4.5570625 8.50452025,0.8585 7.17469159,5.650375 C6.35551713,8.6158125 9.64285358,11.29225 13.3025421,9.8589375 L13.3025421,9.8589375 Z" id="Shape" fill="#000000"></path>
                    <path d="M10.6216075,7.945375 C11.696109,7.871 12.2493178,7.276 12.1535701,6.032875 C11.6641931,5.5133125 10.3450031,5.5133125 9.85562617,6.032875 C9.52582866,7.25475 10.462028,7.2133125 10.6216075,7.945375 L10.6216075,7.945375 Z" id="Shape" fill="#000000"></path>
                    <path d="M9.85562617,1.825375 C16.5047695,1.64475 17.8133209,13.11975 9.08964486,11.0064375 C2.98307165,9.5285 4.13204361,1.9858125 9.85562617,1.825375 L9.85562617,1.825375 Z M5.25973832,2.5914375 C1.58941121,8.2535 6.68531464,13.20475 12.1535701,12.535375 C13.6004237,12.35475 14.1217165,10.8035 15.600486,11.387875 C10.3237259,19.8230625 -3.72990343,8.23225 5.25973832,2.5914375 L5.25973832,2.5914375 Z M2.57880374,11.770375 C4.13204361,12.641625 5.24909969,13.9495625 6.40871028,15.212875 C4.57886604,15.8939375 4.11076636,14.936625 2.57880374,14.447875 C2.44050156,12.747875 1.40855452,8.40225 2.57880374,11.770375 L2.57880374,11.770375 Z M74.9640374,15.9789375 C75.634271,15.8833125 75.836405,15.3201875 75.7300187,14.4489375 C76.6023863,14.1726875 77.6885903,14.11 78.4120171,13.6839375 C78.2098832,14.7570625 77.8481698,15.66975 77.644972,16.7439375 C76.5598318,16.6801875 75.0172305,17.07225 74.9640374,15.9789375 L74.9640374,15.9789375 Z M4.11076636,16.360375 C4.87674766,17.41225 7.24916199,15.45725 7.9406729,16.360375 C8.07897508,18.411 6.03635826,18.2845625 4.49375701,18.655375 C5.10015888,17.359125 2.86604673,17.019125 4.11076636,16.360375 L4.11076636,16.360375 Z M78.7928801,15.595375 C79.5907773,14.6061875 80.9642243,14.1939375 83.0068411,14.447875 C85.5601121,19.399125 77.9641308,21.545375 78.7928801,15.595375 L78.7928801,15.595375 Z M74.9640374,17.890375 C75.921514,18.209125 78.2620125,17.146625 78.0279626,18.655375 C77.7513583,19.781625 76.8364361,20.2693125 75.3459642,20.1843125 C74.9097804,19.7274375 74.9097804,18.836 74.9640374,17.890375 L74.9640374,17.890375 Z M71.1341308,16.742875 C72.7075841,16.955375 73.283134,18.166625 73.0480202,20.1843125 C70.3043178,22.08725 68.9106573,17.816 71.1341308,16.742875 L71.1341308,16.742875 Z M85.6877757,17.1264375 C87.2293131,17.36975 88.3155171,18.0720625 87.9857196,20.1843125 C85.452662,22.714125 82.6557664,18.1783125 85.6877757,17.1264375 L85.6877757,17.1264375 Z M6.02571963,20.567875 C5.30229283,19.2705625 7.96195016,18.55975 9.47263551,18.272875 C9.96201246,20.567875 7.1427757,21.099125 6.02571963,20.567875 L6.02571963,20.567875 Z M68.4531963,19.802875 C68.5702212,20.68475 68.3893645,21.269125 68.0702056,21.7164375 L66.9212336,21.7164375 C66.7616542,20.4085 67.0382586,19.53725 68.4531963,19.802875 L68.4531963,19.802875 Z M76.4949361,21.3318125 C77.2821947,20.9705625 78.3152056,20.85475 78.4109533,19.802875 C79.4524751,19.526625 79.1769346,20.5689375 79.941852,20.5689375 C79.9003614,21.5464375 79.2397025,21.9076875 78.7928801,22.480375 C78.5705327,21.556 76.3140794,22.6599375 76.4949361,21.3318125 L76.4949361,21.3318125 Z M7.9406729,21.715375 C9.38752648,21.630375 9.55774455,20.2693125 11.0045981,20.1843125 C12.5471994,22.055375 7.91939564,24.616 7.9406729,21.715375 L7.9406729,21.715375 Z M87.9857196,22.097875 C89.9964206,21.226625 92.5284143,22.140375 92.5816075,24.392875 C90.4006885,24.201625 88.6878692,24.4035 87.9857196,22.097875 L87.9857196,22.097875 Z M80.5982555,21.715375 C81.6078614,20.8335 82.9813084,20.8335 84.0451713,21.715375 L84.0451713,24.392875 C82.9813084,25.721 79.9056807,24.6893125 80.5982555,21.715375 L80.5982555,21.715375 Z M10.2386168,24.7743125 C10.7386324,23.4685 12.1748474,21.545375 13.3025421,22.0968125 C13.3876511,23.9774375 11.6854704,25.636 10.2386168,24.7743125 L10.2386168,24.7743125 Z M85.6877757,24.7743125 C86.1654502,24.616 86.4750343,24.286625 86.453757,23.6268125 C87.5920903,23.766 88.347433,24.286625 88.7517009,25.1568125 C88.2836012,25.1993125 87.8463536,25.2736875 87.9857196,25.9218125 C87.1335654,25.625375 85.9111869,25.69975 85.6877757,24.7743125 L85.6877757,24.7743125 Z M57.3454034,25.540375 C57.2188037,26.5593125 56.3357975,26.8249375 55.431514,27.070375 C54.8463894,25.3385 56.898581,26.241625 57.3454034,25.540375 L57.3454034,25.540375 Z M14.8345047,23.245375 C15.9621994,24.84975 14.1429938,26.220375 13.3025421,27.070375 C11.6854704,25.774125 13.8344735,24.180375 14.8345047,23.245375 L14.8345047,23.245375 Z M59.2614206,26.687875 C58.7507664,26.942875 58.5486324,27.506 58.4943754,28.2168125 C57.9209533,28.152 57.0794377,28.356 56.9634766,27.835375 C57.8358442,27.7811875 58.4528847,25.52975 59.2614206,26.687875 L59.2614206,26.687875 Z M17.1324486,24.7743125 C18.0260935,26.0386875 17.1430872,28.1743125 15.600486,28.2168125 C14.8345047,27.0799375 15.7175109,24.945375 17.1324486,24.7743125 L17.1324486,24.7743125 Z M68.8361869,25.9218125 C69.5596137,26.0068125 69.6872773,25.4861875 70.3670857,25.540375 C70.186229,26.602875 72.1437368,28.7693125 70.3670857,28.982875 C70.0266495,27.7918125 69.091514,27.197875 68.8361869,25.9218125 L68.8361869,25.9218125 Z M52.3675888,27.070375 C53.2931495,27.22975 53.1974019,26.369125 54.2836059,26.6889375 C54.368715,26.985375 54.2942445,27.44225 54.6655327,27.4539375 C54.7187259,28.6545625 53.6867788,28.770375 52.7505794,28.9839375 C52.909095,28.0574375 52.0484299,28.1530625 52.3675888,27.070375 L52.3675888,27.070375 Z M88.3676464,28.217875 C88.1867897,25.455375 91.3156106,24.669125 92.9635343,25.922875 C93.5922773,28.8543125 89.5708754,30.597875 88.3676464,28.217875 L88.3676464,28.217875 Z M71.9001121,25.157875 C73.1224907,24.8285 73.081,25.7624375 73.8150654,25.922875 C73.1873863,26.9545625 73.6235701,29.046625 72.2841667,29.365375 C71.2607305,28.366625 72.4852368,25.710375 71.9001121,25.157875 L71.9001121,25.157875 Z M84.9207305,26.305375 C86.0069346,26.241625 85.6664984,27.601625 87.2186745,27.070375 C86.9963271,28.3135 87.4846402,28.84475 87.6016651,29.747875 C85.5707508,29.7361875 85.2515919,28.016 84.9207305,26.305375 L84.9207305,26.305375 Z M74.5810467,25.5 L76.1119455,25.5 C76.8885654,27.625 75.494905,28.8266875 74.1959283,29.325 C73.9001745,27.625 74.7087103,27.625 74.5810467,25.5 L74.5810467,25.5 Z M17.5154393,29.365375 C18.1963115,28.0064375 18.1005639,25.86975 20.1963738,25.922875 C20.8666075,27.070375 20.1006262,29.492875 18.6644112,29.747875 C18.6005794,29.3005625 18.0580093,29.3335 17.5154393,29.365375 L17.5154393,29.365375 Z M49.6866542,27.835375 C50.410081,27.920375 50.5377445,27.39975 51.2186168,27.452875 C52.0377913,28.37725 51.6760779,30.4480625 50.0696449,30.1314375 C50.3451854,28.961625 49.6760156,28.7385 49.6866542,27.835375 L49.6866542,27.835375 Z M79.1769346,27.835375 C78.4864875,29.31225 78.0705171,31.0643125 75.7300187,30.8943125 C75.9959844,29.131625 77.0066542,26.4636875 79.1769346,27.835375 L79.1769346,27.835375 Z M53.8984875,30.512875 C54.9410732,30.2780625 54.8559642,28.919125 56.1964315,28.9839375 C56.2815405,29.280375 56.5166542,29.4301875 56.9634766,29.365375 C57.2826355,30.449125 56.4209065,30.3535 56.580486,31.2789375 C55.579391,31.129125 54.4740374,31.0749375 53.8984875,30.512875 L53.8984875,30.512875 Z M46.2482492,28.217875 C47.2695576,28.217875 48.9376947,28.069125 48.9376947,28.600375 L48.9376947,30.8943125 C47.8738318,30.736 48.1036262,31.5955625 47.0174221,31.277875 C46.816352,30.20475 46.4503832,29.2899375 46.2482492,28.217875 L46.2482492,28.217875 Z M20.5793645,30.005 C20.9410779,28.846875 21.3559844,28.6875 21.7283364,26.5625 L23.2602991,26.5625 C24.5582118,28.6875 22.6219813,32.268125 20.5793645,30.005 L20.5793645,30.005 Z M43.5588037,28.4335625 C46.0269657,27.6579375 46.2290997,30.8125 45.473757,31.875 L43.9417944,31.875 C43.3034766,31.875 43.6332741,29.6341875 43.5588037,28.4335625 L43.5588037,28.4335625 Z M24.409271,31.660375 C24.1326667,31.235375 24.3135234,28.016 25.558243,27.835375 C25.6539907,28.37725 26.3986947,28.271 26.707215,28.600375 C26.5582741,30.141 25.6646293,32.436 24.409271,31.660375 L24.409271,31.660375 Z M40.4267913,28.982875 C43.6183801,28.9085 42.9098474,30.8125 42.0268411,32.9375 L40.4267913,32.9375 L40.4267913,28.982875 L40.4267913,28.982875 Z M26.707215,32.0418125 C27.1859533,30.736 27.5263894,29.2899375 28.2391776,28.2168125 C28.2923707,28.9286875 29.5370903,28.451625 29.7711402,28.982875 C29.547729,31.256625 30.0477445,31.98975 28.2391776,32.807875 C28.1859844,32.096 26.9412648,32.5730625 26.707215,32.0418125 L26.707215,32.0418125 Z M91.4326355,30.512875 C92.2613847,30.194125 92.7401231,29.52475 94.1135701,29.7468125 C94.5497539,30.58725 95.1029626,31.30975 94.8795514,32.807875 C92.9752368,34.125375 91.2305016,32.510375 91.4326355,30.512875 L91.4326355,30.512875 Z M81.0918879,28.982875 C80.8046449,30.1611875 82.1451121,29.7149375 81.858933,30.8943125 C80.624852,31.830375 79.0705483,32.446625 77.644972,33.1893125 C76.6023863,30.8093125 79.6556729,30.066625 81.0918879,28.982875 L81.0918879,28.982875 Z M37.4309533,28.7310625 C40.3459377,28.05 39.1756885,31.875 38.9629159,32.9375 L37.0479626,32.9375 C37.2394579,31.875 37.6224486,30.45125 37.4309533,28.7310625 L37.4309533,28.7310625 Z M35.1330093,28.6875 L36.2819813,28.6875 C36.3245358,30.8125 36.1330405,31.875 35.8989907,32.9375 L33.6010467,32.9375 C33.8989283,31.875 33.707433,29.75 35.1330093,28.6875 L35.1330093,28.6875 Z M30.9201121,28.4739375 C31.7712025,28.7714375 32.9946449,28.634375 33.2180561,29.5576875 C33.0797539,30.100625 33.0797539,32.9375 32.0690841,32.9375 L30.9201121,32.9375 C30.6328692,31.875 30.3349875,30.0358125 30.9201121,28.4739375 L30.9201121,28.4739375 Z M87.602729,33.572875 C86.8165343,33.2435 87.1984611,30.906 87.602729,30.512875 C89.2304393,30.5436875 90.0187617,31.416 89.9006729,33.190375 C89.0910732,33.445375 88.1974283,34.19975 87.602729,33.572875 L87.602729,33.572875 Z M83.0068411,31.660375 C82.8472617,32.58475 83.7079268,32.4880625 83.3887679,33.572875 C81.9089346,34.136 79.8886589,34.15725 78.4098894,34.720375 C79.3790685,33.13725 81.23019,32.436 83.0068411,31.660375 L83.0068411,31.660375 Z M51.2186168,33.955375 C52.388866,32.956625 53.219743,31.617875 55.8145047,32.0418125 C55.6762025,33.1786875 55.5910935,34.3686875 54.6655327,34.720375 C54.3782897,33.60475 51.504796,35.071 51.2186168,33.955375 L51.2186168,33.955375 Z M79.1769346,35.867875 C80.1769657,34.954125 82.5174642,35.379125 83.7717586,34.720375 C83.8260156,35.666 83.8260156,36.5574375 83.3898318,37.015375 C81.8248894,36.79225 79.9854704,36.845375 79.1769346,35.867875 L79.1769346,35.867875 Z M54.2570093,35.4843125 L54.2570093,37.397875 C53.1931464,37.6635 49.0972741,38.3530625 48.1291589,38.162875 C48.8951402,35.77225 52.1292835,34.901 54.2570093,35.4843125 L54.2570093,35.4843125 Z M71.5171215,30.512875 C77.0375062,30.002875 79.538648,37.100375 74.9640374,39.3093125 C73.9746449,36.2185 72.0916075,34.019125 71.5171215,30.512875 L71.5171215,30.512875 Z M78.4109533,37.397875 C80.2503723,37.4711875 81.6557352,37.9811875 83.3898318,38.162875 C83.093014,39.267875 82.7834299,40.3611875 81.858933,40.8414375 C80.8897539,39.51225 78.8684143,39.236 78.4109533,37.397875 L78.4109533,37.397875 Z M76.8789907,39.3093125 C79.1875732,39.42725 80.2939907,40.74475 81.4748785,41.987875 C80.5386791,42.200375 80.6546402,43.46475 79.1769346,43.135375 C78.6875576,41.584125 77.3151745,40.91475 76.8789907,39.3093125 L76.8789907,39.3093125 Z M54.2570093,38.927875 L54.2570093,40.8414375 C51.0654206,40.0105625 49.6302695,41.7849375 47.3642414,43.135375 C47.5025436,39.777875 51.0654206,38.4168125 54.2570093,38.927875 L54.2570093,38.927875 Z M94.1135701,36.250375 C98.9318053,41.1686875 91.1453925,46.6405625 86.8367477,40.840375 C86.0803411,34.66725 91.5177445,33.60475 94.1135701,36.250375 L94.1135701,36.250375 Z M75.7300187,40.840375 C76.7619657,41.2218125 79.3258754,43.687875 77.2619813,44.665375 C76.8789907,43.262875 75.9853458,42.370375 75.7300187,40.840375 L75.7300187,40.840375 Z M84.5388037,45.0468125 C84.2079424,43.1874375 85.4324486,42.880375 86.453757,42.3693125 C87.113352,42.9855625 87.400595,43.9630625 87.2197383,45.4293125 C86.1345981,45.876625 85.592028,45.5036875 84.5388037,45.0468125 L84.5388037,45.0468125 Z M84.9207305,37.015375 C85.6973505,28.97225 78.3460576,25.157875 71.1341308,23.6268125 C69.9309019,23.9030625 68.2819143,25.094125 67.3031604,24.392875 C68.9734252,21.885375 73.3778178,21.885375 75.7289548,22.4793125 C76.9853769,22.799125 80.4429315,24.711625 82.239796,26.305375 C85.08031,28.8235 85.0494579,31.617875 86.4526931,35.102875 C85.3781916,40.5311875 83.2834455,44.931 78.4098894,46.577875 C81.1769969,43.411625 84.4643333,41.7849375 84.9207305,37.015375 L84.9207305,37.015375 Z M46.8099688,45.0468125 C48.9376947,43.8143125 50.3005031,41.902875 53.7038006,41.9868125 C51.8111885,44.686625 47.8738318,45.6843125 46.8099688,48.8718125 L46.8099688,45.0468125 L46.8099688,45.0468125 Z M91.8156262,47.342875 C92.6135234,47.566 93.1241776,48.0749375 93.3465249,48.8718125 C92.4326667,49.234125 92.336919,50.4135 90.6655903,50.0193125 C89.8368411,49.085375 90.3794112,47.194125 91.8156262,47.342875 L91.8156262,47.342875 Z M83.0068411,45.812875 C84.2515607,46.7361875 85.1558442,48.001625 84.9207305,50.402875 C82.4004393,53.675375 78.0598785,46.492875 83.0068411,45.812875 L83.0068411,45.812875 Z M87.2186745,50.785375 C87.5591106,51.136 88.3144533,52.9411875 87.6016651,53.080375 C87.2516542,52.7085 86.7516386,49.552875 87.2186745,50.785375 L87.2186745,50.785375 Z M84.5388037,53.080375 L84.5388037,52.3143125 C84.7728536,52.2930625 84.9962648,52.26225 84.9207305,51.932875 L85.6877757,51.932875 C85.709053,52.166625 85.7409688,52.38975 86.0697025,52.3143125 L86.0697025,53.080375 C85.8356526,53.101625 85.6122414,53.1335 85.6877757,53.4618125 L84.9207305,53.4618125 C84.9005171,53.229125 84.8686012,53.006 84.5388037,53.080375 L84.5388037,53.080375 Z M91.4326355,53.080375 C90.2517477,52.7935 90.6985701,54.13225 89.5166184,53.845375 C88.2718988,51.5185 87.3037835,46.110375 91.048581,45.812875 C88.5059486,47.226 89.4953411,50.424125 89.899609,52.6968125 C91.0804969,51.7830625 90.3570701,50.9543125 92.5816075,51.5493125 C94.6444377,49.871625 94.3997492,48.4255625 94.8784875,46.5768125 C94.7944424,46.152875 94.4540062,45.9818125 94.1125062,45.8118125 C93.6763224,46.990125 92.1858505,46.3961875 91.8145623,45.4293125 C93.6337679,45.271 94.9529579,45.6099375 96.0274595,46.1943125 C96.4317274,48.0430625 96.0912913,48.3735 97.5594221,48.8718125 C98.4956215,48.362875 96.8679112,47.7136875 97.9413489,47.342875 C98.5477508,47.62975 98.5168988,48.5551875 99.4733115,48.490375 C99.0488302,51.4770625 97.1434517,48.745375 96.4093863,50.785375 C96.8870607,50.94475 97.1966449,51.274125 97.1753676,51.932875 C96.1540592,52.187875 95.7178754,53.0261875 94.8774237,53.4618125 C94.6859283,52.187875 93.1007726,52.017875 92.1954252,52.3143125 C92.2922368,53.4936875 93.834838,53.2280625 94.1114424,54.227875 C92.9826838,54.015375 91.4092305,55.311625 91.0475171,54.6093125 C91.3996558,54.504125 92.336919,53.186625 91.4326355,53.080375 L91.4326355,53.080375 Z M53.5165607,44.282875 C52.4420592,47.5235 48.803648,50.870375 48.5376822,56.140375 C45.9418567,51.1561875 48.431296,45.6535 53.5165607,44.282875 L53.5165607,44.282875 Z M54.6655327,51.1668125 C56.3145202,43.33725 70.6766698,46.4599375 71.5171215,53.845375 C72.188419,59.7624375 67.8999875,63.0349375 62.3253458,61.877875 C57.2826355,60.8249375 53.5803925,56.34225 54.6655327,51.1668125 L54.6655327,51.1668125 Z M51.6016075,50.785375 C49.8675109,55.3318125 53.739972,59.6158125 53.8984875,62.260375 C50.0792196,61.729125 48.5270436,52.30475 51.6016075,50.785375 L51.6016075,50.785375 Z M54.2825421,60.347875 C50.9313738,55.587875 51.9526822,47.8093125 56.5794221,44.665375 C62.4945,41.265375 70.4415561,45.111625 71.8990483,50.785375 C69.1649206,49.297875 68.1010576,46.22725 64.621162,45.430375 C58.940134,44.1245625 52.9410109,47.427875 53.5154969,54.227875 C54.0048738,60.0174375 59.2167383,62.4399375 64.621162,64.1718125 C60.6444424,64.7030625 56.5475062,63.5661875 54.2825421,60.347875 L54.2825421,60.347875 Z M54.6655327,44.282875 C55.0272461,35.1985 57.9730826,27.166 64.6222259,23.627875 C74.3778489,29.6639375 74.7076464,55.9385 89.9006729,56.1414375 C94.8369969,56.2051875 97.2509019,53.3045625 100.241421,50.405 C100.156312,47.8964375 101.741467,47.058125 101.390393,44.2839375 C100.029712,43.6570625 98.2530607,45.4951875 97.1774953,43.5189375 C98.2839128,29.917875 92.4326667,13.0475 79.5599252,12.9189375 C73.9959221,12.866875 68.4000031,16.17125 65.7711978,20.57 C58.6645935,23.683125 50.9515872,27.4433125 40.8778692,28.2189375 C27.3455327,29.2601875 13.2706262,24.8614375 8.70665421,15.5975 C18.153757,16.479375 20.1857352,2.943125 12.5365607,0.2985625 C6.28104673,-0.4675 3.46180997,2.199375 1.04684112,5.2710625 C-0.655339564,13.4735625 4.02565732,19.6891875 8.70665421,24.0125 C11.6003614,26.6910625 13.4727601,27.795 17.5154393,29.7489375 C18.8984611,30.419375 20.3240374,31.6826875 21.3453458,32.0439375 C31.1754393,35.519375 43.4630561,34.2858125 52.3675888,30.515 C48.431296,36.454375 44.1226511,42.5425 45.8567477,50.7875 C46.5163427,53.943125 47.8780872,58.001875 49.6866542,59.9685625 C52.4420592,62.953125 58.3996916,65.89625 62.3253458,65.705 C67.6670016,65.439375 72.7405639,59.73375 73.0480202,53.4639375 C73.5171838,44.049125 62.5062025,38.906625 54.6655327,44.282875 L54.6655327,44.282875 Z" id="Shape" fill="#000000"></path>
                </g>
            </g>
        </g>
    </g>
</svg>