<?xml version="1.0" encoding="UTF-8" standalone="no"?>
<svg width="121px" height="119px" viewBox="0 0 121 119" version="1.1" xmlns="http://www.w3.org/2000/svg" xmlns:xlink="http://www.w3.org/1999/xlink" xmlns:sketch="http://www.bohemiancoding.com/sketch/ns">
    <!-- Generator: Sketch 3.2.2 (9983) - http://www.bohemiancoding.com/sketch -->
    <title>home_btn</title>
    <desc>Created with Sketch.</desc>
    <defs></defs>
    <g id="Page-1" stroke="none" stroke-width="1" fill="none" fill-rule="evenodd" sketch:type="MSPage">
        <g id="nav_btns" sketch:type="MSLayerGroup">
            <g id="home_x5F_btn-link" transform="translate(65.193146, 55.375000) scale(1, -1) translate(-65.193146, -55.375000) translate(12.000000, 10.750000)" sketch:type="MSShapeGroup">
                <g id="home_x5F_btn">
                    <path d="M45.8833442,86.4651875 L47.7982975,86.4651875 L47.7982975,84.551625 C46.436553,84.46875 45.7982352,85.1051875 45.8833442,86.4651875 L45.8833442,86.4651875 Z" id="Shape" fill="#DBD27C"></path>
                    <path d="M50.4792321,80.34625 C51.8622539,80.2070625 52.3303536,79.7608125 53.5431573,80.34625 C54.3719065,81.2589375 54.5527632,83.2458125 53.9250841,84.5526875 C50.4366776,85.5089375 49.447285,82.7145625 50.4792321,80.34625 L50.4792321,80.34625 Z M52.3941854,86.08375 C57.1922072,86.36 56.1283442,78.8895625 52.3941854,78.4326875 C47.6599953,77.86 46.2237804,85.7214375 52.3941854,86.08375 L52.3941854,86.08375 Z" id="Shape" fill="#DBD27C"></path>
                    <path d="M40.5214751,85.7001875 C37.9150109,84.330625 37.308609,79.02875 39.7554938,77.6676875 C36.4575187,76.4033125 35.7553692,86.9539375 40.5214751,85.7001875 L40.5214751,85.7001875 Z" id="Shape" fill="#C3C02F"></path>
                    <path d="M45.7461059,79.5801875 L45.7461059,82.64125 C39.3629283,88.219375 38.2990654,74.5120625 45.7461059,79.5801875 L45.7461059,79.5801875 Z M44.7343723,77.2851875 C42.4257897,76.893125 42.0321604,78.4125 40.1384844,78.4326875 C37.6596838,84.033125 43.2662414,87.773125 45.8833442,84.1701875 C47.0748707,82.5339375 47.1918956,78.56125 44.7343723,77.2851875 L44.7343723,77.2851875 Z" id="Shape" fill="#DBD27C"></path>
                    <path d="M62.734933,83.78875 C62.4051355,82.5870625 61.2561636,82.205625 60.0529346,81.8751875 C59.1816308,82.3001875 57.744352,84.139375 58.9050265,85.3176875 C60.1720872,86.105 62.4264128,85.1689375 62.734933,83.78875 L62.734933,83.78875 Z" id="Shape" fill="#DBD27C"></path>
                    <path d="M35.1596059,84.1701875 C35.7766464,84.2764375 35.8192009,83.8089375 36.3085779,83.78875 C34.8085312,81.3439375 37.5213816,78.2839375 36.6915685,76.52125 C34.1595748,78.1776875 34.2021293,81.4714375 35.1596059,84.1701875 L35.1596059,84.1701875 Z" id="Shape" fill="#C3C02F"></path>
                    <path d="M51.628204,82.875 L53.1601667,82.875 C53.2133598,82.875 53.2133598,81.291875 52.777176,80.845625 C52.086729,80.7925 51.969704,81.1803125 51.2462773,81.0953125 C51.1281885,81.9771875 51.3090452,82.875 51.628204,82.875 L51.628204,82.875 Z" id="Shape" fill="#DBD27C"></path>
                    <path d="M42.0534377,83.0226875 C43.4470981,83.2670625 44.0960545,82.7676875 44.7343723,82.2576875 C44.9258676,80.6639375 44.2769112,79.9095625 43.2024097,79.579125 C41.4895903,79.3464375 41.2874564,81.9814375 42.0534377,83.0226875 L42.0534377,83.0226875 Z" id="Shape" fill="#DBD27C"></path>
                    <path d="M31.71269,82.875 L33.2446526,82.875 C32.4786713,79.6875 35.5000421,77.3383125 33.6276433,75.6075 C31.6807741,77.5401875 31.6701355,78.625 31.71269,82.875 L31.71269,82.875 Z" id="Shape" fill="#C3C02F"></path>
                    <path d="M66.9478302,81.1101875 C65.9382243,79.9520625 63.3306963,80.386625 62.3519424,79.1976875 C60.7550841,81.546875 65.4477835,82.8420625 66.9478302,81.1101875 L66.9478302,81.1101875 Z" id="Shape" fill="#F26D24"></path>
                    <path d="M29.0317555,81.8125 L30.1807274,81.8125 C30.5743567,79.6875 31.7446059,76.340625 31.71269,74.9275 C29.0636713,75.788125 29.3509143,79.6875 29.0317555,81.8125 L29.0317555,81.8125 Z" id="Shape" fill="#C3C02F"></path>
                    <path d="M59.2880171,80.7276875 C59.8305872,79.3358125 60.4157118,78.1033125 59.2880171,76.9026875 C57.4145545,76.6901875 56.5634642,77.49875 55.8411012,78.431625 C55.819824,80.3664375 57.1602913,80.9401875 59.2880171,80.7276875 L59.2880171,80.7276875 Z" id="Shape" fill="#DBD27C"></path>
                    <path d="M27.4997928,80.34625 C28.3934377,78.30625 28.8615374,75.84125 29.7977368,73.84375 C28.0317243,73.2795625 24.5635312,78.56125 27.4997928,80.34625 L27.4997928,80.34625 Z" id="Shape" fill="#C3C02F"></path>
                    <path d="M69.6277009,78.4326875 C66.2244034,78.13625 63.6498551,77.0089375 61.2019065,75.7551875 C61.8625654,79.4739375 68.1393567,80.6639375 69.6277009,78.4326875 L69.6277009,78.4326875 Z" id="Shape" fill="#F26D24"></path>
                    <path d="M25.2018489,78.0501875 C25.1486558,75.193125 27.6061791,74.8414375 27.8827835,72.3126875 C25.4784533,72.4083125 22.6592165,76.6476875 25.2018489,78.0501875 L25.2018489,78.0501875 Z" id="Shape" fill="#C3C02F"></path>
                    <path d="M70.0128193,76.9026875 C67.3414595,75.6170625 63.883905,75.1176875 61.2029704,73.8426875 C62.8945125,75.8933125 66.6403738,77.7951875 70.0128193,76.9026875 L70.0128193,76.9026875 Z" id="Shape" fill="#F26D24"></path>
                    <path d="M22.1379237,76.52125 C21.9357897,75.0645625 20.6485156,74.6926875 19.4569891,74.22625 C20.0101978,75.3301875 20.8825654,76.1164375 22.1379237,76.52125 L22.1379237,76.52125 Z" id="Shape" fill="#DBD27C"></path>
                    <path d="M53.5431573,76.1376875 C56.2134533,77.0089375 58.6273583,74.343125 60.0529346,72.69625 C57.6177523,72.0470625 56.2677103,75.7870625 53.5431573,76.1376875 L53.5431573,76.1376875 Z" id="Shape" fill="#E0383E"></path>
                    <path d="M41.2874564,76.1376875 C42.6598396,76.361875 42.447067,75.001875 42.4364283,73.84375 C40.723609,73.3220625 40.5746682,75.384375 41.2874564,76.1376875 L41.2874564,76.1376875 Z" id="Shape" fill="#DBD27C"></path>
                    <path d="M47.4153069,74.6076875 C47.4472227,73.0458125 46.0003692,72.9608125 44.3513816,73.07875 C42.5215374,75.8933125 46.7769891,77.2639375 47.4153069,74.6076875 L47.4153069,74.6076875 Z" id="Shape" fill="#DBD27C"></path>
                    <path d="M51.2452134,76.1376875 C53.9899798,74.9275 56.6921916,73.67375 57.7560545,70.78375 C57.3092321,70.8475 57.0751822,70.69875 56.9900732,70.40125 C54.8091542,72.0470625 52.6058941,73.6726875 51.2452134,76.1376875 L51.2452134,76.1376875 Z" id="Shape" fill="#E0383E"></path>
                    <path d="M49.7132508,75.37375 C51.3835156,73.174375 56.3187757,71.1651875 54.6921293,68.1051875 C51.3196838,68.818125 50.6388115,72.2170625 49.7132508,75.37375 L49.7132508,75.37375 Z" id="Shape" fill="#E0383E"></path>
                    <path d="M72.3096994,74.6076875 C70.3309143,73.1839375 67.8414751,73.395375 65.7988583,72.6951875 C57.0762461,69.7201875 52.3090763,62.8776875 50.0962414,52.8051875 C48.1706495,59.136625 52.6495125,64.88475 56.6070826,68.4876875 C60.3944346,71.93125 66.2137648,76.5945625 72.3096994,74.6076875 L72.3096994,74.6076875 Z" id="Shape" fill="#00B58C"></path>
                    <path d="M23.6698863,74.9901875 C23.3294502,73.16375 22.1804782,72.1426875 20.2229704,71.93125 C20.5846838,73.7364375 22.3719735,74.1189375 23.6698863,74.9901875 L23.6698863,74.9901875 Z" id="Shape" fill="#DBD27C"></path>
                    <path d="M22.1379237,67.7226875 C19.2123006,66.78875 16.9569112,71.304375 16.7760545,73.07875 C19.4250732,73.620625 20.1804159,69.1251875 22.1379237,67.7226875 L22.1379237,67.7226875 Z" id="Shape" fill="#C3C02F"></path>
                    <path d="M24.4358676,73.07875 C26.2125187,72.026875 23.5847773,69.89125 21.754933,70.0176875 C21.9145125,71.7708125 23.7549953,71.84625 24.4358676,73.07875 L24.4358676,73.07875 Z" id="Shape" fill="#DBD27C"></path>
                    <path d="M48.5642788,73.07875 C50.7239206,71.5370625 51.4899019,68.6045625 52.7761121,66.19375 C49.8409143,67.5633125 49.9473006,69.9114375 48.5642788,73.07875 L48.5642788,73.07875 Z" id="Shape" fill="#E0383E"></path>
                    <path d="M40.9044657,72.6951875 C41.8513037,72.7483125 42.7449486,72.7483125 43.2024097,72.3126875 C43.1385779,71.8664375 43.2875187,71.6326875 43.5854003,71.5476875 C43.4470981,70.3045625 41.6278925,69.4864375 40.5214751,70.4001875 C40.2448707,71.57 41.1810701,71.5264375 40.9044657,72.6951875 L40.9044657,72.6951875 Z" id="Shape" fill="#DBD27C"></path>
                    <path d="M71.5437181,72.6951875 C73.702296,72.9926875 73.841662,66.7026875 71.9256449,66.574125 C72.0756495,69.7414375 71.4788224,69.8158125 71.5437181,72.6951875 L71.5437181,72.6951875 Z" id="Shape" fill="#F4B033"></path>
                    <path d="M68.4797928,72.25 L70.0117555,72.25 C70.2777212,70.125 71.0756184,68.7225 70.7766729,66.13 C69.8734533,68.031875 68.5117087,69.0625 68.4797928,72.25 L68.4797928,72.25 Z" id="Shape" fill="#F4B033"></path>
                    <path d="M14.8611012,71.5476875 C16.7015841,69.8158125 18.5739829,68.116875 19.8399798,65.81125 C16.9675498,66.2575 13.7227679,69.540625 14.8611012,71.5476875 L14.8611012,71.5476875 Z" id="Shape" fill="#C3C02F"></path>
                    <path d="M48.9472695,67.7226875 C46.9684844,65.9589375 44.0428614,67.606875 43.968391,69.2526875 C43.8194502,72.4625 49.6068645,72.4401875 48.9472695,67.7226875 L48.9472695,67.7226875 Z" id="Shape" fill="#DBD27C"></path>
                    <path d="M65.7988583,71.1875 L67.3308209,71.1875 C67.4999751,69.0625 69.5117399,67.1298125 68.4797928,65.0664375 C67.0531526,66.3945625 65.7137492,70.125 65.7988583,71.1875 L65.7988583,71.1875 Z" id="Shape" fill="#F4B033"></path>
                    <path d="M64.6498863,70.4001875 C65.1818178,68.5525 67.1286869,66.3626875 66.5659034,64.66375 C65.1818178,66.27875 62.2561947,68.180625 62.3519424,70.0176875 C62.8094034,70.4533125 63.7030483,70.4533125 64.6498863,70.4001875 L64.6498863,70.4001875 Z" id="Shape" fill="#F4B033"></path>
                    <path d="M17.9250265,63.8976875 C15.5419735,63.24 12.5844346,67.1808125 12.5631573,68.8701875 C14.7334377,69.0508125 16.4994502,65.7039375 17.9250265,63.8976875 L17.9250265,63.8976875 Z" id="Shape" fill="#C3C02F"></path>
                    <path d="M64.6498863,64.66375 C64.0966776,63.43125 63.2562259,62.4845625 61.5870249,62.36875 C61.3625498,64.4395625 60.2135779,65.5870625 58.140109,65.81125 C59.319933,70.9314375 63.394528,67.51125 64.6498863,64.66375 L64.6498863,64.66375 Z" id="Shape" fill="#F4B033"></path>
                    <path d="M40.5214751,68.4876875 C42.0959922,68.4026875 43.3832664,68.0308125 43.2024097,66.1926875 C42.4896215,65.8845625 41.7981106,65.5551875 40.9044657,65.426625 C40.0427368,66.1183125 40.0001822,67.3614375 40.5214751,68.4876875 L40.5214751,68.4876875 Z" id="Shape" fill="#DBD27C"></path>
                    <path d="M11.0311947,67.3401875 C11.4992944,65.7145625 9.40348442,63.3664375 7.96726947,62.3676875 C8.49920093,64.5139375 10.0205249,65.6720625 11.0311947,67.3401875 L11.0311947,67.3401875 Z" id="Shape" fill="#DBD27C"></path>
                    <path d="M12.1801667,65.81125 C13.4780794,64.9070625 11.2333287,61.22125 9.49923209,60.8376875 C9.61625701,63.2708125 11.3503536,64.0889375 12.1801667,65.81125 L12.1801667,65.81125 Z" id="Shape" fill="#DBD27C"></path>
                    <path d="M45.1173629,65.4276875 C45.6812103,64.206875 43.0428302,60.88125 43.968391,59.3076875 C42.4896215,58.575625 41.8300265,63.2283125 42.4364283,64.66375 C43.4364595,64.8125 44.5428769,64.855 45.1173629,65.4276875 L45.1173629,65.4276875 Z" id="Shape" fill="#F26D24"></path>
                    <path d="M49.3302601,65.0451875 C47.7344657,62.4314375 46.5323006,59.4245625 46.2663349,55.4826875 C43.4151822,57.5120625 45.000338,66.076875 49.3302601,65.0451875 L49.3302601,65.0451875 Z" id="Shape" fill="#F26D24"></path>
                    <path d="M72.3096994,64.66375 C68.5978816,62.6875 64.458391,61.486875 61.9689517,58.1601875 C60.554014,56.2795625 60.7348707,53.6445625 58.5220358,52.0401875 C59.1284377,60.233125 64.6179704,63.5470625 71.5437181,65.4276875 C72.1916106,65.5658125 72.2671449,65.1301875 72.3096994,64.66375 L72.3096994,64.66375 Z" id="Shape" fill="#00B58C"></path>
                    <path d="M58.1390452,64.66375 C57.7656293,62.379375 59.7029237,62.3995625 60.8199798,61.6026875 C61.1508411,60.3808125 60.2135779,60.424375 60.0529346,59.6901875 C57.8092477,60.1258125 56.6921916,61.6876875 55.4581106,63.1326875 C55.8517399,64.7051875 56.5219735,65.1408125 58.1390452,64.66375 L58.1390452,64.66375 Z" id="Shape" fill="#F4B033"></path>
                    <path d="M13.7121293,64.28125 C14.3291698,64.3875 14.3717243,63.9189375 14.8611012,63.89875 C13.8823474,62.49625 13.1695592,59.0866875 11.4141854,59.69125 C11.9461168,61.4539375 13.031257,62.6651875 13.7121293,64.28125 L13.7121293,64.28125 Z" id="Shape" fill="#DBD27C"></path>
                    <path d="M50.0962414,63.8976875 C50.5430639,63.9625 50.7771137,63.8126875 50.8622227,63.51625 C49.5430327,61.00875 48.989824,57.73625 47.4153069,55.4826875 C48.0642632,58.8614375 47.9365997,61.5495625 50.0962414,63.8976875 L50.0962414,63.8976875 Z" id="Shape" fill="#F26D24"></path>
                    <path d="M15.6270826,62.7501875 C16.3079548,62.4739375 15.6802757,62.0595625 15.6270826,61.6026875 C14.9462103,61.8789375 15.5738894,62.2933125 15.6270826,62.7501875 L15.6270826,62.7501875 Z" id="Shape" fill="#DBD27C"></path>
                    <path d="M70.7766729,62.7501875 C71.2234953,62.6864375 71.0968956,62.0489375 71.1607274,61.6026875 C69.9681371,60.8801875 68.648947,60.2851875 67.329757,59.6901875 C64.1913614,58.2345625 64.1158271,53.7189375 60.8189159,52.4226875 C61.873204,58.1283125 66.0116308,60.7526875 70.7766729,62.7501875 L70.7766729,62.7501875 Z" id="Shape" fill="#00B58C"></path>
                    <path d="M54.3091386,61.6026875 C56.5751667,61.0076875 59.37419,59.52125 58.9050265,57.39625 C56.2453692,57.4175 55.1070358,58.9570625 53.5431573,60.07375 C53.7452913,60.6358125 54.1059408,61.040625 54.3091386,61.6026875 L54.3091386,61.6026875 Z" id="Shape" fill="#F4B033"></path>
                    <path d="M6.81829751,61.22125 C8.89283022,59.978125 11.1694969,58.936875 12.5631573,57.0126875 C10.8396994,55.6845625 4.76504206,58.735 6.81829751,61.22125 L6.81829751,61.22125 Z" id="Shape" fill="#C3C02F"></path>
                    <path d="M96.4381106,61.22125 C97.5977212,60.75375 96.1721449,59.765625 96.0551199,59.3076875 C94.8944455,59.7751875 96.3210857,60.764375 96.4381106,61.22125 L96.4381106,61.22125 Z" id="Shape" fill="#C3C02F"></path>
                    <path d="M97.9700732,61.22125 C96.7785467,51.935 91.001771,42.4883125 85.3313816,34.82875 C81.5855202,29.7595625 78.2673318,24.88375 73.4586713,20.67625 C72.1405452,19.5276875 70.4255981,17.57375 68.4797928,17.99875 C81.0759299,29.6426875 89.7453489,45.2083125 97.9700732,61.22125 L97.9700732,61.22125 Z" id="Shape" fill="#FFFFFF"></path>
                    <path d="M69.6277009,59.3076875 C68.0755249,57.5439375 67.4893364,54.814375 64.6488224,54.3351875 C65.203095,57.0976875 67.1925187,58.4258125 69.6277009,59.3076875 L69.6277009,59.3076875 Z" id="Shape" fill="#00B58C"></path>
                    <path d="M93.757176,58.9251875 C95.2891386,58.605375 94.7359299,57.0445625 94.1401667,56.2476875 C93.2880125,56.4070625 93.9805872,58.1283125 93.757176,58.9251875 L93.757176,58.9251875 Z" id="Shape" fill="#C3C02F"></path>
                    <path d="M52.7761121,58.5426875 C54.5963816,57.5545625 57.2975296,57.4483125 57.7560545,55.10125 C55.8517399,54.3351875 54.1059408,56.0351875 52.3941854,56.6301875 C52.2346059,57.5545625 53.0963349,57.4589375 52.7761121,58.5426875 L52.7761121,58.5426875 Z" id="Shape" fill="#F4B033"></path>
                    <path d="M99.1190452,58.5426875 C100.459512,58.9570625 100.140354,56.1945625 98.7371184,57.0126875 C99.0339361,57.3526875 99.1498972,57.8733125 99.1190452,58.5426875 L99.1190452,58.5426875 Z" id="Shape" fill="#C3C02F"></path>
                    <path d="M5.28633489,57.7776875 C7.60555607,57.0339375 9.93541589,56.29975 11.0311947,54.3351875 C8.72261215,55.0895625 5.78635047,55.2170625 5.28633489,57.7776875 L5.28633489,57.7776875 Z" id="Shape" fill="#C3C02F"></path>
                    <path d="M91.8422227,57.0126875 C93.1294969,56.323125 94.1401667,53.4225 91.8422227,53.1876875 C92.1826589,54.8133125 90.8432555,55.898125 91.8422227,57.0126875 L91.8422227,57.0126875 Z" id="Shape" fill="#C3C02F"></path>
                    <path d="M99.500972,55.8651875 C100.011626,55.61125 100.21376,55.0470625 100.268017,54.33625 C99.0541495,54.5275 98.9169112,53.645625 97.5870826,53.9548125 C97.2998396,55.515625 98.8424408,55.25 99.500972,55.8651875 L99.500972,55.8651875 Z" id="Shape" fill="#C3C02F"></path>
                    <path d="M4.52035358,55.4826875 C6.21189564,54.2395625 9.11624143,54.20875 10.2652134,52.4226875 C7.722581,51.5525 5.63740966,53.0495625 3.75437227,53.9526875 C3.95650623,54.5158125 4.31821963,54.920625 4.52035358,55.4826875 L4.52035358,55.4826875 Z" id="Shape" fill="#C3C02F"></path>
                    <path d="M52.0111947,55.10125 C54.4155249,54.6964375 57.2560389,54.7283125 56.9900732,51.65875 C54.8304315,51.541875 53.0005872,51.754375 51.6271402,52.42375 C51.628204,53.4426875 51.4792632,54.6114375 52.0111947,55.10125 L52.0111947,55.10125 Z" id="Shape" fill="#F4B033"></path>
                    <path d="M89.5442788,55.25 L90.6932508,55.25 C90.6389938,52.0625 92.3741542,50.203125 89.9262056,49.1289375 C89.5549174,51.1158125 88.1080639,53.125 89.5442788,55.25 L89.5442788,55.25 Z" id="Shape" fill="#C3C02F"></path>
                    <path d="M87.2463349,53.5701875 C88.2357274,51.3601875 90.1613193,47.087875 88.0133801,45.1551875 C86.8101511,47.1420625 86.2250265,49.744125 86.0973629,52.8051875 C86.4058832,53.1345625 87.1505872,53.0283125 87.2463349,53.5701875 L87.2463349,53.5701875 Z" id="Shape" fill="#C3C02F"></path>
                    <path d="M99.500972,53.1876875 C100.704201,52.9220625 100.002051,52.1676875 99.8850265,51.2751875 C98.1817819,51.699125 97.0966417,50.3508125 96.0540561,51.2751875 C95.9274564,53.1876875 98.4488115,52.455625 99.500972,53.1876875 L99.500972,53.1876875 Z" id="Shape" fill="#C3C02F"></path>
                    <path d="M9.49923209,50.1276875 C6.72254984,50.1595625 3.70117913,49.9470625 2.98839097,52.0401875 C4.83951246,52.2208125 7.56300156,51.6045625 9.49923209,50.1276875 L9.49923209,50.1276875 Z" id="Shape" fill="#C3C02F"></path>
                    <path d="M83.799419,52.0401875 C85.9058676,49.9375 85.6196885,45.443125 87.2463349,42.8601875 C86.4590763,42.752875 86.4803536,41.8401875 86.0973629,41.3301875 C84.2558162,43.605 82.6717243,48.0664375 83.799419,52.0401875 L83.799419,52.0401875 Z" id="Shape" fill="#C3C02F"></path>
                    <path d="M81.5004112,50.51125 C81.9472336,50.575 82.1823474,50.42625 82.2674564,50.12875 C81.6078614,45.3591875 85.5441542,41.62875 84.1824097,38.65375 C82.5983178,39.1308125 81.9472336,41.575625 81.5004112,43.24375 C81.0333754,44.9958125 80.8195389,47.313125 80.7354938,49.36375 C80.5216573,50.2126875 81.4695592,49.9045625 81.5004112,50.51125 L81.5004112,50.51125 Z" id="Shape" fill="#C3C02F"></path>
                    <path d="M100.268017,50.1276875 C99.9477944,49.6814375 99.7669377,49.1076875 99.8860903,48.2151875 C98.6520093,47.6626875 96.6721604,47.8539375 94.906148,47.83375 C95.0135981,51.031875 98.4488115,49.2245625 100.268017,50.1276875 L100.268017,50.1276875 Z" id="Shape" fill="#C3C02F"></path>
                    <path d="M2.12772586,49.7451875 C4.25545171,48.524375 8.27685358,50.0214375 8.25557632,47.0676875 C5.7023053,46.611875 5.31931464,46.8339375 2.12772586,47.4501875 L2.12772586,49.7451875 L2.12772586,49.7451875 Z" id="Shape" fill="#C3C02F"></path>
                    <path d="M78.4375498,48.9801875 C78.8843723,49.0439375 79.1184221,48.89625 79.2024673,48.5976875 C79.6503536,43.9970625 83.0227991,38.90875 81.8844657,35.2101875 C79.2673629,38.3339375 78.3630794,43.1683125 78.4375498,48.9801875 L78.4375498,48.9801875 Z" id="Shape" fill="#C3C02F"></path>
                    <path d="M76.5225966,47.4501875 C76.8534579,47.5245625 76.88431,47.3025 76.9055872,47.06875 C77.3407072,43.5848125 78.5439361,39.981875 79.5875857,36.35875 C79.9801511,34.9775 81.2791277,33.575 79.9695125,32.53375 C77.1396371,35.4226875 74.7140296,42.43625 76.5225966,47.4501875 L76.5225966,47.4501875 Z" id="Shape" fill="#C3C02F"></path>
                    <path d="M1.9628271,46.68625 C3.54798287,46.1008125 5.31931464,45.719375 7.4470405,45.9201875 L7.4470405,44.0076875 C5.31931464,43.6145625 4.22672741,43.7951875 1.44898131,44.3901875 C1.39578816,45.3358125 1.5266433,46.2283125 1.9628271,46.68625 L1.9628271,46.68625 Z" id="Shape" fill="#C3C02F"></path>
                    <path d="M93.757176,46.68625 C96.4593879,46.75 97.2370717,46.4089375 99.500972,46.68625 C99.3637336,44.1458125 95.8955405,44.933125 93.3731215,44.7726875 C93.0550265,45.8564375 93.9156916,45.7608125 93.757176,46.68625 L93.757176,46.68625 Z" id="Shape" fill="#C3C02F"></path>
                    <path d="M73.841662,44.7726875 C74.2884844,44.8375 74.5225343,44.6876875 74.6076433,44.39125 C74.3842321,38.2595625 78.4481885,34.5195625 78.0545592,29.4726875 C73.926771,31.5126875 72.2033131,39.4708125 73.841662,44.7726875 L73.841662,44.7726875 Z" id="Shape" fill="#C3C02F"></path>
                    <path d="M92.608204,44.0076875 C93.9805872,43.2108125 96.7466308,43.8058125 98.7371184,43.6251875 C98.4168956,43.1789375 98.2264642,42.5945625 98.3530639,41.7126875 C97.0668536,42.48725 93.5348287,40.9158125 91.8432866,42.0951875 C91.778391,43.0525 92.4486246,43.2745625 92.608204,44.0076875 L92.608204,44.0076875 Z" id="Shape" fill="#C3C02F"></path>
                    <path d="M1.45642835,43.24375 C4.23311059,42.510625 6.4140296,42.9239375 7.96726947,42.4776875 C7.78641277,40.109375 4.09480841,41.2451875 1.839419,40.94875 C1.4032352,41.3939375 1.4032352,42.2970625 1.45642835,43.24375 L1.45642835,43.24375 Z" id="Shape" fill="#C3C02F"></path>
                    <path d="M71.5437181,40.94875 C71.8745794,41.023125 71.9054315,40.7989375 71.9256449,40.56625 C72.0852243,35.115625 75.5225654,30.8964375 75.7566153,26.79625 C73.1703645,26.3075 71.2458364,33.776875 70.7766729,37.1248125 C70.628796,38.165 70.8841231,39.216875 70.7766729,40.18375 C71.427757,40.045625 71.5011636,40.4801875 71.5437181,40.94875 L71.5437181,40.94875 Z" id="Shape" fill="#C3C02F"></path>
                    <path d="M97.5870826,40.5651875 C96.3530016,38.4826875 92.468838,39.2264375 89.9262056,39.4176875 C90.6389938,42.18125 94.4699642,39.8958125 97.5870826,40.5651875 L97.5870826,40.5651875 Z" id="Shape" fill="#C3C02F"></path>
                    <path d="M8.35026012,39.4176875 C7.05234735,37.2395625 4.54163084,38.2064375 1.839419,37.12375 C2.37135047,38.2170625 0.796833333,39.068125 1.839419,39.4176875 C3.27563396,39.599375 6.32892056,40.2570625 8.35026012,39.4176875 L8.35026012,39.4176875 Z" id="Shape" fill="#C3C02F"></path>
                    <path d="M102.565961,38.27125 C102.619154,37.1545625 100.107374,36.5808125 98.352,36.3576875 C95.3955249,35.9858125 91.289014,36.6445625 88.3953069,36.3576875 C88.076148,37.4414375 88.9378769,37.3458125 88.7772336,38.27125 C93.757176,38.9395625 97.5977212,36.4426875 102.565961,38.27125 L102.565961,38.27125 Z" id="Shape" fill="#C3C02F"></path>
                    <path d="M9.11624143,36.3576875 C8.11621028,34.699125 2.32879595,32.4476875 1.839419,35.97625 C4.98845327,35.89125 7.26511994,37.84625 9.11624143,36.3576875 L9.11624143,36.3576875 Z" id="Shape" fill="#C3C02F"></path>
                    <path d="M69.2457741,37.12375 C69.6925966,37.1875 69.9277103,37.03875 70.0128193,36.7401875 C69.8106854,31.545625 73.5767601,28.3475 73.0756807,24.11875 C69.937285,26.4445625 68.4053224,32.0545625 69.2457741,37.12375 L69.2457741,37.12375 Z" id="Shape" fill="#C3C02F"></path>
                    <path d="M101.798916,35.97625 C99.9265171,31.9695625 91.4805093,33.2658125 86.8633442,34.44625 C87.4910234,36.48625 90.5326075,34.860625 92.6071402,34.82875 C95.8210701,34.7745625 99.065852,35.53 101.798916,35.97625 L101.798916,35.97625 Z" id="Shape" fill="#C3C02F"></path>
                    <path d="M9.57476636,34.0626875 L9.57476636,32.1501875 C7.4470405,31.3001875 5.59059969,31.0558125 3.60117601,30.6201875 C3.29265576,31.3320625 3.07775545,32.0226875 2.9500919,32.9151875 C5.82252181,32.5964375 6.38317757,33.93625 9.57476636,34.0626875 L9.57476636,34.0626875 Z" id="Shape" fill="#C3C02F"></path>
                    <path d="M99.500972,32.9151875 C99.3424564,29.250625 88.4591386,30.7689375 85.3313816,32.9151875 C89.1283084,33.6270625 95.3848863,30.759375 99.500972,32.9151875 L99.500972,32.9151875 Z" id="Shape" fill="#C3C02F"></path>
                    <path d="M83.799419,31.38625 C88.1835981,30.66375 92.0549953,29.43125 97.2051558,29.4726875 C94.588053,26.4445625 86.0665109,28.11375 83.4174922,29.8551875 C83.3621713,30.546875 83.884528,30.66375 83.799419,31.38625 L83.799419,31.38625 Z" id="Shape" fill="#C3C02F"></path>
                    <path d="M9.49923209,30.6201875 C9.4673162,30.0783125 9.43540031,29.5364375 9.88222274,29.4726875 C8.56303271,28.2401875 6.89276791,27.359375 4.52035358,27.1776875 C4.29694237,27.9745625 3.57351558,28.273125 3.75437227,29.4726875 C5.95656854,29.5683125 7.27575857,30.546875 9.49923209,30.6201875 L9.49923209,30.6201875 Z" id="Shape" fill="#C3C02F"></path>
                    <path d="M68.0968022,30.2376875 C69.2883287,27.8045625 71.1724299,24.1814375 71.1617913,21.8226875 C68.3521293,22.705625 67.5542321,27.2414375 68.0968022,30.2376875 L68.0968022,30.2376875 Z" id="Shape" fill="#C3C02F"></path>
                    <path d="M81.8844657,28.70875 C85.7250109,27.6983125 89.193204,26.318125 94.5231573,26.7951875 C92.2145748,22.865 84.3632664,25.7645625 81.1184844,26.7951875 C80.8312414,27.9745625 82.1717087,27.5283125 81.8844657,28.70875 L81.8844657,28.70875 Z" id="Shape" fill="#C3C02F"></path>
                    <path d="M10.648204,27.56125 C9.81839097,26.0089375 7.50980841,24.193125 5.28633489,25.26625 C6.2331729,26.870625 8.28642835,27.3689375 10.648204,27.56125 L10.648204,27.56125 Z" id="Shape" fill="#C3C02F"></path>
                    <path d="M79.5875857,26.03125 C83.0664174,25.0420625 86.1516199,23.6629375 90.6932508,23.73625 C88.735743,20.049375 81.5440296,23.14125 78.4375498,24.11875 C78.777986,24.7976875 79.3631106,25.234375 79.5875857,26.03125 L79.5875857,26.03125 Z" id="Shape" fill="#C3C02F"></path>
                    <path d="M11.797176,24.8826875 C11.22269,22.9064375 9.29709813,22.2795625 7.20128816,21.8226875 C6.87149065,22.12975 6.97787695,22.8745625 6.43530685,22.9701875 C7.7970514,23.8733125 9.98860903,25.6583125 11.797176,24.8826875 L11.797176,24.8826875 Z" id="Shape" fill="#C3C02F"></path>
                    <path d="M66.9478302,24.8826875 C67.9904159,23.7776875 69.1713037,21.1320625 68.8638474,19.909125 C67.1286869,20.485 66.6914393,23.491875 66.9478302,24.8826875 L66.9478302,24.8826875 Z" id="Shape" fill="#C3C02F"></path>
                    <path d="M12.946148,22.97125 C12.7014595,20.5370625 10.935447,19.624375 8.73325078,19.14625 C8.79708255,19.5925 8.64814174,19.8251875 8.35026012,19.9101875 C9.12688006,21.6845625 10.9248084,22.44 12.946148,22.97125 L12.946148,22.97125 Z" id="Shape" fill="#C3C02F"></path>
                    <path d="M87.2463349,21.0576875 C87.6825187,19.326875 84.5866776,19.879375 83.0334377,19.9101875 C80.5014439,19.964375 77.3843255,21.01625 76.1406698,21.4401875 C78.0226433,25.18125 84.1090031,19.6785625 87.2463349,21.0576875 L87.2463349,21.0576875 Z" id="Shape" fill="#C3C02F"></path>
                    <path d="M13.7121293,21.0576875 C14.1270358,20.9620625 13.9674564,20.2926875 14.4781106,20.2926875 C13.8185156,18.6883125 11.8716464,16.66 10.2652134,17.2326875 C9.39284579,19.1239375 13.2546682,19.2514375 13.7121293,21.0576875 L13.7121293,21.0576875 Z" id="Shape" fill="#C3C02F"></path>
                    <path d="M65.7988583,21.0576875 C67.151028,20.8664375 68.043609,17.7426875 66.1818489,17.614125 C66.4797305,19.1876875 65.5967243,19.5808125 65.7988583,21.0576875 L65.7988583,21.0576875 Z" id="Shape" fill="#C3C02F"></path>
                    <path d="M84.5654003,18.761625 C82.278095,15.4795625 76.9055872,18.570375 73.841662,19.1451875 C73.7352757,19.7614375 74.2033754,19.8039375 74.2235888,20.2926875 C77.0226121,20.6114375 80.532296,18.4651875 84.5654003,18.761625 L84.5654003,18.761625 Z" id="Shape" fill="#C3C02F"></path>
                    <path d="M14.8611012,19.14625 C15.7121916,19.3576875 15.4036713,18.4120625 16.0100732,18.3801875 C15.499419,16.46875 14.2759766,15.268125 12.5631573,14.55625 C12.5631573,15.32125 11.5205717,15.0439375 11.797176,16.0851875 C13.031257,16.8926875 14.3717243,17.5939375 14.8611012,19.14625 L14.8611012,19.14625 Z" id="Shape" fill="#C3C02F"></path>
                    <path d="M64.6498863,18.3801875 C66.3956854,15.7898125 67.6074252,12.665 70.7777368,11.49625 C67.8850935,8.553125 62.3508785,14.885625 64.6498863,18.3801875 L64.6498863,18.3801875 Z" id="Shape" fill="#C3C02F"></path>
                    <path d="M80.7365576,16.46875 C78.575852,13.66375 73.4161168,16.4570625 71.5437181,17.614125 C74.0874143,19.6020625 76.969419,15.7675 80.7365576,16.46875 L80.7365576,16.46875 Z" id="Shape" fill="#C3C02F"></path>
                    <path d="M66.9478302,17.2326875 C70.0011168,16.330625 71.288391,13.6648125 74.6076433,13.02625 C72.0969268,10.508125 67.7659408,14.4170625 66.9478302,17.2326875 L66.9478302,17.2326875 Z" id="Shape" fill="#C3C02F"></path>
                    <path d="M16.3930639,16.85125 C17.595229,17.031875 17.9569424,16.3720625 18.3080171,15.70375 C17.5845903,14.0664375 15.1483442,11.5908125 13.7121293,13.0251875 C14.1908676,14.715625 16.1270981,14.9483125 16.3930639,16.85125 L16.3930639,16.85125 Z" id="Shape" fill="#C3C02F"></path>
                    <path d="M19.0739984,14.93875 C19.3825187,14.7379375 19.6910389,14.535 20.2229704,14.5573125 C20.1165841,12.3675 18.3186558,11.8691875 17.9250265,9.9673125 C17.0313816,10.0948125 16.2760389,10.3604375 16.0100732,11.1148125 C16.7654159,12.6533125 18.4463193,13.2695625 19.0739984,14.93875 L19.0739984,14.93875 Z" id="Shape" fill="#C3C02F"></path>
                    <path d="M62.3508785,14.17375 C64.6594611,13.5351875 65.3722492,11.3251875 66.5648396,9.5848125 C63.3519735,9.1151875 61.5221293,11.8458125 62.3508785,14.17375 L62.3508785,14.17375 Z" id="Shape" fill="#C3C02F"></path>
                    <path d="M20.9889517,13.02625 C21.7868489,13.1845625 21.9996215,12.760625 22.5209143,12.64375 C22.0740919,10.5729375 20.9357586,7.9060625 18.6910078,8.81875 C19.2974097,10.39125 20.4463816,11.3995625 20.9889517,13.02625 L20.9889517,13.02625 Z" id="Shape" fill="#C3C02F"></path>
                    <path d="M23.6698863,11.87875 C25.4890919,10.593125 23.5422227,7.41625 22.1379237,6.90625 C21.382581,8.4575 22.8400732,10.678125 23.6698863,11.87875 L23.6698863,11.87875 Z" id="Shape" fill="#C3C02F"></path>
                    <path d="M60.438053,11.4951875 C61.6178769,12.2814375 62.4370514,9.424375 63.1189875,8.43625 C61.2242477,8.4575 61.7242632,10.8683125 60.438053,11.4951875 L60.438053,11.4951875 Z" id="Shape" fill="#C3C02F"></path>
                    <path d="M25.5848396,10.73125 C26.6274252,11.0085625 26.3508209,9.96625 27.1168022,9.96625 C26.9678614,7.9475 26.7338115,6.0126875 24.8188583,5.75875 C23.2337025,7.0751875 25.6912259,8.60625 25.5848396,10.73125 L25.5848396,10.73125 Z" id="Shape" fill="#C3C02F"></path>
                    <path d="M59.2880171,10.73125 C60.2869844,10.146875 61.5529813,8.39375 60.8189159,7.2898125 C58.7348084,7.0645625 57.9252087,9.7208125 59.2880171,10.73125 L59.2880171,10.73125 Z" id="Shape" fill="#C3C02F"></path>
                    <path d="M28.2657741,9.2001875 C29.3509143,9.52 29.2551667,8.6583125 30.1807274,8.81875 C29.9041231,7.31 29.5104938,5.9075 29.0317555,4.61125 C27.9466153,4.2925 28.0423629,5.153125 27.1168022,4.99375 C27.0955249,6.7989375 28.3508832,7.3301875 28.2657741,9.2001875 L28.2657741,9.2001875 Z" id="Shape" fill="#C3C02F"></path>
                    <path d="M56.6070826,9.2001875 C58.0645748,9.126875 57.9369112,7.469375 58.5220358,6.5226875 C57.7560545,6.5120625 58.0326589,5.4814375 56.9911371,5.7576875 C56.6602757,7.129375 55.3091698,8.26625 56.6070826,9.2001875 L56.6070826,9.2001875 Z" id="Shape" fill="#C3C02F"></path>
                    <path d="M31.3296994,8.5 L32.4786713,8.5 C33.1169891,7.4375 32.2658988,5.3125 32.0956807,4.25 L30.5637181,4.25 C30.0743411,4.25 31.0743723,6.375 31.3296994,8.5 L31.3296994,8.5 Z" id="Shape" fill="#C3C02F"></path>
                    <path d="M34.010634,7.4375 L35.5425966,7.4375 C34.6170358,6.375 36.191553,2.199375 33.2446526,2.8475 C33.0425187,4.8354375 33.7553069,6.375 34.010634,7.4375 L34.010634,7.4375 Z" id="Shape" fill="#C3C02F"></path>
                    <path d="M53.1601667,7.4375 L55.0751199,7.4375 C54.9900109,6.375 55.7570561,5.8225 55.4581106,4.3775 C53.266553,3.97375 53.266553,6.375 53.1601667,7.4375 L53.1601667,7.4375 Z" id="Shape" fill="#C3C02F"></path>
                    <path d="M37.0745592,7.28875 C37.6915997,7.395 37.7341542,6.9275 38.2235312,6.90625 C37.510743,5.450625 38.7767399,2.0176875 35.9255872,2.69875 C35.7128146,4.82375 36.4043255,6.045625 37.0745592,7.28875 L37.0745592,7.28875 Z" id="Shape" fill="#C3C02F"></path>
                    <path d="M50.4792321,7.28875 C52.5112103,7.2770625 52.404824,5.1308125 52.777176,3.4626875 C52.3303536,3.5264375 52.0963037,3.3776875 52.0122586,3.0801875 C50.8409455,3.825 50.4685935,5.365625 50.4792321,7.28875 L50.4792321,7.28875 Z" id="Shape" fill="#C3C02F"></path>
                    <path d="M39.3725031,6.375 L40.9044657,6.375 C41.5427835,5.3125 40.5959455,4.25 40.9044657,2.125 L38.9895125,2.125 C38.6916308,4.25 39.5214439,5.3125 39.3725031,6.375 L39.3725031,6.375 Z" id="Shape" fill="#C3C02F"></path>
                    <path d="M42.819419,6.90625 C44.4684065,5.790625 43.7024252,4.5379375 43.968391,1.9326875 C41.383204,1.25375 41.5640607,6.151875 42.819419,6.90625 L42.819419,6.90625 Z" id="Shape" fill="#C3C02F"></path>
                    <path d="M45.1173629,6.90625 C45.8088738,6.959375 45.9258988,6.43875 46.6493255,6.52375 C46.3939984,4.61125 47.0004003,3.559375 47.0323162,1.93375 C44.5215997,1.731875 44.5747928,5.2275 45.1173629,6.90625 L45.1173629,6.90625 Z" id="Shape" fill="#C3C02F"></path>
                    <path d="M47.7982975,6.375 L49.3302601,6.375 C49.3834533,5.3125 50.2664595,4.0066875 50.4792321,2.433125 C49.8728302,2.40125 49.0217399,2.4809375 48.9472695,1.9178125 C47.6493567,2.5340625 47.7876589,5.3125 47.7982975,6.375 L47.7982975,6.375 Z" id="Shape" fill="#C3C02F"></path>
                    <path d="M70.3947461,16.46875 C71.9905405,16.649375 74.4491277,14.4075 76.9055872,14.17375 C74.6810498,13.3651875 72.1916106,15.5751875 70.3947461,16.46875 L70.3947461,16.46875 Z" id="Shape" fill="#C3C02F"></path>
                    <path d="M51.2452134,81.228125 C51.9686402,81.313125 52.0856651,80.6596875 52.7761121,80.7128125 C53.2133598,81.1590625 53.2133598,82.875 53.1601667,82.875 L51.628204,82.875 C51.3090452,82.875 51.1281885,82.11 51.2452134,81.228125 L51.2452134,81.228125 Z M53.9250841,84.5526875 C54.5527632,83.246875 54.3719065,81.2589375 53.5431573,80.34625 C52.3292897,79.7608125 51.8622539,80.2070625 50.4792321,80.34625 C49.447285,82.7145625 50.4366776,85.5089375 53.9250841,84.5526875 L53.9250841,84.5526875 Z" id="Shape" fill="#000000"></path>
                    <path d="M43.2024097,79.5801875 C44.2769112,79.910625 44.9258676,80.665 44.7343723,82.25875 C44.0960545,82.7676875 43.4470981,83.268125 42.0534377,83.02375 C41.2874564,81.9814375 41.4895903,79.3464375 43.2024097,79.5801875 L43.2024097,79.5801875 Z M45.7461059,82.64125 L45.7461059,79.5801875 C38.2990654,74.5120625 39.3629283,88.219375 45.7461059,82.64125 L45.7461059,82.64125 Z" id="Shape" fill="#000000"></path>
                    <path d="M48.9472695,2.050625 C49.0217399,2.61375 49.8728302,2.2684375 50.4792321,2.3003125 C50.2664595,3.8728125 49.3834533,5.3125 49.3302601,6.375 L47.7982975,6.375 C47.7876589,5.3125 47.6493567,2.666875 48.9472695,2.050625 L48.9472695,2.050625 Z M47.0323162,1.9326875 C47.0004003,3.5583125 46.3939984,4.61125 46.6493255,6.5226875 C45.9258988,6.4376875 45.8088738,6.9583125 45.1173629,6.9051875 C44.5747928,5.2275 44.5215997,1.731875 47.0323162,1.9326875 L47.0323162,1.9326875 Z M43.968391,1.9326875 C43.7024252,4.536875 44.4684065,5.790625 42.819419,6.90625 C41.5640607,6.151875 41.383204,1.25375 43.968391,1.9326875 L43.968391,1.9326875 Z M38.9895125,2.125 L40.9044657,2.125 C40.5959455,4.25 41.5427835,5.3125 40.9044657,6.375 L39.3725031,6.375 C39.5214439,5.3125 38.6916308,4.25 38.9895125,2.125 L38.9895125,2.125 Z M52.0111947,3.0801875 C52.0963037,3.3776875 52.3292897,3.5264375 52.7761121,3.4626875 C52.4037601,5.12975 52.5101464,7.2770625 50.4781682,7.28875 C50.4685935,5.365625 50.8409455,3.825 52.0111947,3.0801875 L52.0111947,3.0801875 Z M35.9255872,2.69875 C38.7767399,2.0176875 37.510743,5.450625 38.2235312,6.90625 C37.7341542,6.9285625 37.6915997,7.395 37.0745592,7.28875 C36.4043255,6.045625 35.7128146,4.82375 35.9255872,2.69875 L35.9255872,2.69875 Z M55.4581106,4.3775 C55.7559922,5.8225 54.9900109,6.375 55.0751199,7.4375 L53.1601667,7.4375 C53.266553,6.375 53.266553,3.97375 55.4581106,4.3775 L55.4581106,4.3775 Z M33.2446526,2.8475 C36.191553,2.2004375 34.6170358,6.375 35.5425966,7.4375 L34.010634,7.4375 C33.7553069,6.375 33.0425187,4.8354375 33.2446526,2.8475 L33.2446526,2.8475 Z M30.5637181,4.25 L32.0956807,4.25 C32.2658988,5.3125 33.1169891,7.4375 32.4786713,8.5 L31.3296994,8.5 C31.0743723,6.375 30.0743411,4.25 30.5637181,4.25 L30.5637181,4.25 Z M56.9900732,5.75875 C58.031595,5.4814375 57.7560545,6.513125 58.520972,6.52375 C57.9358474,7.4704375 58.0635109,9.126875 56.6060187,9.20125 C55.3091698,8.26625 56.6602757,7.129375 56.9900732,5.75875 L56.9900732,5.75875 Z M27.1168022,4.99375 C28.0423629,5.1520625 27.9466153,4.2925 29.0317555,4.61125 C29.5104938,5.9075 29.9041231,7.31 30.1807274,8.81875 C29.2551667,8.659375 29.3509143,9.52 28.2657741,9.2001875 C28.3508832,7.3301875 27.0955249,6.7989375 27.1168022,4.99375 L27.1168022,4.99375 Z M60.8199798,7.28875 C61.5529813,8.3926875 60.2880483,10.1458125 59.289081,10.7301875 C57.9252087,9.7208125 58.7348084,7.0645625 60.8199798,7.28875 L60.8199798,7.28875 Z M24.8188583,5.75875 C26.7338115,6.0126875 26.9678614,7.9475 27.1168022,9.96625 C26.3508209,9.96625 26.6274252,11.0075 25.5848396,10.73125 C25.6912259,8.60625 23.2337025,7.0751875 24.8188583,5.75875 L24.8188583,5.75875 Z M63.1179237,8.43625 C62.4359875,9.424375 61.6178769,12.2814375 60.4369891,11.4951875 C61.7242632,10.8683125 61.2242477,8.4575 63.1179237,8.43625 L63.1179237,8.43625 Z M22.1379237,6.90625 C23.5422227,7.4151875 25.4890919,10.593125 23.6698863,11.87875 C22.8400732,10.678125 21.382581,8.4575 22.1379237,6.90625 L22.1379237,6.90625 Z M18.6910078,8.81875 C20.9357586,7.9060625 22.0740919,10.571875 22.5209143,12.64375 C21.9996215,12.760625 21.7868489,13.185625 20.9889517,13.02625 C20.4463816,11.3995625 19.2974097,10.39125 18.6910078,8.81875 L18.6910078,8.81875 Z M66.5648396,9.5848125 C65.3722492,11.32625 64.6594611,13.53625 62.3508785,14.17375 C61.5221293,11.8458125 63.3519735,9.1151875 66.5648396,9.5848125 L66.5648396,9.5848125 Z M16.0100732,11.11375 C16.2760389,10.359375 17.0313816,10.09375 17.9250265,9.96625 C18.3186558,11.868125 20.1165841,12.3675 20.2229704,14.55625 C19.6910389,14.5339375 19.3825187,14.736875 19.0739984,14.9376875 C18.4463193,13.2695625 16.7654159,12.6533125 16.0100732,11.11375 L16.0100732,11.11375 Z M76.9055872,14.17375 C74.4480639,14.4075 71.9905405,16.649375 70.3947461,16.46875 C72.1916106,15.5751875 74.6810498,13.3651875 76.9055872,14.17375 L76.9055872,14.17375 Z M13.7121293,13.02625 C15.1483442,11.5908125 17.5845903,14.0664375 18.3080171,15.7048125 C17.9569424,16.373125 17.595229,17.0329375 16.3930639,16.8523125 C16.1270981,14.9483125 14.1908676,14.715625 13.7121293,13.02625 L13.7121293,13.02625 Z M74.6076433,13.02625 C71.288391,13.6648125 70.0011168,16.330625 66.9478302,17.2326875 C67.7659408,14.4170625 72.0969268,10.508125 74.6076433,13.02625 L74.6076433,13.02625 Z M71.5437181,17.614125 C73.4161168,16.4570625 78.5747882,13.66375 80.7365576,16.46875 C76.969419,15.7675 74.0874143,19.6020625 71.5437181,17.614125 L71.5437181,17.614125 Z M70.7766729,11.4951875 C67.6074252,12.665 66.3946215,15.78875 64.6488224,18.379125 C62.3508785,14.885625 67.8850935,8.553125 70.7766729,11.4951875 L70.7766729,11.4951875 Z M11.797176,16.08625 C11.5205717,15.045 12.5631573,15.32125 12.5631573,14.5573125 C14.2759766,15.2691875 15.499419,16.4698125 16.0100732,18.38125 C15.4036713,18.4120625 15.7121916,19.35875 14.8611012,19.1473125 C14.3717243,17.5939375 13.031257,16.8926875 11.797176,16.08625 L11.797176,16.08625 Z M74.2246526,20.2926875 C74.2033754,19.8039375 73.7363396,19.7614375 73.8427259,19.1451875 C76.9066511,18.570375 82.2791589,15.4795625 84.5664642,18.761625 C80.532296,18.4651875 77.0226121,20.6114375 74.2246526,20.2926875 L74.2246526,20.2926875 Z M66.1818489,17.614125 C68.043609,17.7426875 67.1499642,20.8664375 65.7988583,21.0576875 C65.5967243,19.5808125 66.4797305,19.1876875 66.1818489,17.614125 L66.1818489,17.614125 Z M10.2652134,17.2326875 C11.8716464,16.66 13.8185156,18.6883125 14.4781106,20.2926875 C13.9674564,20.2926875 14.1270358,20.9620625 13.7121293,21.0576875 C13.2546682,19.2514375 9.39284579,19.1239375 10.2652134,17.2326875 L10.2652134,17.2326875 Z M76.1396059,21.4401875 C77.3843255,21.01625 80.5014439,19.9633125 83.0323738,19.9101875 C84.5856137,19.879375 87.6814548,19.326875 87.245271,21.0576875 C84.1090031,19.6785625 78.0226433,25.18125 76.1396059,21.4401875 L76.1396059,21.4401875 Z M8.35026012,19.9101875 C8.64814174,19.8251875 8.79708255,19.5925 8.73325078,19.14625 C10.935447,19.624375 12.7014595,20.5370625 12.946148,22.97125 C10.9248084,22.44 9.12688006,21.6845625 8.35026012,19.9101875 L8.35026012,19.9101875 Z M68.8627835,19.9101875 C69.1702399,21.1320625 67.9904159,23.77875 66.9467664,24.88375 C66.6914393,23.491875 67.1286869,20.485 68.8627835,19.9101875 L68.8627835,19.9101875 Z M6.43530685,22.97125 C6.97787695,22.875625 6.87149065,22.1308125 7.20128816,21.82375 C9.29709813,22.280625 11.22269,22.9075 11.797176,24.88375 C9.98860903,25.6583125 7.7970514,23.8733125 6.43530685,22.97125 L6.43530685,22.97125 Z M78.4375498,24.11875 C81.5440296,23.14125 88.735743,20.049375 90.6932508,23.73625 C86.1505561,23.6629375 83.0653536,25.0420625 79.5875857,26.03125 C79.3631106,25.234375 78.777986,24.7976875 78.4375498,24.11875 L78.4375498,24.11875 Z M5.28633489,25.26625 C7.50980841,24.193125 9.81839097,26.0089375 10.648204,27.56125 C8.28642835,27.3689375 6.2331729,26.870625 5.28633489,25.26625 L5.28633489,25.26625 Z M81.1184844,26.7951875 C84.3632664,25.7645625 92.2145748,22.865 94.5231573,26.7951875 C89.193204,26.318125 85.7250109,27.6983125 81.8844657,28.70875 C82.1717087,27.5283125 80.8312414,27.9745625 81.1184844,26.7951875 L81.1184844,26.7951875 Z M71.1617913,21.82375 C71.1724299,24.1825 69.2883287,27.805625 68.0968022,30.23875 C67.5542321,27.2414375 68.3521293,22.705625 71.1617913,21.82375 L71.1617913,21.82375 Z M3.75437227,29.4726875 C3.57351558,28.273125 4.29694237,27.9745625 4.52035358,27.1776875 C6.89276791,27.359375 8.56303271,28.2401875 9.88222274,29.4726875 C9.43540031,29.5375 9.4673162,30.0783125 9.49923209,30.6201875 C7.27575857,30.546875 5.95656854,29.5683125 3.75437227,29.4726875 L3.75437227,29.4726875 Z M83.4164283,29.8551875 C86.065447,28.1126875 94.5869891,26.4445625 97.2040919,29.4726875 C92.0539315,29.43125 88.1835981,30.66375 83.799419,31.38625 C83.884528,30.66375 83.3621713,30.546875 83.4164283,29.8551875 L83.4164283,29.8551875 Z M85.3313816,32.9151875 C88.4591386,30.7689375 99.3424564,29.250625 99.500972,32.9151875 C95.3848863,30.759375 89.1283084,33.6270625 85.3313816,32.9151875 L85.3313816,32.9151875 Z M2.83413084,32.9151875 C2.96179439,32.0226875 3.4064891,31.3320625 3.71500935,30.6201875 C5.70443302,31.0558125 7.4470405,31.30125 9.57476636,32.1501875 L9.57476636,34.0626875 C6.38317757,33.93625 5.70656075,32.5964375 2.83413084,32.9151875 L2.83413084,32.9151875 Z M92.608204,34.82875 C90.5336713,34.8595625 87.4910234,36.48625 86.8644081,34.44625 C91.4815732,33.266875 99.927581,31.970625 101.79998,35.97625 C99.065852,35.53 95.8210701,34.7745625 92.608204,34.82875 L92.608204,34.82875 Z M73.0746168,24.11875 C73.5756963,28.3464375 69.8096215,31.545625 70.0117555,36.7401875 C69.9266464,37.03875 69.6925966,37.1875 69.2457741,37.12375 C68.4053224,32.0545625 69.937285,26.4445625 73.0746168,24.11875 L73.0746168,24.11875 Z M1.839419,35.97625 C2.32879595,32.44875 8.11621028,34.7001875 9.11624143,36.3576875 C7.26511994,37.84625 4.98845327,35.89125 1.839419,35.97625 L1.839419,35.97625 Z M88.7772336,38.27125 C88.9368131,37.3458125 88.076148,37.4414375 88.3953069,36.3576875 C91.2900779,36.6445625 95.3955249,35.9858125 98.352,36.3576875 C100.107374,36.5808125 102.619154,37.1545625 102.565961,38.27125 C97.5977212,36.4426875 93.757176,38.9395625 88.7772336,38.27125 L88.7772336,38.27125 Z M1.839419,39.4176875 C0.796833333,39.068125 2.37135047,38.2170625 1.839419,37.12375 C4.54163084,38.2075 7.05234735,37.2395625 8.35026012,39.4176875 C6.32892056,40.2570625 3.27563396,39.599375 1.839419,39.4176875 L1.839419,39.4176875 Z M89.9262056,39.4176875 C92.4699019,39.2264375 96.3530016,38.4826875 97.5870826,40.5651875 C94.4699642,39.8958125 90.6389938,42.18125 89.9262056,39.4176875 L89.9262056,39.4176875 Z M70.7766729,40.1826875 C70.8841231,39.2158125 70.628796,38.165 70.7766729,37.12375 C71.2447726,33.776875 73.1703645,26.3064375 75.7566153,26.7951875 C75.5225654,30.895375 72.0862882,35.1145625 71.9256449,40.5651875 C71.9043676,40.7989375 71.8735156,41.023125 71.5437181,40.9476875 C71.5011636,40.4801875 71.427757,40.045625 70.7766729,40.1826875 L70.7766729,40.1826875 Z M1.839419,40.94875 C4.09480841,41.2451875 7.78641277,40.109375 7.96726947,42.4776875 C6.4140296,42.9239375 4.23311059,42.5095625 1.45642835,43.24375 C1.4032352,42.2970625 1.4032352,41.3939375 1.839419,40.94875 L1.839419,40.94875 Z M91.8422227,42.09625 C93.5337648,40.916875 97.0657897,42.4883125 98.352,41.71375 C98.2254003,42.595625 98.4168956,43.18 98.7360545,43.62625 C96.745567,43.806875 93.9795234,43.211875 92.6071402,44.00875 C92.4486246,43.2745625 91.778391,43.0525 91.8422227,42.09625 L91.8422227,42.09625 Z M78.0545592,29.4726875 C78.4481885,34.5195625 74.3842321,38.260625 74.6076433,44.39125 C74.5225343,44.6876875 74.2884844,44.8375 73.841662,44.7726875 C72.2033131,39.4708125 73.926771,31.5126875 78.0545592,29.4726875 L78.0545592,29.4726875 Z M93.3741854,44.7726875 C95.8966044,44.9320625 99.3647975,44.1458125 99.5020358,46.68625 C97.2370717,46.4089375 96.4604517,46.75 93.7582399,46.68625 C93.9156916,45.7608125 93.0550265,45.8564375 93.3741854,44.7726875 L93.3741854,44.7726875 Z M1.57877259,44.39125 C4.35651869,43.7951875 5.31931464,43.6145625 7.4470405,44.0076875 L7.4470405,45.9201875 C5.31931464,45.719375 3.41712773,46.1008125 1.83197196,46.68625 C1.39578816,46.2283125 1.5266433,45.3358125 1.57877259,44.39125 L1.57877259,44.39125 Z M79.9695125,32.53375 C81.2780639,33.5739375 79.9801511,34.9775 79.5875857,36.35875 C78.545,39.981875 77.341771,43.5848125 76.9055872,47.06875 C76.8832461,47.3035625 76.8523941,47.525625 76.5225966,47.4501875 C74.7140296,42.43625 77.1396371,35.4226875 79.9695125,32.53375 L79.9695125,32.53375 Z M81.8844657,35.2101875 C83.0227991,38.9076875 79.6503536,43.9970625 79.2024673,48.5976875 C79.1184221,48.89625 78.8843723,49.0439375 78.4375498,48.9801875 C78.3630794,43.1683125 79.2673629,38.3339375 81.8844657,35.2101875 L81.8844657,35.2101875 Z M2.12772586,47.4501875 C5.31931464,46.8339375 5.7023053,46.611875 8.25557632,47.06875 C8.27685358,50.0214375 4.25545171,48.524375 2.12772586,49.74625 L2.12772586,47.4501875 L2.12772586,47.4501875 Z M94.906148,47.83375 C96.6721604,47.855 98.6520093,47.66375 99.8860903,48.2151875 C99.7680016,49.1076875 99.9488583,49.6814375 100.268017,50.1276875 C98.4488115,49.2245625 95.0135981,51.031875 94.906148,47.83375 L94.906148,47.83375 Z M80.7365576,49.3626875 C80.8206028,47.3120625 81.0333754,44.9958125 81.5014751,43.2426875 C81.9482975,41.5745625 82.5983178,39.12975 84.1834735,38.6526875 C85.5452181,41.6276875 81.6089252,45.358125 82.2685202,50.1276875 C82.1834112,50.4251875 81.9482975,50.5739375 81.5014751,50.5101875 C81.4695592,49.9045625 80.5216573,50.2126875 80.7365576,49.3626875 L80.7365576,49.3626875 Z M86.0973629,41.3301875 C86.4803536,41.8401875 86.4590763,42.7539375 87.2463349,42.8601875 C85.6196885,45.443125 85.9058676,49.9364375 83.799419,52.0401875 C82.6717243,48.0664375 84.2558162,43.605 86.0973629,41.3301875 L86.0973629,41.3301875 Z M2.98839097,52.0401875 C3.70117913,49.9470625 6.72254984,50.1595625 9.49923209,50.1276875 C7.56300156,51.6045625 4.83951246,52.2208125 2.98839097,52.0401875 L2.98839097,52.0401875 Z M96.0551199,51.2751875 C97.0966417,50.3508125 98.1828458,51.699125 99.8860903,51.2751875 C100.002051,52.1676875 100.705265,52.9220625 99.5020358,53.1876875 C98.4488115,52.455625 95.9274564,53.1876875 96.0551199,51.2751875 L96.0551199,51.2751875 Z M86.0973629,52.80625 C86.2250265,49.7451875 86.8101511,47.143125 88.0133801,45.15625 C90.1623832,47.0889375 88.2357274,51.36125 87.2463349,53.57125 C87.1505872,53.0283125 86.4058832,53.1345625 86.0973629,52.80625 L86.0973629,52.80625 Z M89.9262056,49.1289375 C92.3741542,50.203125 90.6389938,52.0625 90.6932508,55.25 L89.5442788,55.25 C88.1080639,53.125 89.5549174,51.1158125 89.9262056,49.1289375 L89.9262056,49.1289375 Z M51.628204,52.4226875 C53.0016511,51.7533125 54.8304315,51.5408125 56.9911371,51.6576875 C57.2571028,54.7283125 54.4165888,54.695375 52.0122586,55.1001875 C51.4792632,54.6114375 51.628204,53.4426875 51.628204,52.4226875 L51.628204,52.4226875 Z M3.75437227,53.95375 C5.63740966,53.0495625 7.722581,51.5525 10.2652134,52.42375 C9.11624143,54.2098125 6.21189564,54.240625 4.52035358,55.48375 C4.31821963,54.920625 3.95650623,54.5158125 3.75437227,53.95375 L3.75437227,53.95375 Z M97.5870826,53.95375 C98.9169112,53.6445625 99.0541495,54.5264375 100.268017,54.3351875 C100.21376,55.0470625 100.01269,55.6101875 99.500972,55.864125 C98.8424408,55.25 97.2998396,55.515625 97.5870826,53.95375 L97.5870826,53.95375 Z M91.8422227,53.1876875 C94.1401667,53.4225 93.1294969,56.3220625 91.8422227,57.0126875 C90.8432555,55.898125 92.1826589,54.8133125 91.8422227,53.1876875 L91.8422227,53.1876875 Z M11.0311947,54.3351875 C9.93541589,56.3008125 7.60555607,57.0339375 5.28633489,57.7776875 C5.78635047,55.2170625 8.72261215,55.0895625 11.0311947,54.3351875 L11.0311947,54.3351875 Z M98.7371184,57.0126875 C100.140354,56.1945625 100.459512,58.9570625 99.1190452,58.5426875 C99.1498972,57.8733125 99.0339361,57.3526875 98.7371184,57.0126875 L98.7371184,57.0126875 Z M52.3941854,56.6301875 C54.1059408,56.034125 55.8517399,54.3351875 57.7560545,55.10125 C57.2975296,57.4483125 54.5963816,57.555625 52.7761121,58.5426875 C53.0963349,57.4589375 52.2346059,57.5545625 52.3941854,56.6301875 L52.3941854,56.6301875 Z M94.1401667,56.24875 C94.7359299,57.045625 95.2891386,58.6064375 93.757176,58.92625 C93.9805872,58.1283125 93.2880125,56.4070625 94.1401667,56.24875 L94.1401667,56.24875 Z M64.6498863,54.3351875 C67.4904003,54.8133125 68.0765888,57.5439375 69.6287648,59.3076875 C67.1925187,58.4258125 65.203095,57.0976875 64.6498863,54.3351875 L64.6498863,54.3351875 Z M68.4797928,17.9976875 C70.4255981,17.5726875 72.1394813,19.526625 73.4586713,20.6751875 C78.2683956,24.8826875 81.5865841,29.7595625 85.3313816,34.8276875 C91.001771,42.48725 96.7785467,51.9339375 97.9700732,61.2201875 C89.7453489,45.2083125 81.0759299,29.6426875 68.4797928,17.9976875 L68.4797928,17.9976875 Z M96.0551199,59.3076875 C96.1721449,59.765625 97.5977212,60.7526875 96.4381106,61.22125 C96.3210857,60.764375 94.8944455,59.7751875 96.0551199,59.3076875 L96.0551199,59.3076875 Z M12.5631573,57.0126875 C11.1694969,58.936875 8.89283022,59.978125 6.81829751,61.22125 C4.76504206,58.735 10.8396994,55.6845625 12.5631573,57.0126875 L12.5631573,57.0126875 Z M53.5431573,60.07375 C55.1070358,58.9570625 56.2453692,57.4175 58.9050265,57.39625 C59.3731262,59.52125 56.5751667,61.0076875 54.3091386,61.6026875 C54.1059408,61.040625 53.7452913,60.6358125 53.5431573,60.07375 L53.5431573,60.07375 Z M60.8199798,52.4226875 C64.1179548,53.7189375 64.1924252,58.2345625 67.3308209,59.6901875 C68.648947,60.2851875 69.9681371,60.8801875 71.1617913,61.6026875 C71.0968956,62.0489375 71.2245592,62.6875 70.7777368,62.7501875 C66.0116308,60.7526875 61.873204,58.1283125 60.8199798,52.4226875 L60.8199798,52.4226875 Z M15.6270826,61.6026875 C15.6802757,62.0595625 16.3079548,62.4739375 15.6270826,62.7501875 C15.5738894,62.2933125 14.9462103,61.8789375 15.6270826,61.6026875 L15.6270826,61.6026875 Z M47.4153069,55.4826875 C48.989824,57.7351875 49.5430327,61.0076875 50.8622227,63.51625 C50.7771137,63.8126875 50.5430639,63.9625 50.0962414,63.8976875 C47.9365997,61.5495625 48.0642632,58.8614375 47.4153069,55.4826875 L47.4153069,55.4826875 Z M11.4141854,59.6901875 C13.1695592,59.085625 13.8823474,62.4951875 14.8611012,63.8976875 C14.3717243,63.9189375 14.3291698,64.3864375 13.7121293,64.2801875 C13.031257,62.6651875 11.9461168,61.4539375 11.4141854,59.6901875 L11.4141854,59.6901875 Z M55.4581106,63.1326875 C56.6921916,61.6876875 57.8092477,60.1258125 60.0529346,59.6901875 C60.212514,60.4233125 61.1497773,60.37975 60.8199798,61.6026875 C59.7029237,62.3995625 57.7666931,62.3783125 58.1390452,64.66375 C56.5219735,65.1408125 55.8517399,64.7051875 55.4581106,63.1326875 L55.4581106,63.1326875 Z M71.5437181,65.4276875 C64.6179704,63.5470625 59.1284377,60.233125 58.5220358,52.0401875 C60.7348707,53.6445625 60.554014,56.2795625 61.9689517,58.1601875 C64.458391,61.486875 68.5968178,62.6875 72.3096994,64.66375 C72.2671449,65.1301875 72.1916106,65.5658125 71.5437181,65.4276875 L71.5437181,65.4276875 Z M46.2663349,55.4826875 C46.5323006,59.4245625 47.7344657,62.4314375 49.3302601,65.0451875 C45.000338,66.076875 43.4151822,57.5120625 46.2663349,55.4826875 L46.2663349,55.4826875 Z M42.4364283,64.66375 C41.8300265,63.2283125 42.4896215,58.575625 43.968391,59.3076875 C43.0428302,60.8801875 45.6812103,64.2058125 45.1173629,65.4276875 C44.5428769,64.855 43.4364595,64.8125 42.4364283,64.66375 L42.4364283,64.66375 Z M9.49923209,60.8376875 C11.2333287,61.2201875 13.4780794,64.9070625 12.1801667,65.81125 C11.3503536,64.0889375 9.61625701,63.2708125 9.49923209,60.8376875 L9.49923209,60.8376875 Z M7.96726947,62.36875 C9.40348442,63.3664375 11.4992944,65.7145625 11.0311947,67.34125 C10.0205249,65.6720625 8.49920093,64.5139375 7.96726947,62.36875 L7.96726947,62.36875 Z M40.9044657,65.4276875 C41.7981106,65.55625 42.4896215,65.885625 43.2024097,66.19375 C43.3832664,68.031875 42.0959922,68.40375 40.5214751,68.48875 C40.0001822,67.3614375 40.0427368,66.1183125 40.9044657,65.4276875 L40.9044657,65.4276875 Z M58.1390452,65.81125 C60.212514,65.5870625 61.361486,64.4395625 61.5859611,62.36875 C63.255162,62.4845625 64.0956137,63.43125 64.6488224,64.66375 C63.394528,67.51125 59.319933,70.9314375 58.1390452,65.81125 L58.1390452,65.81125 Z M12.5631573,68.8701875 C12.5844346,67.1808125 15.5419735,63.24 17.9250265,63.8976875 C16.4994502,65.7039375 14.7334377,69.0508125 12.5631573,68.8701875 L12.5631573,68.8701875 Z M62.3508785,70.0176875 C62.2551308,68.180625 65.1807539,66.2776875 66.5648396,64.66375 C67.1276231,66.36375 65.1807539,68.5525 64.6488224,70.4001875 C63.7030483,70.4533125 62.8094034,70.4533125 62.3508785,70.0176875 L62.3508785,70.0176875 Z M68.4797928,65.0664375 C69.5117399,67.12875 67.4999751,69.0625 67.3308209,71.1875 L65.7988583,71.1875 C65.7137492,70.125 67.0531526,66.3945625 68.4797928,65.0664375 L68.4797928,65.0664375 Z M43.968391,69.2526875 C44.0428614,67.6058125 46.9684844,65.957875 48.9472695,67.7226875 C49.6068645,72.4401875 43.8194502,72.4625 43.968391,69.2526875 L43.968391,69.2526875 Z M19.8399798,65.81125 C18.5739829,68.116875 16.7015841,69.816875 14.8611012,71.5476875 C13.7227679,69.540625 16.9675498,66.2575 19.8399798,65.81125 L19.8399798,65.81125 Z M70.7766729,66.13 C71.0766822,68.7225 70.278785,70.125 70.0128193,72.25 L68.4808567,72.25 C68.5117087,69.0625 69.8734533,68.031875 70.7766729,66.13 L70.7766729,66.13 Z M71.9256449,66.5751875 C73.841662,66.70375 73.702296,72.99375 71.5437181,72.69625 C71.4788224,69.8158125 72.0756495,69.7414375 71.9256449,66.5751875 L71.9256449,66.5751875 Z M40.5214751,70.4001875 C41.6278925,69.4864375 43.4470981,70.3045625 43.5854003,71.5476875 C43.2875187,71.6326875 43.1385779,71.8664375 43.2024097,72.3126875 C42.7449486,72.7483125 41.8513037,72.7483125 40.9044657,72.6951875 C41.1810701,71.5264375 40.2448707,71.57 40.5214751,70.4001875 L40.5214751,70.4001875 Z M52.7761121,66.1926875 C51.4899019,68.6045625 50.7228567,71.536 48.5642788,73.0776875 C49.9473006,69.9114375 49.8409143,67.5633125 52.7761121,66.1926875 L52.7761121,66.1926875 Z M21.754933,70.0176875 C23.5847773,69.89125 26.2125187,72.026875 24.4358676,73.07875 C23.7549953,71.84625 21.9145125,71.7708125 21.754933,70.0176875 L21.754933,70.0176875 Z M16.7760545,73.07875 C16.9569112,71.304375 19.2123006,66.78875 22.1379237,67.7226875 C20.1804159,69.1251875 19.4250732,73.620625 16.7760545,73.07875 L16.7760545,73.07875 Z M20.2229704,71.93125 C22.1804782,72.1426875 23.3294502,73.16375 23.6698863,74.9901875 C22.3719735,74.1189375 20.5846838,73.7364375 20.2229704,71.93125 L20.2229704,71.93125 Z M56.6070826,68.4876875 C52.6495125,64.88475 48.1706495,59.136625 50.0962414,52.8051875 C52.3090763,62.876625 57.0762461,69.7201875 65.7988583,72.6951875 C67.8414751,73.395375 70.3309143,73.1839375 72.3096994,74.6076875 C66.2137648,76.5945625 60.3944346,71.93125 56.6070826,68.4876875 L56.6070826,68.4876875 Z M54.6921293,68.1051875 C56.3187757,71.1651875 51.3835156,73.174375 49.7132508,75.37375 C50.6388115,72.2170625 51.3196838,68.818125 54.6921293,68.1051875 L54.6921293,68.1051875 Z M56.9900732,70.4001875 C57.0751822,70.6976875 57.3092321,70.8464375 57.7560545,70.7826875 C56.6921916,73.6726875 53.9899798,74.9264375 51.2452134,76.136625 C52.6058941,73.6726875 54.8091542,72.0470625 56.9900732,70.4001875 L56.9900732,70.4001875 Z M44.3513816,73.07875 C46.0003692,72.961875 47.4472227,73.046875 47.4153069,74.6076875 C46.7769891,77.2639375 42.5215374,75.8933125 44.3513816,73.07875 L44.3513816,73.07875 Z M42.4364283,73.84375 C42.447067,75.001875 42.6598396,76.361875 41.2874564,76.1376875 C40.5746682,75.384375 40.723609,73.3220625 42.4364283,73.84375 L42.4364283,73.84375 Z M60.0529346,72.6951875 C58.6273583,74.3420625 56.2134533,77.0089375 53.5431573,76.136625 C56.2677103,75.7870625 57.6177523,72.0470625 60.0529346,72.6951875 L60.0529346,72.6951875 Z M19.4569891,74.22625 C20.6485156,74.6926875 21.9357897,75.0645625 22.1379237,76.52125 C20.8825654,76.1164375 20.0101978,75.3301875 19.4569891,74.22625 L19.4569891,74.22625 Z M61.2019065,73.84375 C63.883905,75.11875 67.3414595,75.618125 70.0117555,76.90375 C66.6403738,77.7951875 62.8945125,75.8933125 61.2019065,73.84375 L61.2019065,73.84375 Z M27.8827835,72.3126875 C27.6061791,74.8425 25.1486558,75.193125 25.2018489,78.0501875 C22.6592165,76.6476875 25.4784533,72.4083125 27.8827835,72.3126875 L27.8827835,72.3126875 Z M61.2019065,75.7551875 C63.6498551,77.0089375 66.2244034,78.1351875 69.6277009,78.4326875 C68.1393567,80.6639375 61.8625654,79.4739375 61.2019065,75.7551875 L61.2019065,75.7551875 Z M29.7977368,73.84375 C28.8615374,75.84125 28.3934377,78.30625 27.4997928,80.34625 C24.5635312,78.56125 28.0317243,73.2795625 29.7977368,73.84375 L29.7977368,73.84375 Z M55.8411012,78.4326875 C56.564528,77.49875 57.4145545,76.6901875 59.2880171,76.90375 C60.4157118,78.104375 59.8305872,79.336875 59.2880171,80.72875 C57.1602913,80.9401875 55.819824,80.3664375 55.8411012,78.4326875 L55.8411012,78.4326875 Z M31.71269,74.9275 C31.7446059,76.340625 30.5743567,79.6875 30.1807274,81.8125 L29.0317555,81.8125 C29.3509143,79.6875 29.0636713,75.788125 31.71269,74.9275 L31.71269,74.9275 Z M62.3508785,79.19875 C63.3296324,80.3876875 65.9371604,79.953125 66.9467664,81.11125 C65.4477835,82.8420625 60.7550841,81.546875 62.3508785,79.19875 L62.3508785,79.19875 Z M33.6276433,75.6075 C35.5000421,77.3383125 32.4786713,79.6875 33.2446526,82.875 L31.71269,82.875 C31.6701355,78.625 31.6807741,77.5401875 33.6276433,75.6075 L33.6276433,75.6075 Z M36.6915685,76.52125 C37.5213816,78.2839375 34.8085312,81.3439375 36.3085779,83.78875 C35.8192009,83.81 35.7766464,84.2764375 35.1596059,84.1701875 C34.2021293,81.4714375 34.1595748,78.1776875 36.6915685,76.52125 L36.6915685,76.52125 Z M58.9050265,85.3176875 C57.744352,84.139375 59.1816308,82.3001875 60.0529346,81.8751875 C61.2561636,82.205625 62.4051355,82.5870625 62.734933,83.78875 C62.4264128,85.1689375 60.1720872,86.105 58.9050265,85.3176875 L58.9050265,85.3176875 Z M45.8833442,84.1701875 C43.2662414,87.773125 37.6596838,84.0320625 40.1384844,78.4326875 C42.0321604,78.4114375 42.4257897,76.893125 44.7343723,77.2851875 C47.1918956,78.56125 47.0748707,82.5339375 45.8833442,84.1701875 L45.8833442,84.1701875 Z M39.7554938,77.6676875 C37.308609,79.0276875 37.9150109,84.330625 40.5214751,85.7001875 C35.7553692,86.9539375 36.4575187,76.4033125 39.7554938,77.6676875 L39.7554938,77.6676875 Z M52.3941854,78.4326875 C56.1283442,78.890625 57.1922072,86.36 52.3941854,86.08375 C46.2237804,85.7214375 47.6599953,77.86 52.3941854,78.4326875 L52.3941854,78.4326875 Z M47.7982975,84.5526875 L47.7982975,86.46625 L45.8833442,86.46625 C45.7982352,85.1051875 46.436553,84.46875 47.7982975,84.5526875 L47.7982975,84.5526875 Z M39.7554938,76.1376875 C28.4466308,74.683125 21.4144969,65.64125 14.0951199,58.92625 C11.5631262,53.48625 8.4140919,47.4501875 9.11624143,40.1826875 C10.1162726,29.781875 14.0419268,20.7070625 19.8399798,15.70375 C27.2763816,8.6051875 50.0111324,3.6008125 59.6710078,12.26125 C62.7125919,14.98125 66.0435467,22.875625 66.9478302,28.3251875 C67.3946526,31.0558125 66.9584688,33.9575 67.7148754,36.35875 C69.2457741,41.235625 72.7575857,43.934375 75.3736246,47.8348125 C84.3419891,53.029375 93.7795171,57.7585625 99.5020358,66.19375 C102.587238,57.82125 101.342519,46.0275 98.3530639,38.65375 C102.109564,38.090625 103.46067,39.9276875 106.013941,40.56625 C101.152087,29.8679375 92.2571293,23.1933125 83.799419,16.08625 C79.3003427,14.269375 74.4374252,11.1891875 68.8638474,9.20125 C66.1712103,8.2460625 63.3306963,7.596875 60.8199798,6.52375 C56.8092165,4.8035625 53.8304003,1.965625 48.5642788,1.16875 C39.8406028,-0.159375 32.5850576,2.8698125 23.6698863,4.61125 C13.9355405,9.6804375 7.85024455,18.3908125 2.60540031,27.9426875 C3.10541589,30.449125 1.49898287,32.4158125 1.07343769,34.4451875 C-2.15006698,49.659125 6.39275234,63.7914375 13.7121293,71.9301875 C22.6698551,79.2285 38.1065062,89.0364375 53.9250841,88.376625 C61.6700062,88.04725 67.4159299,84.4995625 71.5437181,79.579125 C78.6598972,65.18225 69.3510966,49.24475 53.9250841,50.5101875 C41.6278925,51.5195625 35.2127991,63.1751875 39.7554938,76.1376875 L39.7554938,76.1376875 Z" id="Shape" fill="#000000"></path>
                </g>
            </g>
        </g>
    </g>
</svg>