<?xml version="1.0" encoding="UTF-8" standalone="no"?>
<svg width="122px" height="119px" viewBox="0 0 122 119" version="1.1" xmlns="http://www.w3.org/2000/svg" xmlns:xlink="http://www.w3.org/1999/xlink" xmlns:sketch="http://www.bohemiancoding.com/sketch/ns">
    <!-- Generator: Sketch 3.2.2 (9983) - http://www.bohemiancoding.com/sketch -->
    <title>shop_btn</title>
    <desc>Created with Sketch.</desc>
    <defs></defs>
    <g id="Page-1" stroke="none" stroke-width="1" fill="none" fill-rule="evenodd" sketch:type="MSPage">
        <g id="nav_btns" sketch:type="MSLayerGroup" transform="translate(-289.000000, 0.000000)">
            <g id="shop_x5F_btn-link" transform="translate(351.893692, 59.375000) scale(1, -1) translate(-351.893692, -59.375000) translate(304.019860, 14.750000)" sketch:type="MSShapeGroup">
                <g id="shop_x5F_btn">
                    <path d="M56.184729,74.177375 C54.6527664,74.156125 55.1527819,76.2715625 55.035757,76.8559375 C53.949553,82.07175 50.8441371,87.237625 43.929028,86.0359375 C40.7268006,85.473875 35.864947,82.4340625 35.1213069,78.7684375 C34.7159751,76.7815625 36.8873193,73.0946875 35.1213069,71.5009375 C31.9712087,73.9765625 33.2489081,81.4884375 35.8872882,84.1234375 C36.7075265,84.942625 39.7278333,86.7371875 41.2491573,87.1834375 C43.843919,87.9378125 48.5153411,87.9059375 50.440933,87.1834375 C52.4409953,86.4290625 56.409204,82.371375 56.9517741,79.149875 C57.1847601,77.747375 57.4613645,75.431125 56.184729,74.177375 L56.184729,74.177375 Z" id="Shape" fill="#E0383E"></path>
                    <path d="M53.1208037,74.559875 C50.6100872,76.24925 51.8324657,78.1203125 50.8228598,79.914875 C47.6844642,85.493 39.6310218,82.70925 38.1831044,76.854875 C37.875648,75.622375 39.9076262,72.9778125 37.0351963,72.264875 C31.9595062,86.10925 56.0357882,89.84925 53.1208037,74.559875 L53.1208037,74.559875 Z" id="Shape" fill="#F05E51"></path>
                    <path d="M73.8012352,63.849875 C74.3874237,67.473 77.047081,70.437375 76.4821698,74.177375 C76.0789657,76.8771875 73.057595,80.0955 70.3543193,80.6809375 C64.3966869,81.94425 61.4189346,77.471125 58.8656636,73.412375 C56.8858146,75.1028125 60.662528,79.77675 61.9285249,80.6809375 C64.0349735,82.178 68.3659595,82.9865625 70.73731,82.592375 C78.6950047,81.26425 81.5036028,67.9521875 73.8012352,63.849875 L73.8012352,63.849875 Z" id="Shape" fill="#E0383E"></path>
                    <path d="M50.0558146,74.559875 C48.2376729,76.41925 48.4291682,79.2455 45.8439813,79.5334375 C42.407704,79.914875 42.4279174,76.727375 40.8640389,73.7959375 C35.1404564,82.07175 53.5463489,85.2921875 50.0558146,74.559875 L50.0558146,74.559875 Z" id="Shape" fill="#E0383E"></path>
                    <path d="M72.2703364,66.144875 C70.4617695,68.397375 72.9512087,69.821125 72.6522632,72.264875 C72.1522477,76.37675 67.2797555,77.65175 63.8445421,75.707375 C62.3976885,74.8881875 62.3444953,73.412375 60.779553,72.647375 C61.6849003,75.622375 63.099838,78.33175 65.3754408,79.1488125 C73.2490903,81.976125 78.5886184,71.329875 72.2703364,66.144875 L72.2703364,66.144875 Z" id="Shape" fill="#F05E51"></path>
                    <path d="M46.2259081,78.3859375 C46.1195218,77.131125 47.4174346,77.279875 47.7568069,76.472375 C47.5450981,75.792375 47.5557368,74.878625 46.9918894,74.559875 C45.3843925,74.42175 46.7142212,75.803 46.6088988,76.472375 C46.3535717,76.982375 45.7886604,77.18425 45.0769361,77.2384375 C44.534366,77.09925 43.7683847,75.2834375 44.6950093,74.9434375 C44.364148,74.368625 43.7268941,74.1146875 42.7789922,74.177375 C42.6300514,76.8655 43.4279486,78.62925 46.2259081,78.3859375 L46.2259081,78.3859375 Z" id="Shape" fill="#F4B033"></path>
                    <path d="M33.2042259,70.352375 C30.9275592,69.629875 29.4913442,72.318 27.4604299,73.029875 C15.7802788,75.69675 11.013109,60.8855 19.0335717,56.199875 C18.8005857,55.031125 18.2143972,54.202375 17.8856636,53.139875 C12.7472056,54.893 9.06623988,60.928 11.7567492,66.909875 C12.6397555,68.886125 18.5016402,74.517375 20.9495888,75.324875 C25.7891012,76.918625 31.4169361,75.5905 33.2042259,70.352375 L33.2042259,70.352375 Z" id="Shape" fill="#E0383E"></path>
                    <path d="M65.9595016,72.6484375 L65.9595016,71.1195 C67.0233645,70.875125 68.0872274,70.3534375 69.1510903,71.1195 L69.1510903,72.6484375 C69.1510903,73.2105 67.0233645,73.2105 65.9595016,72.6484375 L65.9595016,72.6484375 Z M69.9713287,68.057375 C67.8542414,69.513 65.9818427,71.2140625 62.6945062,71.499875 C63.5455966,79.43675 75.813,73.7746875 69.9713287,68.057375 L69.9713287,68.057375 Z" id="Shape" fill="#F4B033"></path>
                    <path d="M64.6094595,68.057375 C59.9295265,70.42675 52.5878084,72.0205 47.3748801,72.264875 C33.2786963,72.9034375 22.7677305,57.113625 20.5665981,45.107375 C17.9484315,30.8050625 25.6082445,21.902375 35.120243,18.3313125 C44.8652274,14.6656875 58.0890436,18.9475625 64.2264688,23.304875 C69.5351449,27.0756875 75.9938567,35.6925625 76.8662243,43.1938125 C77.3438988,47.30675 75.5576729,50.15425 74.5682804,53.9038125 C73.8969829,56.4538125 73.3969673,59.004875 72.2703364,61.554875 C69.8223879,63.28675 68.0244595,66.3255 64.6094595,68.057375 L64.6094595,68.057375 Z M50.4388053,73.412375 C56.5783583,73.2955 67.438271,69.651125 71.1203006,66.144875 C72.8969517,64.4438125 77.0981464,58.1028125 78.3971231,55.434875 C80.8333692,50.419875 78.8130935,39.582375 76.4811059,35.162375 C75.5353318,33.356125 72.9395062,30.4884375 70.73731,27.894875 C65.1094751,21.25425 60.8965779,16.6100625 50.821796,14.5063125 C40.9385093,12.4355 30.874366,16.8013125 24.3954408,22.1584375 C18.2558879,27.2265625 13.9270296,36.7890625 16.3515732,47.784875 C17.6069315,53.448 23.1400826,61.767375 27.0753115,65.3809375 C32.1297243,70.012375 40.0778442,73.593 50.4388053,73.412375 L50.4388053,73.412375 Z" id="Shape" fill="#00B58C"></path>
                    <path d="M69.1510903,72.6484375 L69.1510903,71.1195 C68.0872274,70.3534375 67.0233645,70.875125 65.9595016,71.1195 L65.9595016,72.6484375 C67.0233645,73.2105 69.1510903,73.2105 69.1510903,72.6484375 L69.1510903,72.6484375 Z" id="Shape" fill="#000000"></path>
                    <path d="M41.2470296,70.352375 C37.704366,69.66175 31.7680109,64.7955 28.9913287,61.5559375 C24.4475701,56.2540625 21.1932134,47.253625 21.3304517,39.752375 C21.5655654,27.03425 31.0754361,18.9050625 43.1619829,18.3313125 C49.4813287,18.0231875 54.9176682,20.2438125 58.8656636,22.157375 C60.4072009,22.9000625 62.4817336,23.3888125 63.4604875,24.0688125 C69.013852,27.9044375 76.1949268,38.031125 75.7172523,45.4888125 C75.4927773,48.96425 73.4501604,56.40175 72.2703364,58.877375 C68.7904408,66.17675 56.9187944,71.627375 44.3120187,70.352375 C43.8641324,70.3003125 42.0130109,70.5021875 41.2470296,70.352375 L41.2470296,70.352375 Z M72.2703364,61.5559375 C73.3980312,59.0059375 73.8969829,56.454875 74.5682804,53.904875 C75.5576729,50.1553125 77.3438988,47.3078125 76.8662243,43.194875 C75.9938567,35.693625 69.5351449,27.07675 64.2264688,23.3059375 C58.0879798,18.948625 44.8652274,14.66675 35.120243,18.332375 C25.6093084,21.9034375 17.9484315,30.806125 20.5665981,45.1084375 C22.7677305,57.1146875 33.2786963,72.9034375 47.3748801,72.2659375 C52.5878084,72.022625 59.9295265,70.428875 64.6094595,68.0584375 C68.0244595,66.3255 69.8223879,63.28675 72.2703364,61.5559375 L72.2703364,61.5559375 Z" id="Shape" fill="#000000"></path>
                    <path d="M30.5232913,68.8234375 C28.8732399,67.186125 27.3625545,69.5034375 25.5444128,69.587375 C22.267715,69.7371875 18.9367601,67.5803125 18.650581,64.2334375 C18.3846153,61.1840625 21.1400202,60.6209375 20.1814798,57.3484375 C8.58643769,62.1605 23.7581869,79.0659375 30.5232913,68.8234375 L30.5232913,68.8234375 Z" id="Shape" fill="#F05E51"></path>
                    <path d="M44.3109548,70.352375 C56.9187944,71.627375 68.7904408,66.17675 72.2692726,58.877375 C73.4490966,56.40175 75.4917134,48.96425 75.7161885,45.4888125 C76.1938629,38.0300625 69.0127882,27.9044375 63.4594237,24.0688125 C62.4806698,23.3888125 60.4061371,22.9000625 58.8645997,22.157375 C54.9166044,20.2438125 49.4813287,18.0231875 43.160919,18.3313125 C31.0754361,18.9050625 21.5645016,27.03425 21.3293879,39.752375 C21.1921495,47.253625 24.4475701,56.253 28.9902648,61.5559375 C31.7658832,64.7955 37.7022383,69.66175 41.2459657,70.352375 C42.0130109,70.5021875 43.8641324,70.3003125 44.3109548,70.352375 L44.3109548,70.352375 Z" id="Shape" fill="#DBD27C"></path>
                    <path d="M21.7145062,63.7149375 C22.2783536,63.514125 22.6826215,63.2655 23.2464688,63.0731875 C23.6081822,63.8275625 24.4911885,64.8125 23.6283956,65.875 L22.0974969,65.875 C22.4166558,64.8125 21.5559907,64.6286875 21.7145062,63.7149375 L21.7145062,63.7149375 Z M28.2253474,66.5284375 C24.6294907,65.6571875 24.5018271,61.3221875 20.9485249,60.4084375 C17.4271386,66.1778125 25.2252539,71.436125 28.2253474,66.5284375 L28.2253474,66.5284375 Z" id="Shape" fill="#F4B033"></path>
                    <path d="M22.0974969,65.875 L23.6283956,65.875 C24.4911885,64.8125 23.6071184,63.7043125 23.2464688,62.9499375 C22.6826215,63.14225 22.2783536,63.6363125 21.7145062,63.8381875 C21.5559907,64.7519375 22.4166558,64.8125 22.0974969,65.875 L22.0974969,65.875 Z" id="Shape" fill="#000000"></path>
                    <path d="M79.9290857,40.899875 C79.4077928,44.5453125 83.0993972,43.1534375 84.5249735,43.5784375 C88.3878598,44.7153125 92.259257,47.9559375 91.4188053,53.9059375 C90.8645327,57.7946875 87.4505966,62.1403125 81.8440389,61.9395 C79.2375748,61.843875 77.7588053,59.41075 75.7161885,61.5580625 C81.2684891,66.2649375 89.1953318,62.9074375 91.8007321,58.1155625 C93.9603738,54.1311875 94.2901713,49.6049375 91.4188053,45.1105625 C89.503852,42.111125 83.9398489,38.0109375 79.9290857,40.899875 L79.9290857,40.899875 Z" id="Shape" fill="#E0383E"></path>
                    <path d="M80.6961308,44.724875 C80.1854766,45.458 80.9727352,46.2655 80.3131402,47.4034375 C87.2176106,46.318625 89.9623769,54.02175 86.0569361,58.1134375 C83.6111153,59.738 80.0578131,58.006125 78.3981869,58.1134375 C78.3332913,61.33175 83.1536542,60.9503125 84.909028,60.4084375 C92.3028754,58.133625 92.5784159,43.4084375 80.6961308,44.724875 L80.6961308,44.724875 Z" id="Shape" fill="#F05E51"></path>
                    <path d="M81.0780576,52.374875 C82.6844907,51.716125 82.9089657,51.716125 84.5249735,52.374875 C84.0781511,53.5871875 84.3239034,55.488 82.6100202,55.434875 C81.9504252,54.553 80.6535763,54.329875 81.0780576,52.374875 L81.0780576,52.374875 Z M80.3120763,49.3159375 C80.7482601,52.4184375 79.7163131,54.074875 79.546095,56.5834375 C87.4612352,62.203 89.5783224,46.191125 80.3120763,49.3159375 L80.3120763,49.3159375 Z" id="Shape" fill="#F4B033"></path>
                    <path d="M82.6100202,55.434875 C84.3228396,55.488 84.0781511,53.5871875 84.5249735,52.374875 C82.9079019,51.716125 82.6844907,51.716125 81.0780576,52.374875 C80.6535763,54.329875 81.9504252,54.553 82.6100202,55.434875 L82.6100202,55.434875 Z" id="Shape" fill="#000000"></path>
                    <path d="M16.7356277,51.227375 C10.0747819,52.714875 6.09699844,48.379875 3.71394548,44.342375 C1.7447352,33.4209375 8.28855607,29.1496875 18.2686542,29.0434375 C15.0440857,26.2596875 9.55561682,27.353 6.77787072,29.4259375 C5.4065514,30.444875 2.522419,34.0478125 2.18198287,35.5459375 C1.06599065,40.3803125 4.07672274,49.21925 7.16192523,51.2284375 C9.42688941,52.693625 14.5121542,54.1184375 16.7356277,51.227375 L16.7356277,51.227375 Z" id="Shape" fill="#E0383E"></path>
                    <path d="M16.3526371,49.3159375 C10.9269361,48.3490625 6.21508723,46.0859375 6.01188941,41.2834375 C5.77783956,35.587375 11.820581,33.558 16.7356277,31.7209375 C16.2888053,29.818 14.0536293,30.466125 12.9046573,30.5734375 C9.72370717,30.8603125 5.54272586,34.153 4.86185358,37.074875 C3.39372274,43.343625 6.87255452,47.6255 10.9907679,50.079875 C12.2035717,49.2405 15.6611262,51.9190625 16.3526371,49.3159375 L16.3526371,49.3159375 Z" id="Shape" fill="#F05E51"></path>
                    <path d="M15.5866558,47.019875 C7.30980218,47.81675 7.70343146,33.6855 15.5866558,34.397375 C12.0014377,33.3656875 9.40561215,36.628625 7.54385202,38.604875 C7.45874299,40.602375 7.55449065,42.41925 7.92577882,43.959875 C9.66200312,45.3315625 12.7684829,49.2628125 15.5866558,47.019875 L15.5866558,47.019875 Z" id="Shape" fill="#E0383E"></path>
                    <path d="M14.0546931,39.1425 C14.575986,39.6301875 14.575986,40.375 14.0546931,41.4375 L12.9057212,41.4375 C11.735472,40.375 12.4376215,39.2051875 14.0546931,39.1425 L14.0546931,39.1425 Z M15.2036651,35.927375 C8.75665576,35.8009375 9.75775078,45.30925 14.4376838,45.872375 C16.5771121,43.928 14.2249112,39.327375 15.2036651,35.927375 L15.2036651,35.927375 Z" id="Shape" fill="#F4B033"></path>
                    <path d="M12.9057212,41.4375 L14.0546931,41.4375 C14.575986,40.375 14.575986,39.6301875 14.0546931,39.1425 C12.4376215,39.2051875 11.735472,40.375 12.9057212,41.4375 L12.9057212,41.4375 Z" id="Shape" fill="#000000"></path>
                    <path d="M78.7258567,38.9884375 C87.2367601,35.566125 87.2750592,20.4159375 79.9014252,16.419875 C75.2842601,13.912375 66.4903692,14.188625 65.7446012,20.627375 C68.4361745,19.51175 70.3841075,17.1625625 73.3842009,17.1838125 C86.2782196,17.269875 87.2367601,31.858 78.7258567,37.457375 L78.7258567,38.9884375 L78.7258567,38.9884375 Z" id="Shape" fill="#E0383E"></path>
                    <path d="M67.2914579,22.539875 C71.8011729,20.36175 78.6630888,18.459875 81.0780576,24.0688125 C81.5887118,29.424875 80.3971854,33.06925 77.2481511,34.7788125 C77.4492212,35.088 77.652419,35.3950625 77.6300779,35.9263125 C80.3642056,35.36425 83.1515265,31.1344375 83.3749377,27.8938125 C83.9728287,19.182375 71.6735093,14.9525625 67.2914579,22.539875 L67.2914579,22.539875 Z" id="Shape" fill="#F05E51"></path>
                    <path d="M76.4821698,33.632375 C80.2705857,32.21925 81.2482757,25.4309375 78.3981869,22.5409375 C75.6225685,21.8184375 71.2171121,21.447625 68.8234206,23.6884375 C70.3447445,26.1003125 72.3235296,23.3165625 74.5682804,23.6884375 C76.6523879,24.0284375 77.7811464,25.5690625 78.0151963,27.1309375 C78.3652072,29.467375 75.9938567,31.3905 76.4821698,33.632375 L76.4821698,33.632375 Z" id="Shape" fill="#E0383E"></path>
                    <path d="M73.4193084,26.364875 C73.7161262,26.279875 74.1735872,26.35425 74.1852897,25.9834375 C75.3449003,26.2278125 75.9395997,27.0353125 75.7172523,28.6609375 C74.9927617,28.5759375 74.8650981,29.0859375 74.1852897,29.0434375 C73.3544128,28.7140625 73.3012196,27.62925 73.4193084,26.364875 L73.4193084,26.364875 Z M74.9502072,31.337375 C79.4407726,29.5109375 75.1948956,22.476125 71.1203006,25.9834375 C71.7798956,28.383625 74.004433,29.223 74.9502072,31.337375 L74.9502072,31.337375 Z" id="Shape" fill="#F4B033"></path>
                    <path d="M74.1842259,29.042375 C74.8650981,29.084875 74.9927617,28.574875 75.7161885,28.659875 C75.9385358,27.0353125 75.3427726,26.2278125 74.1842259,25.982375 C74.1725234,26.35425 73.7161262,26.2788125 73.4182445,26.3638125 C73.3012196,27.62925 73.3544128,28.7140625 74.1842259,29.042375 L74.1842259,29.042375 Z" id="Shape" fill="#000000"></path>
                    <path d="M20.5665981,24.8359375 C16.3526371,20.0228125 17.1196822,11.3528125 22.8634782,8.769875 C26.4699735,8.514875 29.4487897,7.8455 32.0552539,8.769875 C35.151095,9.8546875 34.8000202,12.96675 37.4181869,14.124875 C38.9703629,10.682375 35.3213131,7.664875 32.4382445,6.857375 C30.2786028,6.25175 26.4284829,6.432375 24.7784315,6.857375 C23.4592414,7.197375 21.9921745,7.643625 20.5665981,8.769875 C15.4057991,12.83925 13.4068006,22.82675 18.2686542,26.747375 C19.7899782,26.8653125 19.2995374,24.973 20.5665981,24.8359375 L20.5665981,24.8359375 Z" id="Shape" fill="#E0383E"></path>
                    <path d="M21.3315156,23.3059375 C22.4177196,22.858625 22.8634782,21.774875 24.013514,21.392375 C22.1091994,18.3100625 22.7475171,13.3588125 25.5454766,11.829875 C27.5029844,11.936125 28.8008972,11.73425 30.1413645,12.2113125 C32.1095109,12.9019375 32.682933,15.463625 34.3531978,14.889875 C36.3213442,13.997375 33.3850826,11.914875 33.2042259,10.682375 C29.4168738,9.1534375 23.7996776,9.18425 20.9485249,11.4484375 C19.0016558,14.316125 18.650581,20.967375 21.3315156,23.3059375 L21.3315156,23.3059375 Z" id="Shape" fill="#F05E51"></path>
                    <path d="M25.1614221,19.8634375 C25.9699579,19.51175 26.8646667,19.267375 27.459366,18.714875 C27.1082913,18.0338125 26.0444283,18.0763125 25.9274034,17.184875 C26.3742259,16.611125 26.2582648,15.47425 27.459366,15.654875 C29.0775016,15.8896875 28.8626012,16.5059375 28.6072741,17.949875 C30.0339143,17.716125 30.4913754,16.5059375 32.05419,16.4209375 C30.9807523,9.7250625 20.2357368,14.401125 25.1614221,19.8634375 L25.1614221,19.8634375 Z" id="Shape" fill="#F4B033"></path>
                    <path d="M64.6094595,18.714875 C65.6956636,10.098 62.1306589,6.1455 57.7166916,3.032375 C58.4603318,5.2838125 61.5040436,7.4938125 62.3115156,11.064875 C62.8008925,13.2005 62.3540701,15.251125 62.3115156,17.9488125 C63.1094128,18.162375 63.4083583,18.8955 64.6094595,18.714875 L64.6094595,18.714875 Z" id="Shape" fill="#E0383E"></path>
                    <path d="M61.5465981,17 C62.1317227,9.5625 58.7369361,3.4074375 52.3537586,3.3224375 C48.0983069,3.257625 42.8534626,6.77875 44.3109548,12.930625 C46.917419,10.05125 47.2142368,5.8809375 51.5877773,5.5940625 C57.9709548,5.1584375 59.5444081,11.6864375 60.3965623,16.9989375 L61.5465981,16.9989375 L61.5465981,17 Z" id="Shape" fill="#F05E51"></path>
                    <path d="M57.3326371,15.9375 L58.481609,15.9375 C60.6210374,6.375 46.8120966,4.587875 46.6099626,13.1186875 C49.7483583,12.3005625 50.1100717,8.663625 53.5027305,9.364875 C55.9613178,9.86425 56.9826262,11.6875 57.3326371,15.9375 L57.3326371,15.9375 Z" id="Shape" fill="#E0383E"></path>
                    <path d="M52.3537586,11.064875 C53.7155031,10.979875 54.3548847,11.6184375 54.2697757,12.977375 C52.88569,13.98675 51.2686184,12.3813125 52.3537586,11.064875 L52.3537586,11.064875 Z M55.4187477,14.889875 C55.4921542,13.413 55.4293863,12.0646875 55.035757,11.064875 C54.1208349,10.299875 51.481391,11.0425625 51.2047866,10.682375 C50.0770919,10.8321875 50.4611464,12.4769375 49.6738879,12.977375 C51.7367181,13.466125 53.1208037,14.634875 55.4187477,14.889875 L55.4187477,14.889875 Z" id="Shape" fill="#F4B033"></path>
                    <path d="M40.8640389,13.8125 L42.0130109,13.8125 C43.3545421,8.5 44.2577617,4.4699375 48.9057788,2.8761875 C50.0983692,2.462875 52.2154564,3.4053125 53.1197399,1.8434375 C45.3641791,1.884875 39.5874034,5.3125 40.8640389,13.8125 L40.8640389,13.8125 Z" id="Shape" fill="#E0383E"></path>
                    <path d="M54.2697757,12.977375 C54.3548847,11.6184375 53.7155031,10.979875 52.3537586,11.064875 C51.2686184,12.3813125 52.88569,13.98675 54.2697757,12.977375 L54.2697757,12.977375 Z" id="Shape" fill="#000000"></path>
                    <path d="M53.1208037,1.7286875 C52.2165202,3.2905625 50.099433,2.5755 48.9068427,2.9888125 C44.2588255,4.5825625 43.3545421,8.5 42.0130109,13.8125 L40.8640389,13.8125 C39.5874034,5.3125 45.3641791,1.7711875 53.1208037,1.7286875 L53.1208037,1.7286875 Z M49.672824,12.977375 C50.4600826,12.4769375 50.0770919,10.831125 51.2037227,10.682375 C51.4803271,11.043625 54.1187072,10.3009375 55.0346931,11.064875 C55.4283224,12.063625 55.4921542,13.413 55.4176838,14.889875 C53.1208037,14.634875 51.7367181,13.466125 49.672824,12.977375 L49.672824,12.977375 Z M53.5027305,9.29475 C50.1100717,8.5935 49.7483583,12.3728125 46.6099626,13.1909375 C46.8120966,4.6590625 60.6199735,6.375 58.481609,15.9375 L57.3326371,15.9375 C56.9826262,11.6875 55.9613178,9.7930625 53.5027305,9.29475 L53.5027305,9.29475 Z M60.3965623,17 C59.5444081,11.6875 57.9709548,5.1818125 51.5877773,5.6174375 C47.2153006,5.9043125 46.917419,10.05125 44.3109548,12.930625 C42.8534626,6.77875 48.0983069,3.2353125 52.3537586,3.2990625 C58.7369361,3.3840625 62.1306589,9.5625 61.5465981,17 L60.3965623,17 L60.3965623,17 Z M62.3115156,17.949875 C62.3540701,15.2521875 62.8008925,13.2005 62.3115156,11.0659375 C61.5029798,7.4959375 58.4603318,5.2859375 57.7166916,3.0334375 C62.1306589,6.1465625 65.6956636,10.098 64.6094595,18.7159375 C63.4083583,18.8955 63.1094128,18.162375 62.3115156,17.949875 L62.3115156,17.949875 Z M32.0552539,16.419875 C30.4913754,16.504875 30.0349782,17.716125 28.608338,17.9488125 C28.8636651,16.504875 29.0775016,15.888625 27.4604299,15.6538125 C26.2582648,15.4731875 26.3742259,16.6100625 25.9284673,17.1838125 C26.0454922,18.0763125 27.1093551,18.0338125 27.4604299,18.7138125 C26.8646667,19.2663125 25.9710218,19.5106875 25.162486,19.862375 C20.2357368,14.401125 30.9807523,9.7250625 32.0552539,16.419875 L32.0552539,16.419875 Z M20.9485249,11.447375 C23.7996776,9.1831875 29.4168738,9.152375 33.2042259,10.6813125 C33.3850826,11.9138125 36.3213442,13.9963125 34.3531978,14.8888125 C32.682933,15.4625625 32.1095109,12.9019375 30.1413645,12.21025 C28.7998333,11.7331875 27.5029844,11.934 25.5454766,11.8288125 C22.7464533,13.35775 22.1091994,18.3100625 24.013514,21.3913125 C22.8645421,21.77275 22.4177196,22.8575625 21.3315156,23.304875 C18.650581,20.967375 19.0016558,14.316125 20.9485249,11.447375 L20.9485249,11.447375 Z M18.2686542,26.747375 C13.4068006,22.82675 15.4068629,12.83925 20.5665981,8.769875 C21.9921745,7.643625 23.4592414,7.1984375 24.7784315,6.857375 C26.4284829,6.432375 30.2786028,6.25175 32.4382445,6.857375 C35.3213131,7.664875 38.9703629,10.682375 37.4181869,14.124875 C34.8000202,12.96675 35.151095,9.853625 32.0552539,8.769875 C29.4498536,7.8455 26.4699735,8.514875 22.8634782,8.769875 C17.1196822,11.3528125 16.3526371,20.02175 20.5665981,24.8359375 C19.2995374,24.973 19.7899782,26.8653125 18.2686542,26.747375 L18.2686542,26.747375 Z M71.1213645,25.9834375 C75.1959595,22.476125 79.4407726,29.5109375 74.951271,31.337375 C74.004433,29.223 71.7798956,28.383625 71.1213645,25.9834375 L71.1213645,25.9834375 Z M78.0151963,27.1309375 C77.7800826,25.568 76.6523879,24.0284375 74.5682804,23.6884375 C72.3235296,23.3165625 70.3436807,26.1003125 68.8234206,23.6884375 C71.2171121,21.447625 75.6225685,21.8184375 78.3981869,22.5409375 C81.2493396,25.432 80.2705857,32.21925 76.4821698,33.632375 C75.9938567,31.3905 78.3652072,29.467375 78.0151963,27.1309375 L78.0151963,27.1309375 Z M83.3760016,27.894875 C83.1525903,31.1355 80.3652695,35.36425 77.6311417,35.927375 C77.6534829,35.396125 77.450285,35.0890625 77.249215,34.779875 C80.3982492,33.0703125 81.5897757,29.4259375 81.0791215,24.069875 C78.6641526,18.459875 71.8022368,20.3628125 67.2925218,22.5409375 C71.6735093,14.9525625 83.9728287,19.182375 83.3760016,27.894875 L83.3760016,27.894875 Z M78.7258567,37.457375 C87.2367601,31.8569375 86.2846028,17.269875 73.391648,17.1838125 C70.3915545,17.1615 68.4372383,19.5106875 65.7446012,20.627375 C66.4893053,14.188625 75.2768131,13.9113125 79.8939782,16.419875 C87.268676,20.414875 87.2367601,35.566125 78.7258567,38.9884375 L78.7258567,37.457375 L78.7258567,37.457375 Z M14.4376838,45.872375 C9.75775078,45.30925 8.75665576,35.8009375 15.2036651,35.927375 C14.2249112,39.327375 16.5771121,43.928 14.4376838,45.872375 L14.4376838,45.872375 Z M7.92684268,43.9609375 C7.55449065,42.4203125 7.45980685,40.6034375 7.54491589,38.6059375 C9.40667601,36.6296875 12.0014377,33.36675 15.5877196,34.3984375 C7.70449533,33.6865625 7.31086604,47.8178125 15.5877196,47.0209375 C12.7684829,49.2628125 9.66200312,45.3315625 7.92684268,43.9609375 L7.92684268,43.9609375 Z M10.9918318,50.079875 C6.87361838,47.6244375 3.3947866,43.343625 4.86291745,37.074875 C5.54378972,34.153 9.72370717,30.85925 12.9057212,30.5734375 C14.0546931,30.466125 16.2898692,29.818 16.7366916,31.7209375 C11.8216449,33.558 5.77890343,35.587375 6.01295327,41.2834375 C6.21508723,46.0859375 10.928,48.348 16.3537009,49.3159375 C15.6611262,51.9190625 12.2035717,49.2405 10.9918318,50.079875 L10.9918318,50.079875 Z M7.16086137,51.227375 C4.07672274,49.2181875 1.06599065,40.37925 2.180919,35.544875 C2.52135514,34.04675 5.40548754,30.4438125 6.77680685,29.424875 C9.5534891,27.3519375 15.0430218,26.258625 18.2675903,29.042375 C8.28749221,29.1496875 1.7447352,33.419875 3.71288162,44.3413125 C6.09593458,48.379875 10.0737181,52.714875 16.7345639,51.2263125 C14.5121542,54.1184375 9.42688941,52.693625 7.16086137,51.227375 L7.16086137,51.227375 Z M79.546095,56.582375 C79.7163131,54.074875 80.7482601,52.417375 80.3120763,49.314875 C89.5783224,46.191125 87.4612352,62.203 79.546095,56.582375 L79.546095,56.582375 Z M84.909028,60.4084375 C83.1536542,60.9503125 78.3332913,61.33175 78.3981869,58.1134375 C80.0588769,58.006125 83.6111153,59.738 86.0569361,58.1134375 C89.9623769,54.02175 87.2176106,46.318625 80.3131402,47.4034375 C80.9727352,46.2665625 80.1854766,45.4590625 80.6961308,44.724875 C92.5784159,43.4084375 92.3028754,58.133625 84.909028,60.4084375 L84.909028,60.4084375 Z M91.4198692,45.1084375 C94.2912352,49.6028125 93.9625016,54.1290625 91.801796,58.1134375 C89.1963956,62.9053125 81.269553,66.2628125 75.7172523,61.5559375 C77.7598692,59.408625 79.2386386,61.8428125 81.8451028,61.937375 C87.4516604,62.1381875 90.8655966,57.793625 91.4198692,53.9038125 C92.259257,47.9538125 88.3878598,44.71425 84.5260374,43.5763125 C83.1004611,43.152375 79.4077928,44.5431875 79.9301495,40.89775 C83.9398489,38.0109375 89.503852,42.111125 91.4198692,45.1084375 L91.4198692,45.1084375 Z M20.9485249,60.4084375 C24.5018271,61.321125 24.6294907,65.656125 28.2253474,66.5284375 C25.2252539,71.436125 17.4271386,66.1778125 20.9485249,60.4084375 L20.9485249,60.4084375 Z M20.1825436,57.347375 C21.1400202,60.619875 18.3856791,61.183 18.6516449,64.232375 C18.9388879,67.57925 22.2687788,69.736125 25.5454766,69.5863125 C27.3636184,69.502375 28.8743037,67.1850625 30.5243551,68.822375 C23.7581869,79.0659375 8.58643769,62.1605 20.1825436,57.347375 L20.1825436,57.347375 Z M27.0763754,65.3809375 C23.1411464,61.7684375 17.6079953,53.4490625 16.3526371,47.784875 C13.9280935,36.788 18.2569517,27.2255 24.3965047,22.1584375 C30.8754299,16.8013125 40.9395732,12.4355 50.8228598,14.5063125 C60.8976417,16.6100625 65.1105389,21.25425 70.7383738,27.894875 C72.9405701,30.487375 75.5374595,33.356125 76.4821698,35.162375 C78.8130935,39.582375 80.834433,50.419875 78.3981869,55.434875 C77.0992103,58.1028125 72.8980156,64.4438125 71.1213645,66.144875 C67.4393349,69.651125 56.5783583,73.2944375 50.4398692,73.412375 C40.0778442,73.593 32.1297243,70.012375 27.0763754,65.3809375 L27.0763754,65.3809375 Z M62.6955701,71.499875 C65.9829065,71.213 67.8553053,69.513 69.9723925,68.057375 C75.813,73.7746875 63.5455966,79.43675 62.6955701,71.499875 L62.6955701,71.499875 Z M20.9485249,75.324875 C18.5005763,74.517375 12.6386916,68.886125 11.7556854,66.909875 C9.06517601,60.928 12.7461417,54.893 17.8845997,53.139875 C18.2143972,54.202375 18.7995218,55.031125 19.0325078,56.199875 C11.0120452,60.8855 15.7781511,75.69675 27.459366,73.029875 C29.4902804,72.318 30.9275592,69.6309375 33.203162,70.352375 C31.4169361,75.5905 25.7891012,76.918625 20.9485249,75.324875 L20.9485249,75.324875 Z M42.7789922,74.177375 C43.7268941,74.113625 44.364148,74.368625 44.6950093,74.9434375 C43.7683847,75.2834375 44.5354299,77.09925 45.0769361,77.2384375 C45.7897243,77.18425 46.3535717,76.9834375 46.6088988,76.472375 C46.715285,75.803 45.3854564,74.42175 46.9918894,74.559875 C47.5546729,74.878625 47.5450981,75.792375 47.7568069,76.472375 C47.4174346,77.279875 46.1195218,77.131125 46.2259081,78.3859375 C43.4279486,78.62925 42.6300514,76.8655 42.7789922,74.177375 L42.7789922,74.177375 Z M65.3754408,79.149875 C63.0987741,78.33175 61.6838364,75.6234375 60.779553,72.6484375 C62.3444953,73.4134375 62.3976885,74.88925 63.8445421,75.7084375 C67.2797555,77.6528125 72.1533115,76.3778125 72.6522632,72.2659375 C72.9501449,69.8221875 70.4607056,68.3984375 72.2703364,66.1459375 C78.5886184,71.329875 73.2490903,81.976125 65.3754408,79.149875 L65.3754408,79.149875 Z M40.8640389,73.7959375 C42.4279174,76.7284375 42.4066402,79.9159375 45.8439813,79.5334375 C48.4291682,79.2455 48.2376729,76.41925 50.0558146,74.559875 C53.5463489,85.2921875 35.1404564,82.07175 40.8640389,73.7959375 L40.8640389,73.7959375 Z M70.73731,82.592375 C68.3659595,82.9865625 64.0349735,82.178 61.9285249,80.6809375 C60.6635919,79.77675 56.8858146,75.1028125 58.8656636,73.412375 C61.4178707,77.471125 64.3966869,81.94425 70.3543193,80.6809375 C73.057595,80.0955 76.0789657,76.8771875 76.4821698,74.177375 C77.047081,70.437375 74.3874237,67.473 73.8012352,63.849875 C81.5036028,67.9521875 78.6950047,81.26425 70.73731,82.592375 L70.73731,82.592375 Z M37.0351963,72.264875 C39.9076262,72.9778125 37.875648,75.622375 38.1831044,76.854875 C39.6310218,82.70925 47.6844642,85.493 50.8228598,79.914875 C51.8324657,78.1203125 50.6100872,76.24925 53.1208037,74.559875 C56.0357882,89.84925 31.9595062,86.10925 37.0351963,72.264875 L37.0351963,72.264875 Z M56.9496464,79.149875 C56.4070763,82.3703125 52.4388676,86.4290625 50.4388053,87.1834375 C48.5132134,87.9059375 43.8428551,87.9378125 41.2470296,87.1834375 C39.7257056,86.7371875 36.7043349,84.942625 35.8851604,84.1234375 C33.2478442,81.4895 31.969081,73.9765625 35.1191791,71.5009375 C36.8851916,73.0946875 34.7138474,76.7815625 35.1191791,78.7684375 C35.8628193,82.4340625 40.7257368,85.473875 43.9269003,86.0359375 C50.8420093,87.237625 53.9484891,82.0728125 55.0336293,76.8559375 C55.1506542,76.2715625 54.6506386,74.1571875 56.1826012,74.177375 C57.4613645,75.431125 57.1847601,77.747375 56.9496464,79.149875 L56.9496464,79.149875 Z M57.7166916,78.0034375 C63.4392103,86.2909375 78.141796,85.7490625 79.5471589,74.177375 C79.9833427,70.55425 78.3769097,67.0490625 76.8662243,63.849875 C85.6537321,67.02675 93.9093084,61.342375 94.866785,53.904875 C95.1848801,51.3771875 93.8550514,45.8946875 91.4198692,43.194875 C89.3027819,40.8478125 85.8239502,38.8290625 81.8451028,38.6059375 C86.9090903,33.5909375 88.7495732,20.5859375 81.0780576,15.654875 C77.2385763,13.17925 70.4394283,13.3184375 66.142486,16.4209375 C68.1851028,-0.37825 41.0672368,-6.2740625 39.7161308,11.4484375 C37.1298801,7.2940625 32.0765312,4.6909375 25.9274034,5.327375 C21.3847087,5.794875 19.0016558,9.09925 16.3526371,11.064875 C14.8419517,15.591125 13.1610483,22.2955 15.9707103,25.9834375 C9.38539875,25.92925 1.99048754,29.743625 1.0330109,35.927375 C-0.231922118,44.066125 4.62993146,54.06425 13.2897757,53.904875 C12.0450561,55.4678125 10.3641526,59.8984375 9.4588053,63.0859375 C11.013109,69.8221875 15.5345265,73.5940625 20.9495888,76.4734375 C25.8114424,76.7390625 29.9711464,76.3034375 32.4393084,74.1784375 C27.8317181,90.646125 57.9496776,94.39675 57.7166916,78.0034375 L57.7166916,78.0034375 Z" id="Shape" fill="#000000"></path>
                </g>
            </g>
        </g>
    </g>
</svg>