<?xml version="1.0" standalone="no"?>
<!DOCTYPE svg PUBLIC "-//W3C//DTD SVG 1.1//EN" "http://www.w3.org/Graphics/SVG/1.1/DTD/svg11.dtd">
<svg xmlns="http://www.w3.org/2000/svg"><metadata>This SVG WebFont was generated by YouWorkForThem.
  2003 Bitstream Inc. &amp; Astigmatic. All Rights Reserved. Designed by Brian J. Bonislawsky. http://www.astigmatic.com/</metadata><defs><font horiz-adv-x="1705" id="ywftsvg"><font-face ascent="1638" bbox="-442.042 -528.002 2957 1827.5" cap-height="1454" descent="-410" font-family="" font-stretch="normal" font-weight="550" panose-1="2 0 6 5 3 0 0 2 0 4" underline-position="0" underline-thickness="0" unicode-range="U+0020-FB02" units-per-em="2048" x-height="942"/><missing-glyph horiz-adv-x="2048"/><glyph d="M831 37q0 -25 -19 -41t-44 -16t-45 16t-21 41v797h-426v-797q0 -25 -19 -41t-44 -16t-45 16t-21 41v797h-45q-104 0 -104 59q0 46 42 52q42 7 81 7h26v213q0 166 110 278t275 111q54 0 134 -22t79 -59q0 -19 -19 -39q-20 -20 -34 -20t-62 11q-48 12 -93 13 q-123 0 -192 -75t-69 -198v-213h492q25 0 44 -16t19 -41v-858zM856 1311q0 -33 -28 -58q-59 -53 -121 0q-29 25 -29 58t29 59t61 25q32 1 60 -25t28 -59z" glyph-name="uniFB01" horiz-adv-x="970" unicode="fi"/><glyph d="M276 1165v-213h211q23 0 43 -18t20 -41t-20 -41t-43 -18h-211v-797q0 -25 -19 -41t-44 -16t-45 16t-21 41v797h-45q-104 0 -104 59q0 46 42 52q42 7 81 7h26v213q1 172 107 281t278 108q53 0 115 -20t62 -61q-1 -19 -19 -37t-41 -19l-112 21q-129 0 -195 -71t-66 -202z M881 37q1 -25 -19 -41t-45 -16t-45 16t-20 41v1452q0 23 20 39t45 16t44 -15t20 -40v-1452z" glyph-name="uniFB02" horiz-adv-x="995" unicode="fl"/><glyph glyph-name=".notdef" horiz-adv-x="2048"/><glyph glyph-name="glyph1" horiz-adv-x="0"/><glyph glyph-name="glyph2" horiz-adv-x="681"/><glyph glyph-name="space" horiz-adv-x="798" unicode=" "/><glyph d="M330 47q0 -33 -30 -55t-60 -23q-30 0 -60 23q-30 24 -30 56t30 56t62 25q32 -1 60 -25t28 -57zM305 274q1 -25 -21 -41t-42 -16t-42 16t-22 41v1123q0 25 22 41t42 16t42 -16t21 -41v-1123z" glyph-name="exclam" horiz-adv-x="479" unicode="!"/><glyph d="M279 1151q0 -25 -22 -40t-42 -15t-43 15t-22 40v248q0 25 22 40q23 15 43 15t42 -15t22 -40v-248zM524 1151q0 -25 -22 -40t-41 -15q-20 0 -43 15t-23 40v248q0 25 23 40t43 15t42 -15t21 -40v-248z" glyph-name="quotedbl" horiz-adv-x="673" unicode="&quot;"/><glyph d="M973 862h-264l-95 -272h263zM1470 985l-43 -123h-311l-94 -272h330l-43 -123h-332l-166 -469h-145l168 469h-265l-168 -469h-143l166 469h-320l43 123h320l96 272h-342l43 123h344l168 471h146l-166 -471h260l168 471h143l-164 -471h307z" glyph-name="numbersign" horiz-adv-x="1574" unicode="#"/><glyph d="M1047 322q0 42 -38 78t-68 50t-83 37v-327q189 33 189 162zM360 967q0 -55 28 -103t58 -78q62 -59 287 -139v627q-157 -18 -265 -92t-108 -215zM794 1524q64 0 64 -78v-57q160 -13 294 -75t191 -186q5 -12 5 -26t-25 -30t-48 -17q-23 0 -44 31q-109 164 -373 188v-674 q229 -80 287 -174q29 -47 29 -104q0 -123 -92 -192t-224 -85v-115q0 -25 -19 -41t-43 -16t-43 17t-20 40v113q-86 8 -207 61t-120 119q0 19 20 35t38 16t54 -26q37 -26 43 -31q47 -31 172 -57v372q-71 25 -97 34q-129 44 -216 99q-88 55 -120 100q-67 96 -69 202 q0 188 152 297t350 125l-2 55q-1 80 63 80z" glyph-name="dollar" horiz-adv-x="1599" unicode="$"/><glyph d="M782 1051q0 104 -77 186q-78 82 -209 82t-211 -82t-80 -186q0 -103 80 -183t211 -80t209 79q77 80 77 184zM1858 383q0 104 -79 183t-210 79t-210 -79t-79 -183t79 -186t210 -82t210 82t79 186zM911 1051q1 -154 -121 -267q-122 -112 -294 -112t-296 112t-124 267 t124 269t296 114t294 -114t121 -269zM1642 1414q0 -20 -12 -36l-1083 -1384q-21 -27 -45 -27q-24 -1 -49 17t-25 36t12 35l1084 1385q36 49 94 10q24 -16 24 -36zM1985 383q0 -155 -122 -269t-294 -114t-295 115t-123 269t123 266t295 112t294 -112t122 -267z" glyph-name="percent" horiz-adv-x="2060" unicode="%"/><glyph d="M838 952q0 -70 -152 -69q-205 0 -344 -122t-139 -286q0 -165 139 -279t344 -114t344 115t139 279t-145 298q-106 -55 -162 -106t-96 -136q-25 -49 -57 -49q-72 0 -72 54q0 16 8 36q63 171 312 291q50 25 123 57t100 44q98 45 221 151q29 25 48 25q19 -1 44 -19t25 -38 t-25 -46q-94 -100 -356 -211q159 -165 159 -365t-182 -348t-428 -148t-429 149q-183 150 -183 360q0 158 107 291q108 133 282 195q-113 94 -113 219t102 208t236 82q60 0 152 -32t92 -80q0 -25 -24 -42q-24 -18 -34 -18q-13 -1 -74 28q-61 28 -112 28q-94 0 -152 -49 t-58 -120t58 -127t152 -57l84 13q18 0 42 -18t24 -44z" glyph-name="ampersand" horiz-adv-x="1517" unicode="&amp;"/><glyph d="M279 1151q0 -25 -22 -40t-42 -15t-43 15t-22 40v248q0 25 22 40q23 15 43 15t42 -15t22 -40v-248z" glyph-name="quotesingle" horiz-adv-x="428" unicode="'"/><glyph d="M506 -63q0 -25 -22 -42t-40 -17t-74 30t-114 110q-182 245 -182 732q0 211 59 426q33 119 100 216q68 97 162 150q33 16 49 16t39 -18t23 -43t-20 -37t-37 -22q-18 -10 -23 -13q-92 -55 -145 -192t-65 -252t-13 -240q0 -537 184 -702q31 -25 75 -51t44 -51z" glyph-name="parenleft" horiz-adv-x="530" unicode="("/><glyph d="M400 1176q59 -219 59 -445q0 -225 -57 -446q-32 -125 -99 -230q-68 -104 -164 -161q-52 -31 -91 1q-22 17 -21 42q0 25 44 51t74 51q184 166 185 702q0 125 -13 240q-12 115 -65 252t-146 192q-3 3 -51 29q-29 18 -28 43q0 25 22 43q23 18 40 18t50 -16q94 -51 162 -149 t99 -217z" glyph-name="parenright" horiz-adv-x="555" unicode=")"/><glyph d="M952 1196q0 -33 -47 -49l-289 -96l261 -265q16 -16 16 -38t-24 -37q-51 -34 -89 6l-268 276l-268 -276q-23 -23 -45 -23t-45 16t-23 40q0 22 14 36l261 267l-283 88q-47 16 -47 51q0 23 18 39t39 20l316 -96v221q0 25 21 41q43 31 84 0q22 -16 21 -41v-219l322 98 q19 -4 37 -20t18 -39z" glyph-name="asterisk" horiz-adv-x="1028" unicode="*"/><glyph d="M1452 553h-539v-553h-118v553h-541v117h541v551h118v-551h539v-117z" glyph-name="plus" unicode="+"/><glyph d="M334 29q0 -43 -39 -95t-69 -51q-58 0 -58 45q0 8 20 29l27 27q-66 25 -65 67q0 33 30 53q73 47 126 -6q28 -26 28 -69z" glyph-name="comma" horiz-adv-x="483" unicode=","/><glyph d="M631 471q0 -27 -22 -46t-44 -19h-424q-23 0 -45 19t-20 46q0 27 21 46q22 19 44 20h424q23 1 45 -19t21 -47z" glyph-name="hyphen" horiz-adv-x="706" unicode="-"/><glyph d="M330 63q0 -33 -31 -57q-60 -45 -120 1q-29 25 -29 57t30 55q59 44 119 0q31 -23 31 -56z" glyph-name="period" horiz-adv-x="479" unicode="."/><glyph d="M948 1409q0 -8 -598 -1057l-198 -350q-18 -33 -48 -33q-30 -1 -54 15t-23 41l796 1407q20 34 49 34q28 0 52 -16t24 -41z" glyph-name="slash" horiz-adv-x="972" unicode="/"/><glyph d="M1411 713q0 235 -148 424q-73 92 -194 148t-271 56t-270 -56q-122 -56 -192 -149q-146 -193 -146 -423t147 -423q71 -94 191 -150t271 -56t271 56q219 102 303 350q38 110 38 223zM1540 713q0 -189 -86 -357t-259 -278t-396 -111q-223 0 -396 111q-172 110 -257 278 t-85 356t85 357q85 168 257 279q171 110 395 110t397 -110t259 -279q86 -168 86 -356z" glyph-name="zero" horiz-adv-x="1599" unicode="0"/><glyph d="M952 37q0 -25 -22 -41t-41 -16q-20 0 -42 16t-22 41v1270q-332 -127 -355 -127t-45 17t-22 46t62 57q63 28 229 88t196 60q62 0 62 -55v-1356z" glyph-name="one" horiz-adv-x="1599" unicode="1"/><glyph d="M356 0q-63 0 -63 108q0 52 33 147q64 183 206 293t318 200q177 90 208 123t59 63q50 54 50 131q0 137 -119 210q-120 73 -303 73q-98 0 -177 -41t-155 -118q-11 -11 -31 -11t-44 17q-25 17 -25 37q0 29 21 46q21 18 26 25q180 161 393 161t379 -105t164 -294 q0 -112 -55 -180q-41 -56 -78 -83l-53 -40q-40 -30 -121 -68q-153 -73 -259 -138q-184 -114 -250 -248q-42 -85 -54 -191h821q20 1 42 -17t22 -43t-22 -41t-42 -16h-891z" glyph-name="two" horiz-adv-x="1599" unicode="2"/><glyph d="M1022 1112q0 98 -72 167t-200 69q-86 0 -150 -29t-118 -65q-56 -36 -70 -37q-14 0 -40 17t-26 42t55 63q183 125 351 125t282 -102t115 -252q0 -80 -49 -152t-131 -118q352 -100 352 -387q0 -215 -170 -349t-420 -135q-109 -1 -239 55t-211 132q-21 20 -21 42t24 38 t42 16t73 -43q162 -123 332 -123q211 0 337 100t126 258t-139 236t-336 78l-72 -2q-20 0 -42 15t-21 40q0 51 96 66q126 16 234 77q108 60 108 158z" glyph-name="three" horiz-adv-x="1599" unicode="3"/><glyph d="M1495 541q1 -25 -21 -41t-42 -17h-392v-456q0 -25 -22 -41q-42 -31 -84 0q-23 16 -23 41v456h-739q-63 0 -63 47q0 18 392 436t464 480q27 20 46 20t43 -17t24 -39t-17 -38l-748 -776h598v453q0 25 23 43t43 18t42 -17t21 -44v-453h392q20 0 42 -15t21 -40z" glyph-name="four" horiz-adv-x="1599" unicode="4"/><glyph d="M1384 543q0 -250 -170 -412t-454 -162q-125 1 -283 63t-239 150q-20 20 -20 42t28 42q29 20 48 10q20 -10 28 -16t21 -15t17 -14q190 -145 418 -145t355 128t127 329q0 151 -154 259t-350 107q-152 0 -363 -75q-25 -8 -38 -8t-31 16t-19 43v491q0 25 23 41t41 17h688 q20 0 43 -16q22 -16 22 -42q0 -25 -22 -42t-43 -17h-623v-346q178 53 322 53q238 0 433 -139t195 -342z" glyph-name="five" horiz-adv-x="1599" unicode="5"/><glyph d="M1485 484q0 -148 -94 -272q-93 -124 -235 -183t-302 -60q-346 0 -536 198q-189 198 -189 544q0 309 222 531t532 222q111 0 241 -40t191 -109q16 -16 16 -40q1 -24 -21 -41t-38 -17q-22 0 -51 23q-136 107 -338 108q-263 0 -445 -186t-182 -468t150 -445t448 -163 q204 0 354 108t150 304q0 154 -157 259t-313 105t-288 -53q-131 -53 -176 -174q-20 -78 -47 -92q-12 -6 -29 -6q-59 0 -59 61q0 41 10 64q43 110 141 184q174 130 443 131q129 0 266 -59t237 -173q100 -113 99 -261z" glyph-name="six" horiz-adv-x="1599" unicode="6"/><glyph d="M553 36q0 26 661 1281h-925q-20 0 -43 17t-23 42t23 41t43 17h1024q23 0 45 -12t22 -38t-528 -1034l-176 -336q-31 -61 -99 -19q-24 15 -24 41z" glyph-name="seven" horiz-adv-x="1599" unicode="7"/><glyph d="M1300 421q0 165 -141 251t-356 86t-359 -86t-143 -250q0 -164 144 -250q145 -86 359 -86t355 85t141 250zM1124 1108q0 100 -93 170t-224 70t-225 -70t-94 -169t94 -165t225 -66t224 66q93 64 93 164zM1430 420q0 -215 -186 -333t-441 -118q-353 0 -536 202 q-95 105 -95 251t96 254q96 109 264 160q-174 111 -174 265q0 155 140 259t309 104q170 0 307 -103t137 -258t-178 -267q165 -51 261 -161t96 -255z" glyph-name="eight" horiz-adv-x="1599" unicode="8"/><glyph d="M1477 692q0 -190 -110 -359t-284 -266t-362 -98q-113 0 -236 40t-194 112q-19 18 -19 40t22 39t40 17t67 -37q135 -94 320 -94q246 0 436 181t191 425q0 195 -54 330q-131 326 -544 326q-206 0 -354 -108t-148 -304q0 -154 156 -259t311 -105q156 0 295 56 q139 57 177 197q15 55 42 67q12 5 28 5q59 0 60 -70q0 -29 -10 -55q-66 -162 -229 -238t-357 -77q-129 0 -266 59t-237 173q-99 113 -99 261t95 272q94 124 236 183t300 59q360 0 544 -205t183 -567z" glyph-name="nine" horiz-adv-x="1599" unicode="9"/><glyph d="M330 63q0 -33 -31 -57q-60 -45 -120 1q-29 25 -29 57t30 55q59 44 119 0q31 -23 31 -56zM330 670q0 -33 -31 -57q-58 -45 -119 0q-31 24 -30 57q0 34 30 56t60 22t60 -22t30 -56z" glyph-name="colon" horiz-adv-x="479" unicode=":"/><glyph d="M334 36q0 -44 -38 -98t-79 -55q-21 -1 -35 13t-14 30t22 39q22 22 23 25q-63 24 -63 64t30 63q31 23 66 23q36 0 62 -30t26 -74zM330 670q0 -33 -31 -57q-60 -46 -120 0q-30 24 -29 57q0 34 30 56t60 22t60 -22t30 -56z" glyph-name="semicolon" horiz-adv-x="483" unicode=";"/><glyph d="M1442 76l-1178 483v103l1178 483v-127l-1000 -408l1000 -405v-129z" glyph-name="less" unicode="&lt;"/><glyph d="M1452 360h-1198v117h1198v-117zM1452 743h-1198v117h1198v-117z" glyph-name="equal" unicode="="/><glyph d="M1442 559l-1178 -483v129l1000 405l-1000 408v127l1178 -483v-103z" glyph-name="greater" unicode=">"/><glyph d="M647 47q0 -33 -30 -55q-29 -22 -59 -23q-30 0 -60 23q-30 24 -31 56q0 32 31 56q32 24 62 25q30 -1 58 -25t29 -57zM1120 1033q0 -181 -137 -291t-360 -140v-328q0 -25 -22 -41t-42 -16t-43 16t-22 41v381q0 43 77 64q25 8 83 19q184 35 261 104t77 197t-130 218 q-129 90 -303 91q-111 0 -212 -42t-147 -106t-72 -65q-27 0 -52 16q-25 15 -25 37t41 72q78 94 207 149t260 55q211 0 386 -125t175 -306z" glyph-name="question" horiz-adv-x="1193" unicode="?"/><glyph d="M1055 905q-145 0 -243 -131t-99 -328q0 -113 52 -171t148 -58t179 70q82 70 110 186l60 242q-18 92 -74 141t-133 49zM1116 1458q345 0 559 -168q262 -207 262 -512q0 -166 -62 -307t-191 -245t-304 -105q-198 0 -198 155l2 3v20q-109 -178 -297 -178q-154 0 -234 86 t-80 246q-1 231 137 390t326 159t256 -158l58 121h110l-141 -568q-12 -48 -12 -80q0 -90 110 -90q90 0 203 88q90 78 140 200t50 251q0 266 -196 428t-526 162q-331 0 -564 -205q-284 -252 -282 -637q0 -341 247 -534q212 -168 549 -168t617 188l45 -66q-302 -219 -675 -220 t-609 184q-305 231 -303 624q0 330 200 578q139 170 345 264t458 94z" glyph-name="at" horiz-adv-x="2048" unicode="@"/><glyph d="M1178 512l-428 750l-385 -750h813zM1591 30q-1 -18 -23 -34t-52 -16t-48 34l-225 383h-940l-205 -383q-18 -34 -48 -34t-52 16t-23 39q0 10 541 1038l178 340q27 43 58 43t57 -41q782 -1367 782 -1385z" glyph-name="A" horiz-adv-x="1566" unicode="A"/><glyph d="M723 117q186 -1 307 95t121 244t-125 232t-319 84h-431v-655h447zM903 1099q0 128 -89 173t-267 45h-271v-426h287q176 0 258 40t82 168zM1280 453q0 -195 -166 -324t-391 -129h-510q-18 0 -42 16t-24 41v1319q0 25 24 41t42 17h334q483 0 483 -336q0 -156 -108 -240 q168 -50 263 -154t95 -251z" glyph-name="B" horiz-adv-x="1339" unicode="B"/><glyph d="M1436 125q0 -27 -31 -47q-84 -51 -216 -79t-245 -28q-231 1 -435 101t-326 272t-122 373t122 373t326 272t435 100q100 0 225 -24t201 -66q37 -24 37 -50t-23 -44t-36 -18t-33 8q-199 78 -371 78q-317 0 -535 -186q-219 -186 -219 -443t218 -443t536 -186q164 0 356 73 q72 27 82 27t32 -18t22 -45z" glyph-name="C" horiz-adv-x="1484" unicode="C"/><glyph d="M1464 721q0 244 -207 420t-507 176h-474v-1200h474q302 0 508 180t206 424zM1591 721q0 -291 -252 -506t-589 -215h-537q-18 0 -42 16t-24 41v1319q0 25 24 41t42 17h537q340 0 590 -211t251 -502z" glyph-name="D" horiz-adv-x="1652" unicode="D"/><glyph d="M1184 57q0 -25 -20 -41t-42 -16h-909q-18 0 -42 16t-24 41v1319q0 25 24 41t42 17h909q20 0 40 -16t22 -42q0 -25 -20 -42t-42 -17h-846v-518h642q20 -1 42 -17t21 -41q0 -25 -22 -42t-41 -17h-642v-565h846q20 1 41 -17t21 -43z" glyph-name="E" horiz-adv-x="1234" unicode="E"/><glyph d="M1098 1376q0 -25 -23 -42t-43 -17h-756v-518h642q20 -1 42 -17t21 -41q0 -25 -22 -42t-41 -17h-642v-645q0 -25 -22 -41t-41 -16q-20 0 -43 16t-23 41v1339q0 25 24 41t42 17h819q20 0 43 -16t23 -42z" glyph-name="F" horiz-adv-x="1099" unicode="F"/><glyph d="M1604 246q0 -20 -19 -39q-101 -109 -287 -172q-423 -144 -789 37q-204 100 -326 272t-122 373t122 373t326 272t435 100q129 0 271 -37t243 -102q31 -18 31 -44t-23 -43t-37 -17t-38 12q-219 115 -447 115q-317 0 -535 -186q-219 -186 -219 -443t218 -443t534 -186 q315 0 533 178v412h-381q-20 0 -42 17t-22 42t22 41t42 17h446q18 -1 41 -17t23 -41v-491z" glyph-name="G" horiz-adv-x="1701" unicode="G"/><glyph d="M1337 37q1 -25 -21 -41t-42 -16t-42 16t-22 41v645h-934v-645q0 -25 -22 -41t-41 -16q-20 0 -43 16t-23 41v1360q0 25 23 41t43 16t42 -16t21 -41v-598h934v598q0 25 22 41t42 16t42 -16t21 -41v-1360z" glyph-name="H" horiz-adv-x="1484" unicode="H"/><glyph d="M276 37q0 -25 -22 -41t-41 -16q-20 0 -43 16t-23 41v1360q0 25 23 41t43 16t42 -16t21 -41v-1360z" glyph-name="I" horiz-adv-x="423" unicode="I"/><glyph d="M276 113q0 -174 -126 -291t-330 -154h-2q-11 -11 -38 11q-28 22 -28 51t41 43q12 6 74 20q281 76 280 320v1284q0 25 23 41t43 16t42 -16t21 -41v-1284z" glyph-name="J" horiz-adv-x="423" unicode="J"/><glyph d="M1329 32q1 -20 -23 -36t-48 -16t-46 24l-682 787l-254 -248v-506q0 -25 -22 -41t-41 -16q-20 0 -43 16t-23 41v1360q0 25 23 41t43 16t42 -16t21 -41v-697l750 734q40 40 89 5q24 -17 24 -39t-17 -38l-506 -490l699 -800q14 -20 14 -40z" glyph-name="K" horiz-adv-x="1302" unicode="K"/><glyph d="M1055 57q0 -25 -22 -41t-42 -16h-778q-18 0 -42 16t-24 41v1340q0 25 23 41t43 16t42 -16t21 -41v-1280h715q20 1 42 -17t22 -43z" glyph-name="L" horiz-adv-x="1044" unicode="L"/><glyph d="M1937 37q1 -25 -21 -41t-42 -16t-43 16t-23 41v1186l-708 -1014q-25 -33 -57 -33t-54 33l-713 1003v-1175q0 -25 -22 -41t-41 -16q-20 0 -43 16t-23 41v1352q-1 29 19 47t55 18t60 -37l763 -1079l760 1079q28 37 60 37t52 -19t21 -46v-1352z" glyph-name="M" horiz-adv-x="2084" unicode="M"/><glyph d="M1415 47q0 -27 -18 -46t-52 -19t-63 32l-1006 1227v-1204q0 -25 -22 -41t-41 -16q-20 0 -43 16t-23 41v1349q1 30 21 48t53 18t68 -43l997 -1216v1204q0 25 22 41t42 16t43 -16t22 -41v-1350z" glyph-name="N" horiz-adv-x="1560" unicode="N"/><glyph d="M1696 717q0 256 -217 442q-217 187 -535 187t-535 -186q-219 -186 -219 -443t218 -443t536 -186q317 0 535 186q217 187 217 443zM1825 717q0 -201 -121 -373t-325 -272t-435 -100t-435 100t-326 272t-122 373t122 373t326 272t435 100t435 -100t325 -272t121 -373z" glyph-name="O" horiz-adv-x="1886" unicode="O"/><glyph d="M672 662q174 0 280 93t107 239q0 146 -96 235q-96 88 -291 88h-396v-655h396zM672 1434q232 0 374 -122t142 -316t-153 -324q-153 -129 -363 -129h-396v-506q0 -25 -22 -41t-41 -16q-20 0 -43 16t-23 41v1339q0 25 24 41t42 17h459z" glyph-name="P" horiz-adv-x="1249" unicode="P"/><glyph d="M1696 717q0 256 -217 442q-217 187 -535 187t-535 -186q-219 -186 -219 -443t218 -443t536 -186q170 0 365 90l-328 285q-20 20 -20 41t24 39q25 18 43 18t45 -22l346 -301q277 194 277 479zM1825 736q0 -357 -314 -576q121 -94 121 -123t-22 -46q-46 -36 -88 1l-117 104 q-250 -125 -471 -125q-221 1 -425 101t-326 272t-122 373t122 373t326 272t435 100t435 -100t325 -272t121 -354z" glyph-name="Q" horiz-adv-x="1886" unicode="Q"/><glyph d="M627 684q159 0 281 76t122 237q0 160 -112 240q-113 80 -291 80h-351v-633h351zM1202 36q0 -24 -22 -40t-50 -16q-30 0 -51 32l-346 566q-47 -8 -106 -9h-351v-532q0 -25 -19 -41t-44 -16t-45 16t-21 41v1339q0 20 22 38t44 20h414q223 0 378 -116t154 -331 q0 -139 -82 -233t-221 -144q346 -550 346 -574z" glyph-name="R" horiz-adv-x="1275" unicode="R"/><glyph d="M1212 398q0 -124 -99 -226t-231 -152t-262 -49q-130 0 -288 76t-234 182q-10 14 -10 34t22 36t44 16t38 -13q15 -13 39 -42q75 -78 181 -125t206 -47q230 0 388 143q82 76 81 172q0 97 -54 159t-140 92t-275 63t-295 73q-214 82 -214 285q0 133 89 224q159 163 453 163 q98 0 222 -36t178 -93q16 -16 16 -38q1 -22 -21 -40t-40 -18t-52 23q-127 86 -291 86t-283 -54q-65 -29 -104 -84q-38 -55 -38 -134t54 -129t139 -74t189 -41q257 -42 399 -106q85 -40 139 -121t54 -205z" glyph-name="S" horiz-adv-x="1300" unicode="S"/><glyph d="M1343 1376q-1 -25 -23 -42t-42 -17h-551v-1280q-1 -25 -23 -41t-42 -16t-41 16q-20 16 -21 41v1280h-559q-20 0 -43 17t-23 42t23 41t43 17h1237q20 0 42 -16t23 -42z" glyph-name="T" horiz-adv-x="1316" unicode="T"/><glyph d="M1440 547q0 -256 -171 -417t-467 -161t-477 160t-182 418v850q0 25 22 41t42 16t43 -16t22 -41v-850q0 -209 136 -335t393 -126q256 0 383 126t127 335v850q0 25 21 41q22 16 42 16t43 -16t23 -41v-850z" glyph-name="U" horiz-adv-x="1581" unicode="U"/><glyph d="M1626 1402q0 -34 -516 -992l-172 -320q-2 -4 -16 -33q-40 -83 -82 -86q-42 0 -85 81q-15 28 -18 32q-749 1290 -749 1312t22 39t52 17t49 -35l727 -1257l665 1257q19 35 49 35t52 -16t22 -34z" glyph-name="V" horiz-adv-x="1611" unicode="V"/><glyph d="M2355 1402q0 -18 -307 -660q-307 -640 -356 -726q-25 -45 -62 -45t-57 41l-383 717l-359 -715q-20 -43 -57 -43t-61 41q-725 1358 -725 1383t22 41t52 16t49 -35l663 -1249l346 696q-274 500 -274 528t22 44t52 16t49 -35l219 -413l213 411q18 37 49 37q32 0 54 -16 t22 -36t-128 -272q-128 -251 -134 -264l368 -690l598 1239q18 39 50 39t54 -16q21 -16 21 -34z" glyph-name="W" horiz-adv-x="2342" unicode="W"/><glyph d="M1466 32q0 -20 -24 -37q-57 -40 -94 9l-643 791l-650 -791q-21 -27 -45 -27q-24 -1 -49 17q-45 32 -12 74l676 821l-392 479q-12 12 -12 33t25 38q26 17 50 17t44 -26l365 -447l364 447q35 48 92 9q25 -17 25 -39t-10 -32l-394 -479l672 -823q12 -14 12 -34z" glyph-name="X" horiz-adv-x="1400" unicode="X"/><glyph d="M1282 1402q0 -20 -12 -34l-572 -706v-625q0 -25 -22 -41t-41 -16q-20 0 -42 16t-22 41v625l-571 706q-12 12 -12 33t24 38t50 17q24 0 44 -26l529 -658l528 658q36 48 94 9q25 -17 25 -37z" glyph-name="Y" horiz-adv-x="1267" unicode="Y"/><glyph d="M1354 57q0 -25 -22 -41t-42 -16h-1145q-20 0 -45 12q-24 12 -24 34t16 44l1036 1227h-944q-20 0 -42 17t-21 42q0 25 21 41q22 16 42 17h1069q20 0 45 -12t25 -36q0 -22 -14 -40l-1037 -1229h1018q20 1 42 -17t22 -43z" glyph-name="Z" horiz-adv-x="1427" unicode="Z"/><glyph d="M473 -66q1 -24 -21 -40t-42 -17h-197q-18 1 -42 17t-24 40v1565q0 25 24 41t42 16h197q20 0 42 -16t22 -41t-22 -42t-42 -17h-134v-1446h134q20 0 42 -18t21 -42z" glyph-name="bracketleft" horiz-adv-x="546" unicode="["/><glyph d="M948 25q0 -25 -24 -40t-52 -15q-30 0 -49 32l-796 1407q0 25 23 41q24 16 52 16t50 -34q796 -1382 796 -1407z" glyph-name="backslash" horiz-adv-x="972" unicode="\"/><glyph d="M399 -66q-1 -24 -23 -40t-40 -17h-197q-20 1 -43 17q-22 16 -22 40t22 42q23 17 43 18h131v1446h-131q-20 0 -43 17t-22 42q0 25 22 41q23 16 43 16h197q18 0 41 -16t22 -41v-1565z" glyph-name="bracketright" horiz-adv-x="546" unicode="]"/><glyph d="M1624 901h-158l-442 438l-442 -438h-160l520 557h162z" glyph-name="asciicircum" horiz-adv-x="2048" unicode="^"/><glyph d="M1024 -483h-1024v118h1024v-118z" glyph-name="underscore" horiz-adv-x="1024" unicode="_"/><glyph d="M649 1077q0 -21 -19 -35t-40 -14t-37 14l-234 187q-18 15 -18 33q1 18 21 33q43 31 75 1l236 -186q16 -13 16 -33z" glyph-name="grave" horiz-adv-x="1193" unicode="`"/><glyph d="M1034 295v336q0 53 -47 95q-77 69 -251 96q-65 11 -111 12q-175 0 -313 -106t-138 -273t138 -265t313 -98q107 0 211 33q198 63 198 170zM1102 946q23 0 42 -17t19 -40v-852q0 -23 -19 -40t-42 -17q-66 0 -66 77q0 9 1 25t1 24q-164 -131 -413 -131q-137 1 -269 57 t-221 169q-90 113 -90 254q0 213 181 354t416 141t396 -131l-2 49q0 78 66 78z" glyph-name="a" horiz-adv-x="1267" unicode="a"/><glyph d="M1108 459q0 169 -138 277t-313 108q-115 0 -215 -33q-194 -64 -194 -170v-362q0 -135 299 -179q61 -8 110 -8q174 0 313 99q138 100 138 268zM117 37v1452q0 25 19 40t44 15t44 -16t20 -41v-658q174 133 403 133t409 -144q180 -146 179 -359q0 -143 -89 -257t-219 -170 t-252 -56t-238 30q-116 31 -193 86l2 -41q0 -72 -66 -71q-25 0 -44 16t-19 41z" glyph-name="b" horiz-adv-x="1277" unicode="b"/><glyph d="M973 211q13 0 35 -16t22 -40t-24 -44q-72 -59 -181 -97t-200 -39q-231 -1 -405 147t-175 349q0 201 174 340t406 139q82 0 178 -24t158 -66q29 -18 29 -44t-24 -43q-22 -17 -35 -17t-38 10q-141 68 -268 68q-193 0 -322 -106t-129 -258q0 -154 129 -266t322 -112 q115 0 225 60q16 8 41 22t47 26t35 11z" glyph-name="c" horiz-adv-x="1067" unicode="c"/><glyph d="M1034 297v342q0 53 -47 96t-152 76t-210 33q-175 0 -313 -108t-138 -276t138 -267q138 -100 313 -101q105 0 210 33q199 63 199 172zM1163 37q0 -23 -19 -40t-42 -17q-66 0 -66 79q0 9 1 25t1 25q-178 -133 -413 -134q-139 -1 -271 57t-220 172q-89 114 -89 257 q0 213 181 357t399 145q106 0 222 -35t191 -97v658q0 25 20 40t44 15q25 0 43 -15t18 -40v-1452z" glyph-name="d" horiz-adv-x="1277" unicode="d"/><glyph d="M631 836q-127 0 -238 -52t-174 -153h811q-129 205 -399 205zM1190 562q0 -16 -20 -32t-44 -16h-948q-4 -37 -4 -53q0 -167 143 -269t318 -102q229 0 352 139q6 6 27 31q42 49 85 14t17 -77q-70 -105 -206 -163q-273 -118 -544 -2q-134 56 -228 171q-93 115 -93 256 q0 221 175 356q174 135 386 135t366 -95t216 -269q2 -8 2 -24z" glyph-name="e" horiz-adv-x="1228" unicode="e"/><glyph d="M745 1473q0 -19 -19 -39q-20 -20 -34 -20t-62 11q-48 12 -93 13q-123 0 -192 -75t-69 -198v-213h211q23 0 43 -18t20 -41t-20 -41t-43 -18h-211v-797q0 -25 -19 -41t-44 -16t-45 16t-21 41v797h-45q-104 0 -104 59q0 46 42 52q42 7 81 7h26v213q0 166 110 278t275 111 q55 0 134 -21t79 -60z" glyph-name="f" horiz-adv-x="536" unicode="f"/><glyph d="M1034 281v354q0 53 -47 95q-79 71 -250 95q-63 10 -112 11q-175 0 -313 -100t-138 -269q0 -168 139 -279t312 -110q115 0 215 33q194 64 194 170zM1163 -63q0 -463 -618 -463q-25 0 -45 16t-21 41q1 25 21 42t45 17q289 0 392 88t101 259v155q-170 -127 -400 -127 q-230 1 -412 145t-181 357q0 143 89 257t220 170t252 56t236 -35t192 -94v37q0 43 12 66q12 22 46 22q33 0 52 -16t19 -41v-952z" glyph-name="g" horiz-adv-x="1277" unicode="g"/><glyph d="M963 37q-1 -25 -21 -41t-45 -16t-44 16t-19 41v581q0 215 -326 216q-80 0 -151 -33t-99 -99q-14 -35 -14 -45v-620q0 -25 -20 -41t-44 -16q-25 0 -44 16t-19 41v1452q0 25 19 40t44 15t44 -15t20 -40v-625q38 41 118 65q167 51 359 -6q98 -30 170 -109t72 -196v-581z" glyph-name="h" horiz-adv-x="1067" unicode="h"/><glyph d="M244 37q0 -25 -22 -41t-42 -16t-42 16t-21 41v862q0 25 21 41q22 16 42 16t42 -16t22 -41v-862zM268 1309q0 -35 -28 -59q-59 -49 -119 0q-29 24 -29 59t29 59t59 23q30 1 60 -23q28 -24 28 -59z" glyph-name="i" horiz-adv-x="360" unicode="i"/><glyph d="M244 -63q0 -463 -621 -463q-20 0 -43 17t-22 42q0 25 22 41q23 16 43 16q252 0 373 76t121 271v956q0 27 21 44q22 17 42 17t42 -17t22 -44v-956zM279 1309q0 -35 -29 -60q-59 -51 -120 0q-30 25 -30 60t29 59t61 23q32 1 60 -23q29 -24 29 -59z" glyph-name="j" horiz-adv-x="360" unicode="j"/><glyph d="M969 34q0 -22 -22 -39q-23 -17 -49 -17t-46 30l-401 586l-207 -188v-369q0 -25 -20 -41t-44 -16q-25 0 -44 16t-19 41v1452q0 25 19 40t44 15t44 -15t20 -40v-924l399 369q43 43 88 6q23 -18 23 -38t-21 -42l-192 -182l422 -615q6 -7 6 -29z" glyph-name="k" horiz-adv-x="978" unicode="k"/><glyph d="M244 37q0 -25 -22 -41t-42 -16t-42 16t-21 41v1452q0 25 21 40q22 15 42 15t42 -15t22 -40v-1452z" glyph-name="l" horiz-adv-x="360" unicode="l"/><glyph d="M1628 37q0 -23 -19 -40t-43 -17t-44 16t-21 41v584q0 135 -92 178q-74 33 -195 34q-120 1 -198 -55t-78 -157v-584q0 -25 -20 -41t-46 -16t-44 17q-19 17 -19 40v584q0 134 -83 173q-83 38 -204 39q-122 1 -200 -53t-78 -159v-584q0 -23 -20 -40t-44 -17q-25 0 -44 17 t-19 40v852q0 23 19 40t46 17t43 -31t19 -63q41 41 123 70t143 28q248 0 367 -135q139 135 325 135t306 -78t120 -251v-584z" glyph-name="m" horiz-adv-x="1732" unicode="m"/><glyph d="M1061 37q-1 -25 -21 -41t-45 -16t-44 17t-19 40v498q0 167 -98 233t-288 66t-302 -140v-657q0 -23 -20 -40t-44 -17q-25 0 -44 17t-19 40v852q0 23 19 40t44 17q63 0 64 -108q57 51 146 82t169 30q219 0 361 -102t141 -313v-498z" glyph-name="n" horiz-adv-x="1165" unicode="n"/><glyph d="M625 92q193 0 323 112t129 266q0 153 -130 258q-131 106 -323 106t-321 -106t-129 -258q0 -154 129 -266t322 -112zM1206 471q0 -201 -175 -348t-406 -147t-405 146q-174 148 -175 349q0 201 174 340q173 139 405 139t407 -139t175 -340z" glyph-name="o" horiz-adv-x="1249" unicode="o"/><glyph d="M1106 467q0 168 -138 267t-313 100q-109 0 -247 -42q-70 -22 -117 -64t-47 -95v-342q0 -53 47 -96q74 -68 251 -101q65 -12 113 -12q174 0 313 108q138 109 138 277zM1235 467q0 -213 -181 -357q-182 -144 -402 -144t-408 138v-573q0 -25 -20 -41t-44 -16q-25 0 -44 16 t-19 41v1358q0 25 19 41q20 16 40 16t32 -4q36 -13 36 -72v-49q70 66 184 98q265 74 498 -26q131 -57 220 -171t89 -255z" glyph-name="p" horiz-adv-x="1277" unicode="p"/><glyph d="M1034 287v344q0 53 -47 95q-82 73 -251 97q-65 10 -111 11q-175 0 -313 -100t-138 -267q0 -168 138 -277t313 -108q105 0 210 33q199 63 199 172zM1163 -469q0 -25 -19 -41t-44 -16t-45 16t-21 41v573q-172 -139 -399 -139q-227 1 -409 145t-181 357q0 143 89 257 t220 170t271 56q256 0 409 -139q0 6 -1 35t2 53t21 32q19 9 44 9t44 -16t19 -41v-1352z" glyph-name="q" horiz-adv-x="1277" unicode="q"/><glyph d="M770 840q0 -23 -22 -39q-22 -17 -39 -17t-51 25t-128 25t-190 -62t-96 -158v-577q0 -25 -20 -41t-44 -16q-25 0 -44 16t-19 41v852q0 25 19 41t46 16t42 -20q16 -20 18 -40t2 -52q47 57 130 87q153 55 313 1q83 -29 83 -82z" glyph-name="r" horiz-adv-x="757" unicode="r"/><glyph d="M850 299q0 -147 -125 -235t-261 -89t-250 57q-116 58 -165 154q-4 6 -4 24t22 35q21 17 45 17t30 -5t26 -32q100 -133 278 -133q109 0 193 52t84 155q0 66 -57 112q-56 47 -140 73t-167 54q-197 66 -197 195q0 101 86 159t172 58t167 -32t126 -78q20 -20 20 -40t-30 -45 q-30 -26 -68 -3q-18 18 -23 20q-68 61 -174 62q-147 0 -147 -101q0 -37 57 -67t139 -55t165 -59t141 -98q57 -65 57 -155z" glyph-name="s" horiz-adv-x="905" unicode="s"/><glyph d="M-6 891q0 57 69 57h80v324q-1 23 19 40t45 17t45 -16t20 -41v-324h211q25 0 44 -16t19 -41t-18 -41q-20 -16 -45 -16h-211v-488q0 -252 193 -252q49 0 98 12t65 12t35 -19q19 -20 19 -40q0 -37 -84 -61t-135 -23q-154 1 -237 107t-83 264v488h-45q-104 0 -104 57z" glyph-name="t" horiz-adv-x="669" unicode="t"/><glyph d="M1051 37q1 -23 -19 -40t-45 -17q-66 0 -65 110q-127 -115 -330 -115t-344 109t-142 322v483q0 23 20 40t44 17q25 0 45 -16t21 -41v-483q0 -313 372 -314q205 0 314 135v662q0 25 20 41t45 16t44 -17t20 -40v-852z" glyph-name="u" horiz-adv-x="1165" unicode="u"/><glyph d="M1040 881q0 -13 -215 -403t-248 -443t-67 -53t-64 53t-244 449t-214 405q0 23 22 40t52 17t49 -35l401 -741l408 743q18 33 51 33t51 -18t18 -47z" glyph-name="v" horiz-adv-x="1028" unicode="v"/><glyph d="M1546 890q0 -20 -4 -26l-418 -841q-20 -41 -55 -41t-61 43l-238 483l-238 -485q-20 -41 -57 -41t-57 41q-418 841 -418 865t23 41t53 17t47 -35l352 -735l227 469q-110 225 -110 246t22 38t54 17t49 -35l350 -735l358 735q17 35 49 35t52 -18t20 -38z" glyph-name="w" horiz-adv-x="1546" unicode="w"/><glyph d="M969 34q0 -20 -22 -37q-23 -17 -49 -17t-46 24l-381 488l-377 -488q-18 -24 -46 -24t-50 17t-23 37q0 20 13 36l405 510l-235 278q-10 10 -10 32t22 39q24 17 50 17t46 -24l207 -250l207 250q20 24 47 24t49 -17t21 -39q0 -22 -11 -32l-233 -278l403 -510q13 -16 13 -36z " glyph-name="x" horiz-adv-x="944" unicode="x"/><glyph d="M954 -68q0 -461 -622 -460q-20 0 -41 16q-20 16 -21 41q0 25 20 41t42 16q254 0 376 76t121 270v140q-127 -96 -266 -97q-195 1 -325 91t-132 256v567q0 25 22 41t42 16t43 -16t23 -41v-567q0 -231 327 -232q121 0 194 62t72 153v584q1 25 21 41t40 16t43 -16 q22 -16 21 -41v-957z" glyph-name="y" horiz-adv-x="1069" unicode="y"/><glyph d="M844 942q20 0 44 -13t25 -33q0 -20 -18 -44l-635 -735h584q20 1 42 -17t22 -43t-22 -41t-42 -16h-713q-20 0 -45 13t-25 37t17 40l637 735h-584q-20 -1 -42 17t-21 43q0 25 21 41q22 16 42 16h713z" glyph-name="z" horiz-adv-x="972" unicode="z"/><glyph d="M813 1352q-121 0 -164 -47t-43 -197v-242q0 -166 -42 -236t-156 -100q114 -30 156 -100t42 -235v-242q0 -150 43 -196t170 -46h39v-125h-35q-181 0 -262 52q-57 40 -79 104t-21 209v244q0 152 -55 213t-189 61h-22l-23 -2v127h23l22 -2q133 0 189 61q55 61 55 215v244 q0 152 21 214q37 110 182 138q61 12 159 13h35v-127l-22 2h-23z" glyph-name="braceleft" horiz-adv-x="1024" unicode="{"/><glyph d="M575 -483h-126v2048h126v-2048z" glyph-name="bar" horiz-adv-x="1024" unicode="|"/><glyph d="M854 594v-127l-23 2h-22q-135 0 -191 -61t-55 -215v-242q0 -150 -21 -214q-22 -63 -72 -97t-101 -44t-162 -10h-41v125l22 -2h23q121 0 164 47t43 199v240q0 165 42 235t156 100q-114 31 -156 102t-42 234v242q0 150 -43 197t-170 47h-39v125h35q183 0 264 -52 q53 -33 76 -99t22 -214v-244q0 -154 55 -215t191 -61l22 2h23z" glyph-name="braceright" horiz-adv-x="1024" unicode="}"/><glyph d="M563 621q-162 0 -385 -160v133q203 145 387 145q109 1 202 -33t106 -39l26 -10q154 -57 242 -57t178 37t211 121v-131q-202 -144 -387 -144q-81 -1 -149 21t-130 45q-197 72 -301 72z" glyph-name="asciitilde" unicode="~"/><glyph d="M150 1376q0 33 29 56q59 45 120 0q31 -23 31 -56q0 -34 -31 -58t-61 -24t-60 24q-28 24 -28 58zM174 1149q0 25 22 41t42 16t42 -16t21 -41v-1122q1 -25 -21 -41q-43 -32 -84 0q-22 16 -22 41v1122z" glyph-name="exclamdown" horiz-adv-x="479" unicode="¡"/><glyph d="M483 696q0 -98 68 -166t168 -106v545q-100 -37 -168 -106t-68 -167zM1178 438q0 -20 -25 -45q-96 -86 -307 -96v-156q0 -23 -20 -40t-44 -17q-25 0 -44 17t-19 40v170q-147 33 -256 137t-109 248q0 142 109 248t256 139v203q0 23 19 40t44 17t44 -17t20 -40v-188 q76 -2 188 -36t111 -85q0 -21 -22 -41t-35 -20t-41 14q-94 45 -201 51v-561q96 6 180 42t86 36q22 0 44 -20t22 -40z" glyph-name="cent" horiz-adv-x="1599" unicode="¢"/><glyph d="M1366 246q0 -102 -80 -174t-182 -72h-723q-20 0 -42 11t-22 33q1 22 51 98q150 225 150 376q0 59 -29 166h-186q-25 0 -44 16t-19 41t19 41t44 17h158q-55 197 -55 313q0 172 95 262t255 90t277 -88q118 -88 118 -229q0 -25 -18 -41t-46 -16q-57 0 -68 80q-1 7 -1 12 q-33 166 -248 166q-127 0 -181 -56t-54 -192q0 -138 49 -301h211q25 -1 44 -17t19 -41t-19 -41t-44 -16h-177q31 -111 31 -180q0 -166 -149 -387h600q61 0 99 35t38 94q0 23 20 41t44 18q25 0 45 -17t20 -42z" glyph-name="sterling" horiz-adv-x="1599" unicode="£"/><glyph d="M1536 168q20 -21 20 -48t-30 -40q-30 -14 -36 -16q-5 -2 -32 -13q-208 -80 -398 -80t-371 73t-318 217t-176 333h-154q-25 0 -45 16t-21 41q1 25 21 42t45 18h141q0 57 8 104h-149q-25 0 -45 16t-21 41q1 25 21 42t45 18h178q92 244 332 387t512 143q109 0 287 -38 t178 -103q0 -23 -22 -42t-38 -19t-32 8q-196 78 -398 78t-398 -109t-286 -305h647q23 0 42 -18t19 -42t-18 -40q-20 -16 -43 -17h-679q-10 -57 -11 -104h590q23 -1 43 -19t20 -41t-18 -40q-20 -17 -45 -17h-575q59 -230 273 -368t464 -138q165 0 349 72q72 28 88 28t36 -20z " glyph-name="currency" horiz-adv-x="1599" unicode="¤"/><glyph d="M1460 1400q0 -20 -12 -34l-522 -649h137q23 1 42 -17t19 -41t-19 -41t-42 -18h-184v-115h184q23 0 42 -17t19 -40t-19 -40t-42 -17h-184v-334q1 -23 -19 -40t-45 -17t-45 16t-20 41v334h-189q-25 0 -44 16t-19 41t19 41t44 16h189v115h-189q-23 0 -43 18t-20 42t19 40 t44 17h146l-525 649q-12 12 -12 33t23 38t49 17t47 -27l526 -655l528 655q23 27 49 27t47 -17t21 -37z" glyph-name="yen" horiz-adv-x="1599" unicode="¥"/><glyph d="M575 -350h-126v758h126v-758zM575 674h-126v758h126v-758z" glyph-name="brokenbar" horiz-adv-x="1024" unicode="¦"/><glyph d="M764 580q0 68 -41 114t-117 94l-229 140q-131 -56 -131 -164t145 -201l258 -157q115 78 115 174zM930 607q0 -179 -180 -283q92 -92 92 -226t-104 -211t-256 -77t-241 87t-89 246v41h157v-28q0 -94 49 -148q50 -54 136 -55q86 0 136 38t50 106t-65 123q-17 14 -27 24 t-32 25t-30 21t-32 19q-24 14 -25 17l-172 108q-207 129 -207 289q0 188 184 293q-90 78 -90 208t98 208q98 80 242 80t234 -90q90 -89 90 -234v-41h-154q-4 225 -184 225q-74 0 -120 -41t-46 -104t39 -103t111 -84l202 -116q234 -138 234 -317z" glyph-name="section" horiz-adv-x="1024" unicode="§"/><glyph d="M543 1130q0 -32 -31 -56q-60 -45 -120 0q-30 24 -30 56t31 56q59 44 119 0q31 -23 31 -56zM831 1130q-1 -32 -31 -56q-60 -46 -119 0q-30 24 -30 56t31 56q58 43 119 0q30 -23 30 -56z" glyph-name="dieresis" horiz-adv-x="1193" unicode="¨"/><glyph d="M836 274q-162 0 -267 121q-104 121 -104 326t107 331t288 126q138 0 230 -74t104 -193h-129q-17 80 -71 122t-138 42q-120 0 -184 -93t-64 -257t67 -255t168 -91t159 49t73 133h129q-12 -129 -109 -208t-259 -79zM855 1372q-274 0 -456 -186q-192 -200 -192 -461 q0 -127 50 -246t141 -210q189 -189 455 -189t457 187t191 454t-188 463q-88 88 -207 138t-251 50zM1376 209q-104 -103 -244 -161t-284 -58q-289 0 -512 217q-217 217 -217 518q0 139 56 275q57 136 159 242t236 162t283 56t284 -55t237 -157q213 -214 213 -524t-211 -515z " glyph-name="copyright" unicode="©"/><glyph d="M541 1116v148q0 41 -67 61q-68 21 -134 21t-132 -43t-67 -117q0 -74 67 -113t133 -39t133 20t67 62zM637 991q0 -16 -15 -29q-35 -31 -65 3q-14 16 -16 36q-102 -55 -201 -55t-197 67t-98 173t98 177q99 71 203 71t195 -54q2 20 16 36q30 33 65 2q15 -13 15 -29v-398z " glyph-name="ordfeminine" horiz-adv-x="741" unicode="ª"/><glyph d="M1038 54q0 -20 -22 -37t-46 -17t-46 18l-447 408q-16 16 -16 36t16 38l447 424q22 18 46 18t46 -17q45 -34 2 -79l-408 -383l408 -367q20 -22 20 -42zM629 54q0 -20 -23 -37q-22 -17 -46 -17t-46 18l-446 408q-37 37 0 74l446 424q22 18 46 18t46 -17t23 -37 q0 -20 -21 -42l-407 -383l407 -367q21 -22 21 -42z" glyph-name="guillemotleft" horiz-adv-x="1038" unicode="«"/><glyph d="M1452 356h-115v385h-1083v117h1198v-502z" glyph-name="logicalnot" unicode="¬"/><glyph d="M850 774q123 0 175 34t52 109q0 76 -53 112t-178 36h-144v-291h148zM872 1157q351 0 351 -231q-1 -88 -55 -148t-142 -76l188 -385h-157l-176 365h-179v-365h-141v840h311zM1501 722q0 130 -49 251q-99 245 -348 350q-117 49 -250 49q-269 0 -458 -189t-189 -452 t190 -461q190 -190 455 -190t457 185q192 186 192 457zM1587 725q0 -152 -56 -285t-162 -235q-106 -103 -242 -159t-279 -56q-297 0 -513 217t-216 518q0 150 58 285q59 135 163 239q212 211 516 211q305 0 520 -217q98 -98 154 -232t57 -286z" glyph-name="registered" unicode="®"/><glyph d="M893 1112q1 -25 -19 -42t-38 -17h-476q-18 0 -37 17t-20 42t19 42t38 17h476q18 0 38 -17t19 -42z" glyph-name="macron" horiz-adv-x="1193" unicode="¯"/><glyph d="M338 969q84 0 142 58t59 143q-1 86 -59 144t-142 58t-143 -59t-59 -143t58 -142q60 -59 144 -59zM337 1454q118 0 201 -83t83 -199t-84 -200t-201 -83q-117 0 -199 82q-82 83 -82 201t82 200t200 82z" glyph-name="degree" horiz-adv-x="673" unicode="°"/><glyph d="M1452 41h-1198v117h1198v-117zM1452 719h-539v-344h-118v344h-541v117h541v344h118v-344h539v-117z" glyph-name="plusminus" unicode="±"/><glyph d="M715 592q0 -25 -23 -41t-43 -16h-532q-31 1 -48 23q-36 48 2 154q38 107 111 170q74 62 183 117q2 0 46 22q130 65 152 109q12 25 12 52q0 135 -227 135q-76 0 -137 -49t-79 -49q-19 0 -45 17t-26 40t37 53q115 105 254 105q140 0 246 -65t106 -182t-106 -189 q-46 -30 -142 -77t-150 -88q-97 -73 -120 -182h463q20 0 43 -17t23 -42z" glyph-name="uni00B2" horiz-adv-x="763" unicode="²"/><glyph d="M378 1325q-68 0 -131 -40q-64 -40 -78 -40q-15 -1 -39 17t-24 42t41 56q117 82 229 82t192 -70t79 -159q0 -89 -82 -146q187 -71 187 -233q0 -140 -113 -224t-274 -84q-68 0 -154 36t-135 83t-1 80q23 16 41 16t52 -23t39 -26q81 -49 181 -49t168 49q68 50 69 136 q0 86 -78 122t-191 37l-39 -2q-18 0 -45 11q-26 11 -26 38t32 43q32 15 90 29t82 22t46 26t22 59q0 40 -36 76t-104 36z" glyph-name="uni00B3" horiz-adv-x="800" unicode="³"/><glyph d="M895 1260q0 -18 -16 -31l-236 -187q-15 -14 -37 -14t-41 15q-18 15 -18 33t18 34l234 186q38 34 78 -2q18 -16 18 -34z" glyph-name="acute" horiz-adv-x="1193" unicode="´"/><glyph d="M221 336q1 -111 59 -169t170 -58t195 101q84 101 129 308l121 551h156l-162 -754q-4 -20 -10 -53l-7 -31q-6 -31 -6 -51q0 -65 72 -65h18q4 0 10 1t7 1l-27 -125q-30 -10 -96 -10t-100 34t-41 113q-39 -68 -116 -108t-173 -39q-177 0 -262 137l-113 -545h-156l316 1495 h157l-126 -596q-15 -88 -15 -137z" glyph-name="uni00B5" horiz-adv-x="1128" unicode="µ"/><glyph d="M948 1401h-125v-1401h-94v1401h-182v-1401h-96v782q-171 6 -273 102t-102 250q0 152 106 248t287 97h479v-78z" glyph-name="paragraph" horiz-adv-x="1024" unicode="¶"/><glyph d="M432 729q0 -51 -37 -88t-88 -37t-87 36t-36 89t35 88t88 35t89 -36t36 -87z" glyph-name="periodcentered" horiz-adv-x="616" unicode="·"/><glyph d="M797 -171q-1 -54 -55 -95t-105 -41t-107 24q-55 25 -55 56q1 18 21 34q38 29 75 0q23 -16 47 -16t47 12q21 12 21 35q-1 44 -60 46t-61 48v78q-1 23 17 37t49 14q31 1 41 -23t8 -67q49 -14 83 -51t34 -91z" glyph-name="cedilla" horiz-adv-x="1193" unicode="¸"/><glyph d="M330 592q0 -25 -20 -41t-42 -16q-20 0 -42 16t-21 41v704q-20 -8 -74 -32t-74 -23q-20 0 -42 17t-21 42q0 31 123 82q123 52 151 52q59 1 62 -58v-784z" glyph-name="uni00B9" horiz-adv-x="430" unicode="¹"/><glyph d="M561 1194q0 74 -65 113q-66 39 -144 39t-144 -39t-67 -113q0 -74 67 -117q66 -43 144 -43t144 43q65 43 65 117zM657 1194q0 -106 -97 -177t-208 -71t-209 71t-98 177t98 173t210 67t208 -67t96 -173z" glyph-name="ordmasculine" horiz-adv-x="700" unicode="º"/><glyph d="M989 463q0 -18 -18 -37l-447 -408q-20 -18 -44 -18t-46 17q-45 34 -2 79l406 367l-408 383q-18 18 -18 40t22 39t46 17t44 -18l447 -424q18 -19 18 -37zM580 463q0 -18 -19 -37l-446 -408q-20 -18 -44 -18q-25 0 -47 17t-22 37t21 42l405 367l-408 383q-18 18 -18 40 t23 39t47 17t43 -18l446 -424q19 -19 19 -37z" glyph-name="guillemotright" horiz-adv-x="1038" unicode="»"/><glyph d="M330 592q0 -25 -20 -41t-42 -16q-20 0 -42 16t-21 41v704q-20 -8 -74 -32t-74 -23q-20 0 -42 17t-21 42q0 31 123 82q123 52 151 52q59 1 62 -58v-784zM1368 1414q0 -20 -10 -36l-1084 -1384q-20 -27 -44 -27q-24 -1 -50 17q-42 29 -10 71l1081 1385q35 49 93 10 q24 -16 24 -36zM1309 403v250q0 3 -2 11t-2 10l-273 -271h277zM1438 403h207q23 0 43 -18t20 -41t-19 -40t-44 -17h-207v-230q0 -23 -20 -40t-44 -17q-25 0 -45 17t-20 40v230h-420q-23 0 -47 14q-24 15 -23 35q0 20 23 43l504 500q44 44 90 7t6 -79l-113 -113l45 13 q23 -1 43 -19t21 -41v-244z" glyph-name="onequarter" horiz-adv-x="1759" unicode="¼"/><glyph d="M1739 59q0 -25 -23 -41t-43 -16h-532q-31 0 -48 23q-36 49 2 155t111 169q74 62 183 118q2 -1 46 21t91 51q73 46 73 110q0 135 -227 135q-76 0 -122 -38q-73 -60 -93 -60t-46 17t-26 40t37 54q115 104 254 104t246 -64q106 -65 106 -183t-106 -188q-52 -34 -121 -68 q-115 -57 -179 -104q-88 -65 -112 -175h463q20 1 43 -17t23 -43zM1368 1414q0 -20 -10 -36l-1084 -1384q-20 -27 -44 -27q-24 -1 -50 17q-42 29 -10 71l1081 1385q35 49 93 10q24 -16 24 -36zM330 592q0 -25 -20 -41t-42 -16q-20 0 -42 16t-21 41v704q-20 -8 -74 -32 t-74 -23q-20 0 -42 17t-21 42q0 31 123 82q123 52 151 52q59 1 62 -58v-784z" glyph-name="onehalf" horiz-adv-x="1789" unicode="½"/><glyph d="M378 1325q-68 0 -131 -40q-64 -40 -78 -40q-15 -1 -39 17t-24 42t41 56q117 82 229 82t192 -70t79 -159q0 -89 -82 -146q187 -71 187 -233q0 -140 -113 -224t-274 -84q-68 0 -154 36t-135 83t-1 80q23 16 41 16t52 -23t39 -26q81 -49 181 -49t168 49q68 50 69 136 q0 86 -78 122t-191 37l-39 -2q-18 0 -45 11q-26 11 -26 38t32 43q32 15 90 29t82 22t46 26t22 59q0 40 -36 76t-104 36zM1655 1414q0 -20 -10 -36l-1084 -1384q-21 -27 -45 -27q-24 -1 -49 17t-25 36t15 35l1081 1385q36 48 93 10q24 -16 24 -36zM1595 403v250q0 3 -2 11 t-2 10l-272 -271h276zM1724 647v-244h207q23 0 43 -18t21 -41t-19 -40t-45 -17h-207v-230q0 -23 -19 -40t-44 -17t-45 17t-21 40v230h-419q-23 0 -47 14q-49 28 -1 78l504 500q44 44 92 4q23 -17 23 -37t-18 -39l-113 -113l45 13q23 -1 43 -19t20 -41z" glyph-name="threequarters" horiz-adv-x="2045" unicode="¾"/><glyph d="M547 1386q0 33 30 56q58 45 119 0q31 -23 31 -56q0 -34 -31 -58q-62 -49 -121 1q-28 24 -28 57zM74 400q0 181 137 291t360 140v328q0 25 22 41q43 31 85 0q23 -16 22 -41v-381q0 -43 -77 -63q-25 -7 -83 -19t-87 -20q-113 -29 -182 -91q-69 -63 -69 -191t130 -218 q129 -90 303 -90q111 0 212 42t147 107t72 64q27 0 52 -16q25 -15 25 -37t-41 -72q-78 -94 -207 -149t-260 -56q-211 0 -386 125t-175 306z" glyph-name="questiondown" horiz-adv-x="1193" unicode="¿"/><glyph d="M1178 512l-428 750l-385 -750h813zM1591 30q-1 -18 -23 -34t-52 -16t-48 34l-225 383h-940l-205 -383q-18 -34 -48 -34t-52 16t-23 39q0 10 541 1038l178 340q27 43 58 43t57 -41q782 -1367 782 -1385zM772 1589q0 -21 -19 -35t-40 -14t-37 14l-234 187q-18 15 -18 33 t20 33q43 32 76 1l236 -186q16 -13 16 -33z" glyph-name="Agrave" horiz-adv-x="1566" unicode="À"/><glyph d="M1178 512l-428 750l-385 -750h813zM1591 30q-1 -18 -23 -34t-52 -16t-48 34l-225 383h-940l-205 -383q-18 -34 -48 -34t-52 16t-23 39q0 10 541 1038l178 340q27 43 58 43t57 -41q782 -1367 782 -1385zM1090 1772q0 -18 -17 -31l-235 -187q-16 -14 -38 -14t-40 15t-18 33 t18 34l233 186q38 34 78 -2q19 -16 19 -34z" glyph-name="Aacute" horiz-adv-x="1566" unicode="Á"/><glyph d="M1178 512l-428 750l-385 -750h813zM1591 30q-1 -18 -23 -34t-52 -16t-48 34l-225 383h-940l-205 -383q-18 -34 -48 -34t-52 16t-23 39q0 10 541 1038l178 340q27 43 58 43t57 -41q782 -1367 782 -1385zM752 1821q29 -1 77 -39t107 -86q60 -48 84 -70q24 -21 24 -39 t-22 -33q-23 -14 -40 -14t-34 14l-196 154l-197 -154q-15 -14 -35 -14t-41 14q-20 14 -20 32t20 36q20 16 88 76t112 91q44 32 73 32z" glyph-name="Acircumflex" horiz-adv-x="1566" unicode="Â"/><glyph d="M866 1636q63 0 62 68t61 68q19 0 37 -15t18 -35q0 -76 -51 -129t-119 -53t-107 34q-38 34 -66 68t-62 33q-59 1 -59 -67t-64 -68q-55 0 -55 43q0 78 50 133q49 56 115 56q112 1 160 -68q47 -68 80 -68zM1178 512l-428 750l-385 -750h813zM1591 30q-1 -18 -23 -34t-52 -16 t-48 34l-225 383h-940l-205 -383q-18 -34 -48 -34t-52 16t-23 39q0 10 541 1038l178 340q27 43 58 43t57 -41q782 -1367 782 -1385z" glyph-name="Atilde" horiz-adv-x="1566" unicode="Ã"/><glyph d="M1178 512l-428 750l-385 -750h813zM1591 30q-1 -18 -23 -34t-52 -16t-48 34l-225 383h-940l-205 -383q-18 -34 -48 -34t-52 16t-23 39q0 10 541 1038l178 340q27 43 58 43t57 -41q782 -1367 782 -1385zM707 1642q0 -32 -31 -56q-61 -46 -120 0q-30 24 -30 56t31 56 q58 43 119 0q31 -23 31 -56zM995 1642q-1 -32 -31 -56q-60 -46 -119 0q-30 24 -30 56t31 56q58 43 119 0q30 -23 30 -56z" glyph-name="Adieresis" horiz-adv-x="1566" unicode="Ä"/><glyph d="M1178 512l-428 750l-385 -750h813zM813 1499q0 20 -21 33q-22 12 -42 12t-42 -12t-22 -32t20 -32t44 -12q23 0 43 12t20 31zM1591 35q-1 -23 -23 -39t-52 -16t-48 34l-225 383h-940l-205 -383q-18 -34 -48 -34t-52 16t-23 34q0 18 699 1344q-100 43 -101 125q1 61 57 103 t120 40q64 0 119 -40q57 -40 57 -113q0 -72 -95 -113q760 -1329 760 -1341z" glyph-name="Aring" horiz-adv-x="1566" unicode="Å"/><glyph d="M1106 512v702l-600 -702h600zM2142 57q0 -25 -20 -41t-45 -16h-906q-25 0 -45 16t-20 41v340h-700l-336 -393q-23 -27 -49 -27q-27 -1 -49 17q-41 32 -9 76l1137 1308q47 55 104 56h873q25 0 45 -16t20 -42q0 -25 -20 -42t-45 -17h-842v-518h641q23 1 42 -17t19 -41 t-19 -41t-42 -18h-641v-567h842q25 -1 45 -17t20 -41z" glyph-name="AE" horiz-adv-x="2193" unicode="Æ"/><glyph d="M1436 127q0 -45 -98 -82q-168 -63 -341 -72v-32q49 -13 83 -51t34 -92t-54 -95t-106 -41t-106 25q-55 25 -55 55q0 18 19 34q18 16 36 17q18 0 41 -16q46 -32 93 -4q22 13 22 35q0 41 -60 45t-61 49v71q-203 11 -388 105t-310 264q-124 170 -124 354t80 328t207 238 t284 147t327 53t345 -59q103 -35 103 -82q-1 -21 -21 -41t-36 -20t-35 8q-193 78 -361 78t-317 -54q-193 -74 -320 -228t-127 -348t127 -348t320 -227q149 -53 317 -53t392 92q20 8 36 8t34 -20q20 -20 20 -41z" glyph-name="Ccedilla" horiz-adv-x="1484" unicode="Ç"/><glyph d="M711 1589q1 -21 -19 -35t-41 -14t-37 14l-233 187q-19 15 -19 33t20 33q44 32 77 1l235 -186q17 -13 17 -33zM1184 57q0 -25 -20 -41t-42 -16h-909q-18 0 -42 16t-24 41v1319q0 25 24 41t42 17h909q20 0 40 -16t22 -42q0 -25 -20 -42t-42 -17h-846v-518h642q20 -1 42 -17 t21 -41q0 -25 -22 -42t-41 -17h-642v-565h846q20 1 41 -17t21 -43z" glyph-name="Egrave" horiz-adv-x="1234" unicode="È"/><glyph d="M1184 57q0 -25 -20 -41t-42 -16h-909q-18 0 -42 16t-24 41v1319q0 25 24 41t42 17h909q20 0 40 -16t22 -42q0 -25 -20 -42t-42 -17h-846v-518h642q20 -1 42 -17t21 -41q0 -25 -22 -42t-41 -17h-642v-565h846q20 1 41 -17t21 -43zM946 1772q0 -18 -16 -31l-236 -187 q-16 -14 -38 -14t-40 15t-18 33t18 34l234 186q38 34 78 -2q18 -16 18 -34z" glyph-name="Eacute" horiz-adv-x="1234" unicode="É"/><glyph d="M670 1821q29 -1 78 -39t106 -86t83 -70q26 -21 26 -39q0 -19 -23 -33t-40 -14t-34 14l-196 154l-197 -154q-15 -14 -35 -14t-41 14q-20 14 -20 32t20 36q20 16 88 76t112 91q44 32 73 32zM1184 57q0 -25 -20 -41t-42 -16h-909q-18 0 -42 16t-24 41v1319q0 25 24 41t42 17 h909q20 0 40 -16t22 -42q0 -25 -20 -42t-42 -17h-846v-518h642q20 -1 42 -17t21 -41q0 -25 -22 -42t-41 -17h-642v-565h846q20 1 41 -17t21 -43z" glyph-name="Ecircumflex" horiz-adv-x="1234" unicode="Ê"/><glyph d="M1184 57q0 -25 -20 -41t-42 -16h-909q-18 0 -42 16t-24 41v1319q0 25 24 41t42 17h909q20 0 40 -16t22 -42q0 -25 -20 -42t-42 -17h-846v-518h642q20 -1 42 -17t21 -41q0 -25 -22 -42t-41 -17h-642v-565h846q20 1 41 -17t21 -43zM625 1642q0 -32 -31 -56q-60 -45 -120 0 q-30 24 -30 56t31 56q59 44 119 0q31 -23 31 -56zM913 1642q-1 -32 -31 -56q-60 -46 -119 0q-30 24 -30 56t31 56q58 43 119 0q30 -23 30 -56z" glyph-name="Edieresis" horiz-adv-x="1234" unicode="Ë"/><glyph d="M229 1589q0 -21 -19 -35t-40 -14t-37 14l-233 187q-18 15 -18 33t20 33q44 32 75 1l236 -186q16 -13 16 -33zM276 37q0 -25 -22 -41t-41 -16q-20 0 -43 16t-23 41v1360q0 25 23 41t43 16t42 -16t21 -41v-1360z" glyph-name="Igrave" horiz-adv-x="423" unicode="Ì"/><glyph d="M276 37q0 -25 -22 -41t-41 -16q-20 0 -43 16t-23 41v1360q0 25 23 41t43 16t42 -16t21 -41v-1360zM516 1772q0 -18 -16 -31l-236 -187q-16 -14 -38 -14t-40 15t-18 33t18 34l234 186q38 34 78 -2q18 -16 18 -34z" glyph-name="Iacute" horiz-adv-x="423" unicode="Í"/><glyph d="M512 1587q0 -19 -23 -33t-39 -14t-34 14l-197 154l-196 -154q-15 -14 -35 -14t-41 14q-45 32 0 68q20 16 88 76q67 60 111 91q44 32 73 32t96 -52q90 -77 171 -143q26 -21 26 -39zM276 37q0 -25 -22 -41t-41 -16q-20 0 -43 16t-23 41v1360q0 25 23 41t43 16t42 -16 t21 -41v-1360z" glyph-name="Icircumflex" horiz-adv-x="423" unicode="Î"/><glyph d="M276 37q0 -25 -22 -41t-41 -16q-20 0 -43 16t-23 41v1360q0 25 23 41t43 16t42 -16t21 -41v-1360zM164 1642q0 -32 -31 -56q-60 -45 -120 0q-29 24 -29 56t30 56q59 44 119 0q31 -23 31 -56zM453 1642q0 -32 -31 -56q-61 -46 -120 0q-30 24 -30 56t31 56q58 43 119 0 q31 -23 31 -56z" glyph-name="Idieresis" horiz-adv-x="423" unicode="Ï"/><glyph d="M1462 721q0 244 -207 420t-507 176h-474v-539h336q20 0 42 -16t22 -41t-22 -41t-42 -16h-336v-547h474q302 0 508 180t206 424zM1591 721q0 -291 -253 -506t-590 -215h-539q-18 0 -41 16t-23 41v607h-147q-20 0 -42 16t-22 41t22 41t42 16h147v598q0 25 23 41t41 17h539 q340 0 592 -211t251 -502z" glyph-name="Eth" horiz-adv-x="1652" unicode="Ð"/><glyph d="M1415 47q0 -27 -18 -46t-52 -19t-63 32l-1006 1227v-1204q0 -25 -22 -41t-41 -16q-20 0 -43 16t-23 41v1349q1 30 21 48t53 18t68 -43l997 -1216v1204q0 25 22 41t42 16t43 -16t22 -41v-1350zM1065 1722q0 -76 -51 -129q-52 -53 -120 -53t-107 34q-37 34 -65 68t-63 33 q-59 1 -59 -67t-63 -68q-55 0 -56 43q0 78 50 133q49 56 115 56t106 -22t56 -46q47 -68 81 -68q35 0 48 22t12 46t13 46t40 22q28 0 46 -15t17 -35z" glyph-name="Ntilde" horiz-adv-x="1560" unicode="Ñ"/><glyph d="M1696 717q0 256 -217 442q-217 187 -535 187t-535 -186q-219 -186 -219 -443t218 -443t536 -186q317 0 535 186q217 187 217 443zM1825 717q0 -201 -121 -373t-325 -272t-435 -100t-435 100t-326 272t-122 373t122 373t326 272t435 100t435 -100t325 -272t121 -373z M946 1589q0 -21 -19 -35t-40 -14t-37 14l-234 187q-18 15 -18 33t20 33q43 32 76 1l236 -186q16 -13 16 -33z" glyph-name="Ograve" horiz-adv-x="1886" unicode="Ò"/><glyph d="M1696 717q0 256 -217 442q-217 187 -535 187t-535 -186q-219 -186 -219 -443t218 -443t536 -186q317 0 535 186q217 187 217 443zM1825 717q0 -201 -121 -373t-325 -272t-435 -100t-435 100t-326 272t-122 373t122 373t326 272t435 100t435 -100t325 -272t121 -373z M1264 1772q0 -18 -17 -31l-235 -187q-16 -14 -38 -14t-40 15t-18 33t18 34l233 186q38 34 78 -2q19 -16 19 -34z" glyph-name="Oacute" horiz-adv-x="1886" unicode="Ó"/><glyph d="M1239 1587q0 -18 -22 -33q-23 -14 -40 -14t-34 14l-197 154l-196 -154q-16 -14 -36 -14t-40 14q-45 32 0 68q20 16 88 76t112 91q44 32 72 32q29 0 96 -52q90 -77 171 -143q26 -21 26 -39zM1696 717q0 256 -217 442q-217 187 -535 187t-535 -186q-219 -186 -219 -443 t218 -443t536 -186q317 0 535 186q217 187 217 443zM1825 717q0 -201 -121 -373t-325 -272t-435 -100t-435 100t-326 272t-122 373t122 373t326 272t435 100t435 -100t325 -272t121 -373z" glyph-name="Ocircumflex" horiz-adv-x="1886" unicode="Ô"/><glyph d="M1696 717q0 256 -217 442q-217 187 -535 187t-535 -186q-219 -186 -219 -443t218 -443t536 -186q317 0 535 186q217 187 217 443zM1825 717q0 -201 -121 -373t-325 -272t-435 -100t-435 100t-326 272t-122 373t122 373t326 272t435 100t435 -100t325 -272t121 -373z M1239 1722q0 -76 -51 -129q-52 -53 -120 -53t-106 34t-66 68t-62 33q-60 1 -60 -67t-63 -68q-55 0 -56 43q1 78 51 133q50 56 116 56q112 1 159 -68q47 -68 82 -68t48 22t12 46t13 46t40 22q28 0 46 -15t17 -35z" glyph-name="Otilde" horiz-adv-x="1886" unicode="Õ"/><glyph d="M1696 717q0 256 -217 442q-217 187 -535 187t-535 -186q-219 -186 -219 -443t218 -443t536 -186q317 0 535 186q217 187 217 443zM1825 717q0 -201 -121 -373t-325 -272t-435 -100t-435 100t-326 272t-122 373t122 373t326 272t435 100t435 -100t325 -272t121 -373z M891 1642q0 -32 -31 -56q-60 -45 -120 0q-30 24 -30 56t31 56q59 44 119 0q31 -23 31 -56zM1180 1642q0 -32 -31 -56q-60 -45 -120 0q-30 24 -30 56t31 56q59 44 119 0q31 -23 31 -56z" glyph-name="Odieresis" horiz-adv-x="1886" unicode="Ö"/><glyph d="M1415 135l-82 -82l-475 475l-477 -475l-80 82l475 475l-475 477l80 82l477 -477l475 477l82 -82l-475 -477z" glyph-name="multiply" unicode="×"/><glyph d="M190 718q0 -184 114 -330t292 -230l649 1136q-141 52 -310 52t-340 -72t-288 -222t-117 -334zM967 88q143 0 313 66t293 218t123 330t-93 314q-93 135 -245 225l-643 -1126q109 -27 252 -27zM1825 706q0 -206 -135 -381t-335 -265t-411 -89q-141 0 -287 41 q-23 -43 -53 -43q-30 1 -54 17q-22 16 -22 34t13 37q-207 95 -343 271t-137 389q0 164 80 307q80 144 207 238t284 147q156 53 324 53t349 -67q29 72 77 71q22 0 44 -17t22 -35t-31 -73q180 -101 294 -265t114 -370z" glyph-name="Oslash" horiz-adv-x="1886" unicode="Ø"/><glyph d="M1440 547q0 -256 -171 -417t-467 -161t-477 160t-182 418v850q0 25 22 41t42 16t43 -16t22 -41v-850q0 -209 136 -335t393 -126q256 0 383 126t127 335v850q0 25 21 41q22 16 42 16t43 -16t23 -41v-850zM834 1589q0 -21 -20 -35t-40 -14q-21 0 -37 14l-233 187 q-18 15 -18 33t20 33q44 32 76 1l235 -186q17 -13 17 -33z" glyph-name="Ugrave" horiz-adv-x="1581" unicode="Ù"/><glyph d="M1440 547q0 -256 -171 -417t-467 -161t-477 160t-182 418v850q0 25 22 41t42 16t43 -16t22 -41v-850q0 -209 136 -335t393 -126q256 0 383 126t127 335v850q0 25 21 41q22 16 42 16t43 -16t23 -41v-850zM1079 1772q0 -18 -16 -31l-236 -187q-15 -14 -37 -14t-40 15 t-18 33t18 34l233 186q38 34 78 -2q18 -16 18 -34z" glyph-name="Uacute" horiz-adv-x="1581" unicode="Ú"/><glyph d="M793 1821q29 -1 78 -39t106 -86t83 -70q26 -21 25 -39q0 -18 -22 -33q-23 -14 -40 -14t-34 14l-196 154l-197 -154q-16 -14 -36 -14t-40 14t-20 32t20 36q20 16 88 76t112 91q44 32 73 32zM1440 547q0 -256 -171 -417t-467 -161t-477 160t-182 418v850q0 25 22 41t42 16 t43 -16t22 -41v-850q0 -209 136 -335t393 -126q256 0 383 126t127 335v850q0 25 21 41q22 16 42 16t43 -16t23 -41v-850z" glyph-name="Ucircumflex" horiz-adv-x="1581" unicode="Û"/><glyph d="M748 1642q0 -32 -31 -56q-61 -46 -120 0q-30 24 -30 56t31 56q58 43 119 0q31 -23 31 -56zM1036 1642q0 -32 -30 -56q-60 -46 -120 0q-30 24 -30 56t31 56q58 43 119 0q30 -23 30 -56zM1440 547q0 -256 -171 -417t-467 -161t-477 160t-182 418v850q0 25 22 41t42 16 t43 -16t22 -41v-850q0 -209 136 -335t393 -126q256 0 383 126t127 335v850q0 25 21 41q22 16 42 16t43 -16t23 -41v-850z" glyph-name="Udieresis" horiz-adv-x="1581" unicode="Ü"/><glyph d="M1282 1402q0 -20 -12 -34l-572 -706v-625q0 -25 -22 -41t-41 -16q-20 0 -42 16t-22 41v625l-571 706q-12 12 -12 33t24 38t50 17q24 0 44 -26l529 -658l528 658q36 48 94 9q25 -17 25 -37zM936 1669q0 -18 -16 -31l-236 -186q-16 -14 -38 -14t-40 15t-18 33t18 34 l234 186q16 14 38 14t40 -16q18 -17 18 -35z" glyph-name="Yacute" horiz-adv-x="1267" unicode="Ý"/><glyph d="M672 399q176 1 282 95t105 240q0 146 -97 234q-97 87 -290 87h-396v-656h396zM1188 727q0 -143 -83 -247t-241 -161q-106 -37 -192 -36h-396v-246q0 -25 -22 -41t-41 -16q-20 0 -43 16t-23 41v1360q0 25 23 41t43 16t42 -16t21 -41v-223h396q232 0 374 -122t142 -325z " glyph-name="Thorn" horiz-adv-x="1249" unicode="Þ"/><glyph d="M1247 453q0 -205 -171 -329t-384 -124h-207q-25 0 -45 16t-20 41t20 42t45 18h207q168 0 297 88t129 250q0 161 -134 239t-310 78h-142q-24 0 -46 18t-22 42t22 41t46 18q250 0 311 102q28 47 27 121q0 147 -117 195q-90 37 -225 38t-210 -67t-74 -186v-1057 q0 -25 -20 -41t-44 -16q-25 0 -44 16t-19 41v1057q0 164 115 267q116 103 293 103t317 -72q157 -81 157 -278q0 -162 -112 -256q160 -47 260 -149t100 -256z" glyph-name="germandbls" horiz-adv-x="1296" unicode="ß"/><glyph d="M670 1077q0 -21 -20 -35t-40 -14q-21 0 -37 14l-233 187q-18 15 -18 33t20 33q43 32 76 1l235 -186q17 -13 17 -33zM1034 295v336q0 53 -47 95q-77 69 -251 96q-65 11 -111 12q-175 0 -313 -106t-138 -273t138 -265t313 -98q107 0 211 33q198 63 198 170zM1102 946 q23 0 42 -17t19 -40v-852q0 -23 -19 -40t-42 -17q-66 0 -66 77q0 9 1 25t1 24q-164 -131 -413 -131q-137 1 -269 57t-221 169q-90 113 -90 254q0 213 181 354t416 141t396 -131l-2 49q0 78 66 78z" glyph-name="agrave" horiz-adv-x="1267" unicode="à"/><glyph d="M1034 295v336q0 53 -47 95q-77 69 -251 96q-65 11 -111 12q-175 0 -313 -106t-138 -273t138 -265t313 -98q107 0 211 33q198 63 198 170zM1102 946q23 0 42 -17t19 -40v-852q0 -23 -19 -40t-42 -17q-66 0 -66 77q0 9 1 25t1 24q-164 -131 -413 -131q-137 1 -269 57 t-221 169q-90 113 -90 254q0 213 181 354t416 141t396 -131l-2 49q0 78 66 78zM936 1260q0 -18 -16 -31l-236 -187q-16 -14 -38 -14t-40 15t-18 33t18 34l234 186q38 34 78 -2q18 -16 18 -34z" glyph-name="aacute" horiz-adv-x="1267" unicode="á"/><glyph d="M1034 295v336q0 53 -47 95q-77 69 -251 96q-65 11 -111 12q-175 0 -313 -106t-138 -273t138 -265t313 -98q107 0 211 33q198 63 198 170zM1102 946q23 0 42 -17t19 -40v-852q0 -23 -19 -40t-42 -17q-66 0 -66 77q0 9 1 25t1 24q-164 -131 -413 -131q-137 1 -269 57 t-221 169q-90 113 -90 254q0 213 181 354t416 141t396 -131l-2 49q0 78 66 78zM326 1074q0 18 20 36q20 16 88 76t112 91q44 32 72 32q28 -1 78 -39q48 -38 107 -86t83 -70q24 -21 25 -39q0 -18 -22 -33q-23 -14 -40 -14t-34 14l-197 154l-196 -154q-16 -14 -36 -14t-40 14 t-20 32z" glyph-name="acircumflex" horiz-adv-x="1267" unicode="â"/><glyph d="M1034 295v336q0 53 -47 95q-77 69 -251 96q-65 11 -111 12q-175 0 -313 -106t-138 -273t138 -265t313 -98q107 0 211 33q198 63 198 170zM1102 946q23 0 42 -17t19 -40v-852q0 -23 -19 -40t-42 -17q-66 0 -66 77q0 9 1 25t1 24q-164 -131 -413 -131q-137 1 -269 57 t-221 169q-90 113 -90 254q0 213 181 354t416 141t396 -131l-2 49q0 78 66 78zM891 1210q0 -76 -51 -129q-52 -53 -120 -53t-107 34q-37 34 -65 68t-63 33q-59 1 -59 -67t-64 -68q-55 0 -55 43q0 78 50 133q49 56 115 56t106 -22t56 -46q47 -68 81 -68q35 0 48 22t12 46 q-3 68 61 68q20 0 38 -15t17 -35z" glyph-name="atilde" horiz-adv-x="1267" unicode="ã"/><glyph d="M563 1130q0 -32 -31 -56q-61 -46 -119 0q-30 24 -30 56t31 56q59 44 118 0q31 -23 31 -56zM852 1130q0 -32 -31 -56q-60 -45 -120 0q-29 24 -29 56t30 56q59 44 119 0q31 -23 31 -56zM1034 295v336q0 53 -47 95q-77 69 -251 96q-65 11 -111 12q-175 0 -313 -106 t-138 -273t138 -265t313 -98q107 0 211 33q198 63 198 170zM1102 946q23 0 42 -17t19 -40v-852q0 -23 -19 -40t-42 -17q-66 0 -66 77q0 9 1 25t1 24q-164 -131 -413 -131q-137 1 -269 57t-221 169q-90 113 -90 254q0 213 181 354t416 141t396 -131l-2 49q0 78 66 78z" glyph-name="adieresis" horiz-adv-x="1267" unicode="ä"/><glyph d="M1034 295v336q0 53 -47 95q-77 69 -251 96q-65 11 -111 12q-175 0 -313 -106t-138 -273t138 -265t313 -98q107 0 211 33q198 63 198 170zM705 1169q0 21 -22 33t-42 12t-42 -12q-21 -12 -21 -32t20 -32q45 -25 86 0q21 11 21 31zM1102 946q23 0 42 -17t19 -40v-852 q0 -23 -19 -40t-42 -17q-66 0 -66 77q0 9 1 25t1 24q-164 -131 -413 -131q-137 1 -269 57t-221 169q-90 113 -90 254q0 213 181 354t416 141t396 -131l-2 49q0 78 66 78zM817 1169q0 -61 -56 -101q-55 -40 -119 -40t-121 40q-56 40 -56 101t56 103q55 42 119 41 q64 0 121 -41q56 -42 56 -103z" glyph-name="aring" horiz-adv-x="1267" unicode="å"/><glyph d="M797 337q1 113 -93 183t-210 70t-218 -72t-102 -186t101 -176q101 -64 219 -64t211 66q92 66 92 179zM1399 836q-127 0 -237 -52t-173 -153h813q-133 205 -403 205zM1960 564q0 -16 -20 -33t-44 -17h-946q-8 -33 -8 -51q0 -168 144 -269t319 -102q229 0 352 139 q6 6 27 30q40 49 92 9q36 -28 10 -73q-78 -105 -210 -163t-269 -59q-260 0 -442 158q-51 45 -68 86q-33 -106 -157 -175t-244 -69q-172 1 -312 97t-139 261q0 165 140 267t311 102q78 0 164 -26t131 -72q4 35 -19 86q-66 143 -289 144q-131 0 -213 -61q-38 -29 -58 -29 t-42 16t-20 42q0 26 32 54q100 94 301 94q147 0 239 -54t181 -179q53 105 206 169t286 64q193 0 347 -94t216 -270q2 -6 2 -22z" glyph-name="ae" horiz-adv-x="1998" unicode="æ"/><glyph d="M797 -202q-1 -54 -55 -95t-105 -41t-107 25t-55 55q-1 18 19 34t38 17q18 0 40 -16q46 -32 93 -4q22 12 21 32q0 37 -60 49t-61 48v75q-203 21 -361 159t-159 335q0 141 90 254t221 169t240 56t209 -24q101 -24 143 -56q42 -30 42 -52t-21 -42q-19 -20 -37 -20t-39 10 q-141 68 -268 68q-175 0 -313 -98t-138 -265q0 -168 138 -273t313 -106q117 0 225 60q98 59 119 59q21 -1 41 -19t20 -37t-24 -44q-52 -47 -148 -84t-178 -47v-39q49 -13 83 -51t34 -92z" glyph-name="ccedilla" horiz-adv-x="1067" unicode="ç"/><glyph d="M639 1077q0 -21 -19 -35t-40 -14t-37 14l-234 187q-18 15 -18 33t20 33q43 32 76 1l236 -186q16 -13 16 -33zM631 836q-127 0 -238 -52t-174 -153h811q-129 205 -399 205zM1190 562q0 -16 -20 -32t-44 -16h-948q-4 -37 -4 -53q0 -167 143 -269t318 -102q229 0 352 139 q6 6 27 31q42 49 85 14t17 -77q-70 -105 -206 -163q-273 -118 -544 -2q-134 56 -228 171q-93 115 -93 256q0 221 175 356q174 135 386 135t366 -95t216 -269q2 -8 2 -24z" glyph-name="egrave" horiz-adv-x="1228" unicode="è"/><glyph d="M631 836q-127 0 -238 -52t-174 -153h811q-129 205 -399 205zM1190 562q0 -16 -20 -32t-44 -16h-948q-4 -37 -4 -53q0 -167 143 -269t318 -102q229 0 352 139q6 6 27 31q42 49 85 14t17 -77q-70 -105 -206 -163q-273 -118 -544 -2q-134 56 -228 171q-93 115 -93 256 q0 221 175 356q174 135 386 135t366 -95t216 -269q2 -8 2 -24zM936 1260q0 -18 -16 -31l-236 -187q-16 -14 -38 -14t-40 15t-18 33t18 34l234 186q38 34 78 -2q18 -16 18 -34z" glyph-name="eacute" horiz-adv-x="1228" unicode="é"/><glyph d="M631 836q-127 0 -238 -52t-174 -153h811q-129 205 -399 205zM1190 562q0 -16 -20 -32t-44 -16h-948q-4 -37 -4 -53q0 -167 143 -269t318 -102q229 0 352 139q6 6 27 31q42 49 85 14t17 -77q-70 -105 -206 -163q-273 -118 -544 -2q-134 56 -228 171q-93 115 -93 256 q0 221 175 356q174 135 386 135t366 -95t216 -269q2 -8 2 -24zM608 1309q30 -1 78 -39t107 -86t83 -70q24 -21 25 -39q0 -18 -22 -33q-23 -14 -40 -14t-34 14l-197 154l-196 -154q-16 -14 -36 -14t-40 14q-45 32 0 68q20 16 88 76t112 91q44 32 72 32z" glyph-name="ecircumflex" horiz-adv-x="1228" unicode="ê"/><glyph d="M573 1130q-1 -32 -31 -56q-60 -46 -119 0q-30 24 -30 56t31 56q58 43 119 0q30 -23 30 -56zM862 1130q0 -32 -31 -56q-61 -46 -119 0q-30 24 -30 56t31 56q59 44 118 0q31 -23 31 -56zM631 836q-127 0 -238 -52t-174 -153h811q-129 205 -399 205zM1190 562q0 -16 -20 -32 t-44 -16h-948q-4 -37 -4 -53q0 -167 143 -269t318 -102q229 0 352 139q6 6 27 31q42 49 85 14t17 -77q-70 -105 -206 -163q-273 -118 -544 -2q-134 56 -228 171q-93 115 -93 256q0 221 175 356q174 135 386 135t366 -95t216 -269q2 -8 2 -24z" glyph-name="edieresis" horiz-adv-x="1228" unicode="ë"/><glyph d="M219 1077q0 -21 -19 -35t-40 -14t-37 14l-234 187q-18 15 -18 33t20 33q43 32 76 1l236 -186q16 -13 16 -33zM244 37q0 -25 -22 -41t-42 -16t-42 16t-21 41v862q0 25 21 41q22 16 42 16t42 -16t22 -41v-862z" glyph-name="igrave" horiz-adv-x="360" unicode="ì"/><glyph d="M244 37q0 -25 -22 -41t-42 -16t-42 16t-21 41v862q0 25 21 41q22 16 42 16t42 -16t22 -41v-862zM485 1260q0 -18 -16 -31l-236 -187q-16 -14 -37 -14t-40 15q-18 15 -18 33t18 34l233 186q38 34 78 -2q18 -16 18 -34z" glyph-name="iacute" horiz-adv-x="360" unicode="í"/><glyph d="M244 37q0 -25 -22 -41t-42 -16t-42 16t-21 41v862q0 25 21 41q22 16 42 16t42 -16t22 -41v-862zM178 1309q29 -1 77 -39t107 -86t84 -70q25 -21 25 -39t-22 -33q-23 -14 -40 -14t-34 14l-197 154l-196 -154q-16 -14 -36 -14t-40 14q-45 32 0 68q20 16 88 76t112 91 q44 32 72 32z" glyph-name="icircumflex" horiz-adv-x="360" unicode="î"/><glyph d="M133 1130q0 -32 -31 -56q-61 -46 -119 0q-30 24 -30 56t31 56q59 44 118 0q31 -23 31 -56zM422 1130q0 -32 -31 -56q-60 -45 -120 0q-29 24 -29 56t30 56q59 44 119 0q31 -23 31 -56zM244 37q0 -25 -22 -41t-42 -16t-42 16t-21 41v862q0 25 21 41q22 16 42 16t42 -16 t22 -41v-862z" glyph-name="idieresis" horiz-adv-x="360" unicode="ï"/><glyph d="M625 92q193 0 323 114t129 268q0 152 -130 260q-131 108 -323 108t-321 -108t-129 -260t129 -268q129 -114 322 -114zM1133 1292q0 -39 -136 -94q209 -211 209 -518v-205q0 -201 -175 -351t-406 -149t-405 149t-175 350q0 202 174 342t406 140q127 0 247 -49t203 -141 q0 197 -192 379q-169 -80 -189 -80t-43 17t-23 45t42 49l106 49q-158 92 -346 92q-20 0 -42 17t-21 42q0 57 84 58q225 0 450 -154q145 74 164 74q20 0 44 -18t24 -44z" glyph-name="eth" horiz-adv-x="1249" unicode="ð"/><glyph d="M1061 37q-1 -25 -21 -41t-45 -16t-44 17t-19 40v498q0 167 -98 233t-288 66t-302 -140v-657q0 -23 -20 -40t-44 -17q-25 0 -44 17t-19 40v852q0 23 19 40t44 17q63 0 64 -108q57 51 146 82t169 30q219 0 361 -102t141 -313v-498zM891 1210q0 -76 -51 -129 q-52 -53 -120 -53t-107 34q-37 34 -65 68t-63 33q-59 1 -59 -67t-64 -68q-55 0 -55 43q0 78 50 133q49 56 115 56t106 -22t56 -46q47 -68 81 -68q35 0 48 22t12 46q-3 68 61 68q20 0 38 -15t17 -35z" glyph-name="ntilde" horiz-adv-x="1165" unicode="ñ"/><glyph d="M639 1077q0 -21 -19 -35t-40 -14t-37 14l-234 187q-18 15 -18 33t20 33q43 32 76 1l236 -186q16 -13 16 -33zM625 92q193 0 323 112t129 266q0 153 -130 258q-131 106 -323 106t-321 -106t-129 -258q0 -154 129 -266t322 -112zM1206 471q0 -201 -175 -348t-406 -147 t-405 146q-174 148 -175 349q0 201 174 340q173 139 405 139t407 -139t175 -340z" glyph-name="ograve" horiz-adv-x="1249" unicode="ò"/><glyph d="M625 92q193 0 323 112t129 266q0 153 -130 258q-131 106 -323 106t-321 -106t-129 -258q0 -154 129 -266t322 -112zM1206 471q0 -201 -175 -348t-406 -147t-405 146q-174 148 -175 349q0 201 174 340q173 139 405 139t407 -139t175 -340zM926 1260q0 -18 -17 -31 l-235 -187q-16 -14 -38 -14t-40 15t-18 33t18 34l233 186q38 34 78 -2q19 -16 19 -34z" glyph-name="oacute" horiz-adv-x="1249" unicode="ó"/><glyph d="M625 92q193 0 323 112t129 266q0 153 -130 258q-131 106 -323 106t-321 -106t-129 -258q0 -154 129 -266t322 -112zM1206 471q0 -201 -175 -348t-406 -147t-405 146q-174 148 -175 349q0 201 174 340q173 139 405 139t407 -139t175 -340zM326 1074q0 18 20 36 q20 16 88 76t112 91q44 32 72 32q28 -1 78 -39q48 -38 107 -86t83 -70q24 -21 25 -39q0 -18 -22 -33q-23 -14 -40 -14t-34 14l-197 154l-196 -154q-16 -14 -36 -14t-40 14t-20 32z" glyph-name="ocircumflex" horiz-adv-x="1249" unicode="ô"/><glyph d="M625 92q193 0 323 112t129 266q0 153 -130 258q-131 106 -323 106t-321 -106t-129 -258q0 -154 129 -266t322 -112zM1206 471q0 -201 -175 -348t-406 -147t-405 146q-174 148 -175 349q0 201 174 340q173 139 405 139t407 -139t175 -340zM733 1124q63 0 62 68t61 68 q20 0 38 -15t17 -35q0 -76 -51 -129q-52 -53 -120 -53t-106 34t-66 68t-62 33q-60 1 -60 -67t-63 -68q-55 0 -55 43q0 78 50 133q50 56 116 56q112 1 159 -68q47 -68 80 -68z" glyph-name="otilde" horiz-adv-x="1249" unicode="õ"/><glyph d="M563 1130q0 -32 -31 -56q-61 -46 -119 0q-30 24 -30 56t31 56q59 44 118 0q31 -23 31 -56zM852 1130q0 -32 -31 -56q-60 -45 -120 0q-29 24 -29 56t30 56q59 44 119 0q31 -23 31 -56zM625 92q193 0 323 112t129 266q0 153 -130 258q-131 106 -323 106t-321 -106 t-129 -258q0 -154 129 -266t322 -112zM1206 471q0 -201 -175 -348t-406 -147t-405 146q-174 148 -175 349q0 201 174 340q173 139 405 139t407 -139t175 -340z" glyph-name="odieresis" horiz-adv-x="1249" unicode="ö"/><glyph d="M969 251q0 -48 -34 -82t-82 -34t-81 33t-33 82t33 82t82 33t82 -33t33 -81zM1452 553h-1198v117h1198v-117zM739 970q0 48 34 82t81 34t81 -34t34 -82t-33 -81t-82 -33t-82 33t-33 81z" glyph-name="divide" unicode="÷"/><glyph d="M174 471q0 -199 213 -324l389 668q-74 18 -151 19q-175 0 -313 -98t-138 -265zM625 92q172 0 312 106t140 277q0 172 -186 293l-387 -664q57 -12 121 -12zM1206 462q0 -132 -89 -249t-221 -177t-271 -61q-76 0 -174 25q-25 -31 -54 -31t-56 21t-9 59q-125 67 -206 179 t-81 248t90 249t221 169t249 56t226 -32q23 22 53 22t52 -22t12 -52q114 -66 186 -169t72 -235z" glyph-name="oslash" horiz-adv-x="1249" unicode="ø"/><glyph d="M618 1077q0 -21 -19 -35t-40 -14t-37 14l-233 187q-19 15 -19 33t20 33q44 32 77 1l235 -186q16 -13 16 -33zM1051 37q1 -23 -19 -40t-45 -17q-66 0 -65 110q-127 -115 -330 -115t-344 109t-142 322v483q0 23 20 40t44 17q25 0 45 -16t21 -41v-483q0 -313 372 -314 q205 0 314 135v662q0 25 20 41t45 16t44 -17t20 -40v-852z" glyph-name="ugrave" horiz-adv-x="1165" unicode="ù"/><glyph d="M1051 37q1 -23 -19 -40t-45 -17q-66 0 -65 110q-127 -115 -330 -115t-344 109t-142 322v483q0 23 20 40t44 17q25 0 45 -16t21 -41v-483q0 -313 372 -314q205 0 314 135v662q0 25 20 41t45 16t44 -17t20 -40v-852zM895 1260q0 -18 -16 -31l-236 -187q-15 -14 -37 -14 t-41 15q-18 15 -18 33t18 34l234 186q38 34 78 -2q18 -16 18 -34z" glyph-name="uacute" horiz-adv-x="1165" unicode="ú"/><glyph d="M1051 37q1 -23 -19 -40t-45 -17q-66 0 -65 110q-127 -115 -330 -115t-344 109t-142 322v483q0 23 20 40t44 17q25 0 45 -16t21 -41v-483q0 -313 372 -314q205 0 314 135v662q0 25 20 41t45 16t44 -17t20 -40v-852zM588 1309q29 -1 77 -39t107 -86t84 -70q25 -21 25 -39 q0 -19 -23 -33t-40 -14t-34 14l-196 154l-197 -154q-15 -14 -35 -14t-41 14q-20 14 -20 32t20 36q20 16 88 76t112 91q44 32 73 32z" glyph-name="ucircumflex" horiz-adv-x="1165" unicode="û"/><glyph d="M532 1130q0 -32 -30 -56q-60 -46 -120 0q-30 24 -30 56t31 56q58 43 119 0q30 -23 30 -56zM821 1130q-1 -32 -31 -56q-60 -46 -119 0q-30 24 -30 56t31 56q58 43 119 0q30 -23 30 -56zM1051 37q1 -23 -19 -40t-45 -17q-66 0 -65 110q-127 -115 -330 -115t-344 109 t-142 322v483q0 23 20 40t44 17q25 0 45 -16t21 -41v-483q0 -313 372 -314q205 0 314 135v662q0 25 20 41t45 16t44 -17t20 -40v-852z" glyph-name="udieresis" horiz-adv-x="1165" unicode="ü"/><glyph d="M864 1260q0 -18 -16 -31l-236 -187q-16 -14 -38 -14t-39 15q-19 15 -19 33t19 34l233 186q38 34 78 -2q18 -16 18 -34zM954 -68q0 -461 -622 -460q-20 0 -41 16q-20 16 -21 41q0 25 20 41t42 16q254 0 376 76t121 270v140q-127 -96 -266 -97q-195 1 -325 91t-132 256v567 q0 25 22 41t42 16t43 -16t23 -41v-567q0 -231 327 -232q121 0 194 62t72 153v584q1 25 21 41t40 16t43 -16q22 -16 21 -41v-957z" glyph-name="yacute" horiz-adv-x="1069" unicode="ý"/><glyph d="M655 86q175 0 313 108t138 278q0 169 -138 269t-313 101q-110 0 -213 -33q-198 -64 -198 -170v-344q0 -53 47 -96q80 -73 252 -102q66 -11 112 -11zM1235 473q0 -213 -180 -359t-400 -147q-106 0 -220 34t-191 95v-563q0 -23 -20 -41t-44 -18q-23 0 -43 18t-20 41v1870 q0 23 20 41t45 18t43 -16t19 -43v-574q78 59 192 95t219 34q219 0 399 -136t181 -349z" glyph-name="thorn" horiz-adv-x="1277" unicode="þ"/><glyph d="M954 -68q0 -461 -622 -460q-20 0 -41 16q-20 16 -21 41q0 25 20 41t42 16q254 0 376 76t121 270v140q-127 -96 -266 -97q-195 1 -325 91t-132 256v567q0 25 22 41t42 16t43 -16t23 -41v-567q0 -231 327 -232q121 0 194 62t72 153v584q1 25 21 41t40 16t43 -16 q22 -16 21 -41v-957zM492 1130q0 -32 -31 -56q-61 -46 -120 0q-30 24 -30 56t31 56q58 43 119 0q31 -23 31 -56zM780 1130q0 -32 -30 -56q-60 -46 -120 0q-30 24 -30 56t31 56q58 43 119 0q30 -23 30 -56z" glyph-name="ydieresis" horiz-adv-x="1069" unicode="ÿ"/><glyph d="M1436 125q0 -27 -31 -47q-84 -51 -216 -79t-245 -28q-231 1 -435 101t-326 272t-122 373t122 373t326 272t435 100q100 0 225 -24t201 -66q37 -24 37 -50t-23 -44t-36 -18t-33 8q-199 78 -371 78q-317 0 -535 -186q-219 -186 -219 -443t218 -443t536 -186q164 0 356 73 q72 27 82 27t32 -18t22 -45zM1294 1772q0 -18 -16 -31l-236 -187q-16 -14 -38 -14t-39 15q-19 15 -19 33t19 34l233 186q38 34 78 -2q18 -16 18 -34z" glyph-name="Cacute" horiz-adv-x="1484" unicode="Ć"/><glyph d="M936 1260q0 -18 -16 -31l-236 -187q-16 -14 -38 -14t-40 15t-18 33t18 34l234 186q38 34 78 -2q18 -16 18 -34zM973 211q13 0 35 -16t22 -40t-24 -44q-72 -59 -181 -97t-200 -39q-231 -1 -405 147t-175 349q0 201 174 340t406 139q82 0 178 -24t158 -66q29 -18 29 -44 t-24 -43q-22 -17 -35 -17t-38 10q-141 68 -268 68q-193 0 -322 -106t-129 -258q0 -154 129 -266t322 -112q115 0 225 60q16 8 41 22t47 26t35 11z" glyph-name="cacute" horiz-adv-x="1067" unicode="ć"/><glyph d="M1436 125q0 -27 -31 -47q-84 -51 -216 -79t-245 -28q-231 1 -435 101t-326 272t-122 373t122 373t326 272t435 100q100 0 225 -24t201 -66q37 -24 37 -50t-23 -44t-36 -18t-33 8q-199 78 -371 78q-317 0 -535 -186q-219 -186 -219 -443t218 -443t536 -186q164 0 356 73 q72 27 82 27t32 -18t22 -45zM1239 1774q0 -18 -20 -34q-21 -16 -89 -76t-112 -92t-72 -32q-29 0 -96 51q-109 94 -176 148q-20 17 -20 35t20 32q44 30 76 0l196 -153l197 153q32 28 64 7t32 -39z" glyph-name="Ccaron" horiz-adv-x="1484" unicode="Č"/><glyph d="M922 1262q0 -18 -20 -34t-89 -76q-67 -60 -111 -92t-73 -32t-79 38t-106 87t-82 69t-26 40q0 18 20 32q44 30 76 0l197 -153l196 153q31 27 64 7q33 -21 33 -39zM973 211q13 0 35 -16t22 -40t-24 -44q-72 -59 -181 -97t-200 -39q-231 -1 -405 147t-175 349q0 201 174 340 t406 139q82 0 178 -24t158 -66q29 -18 29 -44t-24 -43q-22 -17 -35 -17t-38 10q-141 68 -268 68q-193 0 -322 -106t-129 -258q0 -154 129 -266t322 -112q115 0 225 60q16 8 41 22t47 26t35 11z" glyph-name="ccaron" horiz-adv-x="1067" unicode="č"/><glyph d="M1604 246q0 -20 -19 -39q-101 -109 -287 -172q-423 -144 -789 37q-204 100 -326 272t-122 373t122 373t326 272t435 100q129 0 271 -37t243 -102q31 -18 31 -44t-23 -43t-37 -17t-38 12q-219 115 -447 115q-317 0 -535 -186q-219 -186 -219 -443t218 -443t534 -186 q315 0 533 178v412h-381q-20 0 -42 17t-22 42t22 41t42 17h446q18 -1 41 -17t23 -41v-491zM1231 1776q0 -100 -91 -168t-204 -68t-204 68t-91 168q0 23 29 42t56 0q27 -18 28 -42q0 -58 51 -98t131 -40t131 40t51 98q0 24 18 36q39 24 75 -1q20 -12 20 -35z" glyph-name="Gbreve" horiz-adv-x="1701" unicode="Ğ"/><glyph d="M924 1264q0 -100 -91 -168t-204 -68t-204 68t-91 168q0 23 29 42t56 0q27 -18 27 -42q0 -58 52 -98t131 -40q80 0 131 40t51 98q0 24 18 36q38 24 75 -1q20 -12 20 -35zM1034 281v354q0 53 -47 95q-79 71 -250 95q-63 10 -112 11q-175 0 -313 -100t-138 -269 q0 -168 139 -279t312 -110q115 0 215 33q194 64 194 170zM1163 -63q0 -463 -618 -463q-25 0 -45 16t-21 41q1 25 21 42t45 17q289 0 392 88t101 259v155q-170 -127 -400 -127q-230 1 -412 145t-181 357q0 143 89 257t220 170t252 56t236 -35t192 -94v37q0 43 12 66 q12 22 46 22q33 0 52 -16t19 -41v-952z" glyph-name="gbreve" horiz-adv-x="1277" unicode="ğ"/><glyph d="M244 37q0 -25 -22 -41t-42 -16t-42 16t-21 41v862q0 25 21 41q22 16 42 16t42 -16t22 -41v-862z" glyph-name="dotlessi" horiz-adv-x="360" unicode="ı"/><glyph d="M1055 57q0 -25 -22 -41t-42 -16h-778q-18 0 -42 16t-24 41v453q-57 -47 -89 -47t-53 17q-22 17 -21 42q0 25 26 43l137 92v740q0 25 23 41t43 16t42 -16t21 -41v-656q53 41 68 50q38 23 70 -1q30 -24 30 -49t-28 -43l-140 -92v-489h715q20 1 42 -17t22 -43z" glyph-name="Lslash" horiz-adv-x="1044" unicode="Ł"/><glyph d="M412 822q0 -24 -27 -42l-141 -94v-649q0 -25 -22 -41t-42 -16t-42 16t-21 41v563q-75 -57 -97 -57t-46 18t-24 42t27 42l140 92v752q0 25 21 40q22 15 42 15t42 -15t22 -40v-666q71 58 96 59q26 0 49 -18t23 -42z" glyph-name="lslash" horiz-adv-x="360" unicode="ł"/><glyph d="M1696 717q0 193 -124 345t-292 218q-328 127 -635 14q-195 -70 -325 -226t-130 -352t130 -352t325 -225q141 -51 304 -51t331 66t292 218t124 345zM2734 57q0 -25 -19 -41t-44 -16h-910q-20 0 -43 17t-22 40v287q-104 -172 -320 -272q-379 -175 -746 -46 q-342 118 -490 385q-79 142 -79 306t79 306q79 143 206 237t284 148t314 54q219 0 433 -99t319 -273v286q0 23 22 40q23 17 43 18h910q25 0 44 -16t19 -42q0 -25 -19 -41t-44 -16h-846v-520h641q25 -1 44 -17t19 -41t-19 -42t-44 -17h-641v-567h846q25 -1 44 -17t19 -41z " glyph-name="OE" horiz-adv-x="2785" unicode="Œ"/><glyph d="M1077 471q0 168 -139 265q-139 98 -313 98q-175 0 -313 -98t-138 -266q0 -167 138 -272q138 -106 312 -106t314 106q139 106 139 273zM1663 836q-127 0 -238 -52t-174 -153h811q-129 205 -399 205zM2222 562q0 -16 -20 -32t-43 -16h-949q-4 -37 -4 -53q0 -167 144 -269 t317 -102q225 0 346 135q5 5 29 33q24 29 49 29q25 1 47 -17t21 -38q0 -20 -11 -35q-72 -105 -208 -163t-284 -58t-289 71q-142 72 -230 201q-61 -123 -214 -198t-298 -75q-217 -1 -399 141t-181 355q0 141 90 254t221 169t276 56q144 0 298 -74t213 -200q65 129 219 202 t295 72q195 0 347 -94t216 -270q2 -8 2 -24z" glyph-name="oe" horiz-adv-x="2260" unicode="œ"/><glyph d="M1212 402q0 -120 -89 -218t-207 -149t-236 -62v-32q49 -13 83 -51t34 -92q-1 -54 -55 -95t-105 -41t-107 25t-55 55q-1 18 19 34t38 17q18 0 40 -16q46 -32 93 -4q21 13 21 35q-1 42 -60 45q-59 4 -61 49v73q-127 16 -265 87t-202 167q-10 14 -10 34t22 36t44 16t38 -13 q15 -13 39 -42q75 -78 181 -125t206 -47q230 0 388 143q82 76 81 172q0 97 -54 159t-140 92t-275 63t-295 73q-214 82 -214 285q0 133 89 224q159 163 453 163q96 0 221 -36t179 -93q16 -16 16 -38q1 -22 -21 -40t-40 -18t-52 23q-129 86 -292 86t-282 -54q-65 -29 -104 -84 q-38 -55 -38 -134t54 -129t139 -74t189 -41q257 -42 399 -106q85 -40 139 -121t54 -201z" glyph-name="Scedilla" horiz-adv-x="1300" unicode="Ş"/><glyph d="M850 299q0 -135 -106 -221t-248 -101q2 0 0 -18v-18q49 -13 83 -51q33 -38 33 -92t-54 -95t-106 -41t-106 25q-55 25 -55 55q0 18 19 34q18 16 36 17q18 0 41 -16q46 -32 93 -4q22 12 22 32q0 37 -60 49t-61 48v78q-102 14 -197 68q-94 54 -135 138q-4 12 -4 27t22 32 q21 17 45 17t30 -5t26 -32q98 -133 278 -133q109 0 193 52t84 155q0 66 -57 112q-56 47 -140 73t-167 54q-197 66 -197 195q0 97 86 157t172 60t168 -32t125 -78q20 -20 20 -41t-30 -45t-68 -2q-18 18 -23 20q-68 61 -174 62q-147 0 -147 -101q0 -37 57 -67t139 -55t165 -59 t141 -98q57 -65 57 -155z" glyph-name="scedilla" horiz-adv-x="905" unicode="ş"/><glyph d="M1212 398q0 -124 -99 -226t-231 -152t-262 -49q-130 0 -288 76t-234 182q-10 14 -10 34t22 36t44 16t38 -13q15 -13 39 -42q75 -78 181 -125t206 -47q230 0 388 143q82 76 81 172q0 97 -54 159t-140 92t-275 63t-295 73q-214 82 -214 285q0 133 89 224q159 163 453 163 q98 0 222 -36t178 -93q16 -16 16 -38q1 -22 -21 -40t-40 -18t-52 23q-127 86 -291 86t-283 -54q-65 -29 -104 -84q-38 -55 -38 -134t54 -129t139 -74t189 -41q257 -42 399 -106q85 -40 139 -121t54 -205zM922 1774q0 -18 -20 -34t-89 -76q-67 -60 -111 -92t-73 -32t-97 51 q-109 94 -176 148q-20 17 -20 35t20 32q44 30 76 0l197 -153l196 153q31 27 64 7q33 -21 33 -39z" glyph-name="Scaron" horiz-adv-x="1300" unicode="Š"/><glyph d="M737 1262q0 -18 -20 -34t-88 -76t-112 -92t-73 -32t-78 38t-106 87q-56 49 -82 69t-26 40q0 18 20 32q44 30 76 0l196 -153l197 153q32 28 64 7t32 -39zM850 299q0 -147 -125 -235t-261 -89t-250 57q-116 58 -165 154q-4 6 -4 24t22 35q21 17 45 17t30 -5t26 -32 q100 -133 278 -133q109 0 193 52t84 155q0 66 -57 112q-56 47 -140 73t-167 54q-197 66 -197 195q0 101 86 159t172 58t167 -32t126 -78q20 -20 20 -40t-30 -45q-30 -26 -68 -3q-18 18 -23 20q-68 61 -174 62q-147 0 -147 -101q0 -37 57 -67t139 -55t165 -59t141 -98 q57 -65 57 -155z" glyph-name="scaron" horiz-adv-x="905" unicode="š"/><glyph d="M594 1540q0 -32 -31 -56t-61 -24t-59 24t-29 56t30 56q30 22 60 22t60 -22t30 -56zM883 1540q0 -32 -31 -56q-30 -24 -60 -24t-60 24t-30 56t31 56q31 22 60 22t59 -22t31 -56zM1282 1402q0 -20 -12 -34l-572 -706v-625q0 -25 -22 -41t-41 -16q-20 0 -42 16t-22 41v625 l-571 706q-12 12 -12 33t24 38t50 17q24 0 44 -26l529 -658l528 658q36 48 94 9q25 -17 25 -37z" glyph-name="Ydieresis" horiz-adv-x="1267" unicode="Ÿ"/><glyph d="M1354 57q0 -25 -22 -41t-42 -16h-1145q-20 0 -45 12q-24 12 -24 34t16 44l1036 1227h-944q-20 0 -42 17t-21 42q0 25 21 41q22 16 42 17h1069q20 0 45 -12t25 -36q0 -22 -14 -40l-1037 -1229h1018q20 1 42 -17t22 -43zM993 1774q0 -18 -20 -34t-88 -76t-112 -92t-73 -32 t-96 51q-109 94 -176 148q-20 17 -20 35t20 32q44 30 76 0l196 -153l197 153q32 28 64 7t32 -39z" glyph-name="Zcaron" horiz-adv-x="1427" unicode="Ž"/><glyph d="M788 1262q0 -18 -20 -34t-88 -76t-112 -92t-72 -32t-89 46q-60 46 -184 153q-20 17 -20 35t20 32q44 30 76 0l197 -153l196 153q32 28 64 7t32 -39zM844 942q20 0 44 -13t25 -33q0 -20 -18 -44l-635 -735h584q20 1 42 -17t22 -43t-22 -41t-42 -16h-713q-20 0 -45 13 t-25 37t17 40l637 735h-584q-20 -1 -42 17t-21 43q0 25 21 41q22 16 42 16h713z" glyph-name="zcaron" horiz-adv-x="972" unicode="ž"/><glyph d="M1370 1376q0 -20 -20 -40t-42 -19q-22 0 -70 12q-50 12 -92 12t-88 -15q-176 -57 -203 -346q-4 -38 -15 -181h211q25 1 42 -17t17 -42t-24 -41t-46 -17h-213l-73 -700q-16 -164 -138 -278t-286 -114q-51 0 -130 23t-79 59q0 20 22 41q23 21 42 21t67 -14t80 -13 q123 0 202 77t91 200l73 698h-184q-25 0 -42 16t-17 40t23 42q24 18 46 19h187l28 270q17 164 139 277t285 112q59 0 133 -20t74 -62z" glyph-name="florin" horiz-adv-x="1599" unicode="ƒ"/><glyph d="M598 1309q29 -1 77 -39t107 -86t84 -70q25 -21 25 -39q0 -19 -23 -33t-40 -14t-33 14l-197 154l-197 -154q-15 -14 -35 -14t-40 14q-45 32 0 68q20 16 88 76t112 91q44 32 72 32z" glyph-name="circumflex" horiz-adv-x="1193" unicode="ˆ"/><glyph d="M891 1262q-1 -18 -21 -34t-88 -76t-112 -92t-72 -32q-29 0 -96 51q-109 94 -176 148q-20 17 -20 35t20 32q44 30 75 0l197 -153l197 153q31 27 63 7q33 -21 33 -39z" glyph-name="caron" horiz-adv-x="1193" unicode="ˇ"/><glyph d="M893 1264q0 -100 -91 -168t-204 -68t-204 68t-91 168q0 23 29 42t56 0q27 -18 28 -42q0 -58 51 -98t131 -40t131 40t51 98q0 24 18 36q39 24 75 -1q20 -12 20 -35z" glyph-name="breve" horiz-adv-x="1193" unicode="˘"/><glyph d="M690 1133q0 -33 -31 -57q-60 -47 -119 0q-30 24 -30 57t31 55q59 43 118 0q31 -22 31 -55z" glyph-name="dotaccent" horiz-adv-x="1193" unicode="˙"/><glyph d="M664 1149q0 21 -22 33t-42 12t-42 -12t-22 -32t21 -32q20 -12 43 -12q24 0 44 12t20 31zM776 1149q0 -61 -56 -101t-120 -40t-120 40t-56 101t56 102t120 41t120 -41t56 -102z" glyph-name="ring" horiz-adv-x="1193" unicode="˚"/><glyph d="M764 -178q0 -35 -55 -60q-55 -24 -107 -24t-109 41q-56 41 -57 102q0 61 56 103t120 41q20 1 38 -15t20 -35q0 -37 -60 -47t-61 -47q0 -20 21 -33q22 -12 48 -12t48 18q23 18 40 19q18 -1 38 -17t20 -34z" glyph-name="ogonek" horiz-adv-x="1193" unicode="˛"/><glyph d="M891 1210q0 -76 -51 -129q-52 -53 -120 -53t-107 34q-37 34 -65 68t-63 33q-59 1 -59 -67t-64 -68q-55 0 -55 43q0 78 50 133q49 56 115 56t106 -22t56 -46q47 -68 81 -68q35 0 48 22t12 46q-3 68 61 68q20 0 38 -15t17 -35z" glyph-name="tilde" horiz-adv-x="1193" unicode="˜"/><glyph d="M784 1260q0 -18 -16 -31l-236 -187q-16 -14 -37 -14t-40 15t-19 33t19 34l233 184q41 33 78 0q18 -16 18 -34zM1010 1261q0 -17 -19 -32l-235 -187q-16 -14 -36 -14t-41 15q-19 15 -19 33t18 34l233 184q40 32 79 0q20 -16 20 -33z" glyph-name="hungarumlaut" horiz-adv-x="1193" unicode="˝"/><glyph d="M885 -16q-224 0 -226 202q0 98 56 351l84 393h-348l-197 -930h-158l197 930h-39q-53 0 -83 -30t-42 -101h-145q25 150 94 211q70 59 223 59h866l-28 -139h-185l-110 -516q-29 -133 -29 -189q0 -57 25 -82q44 -44 178 -14l-29 -129h-6q-25 0 -57 -8t-41 -8z" glyph-name="pi" horiz-adv-x="1185" unicode="π"/><glyph d="M948 471q0 -27 -18 -46t-45 -19h-746q-27 0 -45 19t-18 46t18 46t45 20h746q27 1 45 -19t18 -47z" glyph-name="endash" horiz-adv-x="1024" unicode="–"/><glyph d="M2089 406h-2130v131h2130v-131z" glyph-name="emdash" horiz-adv-x="2048" unicode="—"/><glyph d="M150 1311q0 43 38 94t68 51q58 0 59 -45q0 -8 -20 -29l-27 -26q66 -25 66 -68q0 -33 -31 -53q-72 -46 -126 6q-27 27 -27 70z" glyph-name="quoteleft" horiz-adv-x="483" unicode="‘"/><glyph d="M334 1360q0 -43 -39 -94q-39 -52 -69 -52q-58 -1 -58 46q0 8 20 28l27 27q-66 25 -65 67q0 33 30 54q31 20 65 20q33 0 61 -26t28 -70z" glyph-name="quoteright" horiz-adv-x="483" unicode="’"/><glyph d="M334 29q0 -43 -39 -95t-69 -51q-58 0 -58 45q0 8 20 29l27 27q-66 25 -65 67q0 33 30 53q73 47 126 -6q28 -26 28 -69z" glyph-name="quotesinglbase" horiz-adv-x="483" unicode="‚"/><glyph d="M506 1311q0 43 39 94t69 51q56 0 58 -45q0 -8 -21 -29l-26 -26q66 -25 65 -68q0 -33 -31 -53q-72 -47 -125 6q-28 27 -28 70zM150 1311q0 43 38 94t68 51q58 0 59 -45q0 -8 -20 -29l-27 -26q66 -25 66 -68q0 -33 -31 -53q-72 -46 -126 6q-27 27 -27 70z" glyph-name="quotedblleft" horiz-adv-x="837" unicode="“"/><glyph d="M334 1360q0 -43 -39 -94q-39 -52 -69 -52q-58 -1 -58 46q0 8 20 28l27 27q-66 25 -65 67q0 33 30 54q31 20 65 20q33 0 61 -26t28 -70zM690 1360q0 -43 -39 -94q-39 -52 -69 -52q-56 -1 -58 46q0 8 21 28l26 27q-66 25 -65 67q0 34 31 54t65 20t61 -26q27 -27 27 -70z " glyph-name="quotedblright" horiz-adv-x="837" unicode="”"/><glyph d="M334 29q0 -43 -39 -95t-69 -51q-58 0 -58 45q0 8 20 29l27 27q-66 25 -65 67q0 33 30 53q73 47 126 -6q28 -26 28 -69zM690 29q0 -43 -39 -95t-69 -51q-56 0 -58 45q0 8 21 29l26 27q-66 25 -65 67q0 33 31 53q72 46 126 -6q27 -26 27 -69z" glyph-name="quotedblbase" horiz-adv-x="837" unicode="„"/><glyph d="M961 909h-373v-1124h-158v1124h-367v146h367v418h158v-418h373v-146z" glyph-name="dagger" horiz-adv-x="1024" unicode="†"/><glyph d="M973 201h-387v-418h-158v418h-377v147h377v559h-377v146h377v420h158v-420h387v-146h-387v-559h387v-147z" glyph-name="daggerdbl" horiz-adv-x="1024" unicode="‡"/><glyph d="M899 763q0 -122 -88 -210t-209 -88t-208 87t-87 210t86 209t210 86t210 -86t86 -208z" glyph-name="bullet" horiz-adv-x="1208" unicode="•"/><glyph d="M1149 63q0 -33 -31 -57q-60 -45 -120 1q-30 25 -30 57t31 55q59 44 119 0q31 -23 31 -56zM739 63q-1 -33 -31 -57q-60 -46 -119 1q-30 25 -30 57t31 55q58 43 119 0q30 -23 30 -56zM330 63q0 -33 -31 -57q-60 -45 -120 1q-29 25 -29 57t30 55q59 44 119 0q31 -23 31 -56z " glyph-name="ellipsis" horiz-adv-x="1298" unicode="…"/><glyph d="M782 1051q0 117 -84 193t-202 75q-118 0 -204 -76q-87 -77 -87 -193t86 -189t205 -73q118 0 202 73t84 190zM1858 383q0 117 -85 189t-204 73q-119 0 -204 -73q-85 -74 -85 -190t85 -192t204 -76t204 76t85 193zM2828 383q0 117 -85 189t-203 73q-118 0 -204 -73 q-85 -74 -85 -190t85 -192t204 -76q120 0 204 76t84 193zM911 1051q0 -162 -126 -271q-125 -108 -289 -108t-292 110t-128 270q0 162 128 272t292 110t290 -110t125 -273zM1642 1414q0 -18 -12 -36l-1083 -1384q-20 -27 -47 -27q-28 -1 -50 17t-22 36t12 35l1084 1385 q44 52 97 9q21 -17 21 -35zM1985 383q0 -163 -126 -273t-290 -110t-291 111t-127 271t127 270t291 110t290 -108t126 -271zM2540 762q164 0 290 -110t127 -270q0 -162 -127 -272q-126 -110 -290 -110t-291 111t-127 271t127 270t291 110z" glyph-name="perthousand" horiz-adv-x="3033" unicode="‰"/><glyph d="M629 54q0 -20 -23 -37q-22 -17 -46 -17t-46 18l-446 408q-37 37 0 74l446 424q22 18 46 18t46 -17t23 -37q0 -20 -21 -42l-407 -383l407 -367q21 -22 21 -42z" glyph-name="guilsinglleft" horiz-adv-x="628" unicode="‹"/><glyph d="M580 463q0 -18 -19 -37l-446 -408q-20 -18 -44 -18q-25 0 -47 17t-22 37t21 42l405 367l-408 383q-18 18 -18 40t23 39t47 17t43 -18l446 -424q19 -19 19 -37z" glyph-name="guilsinglright" horiz-adv-x="628" unicode="›"/><glyph d="M1214 1414q0 -20 -10 -36l-1083 -1384q-21 -27 -45 -27q-24 -1 -49 17t-25 36t14 35l1082 1385q36 49 92 10q24 -16 24 -36z" glyph-name="fraction" horiz-adv-x="1216" unicode="⁄"/><glyph d="M1876 840q0 -23 -22 -39q-22 -17 -40 -17t-51 25t-127 25t-190 -62t-96 -158v-577q0 -25 -20 -41t-44 -16q-25 0 -44 16t-19 41v852q0 25 19 41t46 16t42 -20q16 -20 18 -40t2 -52q47 57 130 87q153 55 313 1q83 -29 83 -82zM1098 1376q0 -25 -23 -42t-43 -17h-756v-518 h642q20 -1 42 -17t21 -41q0 -25 -22 -42t-41 -17h-642v-645q0 -25 -22 -41t-41 -16q-20 0 -43 16t-23 41v1339q0 25 24 41t42 17h819q20 0 43 -16t23 -42z" glyph-name="franc" horiz-adv-x="1863" unicode="₣"/><glyph d="M1536 168q20 -21 20 -48t-30 -40q-30 -14 -36 -16q-5 -2 -32 -13q-208 -80 -398 -80t-371 73t-318 217t-176 333h-154q-25 0 -45 16t-21 41q1 25 21 42t45 18h141q0 57 8 104h-149q-25 0 -45 16t-21 41q1 25 21 42t45 18h178q92 244 332 387t512 143q109 0 287 -38 t178 -103q0 -23 -22 -42t-38 -19t-32 8q-196 78 -398 78t-398 -109t-286 -305h647q23 0 42 -18t19 -42t-18 -40q-20 -16 -43 -17h-679q-10 -57 -11 -104h590q23 -1 43 -19t20 -41t-18 -40q-20 -17 -45 -17h-575q59 -230 273 -368t464 -138q165 0 349 72q72 28 88 28t36 -20z " glyph-name="Euro" horiz-adv-x="1599" unicode="€"/><glyph d="M694 1389h-172v-467h-94v467h-174v67h440v-67zM1389 922h-82v458l-172 -458h-54l-180 458v-458h-82v534h129l160 -405l149 405h132v-534z" glyph-name="trademark" unicode="™"/><glyph d="M1462 780q0 -188 -79 -340t-242 -284h332v-156h-590v150q193 112 296 278t103 375q0 255 -138 407t-358 152t-359 -154q-138 -154 -138 -405q0 -207 103 -375t298 -278v-150h-590v156h332q-323 260 -321 620q0 328 188 533t487 205t488 -203q188 -205 188 -531z" glyph-name="uni2126" horiz-adv-x="1572" unicode="Ω"/><glyph d="M709 483q0 117 -45 181t-127 63q-115 0 -186 -129t-70 -332q0 -115 44 -177t128 -62q111 1 183 127t73 329zM780 919q0 146 -39 222t-102 76q-63 1 -127 -63t-100 -64q-38 0 -60 22t-22 51q0 57 67 105q70 47 164 47q171 1 273 -153t102 -412q0 -332 -138 -553t-345 -222 q-147 1 -241 107t-95 283q0 177 108 305q109 127 267 127q98 0 160 -45t102 -148q26 169 26 315z" glyph-name="partialdiff" horiz-adv-x="1044" unicode="∂"/><glyph d="M1122 158l-444 1138l-445 -1138h889zM1366 0h-1374l586 1473h202z" glyph-name="uni2206" horiz-adv-x="1355" unicode="∆"/><glyph d="M1368 -393h-201v1693h-809v-1693h-198v1866h1208v-1866z" glyph-name="product" horiz-adv-x="1527" unicode="∏"/><glyph d="M1307 -393h-1289v139l738 813l-705 758v156h1239v-166h-989l690 -744l-719 -792h1035v-164z" glyph-name="summation" horiz-adv-x="1345" unicode="∑"/><glyph d="M1452 551h-1198v119h1198v-119z" glyph-name="minus" unicode="−"/><glyph d="M1288 1565h-119l-594 -1606h-53l-323 893l-119 -43l-23 68l262 92l265 -729l522 1407h182v-82z" glyph-name="radical" horiz-adv-x="1288" unicode="√"/><glyph d="M530 856q-106 0 -172 -72t-66 -180t62 -180t148 -72t156 70t145 244q-105 190 -273 190zM1415 623q0 111 -61 181q-62 70 -150 70t-158 -76t-141 -239q104 -188 275 -188q100 1 168 71t67 181zM1479 614q0 -168 -82 -274t-213 -107q-96 1 -169 61t-149 200 q-70 -136 -146 -200t-175 -65q-133 0 -226 109q-92 110 -92 278t83 272t214 105q100 -1 176 -67t140 -199q70 143 148 207t173 63q133 1 225 -107t93 -276z" glyph-name="infinity" unicode="∞"/><glyph d="M158 -121q49 0 83 -28q33 -27 33 -73t27 -46q104 0 117 663q0 165 4 217q12 502 102 719t281 217q78 0 123 -38t45 -96q0 -56 -30 -86t-84 -30t-85 35t-31 92q0 7 -7 15t-13 8q-106 0 -119 -635q-7 -502 -32 -675q-49 -339 -191 -449q-76 -59 -159 -59t-129 36 q-46 37 -46 94t31 88t80 31z" glyph-name="integral" horiz-adv-x="1019" unicode="∫"/><glyph d="M565 563q103 -1 297 -69t282 -68t173 35q84 35 213 123v-131q-215 -146 -389 -146q-99 0 -287 70t-291 69q-158 0 -385 -159v131q207 145 387 145zM566 797q-91 0 -175 -35t-213 -123v131q210 147 387 145q103 -1 297 -69t280 -68t173 33q88 33 215 123v-131 q-203 -144 -387 -144q-98 0 -292 69t-285 69z" glyph-name="approxequal" unicode="≈"/><glyph d="M1452 360h-709l-251 -319l-89 70l197 249h-346v115h420l211 270h-631v115h704l252 320l88 -70l-196 -250h350v-115h-424l-211 -270h635v-115z" glyph-name="notequal" unicode="≠"/><glyph d="M1444 33h-1182v117h1182v-117zM1444 295l-1182 399v101l1182 397v-125l-977 -324l977 -323v-125z" glyph-name="lessequal" unicode="≤"/><glyph d="M1444 33h-1182v117h1182v-117zM1444 694l-1182 -399v125l979 323l-979 324v125l1182 -397v-101z" glyph-name="greaterequal" unicode="≥"/><glyph d="M891 592l-385 817l-385 -817l385 -825zM1006 592l-500 -1069l-500 1069l500 1061z" glyph-name="lozenge" horiz-adv-x="1011" unicode="◊"/><glyph d="M276 37q0 -25 -22 -41t-41 -16q-20 0 -43 16t-23 41v1360q0 25 23 41t43 16t42 -16t21 -41v-1360zM311 1645q-1 -33 -31 -57q-60 -47 -119 0q-30 24 -30 57t31 55q58 42 119 0q30 -22 30 -55z" glyph-name="uniE000" horiz-adv-x="423" unicode=""/><glyph d="M1272 741q0 -233 233 -338q-115 -250 -206 -344t-203 -94q-51 0 -131 33t-125 33t-129 -33t-137 -33q-119 0 -248 176q-102 141 -158 297t-55 299q0 219 125 357t323 137q68 0 154 -34t122 -34t124 35t177 35q190 0 335 -164q-102 -66 -152 -145q-49 -80 -49 -183z M1167 1552q0 -131 -103 -234t-204 -104h-16l-4 3h-4l-2 14v22q0 123 96 230q98 106 235 131l2 -23v-39z" glyph-name="uniE001" horiz-adv-x="1617" unicode=""/><glyph d="M1034 297v342q0 53 -47 96t-152 76t-210 33q-175 0 -313 -108t-138 -276t138 -267q138 -100 313 -101q105 0 210 33q199 63 199 172zM1382 1227q0 -23 -19 -40t-42 -18h-158v-1132q0 -23 -19 -40q-20 -17 -38 -17q-30 0 -50 14t-20 72q0 6 1 22t1 21q-178 -133 -413 -134 q-139 -1 -271 57t-220 172q-89 114 -89 257q0 213 181 357t399 145q106 0 222 -35t191 -97v338h-331q-25 1 -45 17t-21 41q1 25 21 42t45 17h331v203q0 25 20 40t44 15q25 0 43 -15t18 -40v-203h158q23 0 42 -18t19 -41z" glyph-name="uniE002" horiz-adv-x="1277" unicode=""/><glyph glyph-name="uniE003" horiz-adv-x="798" unicode=""/><glyph d="M631 471q0 -27 -22 -46t-44 -19h-424q-23 0 -45 19t-20 46q0 27 21 46q22 19 44 20h424q23 1 45 -19t21 -47z" glyph-name="uniE004" horiz-adv-x="706" unicode=""/></font>
</defs>
</svg>
