<?xml version="1.0" standalone="no"?>
<!DOCTYPE svg PUBLIC "-//W3C//DTD SVG 1.1//EN" "http://www.w3.org/Graphics/SVG/1.1/DTD/svg11.dtd">
<svg xmlns="http://www.w3.org/2000/svg"><metadata>This SVG WebFont was generated by YouWorkForThem.
  2003 Bitstream Inc. &amp; Astigmatic. All Rights Reserved. Designed by Brian J. Bonislawsky. http://www.astigmatic.com/</metadata><defs><font horiz-adv-x="1024" id="ywftsvg"><font-face ascent="1638" bbox="-348 -528.002 2472 1825" cap-height="1454" descent="-410" font-family="" font-stretch="normal" font-weight="550" panose-1="2 0 6 3 3 0 0 2 0 4" underline-position="0" underline-thickness="0" unicode-range="U+0020-FB02" units-per-em="2048" x-height="942"/><missing-glyph horiz-adv-x="2048"/><glyph d="M700 23q0 -19 -14 -31t-32 -12t-33 12q-14 12 -15 31v829h-368v-829q0 -19 -14 -31t-34 -12q-18 0 -32 12t-15 31v829h-77q-18 0 -33 12t-15 30t14 32t34 14h77v234q0 152 84 266t230 114q51 0 111 -16t61 -51q1 -19 -13 -31t-27 -12t-48 12t-80 12q-113 0 -168 -88 t-55 -206v-234h415q19 0 33 -12t14 -31v-874zM721 1323q-1 -29 -21 -48t-47 -19t-47 18q-20 20 -20 49t20 48t47 19t47 -18q20 -20 21 -49z" glyph-name="uniFB01" horiz-adv-x="837" unicode="fi"/><glyph d="M598 1485q0 -37 -43 -37q-4 0 -34 10t-60 10q-121 0 -172 -86t-51 -208v-234h182q18 0 32 -13t15 -31q0 -18 -14 -32q-14 -12 -33 -12h-182v-829q0 -19 -14 -31t-34 -12q-18 0 -32 12t-15 31v829h-77q-18 0 -33 12t-15 30t14 32t34 14h77v234q0 156 79 268t235 112 q49 0 95 -16t46 -53zM741 23q0 -19 -14 -31q-15 -12 -33 -12t-32 12t-15 31v1480q0 41 47 41t47 -41v-1480z" glyph-name="uniFB02" horiz-adv-x="858" unicode="fl"/><glyph glyph-name=".notdef" horiz-adv-x="2048"/><glyph glyph-name="glyph1" horiz-adv-x="0"/><glyph glyph-name="glyph2" horiz-adv-x="681"/><glyph glyph-name="space" horiz-adv-x="679" unicode=" "/><glyph d="M283 33q-1 -27 -21 -45t-47 -18t-49 18t-21 45q0 27 22 47q23 20 49 20t46 -20t21 -47zM262 264q0 -41 -47 -41t-47 41v1147q0 19 14 31t32 12t34 -12q14 -12 14 -31v-1147z" glyph-name="exclam" horiz-adv-x="428" unicode="!"/><glyph d="M240 1141q0 -17 -14 -31t-33 -14q-18 0 -33 13q-14 13 -15 32v268q1 17 15 31t32 14t33 -13q14 -13 15 -32v-268zM444 1141q0 -17 -14 -31t-32 -14t-33 13q-14 13 -15 32v268q0 17 14 31t33 14t33 -13t14 -32v-268z" glyph-name="quotedbl" horiz-adv-x="589" unicode="&quot;"/><glyph d="M979 866h-270l-99 -282h269zM1446 956l-31 -90h-323l-101 -282h348l-30 -90h-351l-174 -494h-112l176 494h-270l-179 -494h-110l174 494h-334l31 90h336l100 282h-360l28 90h365l176 498h110l-174 -498h271l176 498h110l-174 -498h322z" glyph-name="numbersign" horiz-adv-x="1574" unicode="#"/><glyph d="M893 302q0 70 -44 114t-126 84v-377q78 12 124 60q46 49 46 119zM307 976q0 -142 104 -224q78 -61 220 -123v684q-141 -15 -233 -105t-91 -232zM1130 1112q0 -12 -18 -23t-30 -11t-16 1q-5 2 -8 3q-3 0 -7 6t-5 8t-6 9q-4 7 -4 9q-100 180 -311 199l-2 -725 q127 -56 195 -116t68 -168t-74 -176q-73 -68 -189 -81v-131q0 -18 -14 -30q-15 -12 -33 -13q-18 0 -32 12q-13 12 -13 31v129q-102 8 -188 65q-85 56 -85 103q0 13 16 25t27 12q12 0 43 -28q94 -85 187 -99v418q-84 35 -121 52t-107 59q-71 42 -103 81q-88 105 -87 240 q0 176 120 289t298 124v95q0 18 13 30q32 30 66 -2q15 -14 15 -34v-89q307 -23 403 -258q2 -4 2 -16z" glyph-name="dollar" horiz-adv-x="1361" unicode="$"/><glyph d="M426 774q108 0 178 86q68 86 68 198t-69 200t-177 90q-108 0 -178 -88t-70 -201t70 -199t178 -86zM1569 375q0 113 -70 199q-71 86 -179 85q-108 0 -178 -86q-70 -87 -69 -199q0 -112 70 -200q71 -88 179 -88t178 88t69 201zM766 1059q0 -147 -97 -259t-243 -112 t-244 112t-98 259t98 261t244 114t242 -114q98 -114 98 -261zM1376 1427q0 -14 -8 -26l-903 -1411q-13 -23 -35 -23q-22 1 -38 13t-15 26q0 14 8 27l903 1411q14 22 36 22t37 -12q15 -13 15 -27zM1661 375q0 -147 -97 -261q-96 -114 -242 -114t-245 114q-98 114 -98 261 t98 259q97 112 243 112t244 -112q97 -112 97 -259z" glyph-name="percent" horiz-adv-x="1744" unicode="%"/><glyph d="M586 903q-172 0 -291 -131t-119 -303t120 -295t291 -123t290 123t118 295q0 84 -36 172t-93 147q-174 -106 -221 -256q-12 -36 -53 -36t-41 36q0 10 14 62t92 143q55 64 190 138q134 73 148 81q98 55 189 156q16 20 36 20t36 -13q16 -14 16 -32t-41 -59 q-76 -80 -285 -192q62 -74 102 -172t39 -195q0 -207 -147 -355t-354 -148q-208 0 -356 148t-148 355q0 162 94 298t246 194q-111 94 -111 221t82 208q82 80 193 80t182 -67q16 -17 16 -33t-15 -30t-29 -13q-14 0 -58 29q-45 29 -94 28q-78 0 -130 -55t-52 -133t53 -141 t129 -64l69 13q18 0 40 -20t6 -42t-53 -28q-38 -6 -48 -9q-10 -2 -16 -2z" glyph-name="ampersand" horiz-adv-x="1292" unicode="&amp;"/><glyph d="M240 1141q0 -17 -14 -31t-33 -14q-18 0 -33 13q-14 13 -15 32v268q1 17 15 31t32 14t33 -13q14 -13 15 -32v-268z" glyph-name="quotesingle" horiz-adv-x="385" unicode="'"/><glyph d="M428 -76q0 -20 -13 -34t-33 -13q-20 0 -40 17q-102 74 -164 238t-80 308q-16 145 -16 275q0 440 130 676q54 98 132 151q46 29 71 2q13 -14 13 -35t-27 -34q-39 -25 -63 -50q-162 -171 -162 -701t158 -710q22 -29 58 -49q36 -21 36 -41z" glyph-name="parenleft" horiz-adv-x="471" unicode="("/><glyph d="M389 736q0 -152 -16 -296q-17 -145 -79 -309t-165 -237q-46 -29 -73 -4q-13 13 -13 34q0 22 36 42t58 48q158 180 158 710t-162 701q-25 25 -63 50q-27 14 -27 34q0 21 13 35q28 32 73 -2q101 -70 163 -224t80 -292t17 -290z" glyph-name="parenright" horiz-adv-x="491" unicode=")"/><glyph d="M754 1247q20 1 34 -13t13 -36q0 -22 -29 -33l-262 -108l231 -293q25 -35 -5 -57q-15 -13 -37 -13t-33 19l-226 291l-225 -291q-13 -19 -35 -19t-36 12t-15 30q0 17 8 28l232 295l-256 100q-29 9 -29 33t13 38t34 13t139 -51q117 -50 123 -51v250q1 18 15 30q34 28 65 0 q14 -12 14 -30v-248q247 104 267 104z" glyph-name="asterisk" horiz-adv-x="884" unicode="*"/><glyph d="M1452 569h-559v-569h-80v569h-559v82h559v570h80v-570h559v-82z" glyph-name="plus" horiz-adv-x="1705" unicode="+"/><glyph d="M285 33q0 -90 -68 -142q-12 -8 -23 -8q-10 -1 -22 11t-12 21t22 37q23 28 27 38q-27 4 -45 23t-18 46t18 46q20 19 52 19t50 -26q18 -28 19 -65z" glyph-name="comma" horiz-adv-x="430" unicode=","/><glyph d="M532 471q0 -21 -13 -35t-34 -14h-354q-20 0 -34 14q-13 14 -13 34t13 36q13 14 34 14h354q20 0 34 -14q13 -15 13 -35z" glyph-name="hyphen" horiz-adv-x="616" unicode="-"/><glyph d="M283 54q0 -28 -22 -50q-23 -22 -49 -20q-26 0 -46 22t-20 50t20 48t48 20t48 -20q20 -22 21 -50z" glyph-name="period" horiz-adv-x="428" unicode="."/><glyph d="M98 -31q-56 1 -55 45q0 22 662 1424q13 28 37 28t40 -12t15 -34q0 -22 -662 -1424q-13 -27 -37 -27z" glyph-name="slash" horiz-adv-x="839" unicode="/"/><glyph d="M1196 713q0 160 -54 306q-54 145 -175 249t-287 104q-125 0 -226 -59q-102 -59 -162 -157q-126 -204 -126 -443q0 -240 126 -444q60 -97 162 -156t246 -59q146 0 267 102q121 104 175 250t54 307zM1290 713q0 -284 -154 -507q-75 -108 -194 -174t-262 -65 q-190 0 -333 114q-142 115 -209 281q-66 166 -66 350t66 352q67 167 209 281t333 113q143 0 262 -66q222 -122 308 -411q40 -131 40 -268z" glyph-name="zero" horiz-adv-x="1361" unicode="0"/><glyph d="M801 23q-1 -19 -15 -31t-32 -12t-32 12q-13 12 -13 31v1314q-7 -1 -57 -25t-139 -64t-110 -41q-20 -1 -33 13q-14 14 -14 36t29 34q6 2 52 25t89 42t122 55t116 36t37 -41v-1384z" glyph-name="one" horiz-adv-x="1361" unicode="1"/><glyph d="M1100 43q0 -19 -14 -31t-33 -12h-742q-47 0 -47 72t34 192q34 121 121 225q87 105 182 167t185 120q207 132 207 288t-103 235q-102 79 -246 79t-273 -151q-17 -23 -37 -23t-36 12t-17 29q0 16 34 58q143 161 325 161t315 -104q132 -104 132 -283t-136 -289 q-60 -49 -135 -93q-187 -110 -272 -192q-163 -159 -184 -417h693q19 0 33 -12t14 -31z" glyph-name="two" horiz-adv-x="1361" unicode="2"/><glyph d="M506 813q0 35 45 47q6 2 51 8q102 18 186 87t84 171t-63 177t-173 75t-241 -118q-33 -33 -69 -4q-16 14 -16 32t38 51q146 125 290 125t235 -100t92 -246q-1 -86 -49 -162t-125 -118q317 -93 317 -392q0 -211 -136 -344t-349 -133q-95 -1 -201 55t-172 132q-12 16 -12 29 t15 27t35 13q20 0 58 -39q143 -131 277 -131q177 0 285 108q108 109 108 275t-119 251t-285 85l-59 -2q-47 0 -47 41z" glyph-name="three" horiz-adv-x="1361" unicode="3"/><glyph d="M1253 537q0 -19 -14 -31t-33 -12h-332v-482q0 -18 -14 -30q-34 -29 -65 0q-14 12 -15 30v482h-622q-47 0 -47 32q1 14 325 434t383 488q19 18 37 18t34 -13t15 -27q0 -14 -10 -29l-643 -819h528v479q0 17 14 31t33 14t33 -13t14 -32v-479h332q47 0 47 -41z" glyph-name="four" horiz-adv-x="1361" unicode="4"/><glyph d="M1161 539q0 -246 -136 -408t-378 -162q-111 -1 -237 63t-197 150q-12 16 -12 32t14 26q14 12 34 12t40 -20t24 -23q164 -154 334 -154q205 -1 314 137t108 347q0 127 -76 220t-200 140q-78 31 -150 31q-133 0 -299 -78q-16 -8 -29 -8q-41 0 -41 45v502q0 16 16 29t32 14 h573q19 0 33 -12t14 -31t-14 -31t-33 -12h-526v-390q154 58 256 58t196 -35q154 -57 247 -171t93 -271z" glyph-name="five" horiz-adv-x="1361" unicode="5"/><glyph d="M221 742q0 -683 504 -687q188 0 307 125t119 314q0 114 -71 206t-166 138t-189 45q-93 1 -197 -51t-151 -150q-8 -18 -27 -90q-10 -43 -47 -43q-20 0 -34 13q-13 13 -13 34l12 59q48 154 180 233t302 79q78 0 196 -49t209 -165q90 -116 90 -259q0 -223 -148 -374 t-372 -151q-159 -1 -277 59q-216 109 -288 400q-33 129 -33 283q0 223 92 404t277 280q128 69 240 69t214 -40t158 -109q8 -11 8 -29t-14 -30t-34 -13t-34 15t-18 20q-117 100 -266 100q-102 0 -215 -61q-160 -88 -237 -249q-77 -160 -77 -326z" glyph-name="six" horiz-adv-x="1361" unicode="6"/><glyph d="M1157 1397q0 -19 -287 -692q-287 -672 -298 -699q-12 -26 -36 -26q-53 1 -55 40q0 17 278 668t281 660h-786q-18 0 -33 12q-14 12 -14 30t14 31q14 12 33 13h854q49 0 49 -37z" glyph-name="seven" horiz-adv-x="1361" unicode="7"/><glyph d="M258 415q0 -173 124 -267t302 -93t299 93t121 267t-121 267t-301 92t-302 -93t-122 -266zM956 1116q0 109 -80 186q-81 76 -190 76q-108 0 -190 -76t-82 -186t82 -180t190 -70t190 70q80 70 80 180zM1198 414q0 -211 -150 -328t-364 -117q-215 0 -368 119t-152 326 q0 154 85 264t234 156q-164 109 -164 282q0 144 112 246t256 102t254 -102t110 -246q0 -174 -168 -282q145 -48 230 -158t85 -262z" glyph-name="eight" horiz-adv-x="1361" unicode="8"/><glyph d="M614 467q-78 0 -196 49t-209 165q-90 116 -90 259q0 223 148 374t372 150q463 0 568 -480q30 -132 30 -292q0 -215 -102 -391t-291 -270q-124 -61 -226 -61t-200 39q-98 40 -160 112q-10 10 -10 27q0 18 14 30t33 12t34 -15l19 -19q117 -100 266 -101q90 0 197 56 q160 83 246 239t86 342q0 686 -504 686q-188 0 -307 -125t-119 -313q0 -113 71 -206t166 -138t188 -45q94 0 198 52t151 151q8 18 27 90q10 41 47 41q19 1 33 -13t14 -34l-12 -60q-48 -154 -180 -232t-302 -79z" glyph-name="nine" horiz-adv-x="1361" unicode="9"/><glyph d="M283 51q0 -27 -22 -47q-23 -20 -49 -20t-46 20t-21 47q1 27 21 45t47 18t49 -18t21 -45zM283 682q0 -27 -22 -46q-23 -20 -49 -20t-46 20t-21 46q1 27 21 46q20 20 47 20t49 -20t21 -46z" glyph-name="colon" horiz-adv-x="428" unicode=":"/><glyph d="M285 27q0 -84 -68 -136q-12 -8 -23 -8q-10 1 -22 11t-12 19t22 36q22 28 27 37q-27 4 -45 22t-18 44t20 45t51 19t49 -26t19 -63zM283 684q0 -27 -22 -47q-23 -21 -49 -21t-46 20t-21 48q1 27 21 45q20 19 47 19t49 -18t21 -46z" glyph-name="semicolon" horiz-adv-x="430" unicode=";"/><glyph d="M1442 98l-1178 482v61l1178 483v-90l-1045 -424l1045 -424v-88z" glyph-name="less" horiz-adv-x="1705" unicode="&lt;"/><glyph d="M1452 387h-1198v82h1198v-82zM1452 752h-1198v79h1198v-79z" glyph-name="equal" horiz-adv-x="1705" unicode="="/><glyph d="M1442 580l-1178 -482v88l1045 424l-1045 424v90l1178 -483v-61z" glyph-name="greater" horiz-adv-x="1705" unicode=">"/><glyph d="M547 33q-1 -27 -21 -45t-47 -18t-49 18t-20 45q0 27 21 47q23 20 49 20t46 -20t21 -47zM940 1040q0 -182 -114 -290t-300 -136v-350q0 -41 -47 -41t-47 41v389q0 29 43 45t103 30t121 43q60 28 104 96q43 69 43 151t-38 166q-38 82 -128 138t-186 56q-185 0 -304 -139 q-20 -25 -34 -53q-16 -27 -36 -27t-39 12q-17 11 -17 29t30 60q66 94 169 149t229 55t239 -68t170 -194q39 -82 39 -162z" glyph-name="question" unicode="?"/><glyph d="M1282 721q-41 201 -233 203q-152 0 -255 -136t-104 -342q0 -118 58 -182t164 -64t191 74q85 72 116 193zM121 522q0 330 198 572q297 356 795 356q335 0 553 -168q260 -198 260 -504q-1 -174 -65 -312t-179 -228q-144 -111 -305 -111q-192 0 -192 145q0 4 4 33v6 q-102 -184 -291 -184q-153 0 -233 83t-80 243q0 231 135 388t327 157t255 -171l61 129h80l-137 -553q-21 -74 -21 -112q0 -39 31 -64q60 -48 186 -4q49 16 103 56q98 71 160 205t63 284q0 274 -199 440q-201 166 -531 166t-564 -192q-310 -260 -310 -672q0 -330 222 -524 t591 -193q154 0 321 50t302 143l29 -45q-290 -218 -659 -219t-609 184q-301 229 -301 616z" glyph-name="at" horiz-adv-x="2048" unicode="@"/><glyph d="M1012 492l-371 802l-338 -802h709zM640 1456q28 0 49 -44t333 -714q311 -670 311 -683t-15 -24t-39 -11t-38 28l-190 400h-785l-174 -400q-12 -28 -36 -28q-56 1 -56 40q0 25 596 1399q16 37 44 37z" glyph-name="A" horiz-adv-x="1333" unicode="A"/><glyph d="M979 448q-1 158 -107 250t-270 93h-364v-705h378q156 0 260 102q103 102 103 260zM772 1107q0 138 -79 189t-224 52h-231v-469h245q145 0 217 45t72 183zM1073 446q0 -190 -132 -318t-325 -128h-426q-16 0 -31 13t-16 30v1348q-1 16 15 29t32 14h279q397 0 397 -328 q0 -168 -108 -252q147 -48 231 -152t84 -256z" glyph-name="B" horiz-adv-x="1144" unicode="B"/><glyph d="M1161 160q15 0 29 -14t14 -33q0 -18 -20 -33q-156 -109 -383 -109q-301 1 -515 223t-214 523t214 523t515 222q215 0 356 -92q23 -14 23 -34t-20 -39q-20 -18 -52 -3q-160 82 -307 82q-264 0 -450 -196q-185 -197 -185 -463t185 -463t450 -197q156 0 332 97q12 6 28 6z " glyph-name="C" horiz-adv-x="1265" unicode="C"/><glyph d="M639 86q250 0 426 190t176 444q0 253 -175 440t-427 188h-401v-1262h401zM1333 721q0 -289 -204 -505t-490 -216h-449q-16 0 -31 13t-16 30v1348q-1 16 15 29t32 14h449q287 0 491 -212t203 -501z" glyph-name="D" horiz-adv-x="1404" unicode="D"/><glyph d="M993 43q0 -43 -45 -43h-758q-16 0 -31 13t-16 30v1348q-1 16 15 29t32 14h758q45 0 45 -43t-45 -43h-710v-564h540q18 0 32 -12t15 -30q0 -18 -14 -31q-14 -12 -33 -13h-540v-612h710q45 0 45 -43z" glyph-name="E" horiz-adv-x="1056" unicode="E"/><glyph d="M922 1391q0 -19 -14 -31t-34 -12h-636v-564h540q18 0 32 -12t15 -30q0 -18 -14 -31q-14 -12 -33 -13h-540v-675q0 -19 -14 -31t-34 -12q-18 0 -32 12t-15 31v1368q-1 16 15 29t32 14h684q18 0 33 -12t15 -31z" glyph-name="F" horiz-adv-x="944" unicode="F"/><glyph d="M1343 236q0 -6 -10 -27q-92 -111 -238 -174t-294 -64q-301 1 -515 223t-214 523t214 523t515 222q111 0 227 -38t201 -103q18 -15 18 -31t-22 -36t-54 1q-180 121 -370 121q-264 0 -450 -196q-185 -197 -185 -463t185 -463t449 -197t449 193v444h-323q-18 0 -32 12 t-15 31q0 19 14 31t33 12h370q16 0 32 -13t15 -30v-501z" glyph-name="G" horiz-adv-x="1445" unicode="G"/><glyph d="M1122 23q0 -19 -14 -31t-32 -12t-34 12q-14 12 -14 31v675h-790v-675q0 -19 -14 -31t-34 -12q-18 0 -32 12t-15 31v1388q1 19 15 31t32 12t32 -12t16 -31v-627h790v627q0 19 14 31t32 12t34 -12q14 -12 14 -31v-1388z" glyph-name="H" horiz-adv-x="1265" unicode="H"/><glyph d="M238 23q0 -19 -14 -31t-34 -12q-18 0 -32 12t-15 31v1388q1 19 15 31t32 12t32 -12t16 -31v-1388z" glyph-name="I" horiz-adv-x="380" unicode="I"/><glyph d="M238 104q0 -166 -102 -286t-267 -150h-4l-4 -2q-18 0 -33 13q-14 13 -14 27t7 27q7 12 40 22q32 9 37 9q119 39 182 126t63 214v1307q1 19 15 31t32 12t32 -12t16 -31v-1307z" glyph-name="J" horiz-adv-x="380" unicode="J"/><glyph d="M1114 20q0 -16 -14 -28t-36 -12t-36 20l-573 807l-217 -262v-522q0 -19 -14 -31t-34 -12q-18 0 -32 12t-15 31v1388q1 19 15 31t32 12t32 -12t16 -31v-727l632 754q14 18 34 18t36 -13t16 -29t-10 -28l-430 -509l590 -830q8 -12 8 -27z" glyph-name="K" horiz-adv-x="1114" unicode="K"/><glyph d="M887 43q-1 -19 -15 -31t-32 -12h-650q-16 0 -31 13t-16 30v1368q1 19 15 31t32 12t32 -12t16 -31v-1325h602q18 0 32 -12t15 -31z" glyph-name="L" horiz-adv-x="899" unicode="L"/><glyph d="M143 1403q-1 51 53 51q28 0 48 -31l639 -1106l639 1106q18 31 46 31t42 -15q12 -15 12 -36v-1380q0 -19 -14 -31t-32 -12t-34 12q-14 12 -14 31v1230l-602 -1044q-16 -29 -42 -29t-42 29l-604 1044v-1230q0 -19 -14 -31t-34 -12q-18 0 -32 12t-15 31v1380z" glyph-name="M" horiz-adv-x="1765" unicode="M"/><glyph d="M1186 33q0 -51 -52 -51q-30 0 -49 28l-847 1266v-1253q0 -19 -14 -31t-34 -12q-18 0 -32 12t-15 31v1378q0 51 47 51q33 0 60 -39l842 -1255v1253q0 19 14 31t32 12t33 -12q14 -12 15 -31v-1378z" glyph-name="N" horiz-adv-x="1329" unicode="N"/><glyph d="M1434 717q0 266 -184 463q-184 196 -449 196q-264 0 -450 -196q-185 -197 -185 -463t185 -463t449 -197t450 197q184 197 184 463zM1528 717q0 -301 -213 -523t-514 -222t-515 222t-214 523t214 523t515 222t514 -222t213 -523z" glyph-name="O" horiz-adv-x="1599" unicode="O"/><glyph d="M903 993q0 164 -85 259t-245 96h-335v-705h335q66 0 134 31q196 88 196 319zM997 993q-1 -139 -67 -243t-176 -150t-181 -45h-335v-532q0 -19 -14 -31t-34 -12q-18 0 -32 12t-15 31v1368q-1 16 15 29t32 14h383q197 0 311 -120t113 -321z" glyph-name="P" horiz-adv-x="1069" unicode="P"/><glyph d="M1434 717q0 266 -184 463q-184 196 -449 196q-264 0 -450 -196q-185 -197 -185 -463t185 -463t450 -197q143 0 321 105l-288 307q-12 13 -12 29t14 29q16 13 36 13t33 -16l291 -311q114 93 176 225t62 279zM1528 717q0 -165 -71 -313t-200 -254q111 -112 111 -130 t-15 -32q-35 -32 -69 2l-100 108q-203 -127 -383 -127q-301 1 -515 223t-214 523t214 523t515 222t514 -222t213 -523z" glyph-name="Q" horiz-adv-x="1599" unicode="Q"/><glyph d="M537 668q145 0 243 90t99 244q-1 154 -91 250q-90 95 -251 96h-299v-680h299zM1010 20q0 -18 -16 -29t-40 -11t-36 26l-293 586q-47 -10 -88 -10h-299v-559q0 -19 -14 -31t-34 -12q-18 0 -32 12t-15 31v1368q-1 16 15 29t32 14h347q199 0 317 -120t119 -321 q0 -276 -258 -377q295 -590 295 -596z" glyph-name="R" horiz-adv-x="1091" unicode="R"/><glyph d="M1018 414q0 -100 -43 -181q-63 -123 -182 -193t-249 -69q-130 0 -255 76t-189 182q-6 9 -6 23t14 26t36 13t33 -13t17 -24t11 -14q63 -80 150 -131t191 -51t200 58t138 142t42 162t-45 147q-45 68 -117 99t-159 51q-87 21 -174 41t-159 52t-116 100t-45 173 q0 179 130 279t316 100q82 0 183 -36t147 -91q10 -14 10 -29q0 -16 -15 -28q-16 -12 -34 -12t-50 30t-104 56q-72 25 -137 24q-150 0 -251 -74t-101 -219q0 -84 45 -138t117 -81q71 -27 157 -44q213 -42 332 -105q72 -39 117 -120t45 -181z" glyph-name="S" horiz-adv-x="1112" unicode="S"/><glyph d="M1126 1391q0 -19 -14 -31t-33 -12h-467v-1325q0 -19 -14 -31t-32 -12t-32 12q-13 12 -14 31v1325h-473q-18 0 -33 12q-14 12 -14 30t14 31q14 12 33 13h1032q19 0 33 -12t14 -31z" glyph-name="T" horiz-adv-x="1126" unicode="T"/><glyph d="M1206 543q0 -254 -137 -414t-387 -160t-396 160t-147 414v868q1 19 15 31t32 12t32 -12t15 -31v-868q0 -219 118 -353t331 -135q213 0 322 134t108 354v868q0 19 14 31t32 12t34 -12q14 -12 14 -31v-868z" glyph-name="U" horiz-adv-x="1345" unicode="U"/><glyph d="M1362 1416q0 -13 -606 -1410q-16 -35 -44 -35t-44 35q-80 166 -369 779t-289 627t16 28q16 12 38 12q24 0 38 -29l609 -1294l559 1294q12 29 36 29t41 -11q15 -12 15 -25z" glyph-name="V" horiz-adv-x="1372" unicode="V"/><glyph d="M1970 1414q0 -14 -242 -626t-309 -780q-16 -37 -45 -37t-45 35l-321 746l-306 -744q-16 -37 -45 -37t-45 35q-602 1386 -602 1404t16 30t40 12t36 -29l555 -1288l299 733q-231 526 -231 544t15 28q15 12 40 12t37 -29l189 -436l180 436q12 29 36 29t40 -11t16 -30 t-108 -276q-108 -258 -111 -267l313 -729l504 1282q14 31 38 31t41 -11q15 -12 15 -27z" glyph-name="W" horiz-adv-x="1980" unicode="W"/><glyph d="M1229 16q1 -14 -15 -26t-38 -12t-35 22l-541 811l-545 -811q-13 -23 -35 -23t-43 18t-2 50l570 848l-332 498q-8 12 -8 26q0 15 15 27t37 12t36 -22l307 -459l309 459q15 22 35 22t36 -12t15 -28q0 -16 -6 -25l-334 -498l566 -850q8 -13 8 -27z" glyph-name="X" horiz-adv-x="1196" unicode="X"/><glyph d="M1075 1417q0 -14 -8 -26l-477 -725v-643q0 -19 -14 -31t-33 -12q-18 0 -33 12q-14 12 -14 31v643l-478 725q-8 12 -8 26q0 15 16 27t36 12q22 0 36 -22l445 -676l444 676q13 22 35 22t38 -12q15 -13 15 -27z" glyph-name="Y" horiz-adv-x="1085" unicode="Y"/><glyph d="M1135 43q0 -43 -45 -43h-955q-51 0 -51 35q0 16 10 31l881 1282h-807q-18 0 -33 12q-14 12 -14 30t14 31q14 12 33 13h891q51 0 51 -35q0 -14 -10 -29l-881 -1284h871q45 0 45 -43z" glyph-name="Z" horiz-adv-x="1218" unicode="Z"/><glyph d="M401 -80q0 -18 -14 -30t-33 -13h-164q-16 0 -31 13t-16 30v1593q-1 15 15 29t32 14h164q18 0 32 -12t15 -30q0 -18 -14 -31q-14 -12 -33 -13h-116v-1507h116q18 0 33 -12q14 -13 14 -31z" glyph-name="bracketleft" horiz-adv-x="483" unicode="["/><glyph d="M797 14q1 -22 -15 -33t-40 -11t-37 26q-662 1403 -662 1424q0 22 15 34t39 12t38 -28q662 -1402 662 -1424z" glyph-name="backslash" horiz-adv-x="839" unicode="\"/><glyph d="M340 -80q0 -16 -15 -30t-32 -13h-164q-18 0 -33 12q-14 13 -14 31t14 30t33 13h117v1507h-117q-19 0 -33 12t-14 31t14 31t33 12h164q15 0 31 -13t16 -30v-1593z" glyph-name="bracketright" horiz-adv-x="483" unicode="]"/><glyph d="M1622 901h-125l-473 469l-475 -469h-125l539 557h118z" glyph-name="asciicircum" horiz-adv-x="2048" unicode="^"/><glyph d="M1024 -483h-1024v80h1024v-80z" glyph-name="underscore" unicode="_"/><glyph d="M549 1067q0 -15 -12 -27q-11 -12 -29 -12t-31 12l-194 207q-27 27 1 53t58 -4l197 -204q10 -11 10 -25z" glyph-name="grave" unicode="`"/><glyph d="M535 862q-162 0 -273 -123q-110 -123 -110 -285t110 -276q110 -115 273 -115q115 0 208 60t140 162v356q-47 101 -141 161t-207 60zM977 23q0 -43 -45 -43q-18 0 -33 12q-14 12 -14 31v114q-139 -162 -343 -162q-204 -1 -344 141t-140 340t140 346t337 148q89 0 163 -28 t107 -57q33 -28 80 -77v115q0 19 14 31t33 12q45 0 45 -43v-880z" glyph-name="a" horiz-adv-x="1085" unicode="a"/><glyph d="M944 453q0 161 -112 285t-271 124q-113 0 -207 -59t-141 -160v-379q45 -100 139 -151t209 -52q160 0 272 115q111 115 111 277zM1036 454q0 -198 -139 -338t-336 -141q-105 0 -199 40t-151 104v-96q0 -43 -47 -43q-18 0 -33 12q-14 12 -14 31v1480q0 41 47 41t47 -41 v-715q153 162 349 162t336 -149t140 -347z" glyph-name="b" horiz-adv-x="1093" unicode="b"/><glyph d="M866 145q0 -16 -16 -32q-58 -59 -146 -99t-169 -39q-197 1 -337 149t-140 346t140 339t322 141t293 -92q18 -14 18 -30t-22 -37q-22 -20 -53 0q-115 72 -221 71q-162 0 -273 -114q-110 -114 -110 -277q0 -162 110 -285t273 -123q90 0 173 55q30 20 62 44t50 24t32 -12 q14 -13 14 -29z" glyph-name="c" horiz-adv-x="917" unicode="c"/><glyph d="M535 862q-160 0 -272 -123q-111 -123 -111 -285t112 -277q112 -116 271 -116q113 0 207 60t141 162v358q-47 101 -141 161t-207 60zM977 23q0 -19 -13 -31q-14 -12 -32 -12t-33 12q-14 12 -14 31v112q-155 -160 -351 -160q-196 -1 -336 141t-141 339q1 197 141 347 t337 148q111 0 203 -47t147 -115v715q0 41 46 41t46 -41v-1480z" glyph-name="d" horiz-adv-x="1093" unicode="d"/><glyph d="M889 621q-49 113 -140 179t-210 64q-119 0 -214 -66t-145 -177h709zM999 568q0 -13 -14 -24t-33 -12h-794q-6 -37 -6 -71q0 -162 114 -281t280 -119q190 0 306 169q37 54 79 22q15 -12 15 -28t-6 -25q-66 -103 -169 -163t-226 -61q-199 1 -343 143t-144 345t136 345 t341 142q171 0 295 -99t167 -265q2 -5 2 -18z" glyph-name="e" horiz-adv-x="1052" unicode="e"/><glyph d="M629 1487q1 -19 -13 -31t-27 -12t-48 12t-80 12q-113 0 -168 -88t-55 -206v-234h182q18 0 32 -13t15 -31q0 -18 -14 -32q-14 -12 -33 -12h-182v-829q0 -19 -14 -31t-34 -12q-18 0 -32 12t-15 31v829h-77q-18 0 -33 12t-15 30t14 32t34 14h77v234q0 152 84 266t230 114 q51 0 111 -16t61 -51z" glyph-name="f" horiz-adv-x="475" unicode="f"/><glyph d="M535 866q-162 0 -273 -116q-110 -116 -110 -277q0 -162 112 -288t271 -126q113 0 207 59t141 161v368q-47 99 -141 159t-207 60zM977 -70q0 -457 -510 -456q-18 0 -33 12q-14 12 -14 30t14 31q14 12 33 13q211 0 314 83t104 287v201q-147 -156 -347 -156t-340 150 q-140 149 -140 347t140 338t337 140q100 0 194 -46t154 -111v110q0 43 47 43q18 0 32 -12t15 -31v-973z" glyph-name="g" horiz-adv-x="1093" unicode="g"/><glyph d="M809 23q0 -19 -14 -31q-15 -12 -33 -12t-33 12q-14 12 -14 31v593q0 236 -279 236q-72 0 -131 -40t-82 -105q-12 -31 -12 -52v-632q0 -19 -14 -31q-15 -12 -33 -12t-33 12q-14 12 -14 31v1480q0 41 47 41t47 -41v-667q37 44 105 74t120 30q164 0 268 -82t105 -242v-593z " glyph-name="h" horiz-adv-x="917" unicode="h"/><glyph d="M211 23q0 -19 -14 -31q-15 -12 -33 -12t-33 12q-14 12 -14 31v880q0 19 14 31q15 12 33 12t32 -12t15 -31v-880zM231 1323q0 -29 -19 -48t-48 -19t-48 18q-19 20 -20 49q0 29 20 48t48 19q29 0 48 -18q19 -20 19 -49z" glyph-name="i" horiz-adv-x="327" unicode="i"/><glyph d="M211 -72q0 -455 -512 -454q-18 0 -33 12q-14 12 -14 30t14 31q14 12 33 13q211 0 314 82t104 286v973q0 17 14 31q15 14 33 14t32 -13t15 -32v-973zM240 1323q0 -29 -20 -48t-48 -19q-29 0 -48 18q-19 20 -20 49q0 29 20 48t48 19t48 -18q20 -20 20 -49z" glyph-name="j" horiz-adv-x="327" unicode="j"/><glyph d="M815 18q0 -16 -15 -28t-37 -12t-36 24l-338 604l-178 -203v-380q0 -19 -14 -31q-15 -12 -33 -12t-33 12q-14 12 -14 31v1480q0 41 47 41t47 -41v-964l340 389q13 18 33 18t36 -13t15 -29q0 -16 -12 -32l-170 -194l358 -637q4 -7 4 -23z" glyph-name="k" horiz-adv-x="843" unicode="k"/><glyph d="M211 23q0 -19 -14 -31q-15 -12 -33 -12t-33 12q-14 12 -14 31v1480q0 41 47 41t47 -41v-1480z" glyph-name="l" horiz-adv-x="327" unicode="l"/><glyph d="M164 946q47 0 47 -62v-36q43 43 106 73t121 29q227 0 307 -139q43 63 118 101t153 38q348 0 348 -323v-604q0 -19 -13 -31t-31 -12t-34 12q-14 12 -14 31v604q0 127 -62 181t-178 54t-180 -67q-63 -68 -64 -168v-604q0 -19 -14 -31t-32 -12t-33 12q-14 12 -15 31v604 q0 127 -61 181t-179 54t-181 -66q-62 -67 -62 -169v-604q0 -19 -14 -31q-15 -12 -33 -12t-33 12q-14 12 -14 31v880q0 19 14 31t33 12z" glyph-name="m" horiz-adv-x="1472" unicode="m"/><glyph d="M891 23q0 -19 -14 -31q-15 -12 -33 -12t-33 12q-14 12 -14 31v514q0 326 -318 325q-81 0 -153 -42t-115 -113v-684q0 -19 -14 -31q-15 -12 -33 -12t-33 12q-14 12 -14 31v880q0 19 14 31t33 12q47 0 47 -43v-72q123 119 268 119q197 0 305 -108t107 -305v-514z" glyph-name="n" horiz-adv-x="999" unicode="n"/><glyph d="M918 471q0 162 -111 277q-111 114 -273 114t-272 -114t-110 -277q0 -162 110 -285t273 -123t273 123t110 285zM535 950q197 0 337 -141t140 -339t-140 -346t-338 -148q-196 0 -336 148t-140 346t140 339t337 141z" glyph-name="o" horiz-adv-x="1069" unicode="o"/><glyph d="M942 473q0 162 -112 277t-271 114q-113 0 -207 -59t-141 -160v-356q47 -101 142 -163t206 -63q159 0 271 124t112 286zM1036 472q0 -198 -140 -348t-342 -149q-202 0 -343 158v-616q0 -19 -14 -31q-15 -12 -33 -12t-33 12q-14 12 -14 31v1386q0 19 14 31t33 12 q47 0 47 -43v-110q61 69 155 113t193 44q197 0 337 -140t140 -338z" glyph-name="p" horiz-adv-x="1093" unicode="p"/><glyph d="M535 864q-160 0 -272 -114q-111 -114 -111 -277q0 -162 112 -286t271 -124q113 0 207 60t141 162v358q-47 101 -141 161t-207 60zM977 -483q0 -19 -14 -31q-15 -12 -33 -12t-33 12q-14 12 -14 31v616q-149 -158 -347 -158t-338 150q-140 149 -140 347t140 338t344 140 t341 -157v104q0 43 47 43q18 0 32 -12t15 -31v-1380z" glyph-name="q" horiz-adv-x="1093" unicode="q"/><glyph d="M649 852q0 -18 -15 -30t-36 -11q-21 0 -40 26q-19 25 -105 25t-164 -74t-78 -170v-595q0 -19 -14 -31q-15 -12 -33 -12t-33 12q-14 12 -14 31v880q0 19 14 31t33 12q47 0 47 -43v-82q96 129 252 129q57 0 122 -24q64 -25 64 -74z" glyph-name="r" horiz-adv-x="659" unicode="r"/><glyph d="M715 293q0 -137 -95 -227t-235 -91q-101 1 -195 59t-131 150q-2 4 -2 18q-1 14 15 25q16 13 38 13t40 -31q86 -145 235 -146q104 -1 171 63t67 152q-1 88 -49 139q-48 50 -116 79q-68 30 -138 56q-68 26 -116 73t-48 127t65 140q65 58 141 58t141 -32t90 -62 q25 -32 25 -46t-15 -26q-15 -14 -39 -14t-37 23q-3 4 -5 6q-64 63 -132 63t-104 -33t-36 -83t48 -84t117 -59t137 -59t115 -98q48 -64 48 -153z" glyph-name="s" horiz-adv-x="782" unicode="s"/><glyph d="M575 45q1 -33 -65 -51t-111 -19q-92 1 -153 59q-107 103 -107 304v516h-78q-18 0 -32 12q-15 12 -15 30t14 32q14 12 33 12h78v346q1 18 15 30t32 13q18 0 32 -12t15 -31v-346h183q18 0 32 -12t15 -30q0 -18 -14 -32q-14 -12 -33 -12h-183v-516q0 -274 168 -275 q45 -1 83 13t51 14t27 -13q13 -14 13 -32z" glyph-name="t" horiz-adv-x="585" unicode="t"/><glyph d="M883 23q-1 -19 -15 -31t-32 -12q-47 0 -48 45v71q-129 -121 -268 -121q-199 0 -305 115t-106 313v500q0 19 14 31q15 12 33 12t32 -12t15 -31v-500q0 -340 317 -340q82 0 154 40t114 112v688q0 19 14 31t34 12q18 0 32 -12t15 -31v-880z" glyph-name="u" horiz-adv-x="999" unicode="u"/><glyph d="M874 907q0 -16 -2 -22l-389 -869q-16 -34 -43 -34t-45 36q-385 860 -385 882t16 34t40 12t36 -28l340 -777l342 779q14 26 36 26t39 -11q15 -12 15 -28z" glyph-name="v" horiz-adv-x="884" unicode="v"/><glyph d="M1296 907q0 -16 -2 -22l-348 -869q-12 -34 -41 -34t-47 36q-51 121 -201 504l-204 -506q-12 -34 -41 -34t-47 36q-33 72 -189 469t-156 415t16 32q16 12 41 12q26 0 36 -28l299 -777l194 510q-92 233 -92 251t15 32q15 12 41 12t36 -28l299 -777l301 779q10 26 34 26 t41 -11q15 -12 15 -28z" glyph-name="w" horiz-adv-x="1316" unicode="w"/><glyph d="M815 20q0 -16 -15 -28t-38 -12t-35 20l-319 502l-320 -502q-12 -20 -34 -20t-39 12q-15 12 -15 28t8 27l344 537l-202 297q-18 31 3 48t44 17t34 -20l177 -262l176 262q12 20 34 20t45 -17q22 -17 3 -48l-203 -297l344 -537q8 -12 8 -27z" glyph-name="x" horiz-adv-x="815" unicode="x"/><glyph d="M803 -74q0 -455 -512 -454q-45 0 -45 42t45 42q211 0 315 83t105 287v162q-94 -102 -244 -102t-254 88t-104 250v579q0 19 14 31q15 12 33 12t32 -12t15 -31v-579q0 -128 75 -190t190 -62t179 67q63 68 64 168v596q0 43 45 43q18 0 32 -12t15 -31v-977z" glyph-name="y" horiz-adv-x="919" unicode="y"/><glyph d="M768 907q0 -16 -12 -33l-547 -786h508q19 0 33 -13t14 -31t-14 -32q-14 -12 -33 -12h-594q-18 0 -35 10q-16 10 -16 26t10 32l549 786h-508q-18 0 -33 13q-14 13 -14 31t14 32q14 12 33 12h594q51 0 51 -35z" glyph-name="z" horiz-adv-x="839" unicode="z"/><glyph d="M225 573q139 -1 197 63t57 224v240q0 229 68 303t258 74h43v-88h-37q-137 -1 -183 -53t-46 -212v-241q0 -174 -43 -248t-152 -105q107 -30 151 -102t44 -250v-241q0 -162 47 -212t180 -51h39v-88h-43q-190 0 -258 74t-68 301v240q0 160 -57 223t-201 63l-22 -2h-23v90 l21 -2h28z" glyph-name="braceleft" unicode="{"/><glyph d="M557 -483h-90v2048h90v-2048z" glyph-name="bar" unicode="|"/><glyph d="M848 485h-23l-22 2q-143 0 -201 -63t-57 -223v-240q0 -227 -68 -301t-258 -74h-43v88h39q133 0 180 50t47 213v241q0 174 43 248t154 104q-111 31 -154 105t-43 248v241q0 160 -46 212t-183 53h-37v88h43q190 0 258 -74t68 -303v-240q0 -160 57 -223t201 -64h22l23 2v-90 z" glyph-name="braceright" unicode="}"/><glyph d="M856 569q-6 0 -16 5t-19 8q-160 59 -250 59t-181 -37t-212 -123v92q206 146 387 146q98 0 271 -62q12 -2 21 -7t26 -9q170 -61 254 -61q162 0 393 159v-92q-217 -147 -387 -147q-100 0 -266 61q-15 8 -21 8z" glyph-name="asciitilde" horiz-adv-x="1705" unicode="~"/><glyph d="M145 1391q1 27 21 45t47 18t49 -18t21 -45q0 -27 -22 -47q-23 -20 -49 -21q-26 1 -46 21t-21 47zM166 1159q0 41 47 41t47 -41v-1147q0 -18 -14 -30q-33 -28 -66 0q-14 12 -14 30v1147z" glyph-name="exclamdown" horiz-adv-x="428" unicode="¡"/><glyph d="M410 696q0 -100 57 -181t151 -114v590q-94 -33 -151 -113q-57 -82 -57 -182zM989 433q-1 -17 -31 -48t-104 -57t-141 -27v-174q-1 -19 -15 -31t-32 -12t-33 12q-14 12 -15 31v186q-133 33 -218 139t-85 244q0 137 85 245t218 140v219q0 18 14 30t34 13q18 0 32 -12 t15 -31v-208q137 0 229 -76q18 -14 18 -32t-14 -32t-30 -14t-31 10q-88 55 -172 56v-617q98 0 196 76q17 12 33 12t32 -12q15 -13 15 -30z" glyph-name="cent" horiz-adv-x="1361" unicode="¢"/><glyph d="M655 1378q-117 0 -159 -68t-43 -212q0 -144 45 -314h178q18 0 32 -12t15 -30q0 -18 -14 -31q-14 -12 -33 -13h-158q31 -123 31 -200q0 -172 -137 -412h518q57 0 89 44t32 106q0 18 14 30q34 29 65 0q15 -12 15 -30q-1 -92 -61 -164t-150 -72h-602q-47 0 -47 25t82 180 q86 176 86 309q0 61 -29 184h-158q-18 0 -32 12t-15 31q0 19 14 31t33 12h142q-49 205 -50 336q0 344 297 344q131 0 221 -88t91 -219q0 -43 -44 -43t-51 43l-4 37q-33 184 -213 184z" glyph-name="sterling" horiz-adv-x="1361" unicode="£"/><glyph d="M1262 160q14 0 28 -14t15 -33q-1 -19 -15 -29t-59 -33q-154 -80 -332 -80q-272 1 -476 185t-243 452h-133q-47 0 -47 41q0 17 14 31t33 14h125v23q0 66 8 117h-133q-18 0 -33 12q-14 12 -14 30t14 31q14 12 33 13h152q69 236 263 390t437 152q87 0 191 -24t165 -68 q25 -16 25 -36t-20 -37q-20 -18 -52 -3q-160 82 -309 82q-207 0 -371 -128t-231 -328h551q45 0 45 -43t-45 -43h-572q-10 -66 -10 -117v-23h498q18 0 32 -13t15 -32q0 -41 -47 -41h-488q40 -229 216 -390t407 -161q158 0 334 97q15 6 29 6z" glyph-name="currency" horiz-adv-x="1361" unicode="¤"/><glyph d="M1225 1415q0 -14 -8 -26l-453 -689h135q45 0 45 -43t-45 -43h-160v-149h160q45 0 45 -43t-45 -43h-160v-356q0 -19 -14 -31q-15 -12 -33 -12t-33 12q-14 12 -14 31v356h-164q-18 0 -32 12q-15 13 -15 31t14 30t33 13h164v149h-164q-18 0 -32 12t-15 31q0 19 14 31t33 12 h142l-453 689q-8 12 -8 26q0 15 15 27t37 12t36 -22l442 -674l445 674q13 22 35 22t38 -12t15 -27z" glyph-name="yen" horiz-adv-x="1361" unicode="¥"/><glyph d="M557 -350h-90v758h90v-758zM557 674h-90v758h90v-758z" glyph-name="brokenbar" unicode="¦"/><glyph d="M782 580q0 66 -37 118t-129 109l-239 147q-70 -29 -110 -80t-40 -110q0 -120 154 -219l268 -168q133 85 133 203zM829 1198v-22h-116q-3 106 -55 167t-141 61t-140 -46t-51 -114t36 -116q37 -47 121 -96l203 -119q119 -69 172 -145t53 -170q0 -170 -194 -279 q108 -95 107 -222q-1 -128 -93 -208q-93 -79 -243 -79t-234 84t-84 239v23h121v-11q0 -109 55 -167q56 -58 152 -58t148 46t52 124q0 104 -174 215q-12 7 -26 17t-19 12l-172 110q-198 123 -198 279q0 196 198 297q-106 77 -105 204q1 128 89 208q90 80 231 80t224 -88 q83 -87 83 -226z" glyph-name="section" unicode="§"/><glyph d="M449 1126q-1 -23 -17 -40t-40 -17t-41 17t-17 41t16 42q16 19 41 19t41 -20t17 -42zM690 1127q0 -24 -18 -41t-41 -17t-40 17t-17 41t16 42q16 19 41 19t42 -18t17 -43z" glyph-name="dieresis" unicode="¨"/><glyph d="M848 268q-172 0 -275 123q-102 125 -102 333q1 208 107 330t282 122q133 0 223 -72t103 -186h-105q-48 170 -227 172q-127 0 -197 -96q-69 -96 -69 -269q0 -172 70 -271t196 -100q92 0 157 52t83 141h102q-12 -125 -110 -202t-238 -77zM195 721q0 -125 50 -247t146 -218 q191 -191 461 -193q131 1 254 53t215 144q190 190 190 463t-192 465t-465 192t-466 -195t-193 -464zM1583 720q0 -306 -219 -518t-515 -212t-511 216t-215 513t212 515t518 218t518 -213t212 -519z" glyph-name="copyright" horiz-adv-x="1705" unicode="©"/><glyph d="M307 1372q-76 0 -129 -56t-53 -130t52 -126q53 -52 117 -52q125 0 175 98l2 168q-51 98 -164 98zM539 979q0 -31 -34 -31t-34 31v31q-68 -64 -167 -64t-173 71t-74 169t73 173t175 75t166 -64v31q0 31 34 31t34 -31v-422z" glyph-name="ordfeminine" horiz-adv-x="647" unicode="ª"/><glyph d="M838 40q0 -16 -16 -28t-34 -12q-20 0 -36 16l-373 420q-8 10 -8 26t8 27l373 437q12 16 33 16t37 -12q31 -24 3 -60l-350 -407l350 -391q13 -17 13 -32zM530 40q0 -16 -15 -28t-35 -12t-36 16l-372 420q-8 10 -8 26t8 27l372 437q12 16 34 16t36 -12q16 -12 16 -28 t-12 -32l-350 -407l350 -391q12 -17 12 -32z" glyph-name="guillemotleft" horiz-adv-x="860" unicode="«"/><glyph d="M1452 354h-78v420h-1120v82h1198v-502z" glyph-name="logicalnot" horiz-adv-x="1705" unicode="¬"/><glyph d="M1106 921q0 83 -62 119t-192 37h-168v-313h168q143 0 199 37q55 37 55 120zM1223 922q1 -88 -53 -148t-150 -72l190 -393h-131l-182 377h-213v-377h-115v846h305q174 0 262 -55t87 -178zM195 721q0 -125 50 -247t146 -218q191 -191 461 -193q131 1 254 53t215 144 q190 190 190 463t-192 465t-465 192t-466 -195t-193 -464zM1583 720q0 -306 -219 -518t-515 -212t-511 216t-215 513t212 515t518 218t518 -213t212 -519z" glyph-name="registered" horiz-adv-x="1705" unicode="®"/><glyph d="M313 1069q-39 0 -41 43q0 18 12 30t29 13h398q17 -1 29 -13t12 -30t-12 -30t-29 -13h-398z" glyph-name="macron" unicode="¯"/><glyph d="M551 1174q1 88 -63 151t-152 63t-150 -60q-62 -62 -61 -151q0 -89 62 -151q61 -62 151 -63t152 61t61 150zM63 1175q0 115 80 195t194 80q113 0 193 -80t80 -193q0 -114 -80 -194t-196 -80t-193 78q-78 78 -78 194z" glyph-name="degree" horiz-adv-x="673" unicode="°"/><glyph d="M1452 59h-1198v82h1198v-82zM1452 727h-559v-352h-80v352h-559v80h559v354h80v-354h559v-80z" glyph-name="plusminus" horiz-adv-x="1705" unicode="±"/><glyph d="M602 578q0 -18 -14 -30t-33 -13h-444q-47 0 -48 65q0 43 22 117t74 137t108 99q55 36 109 69q124 76 124 163q0 161 -197 161q-72 0 -141 -82q-31 -39 -74 -9q-16 13 -16 27t26 47q90 105 208 105t203 -64t85 -189q0 -126 -141 -213q-59 -36 -121 -74t-110 -107 q-50 -69 -62 -164h395q19 1 33 -13t14 -32z" glyph-name="uni00B2" horiz-adv-x="665" unicode="²"/><glyph d="M453 1216q0 52 -33 96q-33 42 -87 42q-53 0 -109 -41t-70 -41t-30 13q-15 13 -15 29t28 46q93 82 189 82t158 -68t62 -156t-83 -153q170 -70 170 -238q0 -137 -89 -219t-227 -82q-61 0 -131 36t-96 68t-26 46t14 27q16 13 30 13t82 -50q68 -51 127 -52q103 0 163 56 t60 152q0 94 -66 138q-67 44 -163 44l-32 -3q-53 0 -54 29q0 51 114 73q42 7 78 34t36 79z" glyph-name="uni00B3" horiz-adv-x="696" unicode="³"/><glyph d="M754 1272q0 -14 -11 -25l-196 -207q-11 -12 -29 -12t-31 12q-12 12 -12 26t12 26l195 204q32 30 60 2q12 -12 12 -26z" glyph-name="acute" unicode="´"/><glyph d="M186 332q0 -260 241 -258q120 0 211 106t138 316l125 567h121l-166 -787q-4 -8 -14 -66t-11 -69q0 -63 68 -63h19q2 0 9 1t11 1l-18 -96h-2q-22 -11 -74 -13q-135 0 -133 127v17q0 2 2 10t2 18q-43 -84 -125 -128t-184 -44t-174 45q-73 45 -103 127l-119 -567h-121 l316 1487h121l-123 -590q-17 -91 -17 -141z" glyph-name="uni00B5" horiz-adv-x="1093" unicode="µ"/><glyph d="M932 1415h-129v-1415h-70v1415h-192v-1415h-70v782q-176 10 -278 104q-103 94 -103 246q0 154 109 250t286 97h447v-64z" glyph-name="paragraph" unicode="¶"/><glyph d="M354 696q0 -34 -24 -58t-58 -24t-58 25t-24 59t24 57t58 23t58 -24q24 -25 24 -58z" glyph-name="periodcentered" horiz-adv-x="544" unicode="·"/><glyph d="M672 -173q0 -52 -41 -93t-87 -41q-46 -1 -86 21q-42 22 -42 43t14 33t30 13q16 0 34 -18t42 -18t39 19q17 19 17 48t-15 44q-15 16 -35 18q-50 6 -50 41v86q0 39 40 38q32 0 37 -17q4 -18 5 -26t0 -26t-1 -23q43 -14 71 -52t28 -90z" glyph-name="cedilla" unicode="¸"/><glyph d="M283 578q1 -18 -13 -30t-32 -13q-18 0 -33 12q-14 12 -15 31v745q-111 -55 -130 -55t-32 13t-14 32q0 29 98 75t130 46q41 0 41 -43v-813z" glyph-name="uni00B9" horiz-adv-x="387" unicode="¹"/><glyph d="M487 1194q0 74 -52 126t-128 52t-129 -52t-53 -126t52 -130t128 -56t129 56t53 130zM555 1194q0 -98 -73 -173t-175 -75t-176 75t-74 173t73 169t176 71t176 -71t73 -169z" glyph-name="ordmasculine" horiz-adv-x="612" unicode="º"/><glyph d="M797 463q0 -12 -11 -27l-372 -420q-12 -16 -32 -16t-37 12q-15 12 -15 28t12 32l348 391l-350 407q-10 14 -10 30t15 30q15 12 36 12t33 -16l372 -437q11 -14 11 -26zM489 463q0 -12 -10 -27l-373 -420q-12 -16 -32 -16t-36 12q-15 12 -15 28t12 32l348 391l-350 407 q-10 14 -10 30t15 30q15 12 36 12t32 -16l373 -437q10 -14 10 -26z" glyph-name="guillemotright" horiz-adv-x="860" unicode="»"/><glyph d="M283 578q1 -18 -13 -30t-32 -13q-18 0 -33 12q-14 12 -15 31v745q-111 -55 -130 -55t-32 13t-14 32q0 29 98 75t130 46q41 0 41 -43v-813zM1122 1425q0 -16 -6 -24l-903 -1411q-13 -23 -35 -23q-22 1 -38 13t-15 26q0 14 8 27l901 1411q14 22 36 22t37 -12q15 -13 15 -29 zM1405 340q0 -18 -14 -30t-33 -13h-178v-254q0 -19 -14 -31t-33 -12q-18 0 -33 12q-14 12 -15 31v254h-356q-51 0 -51 35q0 16 14 35l420 514q16 20 36 20t34 -13q16 -12 16 -28t-10 -31l-365 -444h262v270q1 17 15 31t32 14t33 -13q14 -13 15 -32v-270h178q18 0 33 -13 q14 -14 14 -32z" glyph-name="onequarter" horiz-adv-x="1468" unicode="¼"/><glyph d="M1421 45q0 -19 -14 -31t-33 -12h-444q-47 0 -47 66q-1 42 21 116t74 138t108 99q56 37 110 69q124 75 123 162q0 161 -197 161q-72 0 -141 -82q-17 -20 -37 -20t-37 12q-16 13 -16 27t27 47q90 104 208 104t202 -63q85 -63 85 -190t-141 -213q-58 -36 -120 -74t-112 -106 q-49 -69 -61 -165h395q18 0 33 -13q14 -14 14 -32zM1122 1425q0 -16 -6 -24l-903 -1411q-13 -23 -35 -23q-22 1 -38 13t-15 26q0 14 8 27l901 1411q14 22 36 22t37 -12q15 -13 15 -29zM283 578q1 -18 -13 -30t-32 -13q-18 0 -33 12q-14 12 -15 31v745q-111 -55 -130 -55 t-32 13t-14 32q0 29 98 75t130 46q41 0 41 -43v-813z" glyph-name="onehalf" horiz-adv-x="1484" unicode="½"/><glyph d="M453 1216q0 52 -33 96q-33 42 -87 42q-53 0 -109 -41t-70 -41t-30 13q-15 13 -15 29t28 46q93 82 189 82t158 -68t62 -156t-83 -153q170 -70 170 -238q0 -137 -89 -219t-227 -82q-61 0 -131 36t-96 68t-26 46t14 27q16 13 30 13t82 -50q68 -51 127 -52q103 0 163 56 t60 152q0 94 -66 138q-67 44 -163 44l-32 -3q-53 0 -54 29q0 51 114 73q42 7 78 34t36 79zM1368 1425q0 -16 -6 -24l-903 -1411q-13 -23 -35 -23q-22 1 -38 13t-15 26q0 14 8 27l901 1411q14 22 36 22t37 -12q15 -13 15 -29zM1651 340q-1 -18 -15 -30t-32 -13h-179v-254 q0 -19 -14 -31q-15 -12 -33 -12t-32 12t-15 31v254h-356q-51 0 -51 35q0 16 14 35l420 514q16 20 36 20t34 -13q29 -25 6 -59l-365 -444h262v270q1 17 15 31t32 14t32 -13t15 -32v-270h179q18 1 32 -13t15 -32z" glyph-name="threequarters" horiz-adv-x="1714" unicode="¾"/><glyph d="M477 1401q1 27 21 45t47 18t49 -18t20 -45q0 -27 -22 -47t-48 -20t-46 20t-21 47zM84 393q0 182 114 290t300 136v350q0 41 47 41t47 -41v-389q0 -29 -43 -45t-103 -30t-121 -42q-59 -28 -103 -97q-44 -70 -44 -152t38 -165t128 -138t186 -55q186 -1 304 139q26 32 34 53 q27 46 75 14q17 -12 17 -30t-30 -58q-66 -94 -169 -149t-229 -55t-239 68q-113 69 -170 193q-39 82 -39 162z" glyph-name="questiondown" unicode="¿"/><glyph d="M1012 492l-371 802l-338 -802h709zM640 1456q28 0 49 -44t333 -714q311 -670 311 -683t-15 -24t-39 -11t-38 28l-190 400h-785l-174 -400q-12 -28 -36 -28q-56 1 -56 40q0 25 596 1399q16 37 44 37zM651 1579q0 -15 -12 -27q-11 -12 -29 -12t-30 12l-195 207 q-12 11 -12 25t12 26q30 30 59 -2l197 -204q10 -11 10 -25z" glyph-name="Agrave" horiz-adv-x="1333" unicode="À"/><glyph d="M1012 492l-371 802l-338 -802h709zM640 1456q28 0 49 -44t333 -714q311 -670 311 -683t-15 -24t-39 -11t-38 28l-190 400h-785l-174 -400q-12 -28 -36 -28q-56 1 -56 40q0 25 596 1399q16 37 44 37zM918 1784q0 -14 -11 -25l-196 -207q-11 -12 -29 -12t-31 12 q-12 12 -12 26t12 26l195 204q32 30 60 2q12 -12 12 -26z" glyph-name="Aacute" horiz-adv-x="1333" unicode="Á"/><glyph d="M1012 492l-371 802l-338 -802h709zM640 1456q28 0 49 -44t333 -714q311 -670 311 -683t-15 -24t-39 -11t-38 28l-190 400h-785l-174 -400q-12 -28 -36 -28q-56 1 -56 40q0 25 596 1399q16 37 44 37zM872 1576q0 -12 -14 -24t-30 -12t-27 12l-166 174l-166 -174 q-11 -12 -29 -12t-35 17t5 47q25 27 73 82q49 54 88 94t64 40t64 -40t87 -94t74 -82q12 -17 12 -28z" glyph-name="Acircumflex" horiz-adv-x="1333" unicode="Â"/><glyph d="M883 1733q0 -73 -36 -133q-37 -60 -99 -60t-93 39t-52 77q-22 38 -52 38q-53 0 -59 -117q-2 -37 -42 -37t-40 33q0 76 35 137q37 62 95 62q101 1 135 -77q34 -79 66 -77q31 0 45 38t15 77q0 39 41 39t41 -39zM1012 492l-371 802l-338 -802h709zM640 1456q28 0 49 -44 t333 -714q311 -670 311 -683t-15 -24t-39 -11t-38 28l-190 400h-785l-174 -400q-12 -28 -36 -28q-56 1 -56 40q0 25 596 1399q16 37 44 37z" glyph-name="Atilde" horiz-adv-x="1333" unicode="Ã"/><glyph d="M1012 492l-371 802l-338 -802h709zM640 1456q28 0 49 -44t333 -714q311 -670 311 -683t-15 -24t-39 -11t-38 28l-190 400h-785l-174 -400q-12 -28 -36 -28q-56 1 -56 40q0 25 596 1399q16 37 44 37zM582 1638q0 -23 -16 -40t-41 -17q-24 0 -41 17t-17 41t16 42 q16 19 41 19q26 0 42 -20t16 -42zM823 1639q0 -24 -18 -41t-41 -17t-40 17t-17 41t16 42q16 19 41 19t42 -18t17 -43z" glyph-name="Adieresis" horiz-adv-x="1333" unicode="Ä"/><glyph d="M1012 492l-371 802l-338 -802h709zM698 1520q0 27 -16 46t-43 19t-43 -19t-16 -46t16 -45q16 -19 43 -19t43 18t16 46zM1333 20q0 -18 -15 -29t-39 -11t-38 28l-190 400h-785l-174 -400q-14 -28 -38 -28q-54 1 -54 34t584 1377q-39 16 -63 52q-23 36 -23 85t42 92t99 43 t98 -43t41 -100q0 -90 -80 -127q4 -10 320 -683q316 -672 315 -690z" glyph-name="Aring" horiz-adv-x="1333" unicode="Å"/><glyph d="M942 492v755l-528 -755h528zM1792 43q0 -19 -14 -31t-33 -12h-756q-18 0 -33 12q-14 12 -14 31v365h-590l-284 -408q-14 -23 -36 -23q-22 1 -36 13q-16 12 -16 27t8 28l946 1337q35 51 84 52h727q19 0 33 -12t14 -31t-14 -31t-33 -12h-709v-564h541q45 0 45 -43t-45 -43 h-541v-612h709q18 0 33 -12q14 -13 14 -31z" glyph-name="AE" horiz-adv-x="1855" unicode="Æ"/><glyph d="M940 -218q0 -52 -41 -93t-86 -41t-87 22t-42 42q0 22 14 34t28 12t34 -18t44 -18t40 18q16 20 16 49t-15 44t-35 17q-50 5 -50 41v82q-289 15 -489 235q-199 220 -199 515t214 517t515 222q88 0 192 -24t164 -68q23 -14 23 -34t-20 -39q-20 -18 -52 -3q-174 82 -307 82 q-264 0 -450 -196q-185 -197 -185 -463t185 -463t450 -197q143 0 332 97q12 6 28 6q15 0 29 -14t14 -32q0 -19 -20 -34q-123 -94 -340 -107l-2 -49q42 -14 70 -52t28 -90z" glyph-name="Ccedilla" horiz-adv-x="1265" unicode="Ç"/><glyph d="M600 1579q0 -15 -12 -27t-30 -12t-30 12l-194 207q-12 11 -12 25t13 26q29 27 58 -2l197 -204q10 -11 10 -25zM993 43q0 -43 -45 -43h-758q-16 0 -31 13t-16 30v1348q-1 16 15 29t32 14h758q45 0 45 -43t-45 -43h-710v-564h540q18 0 32 -12t15 -30q0 -18 -14 -31 q-14 -12 -33 -13h-540v-612h710q45 0 45 -43z" glyph-name="Egrave" horiz-adv-x="1056" unicode="È"/><glyph d="M993 43q0 -43 -45 -43h-758q-16 0 -31 13t-16 30v1348q-1 16 15 29t32 14h758q45 0 45 -43t-45 -43h-710v-564h540q18 0 32 -12t15 -30q0 -18 -14 -31q-14 -12 -33 -13h-540v-612h710q45 0 45 -43zM805 1784q0 -14 -10 -25l-197 -207q-12 -12 -30 -12t-29 12q-26 26 0 52 l194 204q31 30 59 2q12 -12 13 -26z" glyph-name="Eacute" horiz-adv-x="1056" unicode="É"/><glyph d="M811 1576q0 -12 -14 -24q-13 -12 -29 -12t-29 12l-166 174l-165 -174q-12 -12 -30 -12t-30 12t-12 24t12 28q25 27 74 82q49 54 88 94q40 40 64 40t63 -40t88 -94t74 -82q12 -17 12 -28zM993 43q0 -43 -45 -43h-758q-16 0 -31 13t-16 30v1348q-1 16 15 29t32 14h758 q45 0 45 -43t-45 -43h-710v-564h540q18 0 32 -12t15 -30q0 -18 -14 -31q-14 -12 -33 -13h-540v-612h710q45 0 45 -43z" glyph-name="Ecircumflex" horiz-adv-x="1056" unicode="Ê"/><glyph d="M993 43q0 -43 -45 -43h-758q-16 0 -31 13t-16 30v1348q-1 16 15 29t32 14h758q45 0 45 -43t-45 -43h-710v-564h540q18 0 32 -12t15 -30q0 -18 -14 -31q-14 -12 -33 -13h-540v-612h710q45 0 45 -43zM500 1638q0 -23 -16 -40t-41 -17q-24 0 -41 17t-17 41t16 42 q16 19 41 19q26 0 42 -20t16 -42zM741 1639q0 -24 -18 -41t-41 -17t-40 17t-17 41t16 42q16 19 41 19t42 -18t17 -43z" glyph-name="Edieresis" horiz-adv-x="1056" unicode="Ë"/><glyph d="M201 1579q-1 -15 -13 -27t-29 -12t-30 12l-195 207q-12 11 -12 25t12 26q29 29 60 -2l196 -204q11 -11 11 -25zM238 23q0 -19 -14 -31t-34 -12q-18 0 -32 12t-15 31v1388q1 19 15 31t32 12t32 -12t16 -31v-1388z" glyph-name="Igrave" horiz-adv-x="380" unicode="Ì"/><glyph d="M238 23q0 -19 -14 -31t-34 -12q-18 0 -32 12t-15 31v1388q1 19 15 31t32 12t32 -12t16 -31v-1388zM457 1784q0 -14 -11 -25l-196 -207q-12 -12 -30 -12t-30 12t-12 26t12 26l195 204q31 30 59 2q12 -12 13 -26z" glyph-name="Iacute" horiz-adv-x="380" unicode="Í"/><glyph d="M422 1576q0 -12 -14 -24t-30 -12t-28 12l-166 174l-166 -174q-12 -12 -29 -12t-30 12q-12 12 -12 24t12 28q25 27 74 82q49 54 87 94t64 40q25 0 64 -40t88 -94t74 -82q12 -17 12 -28zM238 23q0 -19 -14 -31t-34 -12q-18 0 -32 12t-15 31v1388q1 19 15 31t32 12t32 -12 t16 -31v-1388z" glyph-name="Icircumflex" horiz-adv-x="380" unicode="Î"/><glyph d="M238 23q0 -19 -14 -31t-34 -12q-18 0 -32 12t-15 31v1388q1 19 15 31t32 12t32 -12t16 -31v-1388zM131 1638q0 -23 -16 -40t-40 -17t-41 17q-18 17 -18 41t16 42q16 19 42 19q25 0 41 -20t16 -42zM373 1639q-1 -24 -19 -41t-41 -17t-40 17t-17 41t16 42q16 19 41 19 t43 -18t17 -43z" glyph-name="Idieresis" horiz-adv-x="380" unicode="Ï"/><glyph d="M637 86q250 0 426 190t176 444q0 253 -175 440t-427 188h-401v-584h286q18 0 32 -12t15 -30q0 -18 -14 -32q-14 -12 -33 -12h-286v-592h401zM1333 721q0 -289 -205 -505t-491 -216h-449q-16 0 -31 13t-16 30v635h-129q-18 0 -32 12t-14 30t14 32q14 12 32 12h129v627 q-1 16 15 29t32 14h449q287 0 491 -212t205 -501z" glyph-name="Eth" horiz-adv-x="1404" unicode="Ð"/><glyph d="M1186 33q0 -51 -52 -51q-30 0 -49 28l-847 1266v-1253q0 -19 -14 -31t-34 -12q-18 0 -32 12t-15 31v1378q0 51 47 51q33 0 60 -39l842 -1255v1253q0 19 14 31t32 12t33 -12q14 -12 15 -31v-1378zM893 1733q0 -73 -36 -133t-98 -60t-93 39t-53 77t-52 38q-53 0 -59 -117 q-2 -37 -42 -37t-40 33q0 76 36 137q36 62 94 62q100 1 135 -77q34 -79 67 -77q31 0 45 38t14 77t41 39t41 -39z" glyph-name="Ntilde" horiz-adv-x="1329" unicode="Ñ"/><glyph d="M1434 717q0 266 -184 463q-184 196 -449 196q-264 0 -450 -196q-185 -197 -185 -463t185 -463t449 -197t450 197q184 197 184 463zM1528 717q0 -301 -213 -523t-514 -222t-515 222t-214 523t214 523t515 222t514 -222t213 -523zM795 1579q-1 -15 -13 -27t-29 -12t-30 12 l-195 207q-12 11 -12 25t12 26q29 29 60 -2l196 -204q11 -11 11 -25z" glyph-name="Ograve" horiz-adv-x="1599" unicode="Ò"/><glyph d="M1434 717q0 266 -184 463q-184 196 -449 196q-264 0 -450 -196q-185 -197 -185 -463t185 -463t449 -197t450 197q184 197 184 463zM1528 717q0 -301 -213 -523t-514 -222t-515 222t-214 523t214 523t515 222t514 -222t213 -523zM1061 1784q0 -14 -10 -25l-197 -207 q-12 -12 -30 -12t-29 12q-26 26 0 52l194 204q31 30 59 2q12 -12 13 -26z" glyph-name="Oacute" horiz-adv-x="1599" unicode="Ó"/><glyph d="M1026 1576q0 -12 -14 -24t-30 -12t-28 12l-166 174l-165 -174q-11 -12 -29 -12t-31 12q-12 12 -12 24t12 28q25 27 74 82q49 54 88 94t63 40t64 -40q39 -40 88 -94t74 -82q12 -17 12 -28zM1434 717q0 266 -184 463q-184 196 -449 196q-264 0 -450 -196 q-185 -197 -185 -463t185 -463t449 -197t450 197q184 197 184 463zM1528 717q0 -301 -213 -523t-514 -222t-515 222t-214 523t214 523t515 222t514 -222t213 -523z" glyph-name="Ocircumflex" horiz-adv-x="1599" unicode="Ô"/><glyph d="M1434 717q0 266 -184 463q-184 196 -449 196q-264 0 -450 -196q-185 -197 -185 -463t185 -463t449 -197t450 197q184 197 184 463zM1528 717q0 -301 -213 -523t-514 -222t-515 222t-214 523t214 523t515 222t514 -222t213 -523zM1057 1733q0 -73 -36 -133 q-37 -60 -99 -60t-93 39t-52 77q-22 38 -52 38q-53 0 -59 -117q-2 -37 -42 -37t-40 33q0 76 36 137q36 62 94 62q100 1 135 -77q34 -79 66 -77q31 0 46 38q14 38 14 77t41 39t41 -39z" glyph-name="Otilde" horiz-adv-x="1599" unicode="Õ"/><glyph d="M1434 717q0 266 -184 463q-184 196 -449 196q-264 0 -450 -196q-185 -197 -185 -463t185 -463t449 -197t450 197q184 197 184 463zM1528 717q0 -301 -213 -523t-514 -222t-515 222t-214 523t214 523t515 222t514 -222t213 -523zM745 1638q0 -23 -16 -40t-40 -17t-41 17 t-17 41t16 42q16 19 41 19t41 -20t16 -42zM987 1639q0 -24 -18 -41t-41 -17t-40 17q-18 17 -18 41t16 42q16 19 42 19q25 0 42 -18t17 -43z" glyph-name="Odieresis" horiz-adv-x="1599" unicode="Ö"/><glyph d="M1399 123l-58 -57l-487 487l-487 -487l-58 57l488 487l-488 488l58 57l487 -487l487 487l58 -57l-488 -488z" glyph-name="multiply" horiz-adv-x="1705" unicode="×"/><glyph d="M801 1376q-264 0 -450 -196q-185 -197 -185 -463q0 -182 93 -341t253 -245l553 1184q-133 61 -264 61zM1434 717q0 164 -77 310t-212 241l-549 -1176q100 -35 205 -35q265 0 449 197t184 463zM1528 717q0 -301 -213 -523t-514 -223q-131 0 -240 41q-16 -43 -51 -43 q-18 -1 -34 11t-15 27q0 15 14 44q-184 97 -294 277t-109 389q0 301 214 523t515 222q160 0 301 -67q0 8 6 17q6 10 10 18q17 37 41 36q23 0 39 -12t16 -28t-30 -76q160 -104 252 -274t92 -359z" glyph-name="Oslash" horiz-adv-x="1599" unicode="Ø"/><glyph d="M1206 543q0 -254 -137 -414t-387 -160t-396 160t-147 414v868q1 19 15 31t32 12t32 -12t15 -31v-868q0 -219 118 -353t331 -135q213 0 322 134t108 354v868q0 19 14 31t32 12t34 -12q14 -12 14 -31v-868zM713 1579q-1 -15 -13 -27t-29 -12t-30 12l-195 207q-12 11 -12 25 t12 26q29 29 60 -2l196 -204q11 -11 11 -25z" glyph-name="Ugrave" horiz-adv-x="1345" unicode="Ù"/><glyph d="M1206 543q0 -254 -137 -414t-387 -160t-396 160t-147 414v868q1 19 15 31t32 12t32 -12t15 -31v-868q0 -219 118 -353t331 -135q213 0 322 134t108 354v868q0 19 14 31t32 12t34 -12q14 -12 14 -31v-868zM938 1784q0 -14 -10 -25l-197 -207q-11 -12 -29 -12t-30 12 q-26 26 0 52l194 204q32 30 60 2q12 -12 12 -26z" glyph-name="Uacute" horiz-adv-x="1345" unicode="Ú"/><glyph d="M903 1576q0 -12 -14 -24q-13 -12 -29 -12t-29 12l-165 174l-166 -174q-12 -12 -30 -12t-30 12t-12 24t12 28q25 27 74 82q49 54 88 94t64 40q26 0 64 -40t87 -94t74 -82q12 -17 12 -28zM1206 543q0 -254 -137 -414t-387 -160t-396 160t-147 414v868q1 19 15 31t32 12 t32 -12t15 -31v-868q0 -219 118 -353t331 -135q213 0 322 134t108 354v868q0 19 14 31t32 12t34 -12q14 -12 14 -31v-868z" glyph-name="Ucircumflex" horiz-adv-x="1345" unicode="Û"/><glyph d="M612 1638q0 -23 -16 -40t-40 -17t-41 17t-17 41t16 42q16 19 41 19t41 -20t16 -42zM854 1639q0 -24 -18 -41t-41 -17t-40 17t-17 41t16 42q16 19 41 19t42 -18t17 -43zM1206 543q0 -254 -137 -414t-387 -160t-396 160t-147 414v868q1 19 15 31t32 12t32 -12t15 -31v-868 q0 -219 118 -353t331 -135q213 0 322 134t108 354v868q0 19 14 31t32 12t34 -12q14 -12 14 -31v-868z" glyph-name="Udieresis" horiz-adv-x="1345" unicode="Ü"/><glyph d="M1075 1417q0 -14 -8 -26l-477 -725v-643q0 -19 -14 -31t-33 -12q-18 0 -33 12q-14 12 -14 31v643l-478 725q-8 12 -8 26q0 15 16 27t36 12q22 0 36 -22l445 -676l444 676q13 22 35 22t38 -12q15 -13 15 -27zM754 1720q16 0 28 -12t13 -27q0 -14 -11 -24l-196 -207 q-12 -12 -30 -12t-30 12t-12 26t12 25l195 205q15 14 31 14z" glyph-name="Yacute" horiz-adv-x="1085" unicode="Ý"/><glyph d="M903 727q0 164 -85 258t-245 94h-335v-702h335q70 0 134 29q196 88 196 321zM997 727q0 -139 -66 -244q-67 -104 -177 -149t-181 -45h-335v-266q0 -19 -14 -31t-34 -12q-18 0 -32 12t-15 31v1388q1 19 15 31t32 12t32 -12t16 -31v-244h335q197 0 311 -119 q113 -120 113 -321z" glyph-name="Thorn" horiz-adv-x="1069" unicode="Þ"/><glyph d="M1047 446q-1 -190 -133 -318t-324 -128h-172q-18 0 -33 12q-14 12 -14 30t14 32q14 12 33 12h172q156 0 259 102t103 260t-107 250q-108 92 -270 93h-118q-20 0 -35 12q-14 13 -14 31t15 31t34 14q141 0 215 53t73 190q0 256 -303 256q-111 0 -171 -81t-60 -195v-1079 q0 -19 -14 -31q-15 -12 -33 -12t-33 12q-14 12 -14 31v1079q0 152 89 257q88 105 252 105t273 -83t109 -259t-109 -268q147 -48 231 -152t85 -256z" glyph-name="germandbls" horiz-adv-x="1107" unicode="ß"/><glyph d="M549 1067q0 -15 -12 -27q-11 -12 -29 -12t-31 12l-194 207q-27 27 1 53t58 -4l197 -204q10 -11 10 -25zM535 862q-162 0 -273 -123q-110 -123 -110 -285t110 -276q110 -115 273 -115q115 0 208 60t140 162v356q-47 101 -141 161t-207 60zM977 23q0 -43 -45 -43 q-18 0 -33 12q-14 12 -14 31v114q-139 -162 -343 -162q-204 -1 -344 141t-140 340t140 346t337 148q89 0 163 -28t107 -57q33 -28 80 -77v115q0 19 14 31t33 12q45 0 45 -43v-880z" glyph-name="agrave" horiz-adv-x="1085" unicode="à"/><glyph d="M535 862q-162 0 -273 -123q-110 -123 -110 -285t110 -276q110 -115 273 -115q115 0 208 60t140 162v356q-47 101 -141 161t-207 60zM977 23q0 -43 -45 -43q-18 0 -33 12q-14 12 -14 31v114q-139 -162 -343 -162q-204 -1 -344 141t-140 340t140 346t337 148q89 0 163 -28 t107 -57q33 -28 80 -77v115q0 19 14 31t33 12q45 0 45 -43v-880zM784 1272q0 -14 -10 -25l-196 -207q-12 -12 -30 -12t-30 12t-12 26t12 26l195 204q31 30 59 2q12 -12 12 -26z" glyph-name="aacute" horiz-adv-x="1085" unicode="á"/><glyph d="M535 862q-162 0 -273 -123q-110 -123 -110 -285t110 -276q110 -115 273 -115q115 0 208 60t140 162v356q-47 101 -141 161t-207 60zM977 23q0 -43 -45 -43q-18 0 -33 12q-14 12 -14 31v114q-139 -162 -343 -162q-204 -1 -344 141t-140 340t140 346t337 148q89 0 163 -28 t107 -57q33 -28 80 -77v115q0 19 14 31t33 12q45 0 45 -43v-880zM760 1064q0 -12 -14 -24t-30 -12q-15 0 -28 12l-166 174l-166 -174q-12 -12 -29 -12t-30 12q-12 12 -12 24t12 28q25 27 74 82q49 54 87 94t64 40q25 0 64 -40t88 -94t74 -82q12 -17 12 -28z" glyph-name="acircumflex" horiz-adv-x="1085" unicode="â"/><glyph d="M535 862q-162 0 -273 -123q-110 -123 -110 -285t110 -276q110 -115 273 -115q115 0 208 60t140 162v356q-47 101 -141 161t-207 60zM977 23q0 -43 -45 -43q-18 0 -33 12q-14 12 -14 31v114q-139 -162 -343 -162q-204 -1 -344 141t-140 340t140 346t337 148q89 0 163 -28 t107 -57q33 -28 80 -77v115q0 19 14 31t33 12q45 0 45 -43v-880zM770 1221q0 -73 -36 -133t-98 -60t-93 39t-53 77t-52 38q-53 0 -59 -117q-2 -37 -42 -37t-40 33q0 76 36 137q36 62 94 62q100 1 135 -77q34 -79 67 -77q31 0 45 38t14 77t41 39t41 -39z" glyph-name="atilde" horiz-adv-x="1085" unicode="ã"/><glyph d="M469 1126q0 -23 -16 -40t-40 -17t-41 17q-18 17 -18 41t16 42q16 19 42 19q25 0 41 -20t16 -42zM711 1127q-1 -24 -19 -41t-41 -17t-40 17t-17 41t16 42q16 19 41 19t43 -18t17 -43zM535 862q-162 0 -273 -123q-110 -123 -110 -285t110 -276q110 -115 273 -115 q115 0 208 60t140 162v356q-47 101 -141 161t-207 60zM977 23q0 -43 -45 -43q-18 0 -33 12q-14 12 -14 31v114q-139 -162 -343 -162q-204 -1 -344 141t-140 340t140 346t337 148q89 0 163 -28t107 -57q33 -28 80 -77v115q0 19 14 31t33 12q45 0 45 -43v-880z" glyph-name="adieresis" horiz-adv-x="1085" unicode="ä"/><glyph d="M535 862q-162 0 -273 -123q-110 -123 -110 -285t110 -276q110 -115 273 -115q115 0 208 60t140 162v356q-47 101 -141 161t-207 60zM614 1169q0 27 -16 46t-43 19t-43 -18q-16 -20 -16 -47t16 -45t43 -18t43 18t16 45zM977 23q0 -43 -45 -43q-18 0 -33 12q-14 12 -14 31 v114q-139 -162 -343 -162q-204 -1 -344 141t-140 340t140 346t337 148q89 0 163 -28t107 -57q33 -28 80 -77v115q0 19 14 31t33 12q45 0 45 -43v-880zM555 1313q57 1 98 -43t41 -102t-41 -99t-99 -41t-99 41t-41 100t42 101t99 43z" glyph-name="aring" horiz-adv-x="1085" unicode="å"/><glyph d="M424 63q112 0 186 79t74 189q0 111 -75 195t-185 84t-191 -85t-81 -197t80 -188q80 -77 192 -77zM1532 621q-49 113 -141 179t-211 64q-119 0 -214 -66t-145 -177h711zM793 463q1 -162 115 -281t292 -119t283 154q12 18 16 23q32 44 75 12q15 -12 15 -26t-8 -27 q-145 -223 -395 -224q-131 0 -248 66t-180 176q-37 -106 -128 -174t-204 -68q-154 -1 -262 99t-107 254q0 154 108 260q107 106 263 106t256 -106q-4 126 -74 200t-192 74t-185 -69q-18 -23 -38 -23q-48 0 -50 41q0 23 23 45q88 94 248 94q121 0 213 -64t131 -179 q63 113 175 179t241 64q170 0 294 -99t168 -265l2 -11q0 -18 -14 -30t-33 -13h-792q-8 -45 -8 -69z" glyph-name="ae" horiz-adv-x="1693" unicode="æ"/><glyph d="M866 145q0 -16 -16 -32q-49 -51 -126 -88t-149 -48v-53q43 -14 71 -52t28 -90t-41 -93t-86 -41t-87 22t-42 42q0 22 14 34t28 12t34 -18t44 -18t40 18q16 20 16 49t-15 44t-35 17q-50 5 -50 41v86q-184 17 -310 163t-127 337q1 191 141 332t337 141q71 0 149 -26t112 -52 q34 -28 35 -46q0 -18 -21 -37q-21 -20 -54 2q-121 72 -221 71q-162 0 -273 -114q-110 -114 -110 -277q0 -162 110 -285t273 -123q103 0 229 93q41 30 57 30t31 -12q14 -13 14 -29z" glyph-name="ccedilla" horiz-adv-x="917" unicode="ç"/><glyph d="M549 1067q0 -15 -12 -27q-11 -12 -29 -12t-31 12l-194 207q-27 27 1 53t58 -4l197 -204q10 -11 10 -25zM889 621q-49 113 -140 179t-210 64q-119 0 -214 -66t-145 -177h709zM999 568q0 -13 -14 -24t-33 -12h-794q-6 -37 -6 -71q0 -162 114 -281t280 -119q190 0 306 169 q37 54 79 22q15 -12 15 -28t-6 -25q-66 -103 -169 -163t-226 -61q-199 1 -343 143t-144 345t136 345t341 142q171 0 295 -99t167 -265q2 -5 2 -18z" glyph-name="egrave" horiz-adv-x="1052" unicode="è"/><glyph d="M889 621q-49 113 -140 179t-210 64q-119 0 -214 -66t-145 -177h709zM999 568q0 -13 -14 -24t-33 -12h-794q-6 -37 -6 -71q0 -162 114 -281t280 -119q190 0 306 169q37 54 79 22q15 -12 15 -28t-6 -25q-66 -103 -169 -163t-226 -61q-199 1 -343 143t-144 345t136 345 t341 142q171 0 295 -99t167 -265q2 -5 2 -18zM774 1272q0 -14 -10 -25l-197 -207q-12 -12 -29 -12t-30 12q-12 12 -12 26t12 26l194 204q32 30 60 2q12 -12 12 -26z" glyph-name="eacute" horiz-adv-x="1052" unicode="é"/><glyph d="M889 621q-49 113 -140 179t-210 64q-119 0 -214 -66t-145 -177h709zM999 568q0 -13 -14 -24t-33 -12h-794q-6 -37 -6 -71q0 -162 114 -281t280 -119q190 0 306 169q37 54 79 22q15 -12 15 -28t-6 -25q-66 -103 -169 -163t-226 -61q-199 1 -343 143t-144 345t136 345 t341 142q171 0 295 -99t167 -265q2 -5 2 -18zM760 1064q0 -12 -14 -24t-30 -12q-15 0 -28 12l-166 174l-166 -174q-12 -12 -29 -12t-30 12q-12 12 -12 24t12 28q25 27 74 82q49 54 87 94t64 40q25 0 64 -40t88 -94t74 -82q12 -17 12 -28z" glyph-name="ecircumflex" horiz-adv-x="1052" unicode="ê"/><glyph d="M459 1126q-1 -23 -17 -40t-40 -17t-41 17t-17 41t16 42q16 19 41 19t41 -20t17 -42zM700 1127q0 -24 -18 -41t-41 -17t-40 17t-17 41t16 42q16 19 41 19t42 -18t17 -43zM889 621q-49 113 -140 179t-210 64q-119 0 -214 -66t-145 -177h709zM999 568q0 -13 -14 -24t-33 -12 h-794q-6 -37 -6 -71q0 -162 114 -281t280 -119q190 0 306 169q37 54 79 22q15 -12 15 -28t-6 -25q-66 -103 -169 -163t-226 -61q-199 1 -343 143t-144 345t136 345t341 142q171 0 295 -99t167 -265q2 -5 2 -18z" glyph-name="edieresis" horiz-adv-x="1052" unicode="ë"/><glyph d="M170 1067q0 -15 -12 -27t-30 -12t-30 12l-194 207q-27 27 2 52t57 -3l197 -204q10 -11 10 -25zM211 23q0 -19 -14 -31q-15 -12 -33 -12t-33 12q-14 12 -14 31v880q0 19 14 31q15 12 33 12t32 -12t15 -31v-880z" glyph-name="igrave" horiz-adv-x="327" unicode="ì"/><glyph d="M211 23q0 -19 -14 -31q-15 -12 -33 -12t-33 12q-14 12 -14 31v880q0 19 14 31q15 12 33 12t32 -12t15 -31v-880zM416 1272q0 -14 -10 -25l-197 -207q-11 -12 -29 -12t-30 12q-26 26 0 52l194 204q32 30 60 2q12 -12 12 -26z" glyph-name="iacute" horiz-adv-x="327" unicode="í"/><glyph d="M211 23q0 -19 -14 -31q-15 -12 -33 -12t-33 12q-14 12 -14 31v880q0 19 14 31q15 12 33 12t32 -12t15 -31v-880zM401 1064q0 -12 -14 -24q-13 -12 -29 -12t-28 12l-166 174l-166 -174q-12 -12 -30 -12t-34 17q-17 17 5 47q25 27 73 82q49 54 88 94t64 40t64 -40 q40 -40 88 -94t73 -82q12 -17 12 -28z" glyph-name="icircumflex" horiz-adv-x="327" unicode="î"/><glyph d="M111 1126q-1 -23 -17 -40t-40 -17t-41 17t-17 41t16 42q16 19 41 19t41 -20t17 -42zM352 1127q0 -24 -18 -41t-41 -17t-40 17t-17 41t16 42q16 19 41 19t42 -18t17 -43zM211 23q0 -19 -14 -31q-15 -12 -33 -12t-33 12q-14 12 -14 31v880q0 19 14 31q15 12 33 12t32 -12 t15 -31v-880z" glyph-name="idieresis" horiz-adv-x="327" unicode="ï"/><glyph d="M918 469q0 163 -112 277t-272 114t-271 -115t-111 -277t112 -284q112 -123 271 -123t271 123t112 285zM1012 469q0 -197 -140 -345t-338 -148q-196 0 -336 148t-141 345q1 197 141 337t337 140q111 0 209 -51t169 -139q-25 258 -163 413q-148 -79 -162 -79t-28 13t-15 35 q0 22 24 33l113 64q-150 113 -309 113q-18 0 -33 12q-14 12 -14 31q0 43 63 43q197 0 375 -154q119 72 137 72q17 0 33 -14t16 -36q0 -26 -91 -72q-26 -13 -30 -16q182 -215 183 -534v-211z" glyph-name="eth" horiz-adv-x="1069" unicode="ð"/><glyph d="M891 23q0 -19 -14 -31q-15 -12 -33 -12t-33 12q-14 12 -14 31v514q0 326 -318 325q-81 0 -153 -42t-115 -113v-684q0 -19 -14 -31q-15 -12 -33 -12t-33 12q-14 12 -14 31v880q0 19 14 31t33 12q47 0 47 -43v-72q123 119 268 119q197 0 305 -108t107 -305v-514zM750 1221 q0 -73 -36 -133t-98 -60t-94 39q-31 39 -52 77q-22 38 -52 38q-53 0 -60 -117q-2 -37 -42 -37t-40 33q0 76 36 137q36 62 94 62q101 1 136 -77q34 -79 66 -77q31 0 45 38t15 77q0 39 41 39t41 -39z" glyph-name="ntilde" horiz-adv-x="999" unicode="ñ"/><glyph d="M528 1067q0 -15 -12 -27t-30 -12t-29 12l-195 207q-12 11 -12 25t12 26q29 29 60 -2l196 -204q10 -11 10 -25zM918 471q0 162 -111 277q-111 114 -273 114t-272 -114t-110 -277q0 -162 110 -285t273 -123t273 123t110 285zM535 950q197 0 337 -141t140 -339t-140 -346 t-338 -148q-196 0 -336 148t-140 346t140 339t337 141z" glyph-name="ograve" horiz-adv-x="1069" unicode="ò"/><glyph d="M918 471q0 162 -111 277q-111 114 -273 114t-272 -114t-110 -277q0 -162 110 -285t273 -123t273 123t110 285zM535 950q197 0 337 -141t140 -339t-140 -346t-338 -148q-196 0 -336 148t-140 346t140 339t337 141zM774 1272q0 -14 -10 -25l-197 -207q-12 -12 -29 -12 t-30 12q-12 12 -12 26t12 26l194 204q32 30 60 2q12 -12 12 -26z" glyph-name="oacute" horiz-adv-x="1069" unicode="ó"/><glyph d="M918 471q0 162 -111 277q-111 114 -273 114t-272 -114t-110 -277q0 -162 110 -285t273 -123t273 123t110 285zM535 950q197 0 337 -141t140 -339t-140 -346t-338 -148q-196 0 -336 148t-140 346t140 339t337 141zM760 1064q0 -12 -14 -24t-30 -12q-15 0 -28 12l-166 174 l-166 -174q-12 -12 -29 -12t-30 12q-12 12 -12 24t12 28q25 27 74 82q49 54 87 94t64 40q25 0 64 -40t88 -94t74 -82q12 -17 12 -28z" glyph-name="ocircumflex" horiz-adv-x="1069" unicode="ô"/><glyph d="M918 471q0 162 -111 277q-111 114 -273 114t-272 -114t-110 -277q0 -162 110 -285t273 -123t273 123t110 285zM535 950q197 0 337 -141t140 -339t-140 -346t-338 -148q-196 0 -336 148t-140 346t140 339t337 141zM770 1221q0 -73 -36 -133t-98 -60t-93 39t-53 77t-52 38 q-53 0 -59 -117q-2 -37 -42 -37t-40 33q0 76 36 137q36 62 94 62q100 1 135 -77q34 -79 67 -77q31 0 45 38t14 77t41 39t41 -39z" glyph-name="otilde" horiz-adv-x="1069" unicode="õ"/><glyph d="M469 1126q0 -23 -16 -40t-40 -17t-41 17q-18 17 -18 41t16 42q16 19 42 19q25 0 41 -20t16 -42zM711 1127q-1 -24 -19 -41t-41 -17t-40 17t-17 41t16 42q16 19 41 19t43 -18t17 -43zM918 471q0 162 -111 277q-111 114 -273 114t-272 -114t-110 -277q0 -162 110 -285 t273 -123t273 123t110 285zM535 950q197 0 337 -141t140 -339t-140 -346t-338 -148q-196 0 -336 148t-140 346t140 339t337 141z" glyph-name="odieresis" horiz-adv-x="1069" unicode="ö"/><glyph d="M854 365q42 0 70 -31t28 -71q0 -41 -28 -69t-70 -28q-41 0 -70 29q-28 29 -28 69t28 70q28 31 70 31zM1452 569h-1198v82h1198v-82zM854 1055q42 0 70 -29t28 -68q0 -38 -28 -70t-70 -32q-43 0 -71 31q-27 31 -27 71t28 68q29 29 70 29z" glyph-name="divide" horiz-adv-x="1705" unicode="÷"/><glyph d="M674 836q-74 27 -139 26q-162 0 -273 -114t-110 -277q0 -103 49 -197t137 -151zM918 471q0 96 -44 181q-43 85 -120 141l-334 -711q55 -18 115 -19q163 0 273 123t110 285zM1012 471q0 -199 -140 -347t-337 -149q-74 0 -150 27q-2 -33 -45 -33q-18 -1 -34 11t-15 26 q0 14 10 35q-111 69 -177 185t-67 245q1 197 141 338t337 141q94 0 174 -32q11 22 35 22q52 -1 55 -41q0 -6 -6 -25q103 -68 161 -174t58 -229z" glyph-name="oslash" horiz-adv-x="1069" unicode="ø"/><glyph d="M549 1067q0 -15 -12 -27q-11 -12 -29 -12t-31 12l-194 207q-27 27 1 53t58 -4l197 -204q10 -11 10 -25zM883 23q-1 -19 -15 -31t-32 -12q-47 0 -48 45v71q-129 -121 -268 -121q-199 0 -305 115t-106 313v500q0 19 14 31q15 12 33 12t32 -12t15 -31v-500q0 -340 317 -340 q82 0 154 40t114 112v688q0 19 14 31t34 12q18 0 32 -12t15 -31v-880z" glyph-name="ugrave" horiz-adv-x="999" unicode="ù"/><glyph d="M883 23q-1 -19 -15 -31t-32 -12q-47 0 -48 45v71q-129 -121 -268 -121q-199 0 -305 115t-106 313v500q0 19 14 31q15 12 33 12t32 -12t15 -31v-500q0 -340 317 -340q82 0 154 40t114 112v688q0 19 14 31t34 12q18 0 32 -12t15 -31v-880zM743 1272q0 -14 -10 -25 l-196 -207q-11 -12 -29 -12t-31 12q-12 12 -12 26t12 26l195 204q30 30 58 2q12 -12 13 -26z" glyph-name="uacute" horiz-adv-x="999" unicode="ú"/><glyph d="M883 23q-1 -19 -15 -31t-32 -12q-47 0 -48 45v71q-129 -121 -268 -121q-199 0 -305 115t-106 313v500q0 19 14 31q15 12 33 12t32 -12t15 -31v-500q0 -340 317 -340q82 0 154 40t114 112v688q0 19 14 31t34 12q18 0 32 -12t15 -31v-880zM739 1064q0 -12 -14 -24 q-13 -12 -29 -12t-28 12l-166 174l-166 -174q-12 -12 -30 -12t-30 12t-12 24t12 28q25 27 74 82q49 54 88 94t64 40t64 -40q40 -40 88 -94t73 -82q12 -17 12 -28z" glyph-name="ucircumflex" horiz-adv-x="999" unicode="û"/><glyph d="M449 1126q-1 -23 -17 -40t-40 -17t-41 17t-17 41t16 42q16 19 41 19t41 -20t17 -42zM690 1127q0 -24 -18 -41t-41 -17t-40 17t-17 41t16 42q16 19 41 19t42 -18t17 -43zM883 23q-1 -19 -15 -31t-32 -12q-47 0 -48 45v71q-129 -121 -268 -121q-199 0 -305 115t-106 313 v500q0 19 14 31q15 12 33 12t32 -12t15 -31v-500q0 -340 317 -340q82 0 154 40t114 112v688q0 19 14 31t34 12q18 0 32 -12t15 -31v-880z" glyph-name="udieresis" horiz-adv-x="999" unicode="ü"/><glyph d="M702 1272q0 -14 -10 -25l-196 -207q-12 -12 -30 -12t-30 12t-12 26t12 26l195 204q30 30 58 2q13 -12 13 -26zM803 -74q0 -455 -512 -454q-45 0 -45 42t45 42q211 0 315 83t105 287v162q-94 -102 -244 -102t-254 88t-104 250v579q0 19 14 31q15 12 33 12t32 -12t15 -31 v-579q0 -128 75 -190t190 -62t179 67q63 68 64 168v596q0 43 45 43q18 0 32 -12t15 -31v-977z" glyph-name="yacute" horiz-adv-x="919" unicode="ý"/><glyph d="M942 473q0 162 -112 277t-271 114q-113 0 -207 -59t-141 -160v-356q47 -101 142 -163t206 -63q159 0 271 124t112 286zM1036 472q0 -198 -140 -348t-342 -149q-202 0 -343 158v-616q0 -19 -14 -31q-15 -12 -33 -12t-33 12q-14 12 -14 31v1902q0 19 14 31t33 12 q47 0 47 -43v-626q61 69 155 113t193 44q197 0 337 -140t140 -338z" glyph-name="thorn" horiz-adv-x="1093" unicode="þ"/><glyph d="M803 -74q0 -455 -512 -454q-45 0 -45 42t45 42q211 0 315 83t105 287v162q-94 -102 -244 -102t-254 88t-104 250v579q0 19 14 31q15 12 33 12t32 -12t15 -31v-579q0 -128 75 -190t190 -62t179 67q63 68 64 168v596q0 43 45 43q18 0 32 -12t15 -31v-977zM397 1126 q0 -23 -16 -40t-40 -17t-41 17t-17 41t16 42q16 19 41 19t41 -20t16 -42zM639 1127q0 -24 -18 -41t-41 -17t-40 17q-18 17 -18 41t16 42q16 19 42 19q25 0 42 -18t17 -43z" glyph-name="ydieresis" horiz-adv-x="919" unicode="ÿ"/><glyph d="M1161 160q15 0 29 -14t14 -33q0 -18 -20 -33q-156 -109 -383 -109q-301 1 -515 223t-214 523t214 523t515 222q215 0 356 -92q23 -14 23 -34t-20 -39q-20 -18 -52 -3q-160 82 -307 82q-264 0 -450 -196q-185 -197 -185 -463t185 -463t450 -197q156 0 332 97q12 6 28 6z M1051 1784q0 -14 -11 -25l-196 -207q-12 -12 -30 -12t-30 12t-12 26t12 26l195 204q31 30 59 2q12 -12 13 -26z" glyph-name="Cacute" horiz-adv-x="1265" unicode="Ć"/><glyph d="M784 1272q0 -14 -10 -25l-196 -207q-12 -12 -30 -12t-30 12t-12 26t12 26l195 204q29 28 57 2q14 -12 14 -26zM866 145q0 -16 -16 -32q-58 -59 -146 -99t-169 -39q-197 1 -337 149t-140 346t140 339t322 141t293 -92q18 -14 18 -30t-22 -37q-22 -20 -53 0 q-115 72 -221 71q-162 0 -273 -114q-110 -114 -110 -277q0 -162 110 -285t273 -123q90 0 173 55q30 20 62 44t50 24t32 -12q14 -13 14 -29z" glyph-name="cacute" horiz-adv-x="917" unicode="ć"/><glyph d="M1161 160q15 0 29 -14t14 -33q0 -18 -20 -33q-156 -109 -383 -109q-301 1 -515 223t-214 523t214 523t515 222q215 0 356 -92q23 -14 23 -34t-20 -39q-20 -18 -52 -3q-160 82 -307 82q-264 0 -450 -196q-185 -197 -185 -463t185 -463t450 -197q156 0 332 97q12 6 28 6z M887 1593q-53 -53 -78 -53t-65 41t-160 176q-23 30 -5 47q35 33 64 4l166 -174l166 174q27 26 57 0q14 -12 15 -27q0 -15 -160 -188z" glyph-name="Ccaron" horiz-adv-x="1265" unicode="Č"/><glyph d="M770 1273q0 -11 -12 -28q-25 -27 -74 -82t-88 -95t-64 -40q-26 0 -64 40t-87 95t-67 77t-19 32q0 12 12 24q11 12 29 12t31 -12l165 -174l166 174q28 26 58 0q14 -12 14 -23zM866 145q0 -16 -16 -32q-58 -59 -146 -99t-169 -39q-197 1 -337 149t-140 346t140 339t322 141 t293 -92q18 -14 18 -30t-22 -37q-22 -20 -53 0q-115 72 -221 71q-162 0 -273 -114q-110 -114 -110 -277q0 -162 110 -285t273 -123q90 0 173 55q30 20 62 44t50 24t32 -12q14 -13 14 -29z" glyph-name="ccaron" horiz-adv-x="917" unicode="č"/><glyph d="M1343 236q0 -6 -10 -27q-92 -111 -238 -174t-294 -64q-301 1 -515 223t-214 523t214 523t515 222q111 0 227 -38t201 -103q18 -15 18 -31t-22 -36t-54 1q-180 121 -370 121q-264 0 -450 -196q-185 -197 -185 -463t185 -463t449 -197t449 193v444h-323q-18 0 -32 12 t-15 31q0 19 14 31t33 12h370q16 0 32 -13t15 -30v-501zM1049 1786q0 -98 -71 -172t-169 -74t-169 74t-71 172q0 39 41 39t41 -39q0 -70 45 -119t113 -49t113 49t45 119q0 39 41 39t41 -39z" glyph-name="Gbreve" horiz-adv-x="1445" unicode="Ğ"/><glyph d="M772 1274q0 -98 -71 -172t-169 -74t-168 74t-71 172q0 39 41 39t41 -39q0 -70 45 -119q44 -49 112 -49t113 49t45 119q0 39 41 39t41 -39zM535 866q-162 0 -273 -116q-110 -116 -110 -277q0 -162 112 -288t271 -126q113 0 207 59t141 161v368q-47 99 -141 159t-207 60z M977 -70q0 -457 -510 -456q-18 0 -33 12q-14 12 -14 30t14 31q14 12 33 13q211 0 314 83t104 287v201q-147 -156 -347 -156t-340 150q-140 149 -140 347t140 338t337 140q100 0 194 -46t154 -111v110q0 43 47 43q18 0 32 -12t15 -31v-973z" glyph-name="gbreve" horiz-adv-x="1093" unicode="ğ"/><glyph d="M211 23q0 -19 -14 -31q-15 -12 -33 -12t-33 12q-14 12 -14 31v880q0 19 14 31q15 12 33 12t32 -12t15 -31v-880z" glyph-name="dotlessi" horiz-adv-x="327" unicode="ı"/><glyph d="M887 43q-1 -19 -15 -31t-32 -12h-650q-16 0 -31 13t-16 30v489q-4 -2 -37 -30t-52 -29q-19 0 -34 13q-14 14 -14 30t17 33l120 98v764q1 19 15 31t32 12t32 -12t16 -31v-686l22 20q47 41 68 41q20 0 34 -13q32 -30 -2 -62l-122 -101v-524h602q18 0 32 -12t15 -31z" glyph-name="Lslash" horiz-adv-x="899" unicode="Ł"/><glyph d="M350 825q0 -16 -16 -32l-123 -101v-669q0 -19 -14 -31q-15 -12 -33 -12t-33 12q-14 12 -14 31v591q-4 -2 -38 -30t-52 -29q-18 0 -33 13q-14 14 -14 30t16 33l121 98v774q0 41 47 41t47 -41v-696l22 20q47 41 68 41q20 0 35 -13q14 -14 14 -30z" glyph-name="lslash" horiz-adv-x="327" unicode="ł"/><glyph d="M1434 717q0 266 -184 463q-184 196 -449 196q-264 0 -450 -196q-185 -197 -185 -463t185 -463t449 -197t450 197q184 197 184 463zM2286 43q0 -19 -14 -31t-34 -12h-757q-16 0 -32 13q-15 13 -15 30v311q-98 -174 -268 -278t-365 -105q-301 1 -515 223t-214 523t214 523 t515 222q197 0 365 -104t268 -279v312q0 16 15 29t32 14h757q18 0 32 -12t16 -31q0 -19 -14 -31t-34 -12h-710v-564h540q18 0 32 -12t16 -30q0 -18 -14 -31q-14 -12 -34 -13h-540v-612h710q18 0 33 -12t15 -31z" glyph-name="OE" horiz-adv-x="2349" unicode="Œ"/><glyph d="M918 471q0 162 -111 277q-111 114 -273 114t-272 -114t-110 -277q0 -162 110 -285t273 -123t273 123t110 285zM1749 621q-49 113 -140 179t-210 64q-119 0 -214 -66t-145 -177h709zM1860 568q0 -13 -14 -24t-34 -12h-794q-6 -37 -6 -71q0 -162 114 -281t278 -119 q163 0 267 115q4 6 41 57t79 19q15 -12 15 -28t-6 -25q-66 -103 -169 -163t-234 -60t-253 76q-122 77 -181 204q-61 -125 -177 -203t-251 -78q-197 1 -337 149t-140 346t140 339t337 141q137 0 253 -74t177 -198q57 125 174 199q117 73 271 73t279 -99q124 -99 169 -265 q2 -5 2 -18z" glyph-name="oe" horiz-adv-x="1912" unicode="œ"/><glyph d="M674 -218q0 -52 -41 -93t-86 -41t-87 22t-42 42q0 22 14 34t28 12t34 -18t44 -18t40 18q16 20 16 49t-15 44t-35 17q-50 5 -50 41v82q-111 12 -223 85t-171 171q-6 9 -6 23t16 26t36 13t31 -13t17 -24t11 -14q61 -78 150 -130t192 -52t199 58t138 142t42 162t-45 147 q-45 68 -117 99t-159 51q-87 21 -174 41t-159 52t-116 100t-45 173q0 179 130 279t316 100q82 0 183 -36t147 -91q10 -14 10 -29q0 -16 -15 -28q-16 -12 -32 -12t-39 18q-102 92 -253 92t-252 -74t-101 -219q0 -84 45 -138t117 -81q71 -27 157 -44q213 -42 332 -105 q72 -39 117 -120t45 -181t-50 -196t-156 -166t-234 -79q0 -22 -3 -49q43 -14 71 -52t28 -90z" glyph-name="Scedilla" horiz-adv-x="1112" unicode="Ş"/><glyph d="M715 293q0 -127 -83 -215t-210 -101v-53q43 -14 71 -52q27 -38 27 -90t-41 -93t-86 -41t-87 22t-42 42q0 22 14 34t29 12q13 0 33 -18t44 -18t40 18q16 20 16 49t-15 44t-35 17q-50 5 -50 41v89q-90 12 -169 67t-112 137q-2 4 -2 18q-1 14 15 25q43 33 78 -18 q88 -145 235 -146q102 -1 170 63t68 152q-1 88 -49 139q-48 50 -116 79q-68 30 -138 56q-68 26 -116 73t-48 127t65 140q65 58 141 58t141 -32t90 -62q25 -32 25 -46t-15 -28q-15 -12 -39 -12t-37 23q-3 4 -5 6q-64 63 -132 63t-104 -32t-36 -83t48 -83t117 -60 q69 -26 137 -60t115 -98q48 -64 48 -153z" glyph-name="scedilla" horiz-adv-x="782" unicode="ş"/><glyph d="M1018 414q0 -100 -43 -181q-63 -123 -182 -193t-249 -69q-130 0 -255 76t-189 182q-6 9 -6 23t14 26t36 13t33 -13t17 -24t11 -14q63 -80 150 -131t191 -51t200 58t138 142t42 162t-45 147q-45 68 -117 99t-159 51q-87 21 -174 41t-159 52t-116 100t-45 173 q0 179 130 279t316 100q82 0 183 -36t147 -91q10 -14 10 -29q0 -16 -15 -28q-16 -12 -34 -12t-50 30t-104 56q-72 25 -137 24q-150 0 -251 -74t-101 -219q0 -84 45 -138t117 -81q71 -27 157 -44q213 -42 332 -105q72 -39 117 -120t45 -181zM631 1593q-53 -53 -78 -53t-65 41 t-160 176q-23 30 -5 47q35 33 64 4l166 -174l166 174q27 26 57 0q14 -12 15 -27q0 -15 -160 -188z" glyph-name="Scaron" horiz-adv-x="1112" unicode="Š"/><glyph d="M467 1081q-53 -53 -78 -53t-64 40q-59 62 -155 172q-18 22 -18 32q0 12 12 24t30 12t29 -12l166 -174l166 174q27 26 57 0q14 -12 15 -27q0 -15 -160 -188zM715 293q0 -137 -95 -227t-235 -91q-101 1 -195 59t-131 150q-2 4 -2 18q-1 14 15 25q16 13 38 13t40 -31 q86 -145 235 -146q104 -1 171 63t67 152q-1 88 -49 139q-48 50 -116 79q-68 30 -138 56q-68 26 -116 73t-48 127t65 140q65 58 141 58t141 -32t90 -62q25 -32 25 -46t-15 -26q-15 -14 -39 -14t-37 23q-3 4 -5 6q-64 63 -132 63t-104 -33t-36 -83t48 -84t117 -59t137 -59 t115 -98q48 -64 48 -153z" glyph-name="scaron" horiz-adv-x="782" unicode="š"/><glyph d="M479 1536q0 -23 -16 -40t-40 -17t-41 17t-17 41t16 42t41 18t41 -19t16 -42zM662 1597q25 0 42 -18t17 -42q-1 -24 -19 -41t-40 -17t-40 17t-18 41t16 42t42 18zM1075 1417q0 -14 -8 -26l-477 -725v-643q0 -19 -14 -31t-33 -12q-18 0 -33 12q-14 12 -14 31v643l-478 725 q-8 12 -8 26q0 15 16 27t36 12q22 0 36 -22l445 -676l444 676q13 22 35 22t38 -12q15 -13 15 -27z" glyph-name="Ydieresis" horiz-adv-x="1085" unicode="Ÿ"/><glyph d="M1135 43q0 -43 -45 -43h-955q-51 0 -51 35q0 16 10 31l881 1282h-807q-18 0 -33 12q-14 12 -14 30t14 31q14 12 33 13h891q51 0 51 -35q0 -14 -10 -29l-881 -1284h871q45 0 45 -43zM682 1593q-53 -53 -78 -53t-64 40q-58 62 -154 172q-18 22 -19 32q0 12 12 24 q11 12 29 12t30 -12l166 -174l166 174q28 26 58 0q14 -12 14 -27t-160 -188z" glyph-name="Zcaron" horiz-adv-x="1218" unicode="Ž"/><glyph d="M657 1273q0 -11 -12 -28q-31 -33 -147 -164q-53 -53 -78 -53t-65 41t-160 176q-23 30 -5 47q35 33 64 4l166 -174l166 174q26 26 56 0q14 -12 15 -23zM768 907q0 -16 -12 -33l-547 -786h508q19 0 33 -13t14 -31t-14 -32q-14 -12 -33 -12h-594q-18 0 -35 10q-16 10 -16 26 t10 32l549 786h-508q-18 0 -33 13q-14 13 -14 31t14 32q14 12 33 12h594q51 0 51 -35z" glyph-name="zcaron" horiz-adv-x="839" unicode="ž"/><glyph d="M1149 1391q0 -15 -15 -29q-14 -14 -28 -14t-56 12t-69 12q-111 0 -177 -89t-73 -206l-24 -291h182q43 0 43 -43q0 -18 -16 -30t-35 -13h-183l-63 -727q-13 -151 -107 -267t-239 -116q-47 0 -107 18t-61 50q0 16 16 30q17 14 33 15q16 0 56 -13t65 -14q111 0 175 90 t75 207l63 727h-162q-43 0 -43 43q1 19 17 31t35 12h161l25 291q12 153 105 267t241 114q51 0 109 -15t57 -52z" glyph-name="florin" horiz-adv-x="1361" unicode="ƒ"/><glyph d="M750 1068q0 -16 -14 -28t-30 -12q-15 0 -28 12l-166 174l-166 -174q-12 -12 -30 -12t-34 17q-17 17 5 47q25 27 73 82q49 54 88 94t64 40t78 -53q160 -172 160 -187z" glyph-name="circumflex" unicode="ˆ"/><glyph d="M590 1081q-53 -53 -78 -53t-65 41t-160 176q-23 30 -5 47q35 33 64 4l166 -174l166 174q28 26 58 0q14 -12 14 -27t-160 -188z" glyph-name="caron" unicode="ˇ"/><glyph d="M752 1274q0 -98 -71 -172t-169 -74t-169 74t-71 172q0 39 41 39t41 -39q0 -70 45 -119t113 -49t113 49t45 119q0 39 41 39t41 -39z" glyph-name="breve" unicode="˘"/><glyph d="M571 1128q0 -24 -16 -40t-40 -16t-41 16q-17 18 -17 42t16 41q16 19 41 19t41 -20t16 -42z" glyph-name="dotaccent" unicode="˙"/><glyph d="M573 1149q0 27 -16 46t-43 19t-43 -19t-16 -46t16 -45t43 -18t43 18t16 45zM653 1148q0 -58 -41 -99t-99 -41t-99 41t-41 100t42 101t99 42t98 -43t41 -101z" glyph-name="ring" unicode="˚"/><glyph d="M643 -192q0 -22 -43 -46t-88 -24t-87 42t-42 101t42 101t99 43q16 1 28 -11t13 -30q0 -36 -50 -38q-19 0 -35 -16t-15 -46q0 -30 16 -49q15 -19 39 -19t44 19q36 35 66 7q14 -12 13 -34z" glyph-name="ogonek" unicode="˛"/><glyph d="M750 1221q0 -73 -36 -133t-98 -60t-94 39q-31 39 -52 77q-22 38 -52 38q-53 0 -60 -117q-2 -37 -42 -37t-40 33q0 76 36 137q36 62 94 62q101 1 136 -77q34 -79 66 -77q31 0 45 38t15 77q0 39 41 39t41 -39z" glyph-name="tilde" unicode="˜"/><glyph d="M662 1272q0 -14 -11 -25l-196 -207q-11 -12 -29 -12t-31 12q-12 12 -12 26t12 26l195 204q28 28 58 2q14 -12 14 -26zM848 1272q0 -14 -10 -25l-197 -207q-11 -12 -27 -12t-30 12q-29 25 -2 52l194 204q32 30 60 2q12 -12 12 -26z" glyph-name="hungarumlaut" unicode="˝"/><glyph d="M869 98q73 0 104 11l-25 -109q-54 -16 -96 -16q-94 0 -146 56t-52 130t6 112q6 37 49 255l88 421h-381l-203 -958h-121l201 958h-39q-53 0 -84 -30t-43 -103h-121q25 135 84 187t207 51h829l-24 -105h-182l-119 -565q-29 -142 -29 -193q0 -102 97 -102z" glyph-name="pi" horiz-adv-x="1155" unicode="π"/><glyph d="M940 471q0 -21 -13 -35t-34 -14h-762q-20 0 -34 14q-13 14 -13 34t13 36q13 14 34 14h762q20 0 34 -14q13 -15 13 -35z" glyph-name="endash" unicode="–"/><glyph d="M2077 422h-2106v98h2106v-98z" glyph-name="emdash" horiz-adv-x="2048" unicode="—"/><glyph d="M145 1307q0 90 68 141q11 8 23 8t23 -11t11 -21t-22 -36q-22 -28 -27 -38q27 -4 45 -24t18 -46q0 -27 -18 -46q-20 -20 -52 -20t-50 28t-19 65z" glyph-name="quoteleft" horiz-adv-x="430" unicode="‘"/><glyph d="M285 1364q0 -90 -68 -141q-26 -17 -41 -2q-16 16 -16 25t22 37q23 28 27 38q-27 3 -45 23t-18 47t18 46q20 19 52 19t50 -28t19 -64z" glyph-name="quoteright" horiz-adv-x="430" unicode="’"/><glyph d="M285 33q0 -90 -68 -142q-12 -8 -23 -8q-10 -1 -22 11t-12 21t22 37q23 28 27 38q-27 4 -45 23t-18 46t18 46q20 19 52 19t50 -26q18 -28 19 -65z" glyph-name="quotesinglbase" horiz-adv-x="430" unicode="‚"/><glyph d="M442 1307q0 90 68 141q12 8 23 8t23 -11t11 -21t-23 -36q-22 -28 -26 -38q27 -4 45 -24q19 -20 19 -46q0 -27 -20 -46q-20 -20 -52 -20t-50 28t-18 65zM145 1307q0 90 68 141q11 8 23 8t23 -11t11 -21t-22 -36q-22 -28 -27 -38q27 -4 45 -24t18 -46q0 -27 -18 -46 q-20 -20 -52 -20t-50 28t-19 65z" glyph-name="quotedblleft" horiz-adv-x="727" unicode="“"/><glyph d="M285 1364q0 -90 -68 -141q-26 -17 -41 -2q-16 16 -16 25t22 37q23 28 27 38q-27 3 -45 23t-18 47t18 46q20 19 52 19t50 -28t19 -64zM582 1364q0 -90 -68 -141q-26 -17 -41 -2q-16 16 -16 25t22 37q23 28 27 38q-27 3 -45 23q-19 20 -19 47t20 46t52 19t50 -28t18 -64z " glyph-name="quotedblright" horiz-adv-x="727" unicode="”"/><glyph d="M285 33q0 -90 -68 -142q-12 -8 -23 -8q-10 -1 -22 11t-12 21t22 37q23 28 27 38q-27 4 -45 23t-18 46t18 46q20 19 52 19t50 -26q18 -28 19 -65zM582 33q0 -90 -68 -142q-12 -8 -23 -8q-11 -1 -23 11t-11 21q0 9 22 37q23 28 27 38q-27 4 -45 23q-19 19 -19 46t20 46 t52 19t50 -26q18 -28 18 -65z" glyph-name="quotedblbase" horiz-adv-x="727" unicode="„"/><glyph d="M942 938h-373v-1153h-120v1153h-367v106h367v429h120v-429h373v-106z" glyph-name="dagger" unicode="†"/><glyph d="M954 211h-387v-428h-121v428h-376v108h376v617h-376v106h376v431h121v-431h387v-106h-387v-617h387v-108z" glyph-name="daggerdbl" unicode="‡"/><glyph d="M899 763q0 -122 -88 -210t-209 -88t-208 87t-87 210t86 209t210 86t210 -86t86 -208z" glyph-name="bullet" horiz-adv-x="1208" unicode="•"/><glyph d="M897 54q1 -28 -21 -50t-49 -20q-27 0 -47 22t-20 50t20 48t48 20t48 -20q20 -22 21 -50zM590 54q0 -28 -22 -50t-48 -20q-26 0 -47 22q-20 22 -20 50t20 48t48 20q29 0 49 -20q20 -22 20 -50zM283 54q0 -28 -22 -50q-23 -22 -49 -20q-26 0 -46 22t-20 50t20 48t48 20 t48 -20q20 -22 21 -50z" glyph-name="ellipsis" horiz-adv-x="1042" unicode="…"/><glyph d="M426 774q108 0 178 86q68 86 68 198t-69 200t-177 90q-108 0 -178 -88t-70 -201t70 -199t178 -86zM1569 375q0 113 -70 199q-71 86 -179 85q-108 0 -178 -86q-70 -87 -69 -199q0 -112 70 -200q71 -88 179 -88t178 88t69 201zM2378 375q0 113 -70 199t-178 85 q-108 0 -178 -86q-70 -87 -70 -199t70 -200t178 -88t178 88t70 201zM766 1059q0 -147 -97 -259t-243 -112t-244 112t-98 259t98 261t244 114t242 -114q98 -114 98 -261zM1376 1427q0 -14 -8 -26l-903 -1411q-13 -23 -35 -23q-22 1 -38 13t-15 26q0 14 8 27l903 1411 q14 22 36 22t37 -12q15 -13 15 -27zM1661 375q0 -147 -97 -261q-96 -114 -242 -114t-245 114q-98 114 -98 261t98 259q97 112 243 112t244 -112q97 -112 97 -259zM2472 375q0 -147 -98 -261t-244 -114t-244 114t-98 261t98 259t244 112t244 -112t98 -259z" glyph-name="perthousand" horiz-adv-x="2555" unicode="‰"/><glyph d="M530 40q0 -16 -15 -28t-35 -12t-36 16l-372 420q-8 10 -8 26t8 27l372 437q12 16 34 16t36 -12q16 -12 16 -28t-12 -32l-350 -407l350 -391q12 -17 12 -32z" glyph-name="guilsinglleft" horiz-adv-x="552" unicode="‹"/><glyph d="M489 463q0 -12 -10 -27l-373 -420q-12 -16 -32 -16t-36 12q-15 12 -15 28t12 32l348 391l-350 407q-10 14 -10 30t15 30q15 12 36 12t32 -16l373 -437q10 -14 10 -26z" glyph-name="guilsinglright" horiz-adv-x="552" unicode="›"/><glyph d="M1020 1425q0 -16 -6 -24l-903 -1411q-13 -23 -35 -23q-22 1 -38 13t-15 26q0 14 8 27l901 1411q14 22 36 22t37 -12q15 -13 15 -29z" glyph-name="fraction" horiz-adv-x="1042" unicode="⁄"/><glyph d="M1602 852q0 -18 -16 -30t-36 -11q-21 0 -40 26q-19 25 -105 25t-164 -74t-78 -170v-595q0 -19 -14 -31q-15 -12 -33 -12t-33 12q-14 12 -14 31v880q0 19 14 31t33 12q47 0 47 -43v-82q96 129 252 129q59 0 123 -24t64 -74zM922 1391q0 -19 -14 -31t-34 -12h-636v-564h540 q18 0 32 -12t15 -30q0 -18 -14 -31q-14 -12 -33 -13h-540v-675q0 -19 -14 -31t-34 -12q-18 0 -32 12t-15 31v1368q-1 16 15 29t32 14h684q18 0 33 -12t15 -31z" glyph-name="franc" horiz-adv-x="1611" unicode="₣"/><glyph d="M1262 160q14 0 28 -14t15 -33q-1 -19 -15 -29t-59 -33q-154 -80 -332 -80q-272 1 -476 185t-243 452h-133q-47 0 -47 41q0 17 14 31t33 14h125v23q0 66 8 117h-133q-18 0 -33 12q-14 12 -14 30t14 31q14 12 33 13h152q69 236 263 390t437 152q87 0 191 -24t165 -68 q25 -16 25 -36t-20 -37q-20 -18 -52 -3q-160 82 -309 82q-207 0 -371 -128t-231 -328h551q45 0 45 -43t-45 -43h-572q-10 -66 -10 -117v-23h498q18 0 32 -13t15 -32q0 -41 -47 -41h-488q40 -229 216 -390t407 -161q158 0 334 97q15 6 29 6z" glyph-name="Euro" horiz-adv-x="1361" unicode="€"/><glyph d="M694 1403h-174v-479h-67v479h-179v51h420v-51zM1364 924h-59v479l-181 -479h-49l-190 479v-479h-60v530h101l174 -440l162 440h102v-530z" glyph-name="trademark" horiz-adv-x="1705" unicode="™"/><glyph d="M1456 786q0 -210 -89 -372t-271 -293h356v-121h-573v102q438 268 438 684q-1 272 -147 440t-376 167q-230 0 -378 -168t-148 -439q0 -413 439 -684v-102h-572v121h354q-360 259 -360 665q0 316 187 522q186 206 476 206t477 -207q187 -206 187 -521z" glyph-name="uni2126" horiz-adv-x="1585" unicode="Ω"/><glyph d="M264 260q0 -240 185 -242q117 0 191 126t73 315q0 256 -185 256q-116 0 -190 -126t-74 -329zM772 883q0 354 -154 354q-45 0 -100 -74t-108 -73q-28 0 -48 19t-20 46q0 59 61 102t148 43q158 0 253 -146t95 -402q0 -338 -132 -558t-323 -221q-139 -1 -224 103t-85 281 q1 177 107 299t258 122q98 0 157 -48t93 -152q22 129 22 305z" glyph-name="partialdiff" unicode="∂"/><glyph d="M1155 121l-487 1233l-490 -1233h977zM1346 0h-1358l594 1473h172z" glyph-name="uni2206" horiz-adv-x="1335" unicode="∆"/><glyph d="M1327 -393h-135v1743h-893v-1743h-135v1866h1163v-1866z" glyph-name="product" horiz-adv-x="1490" unicode="∏"/><glyph d="M1253 -393h-1243v127l752 829l-717 787v123h1208v-123h-1038l721 -787l-760 -835h1077v-121z" glyph-name="summation" horiz-adv-x="1290" unicode="∑"/><glyph d="M1452 569h-1198v82h1198v-82z" glyph-name="minus" horiz-adv-x="1705" unicode="−"/><glyph d="M1264 1565h-129l-596 -1606h-31l-330 907l-110 -39l-15 50l230 79l278 -759l531 1429h172v-61z" glyph-name="radical" horiz-adv-x="1263" unicode="√"/><glyph d="M532 874q-110 0 -178 -78t-68 -198q0 -119 66 -196q64 -76 155 -76t163 78t149 266q-108 204 -287 204zM1421 630q-1 120 -65 196t-154 77q-90 0 -162 -78t-151 -268q109 -205 287 -205q109 0 177 79t68 199zM1468 611q0 -161 -80 -262t-210 -101q-96 0 -167 62t-141 200 q-140 -270 -321 -268q-133 0 -222 108t-89 268t80 262t210 101q100 0 172 -63t136 -205q131 276 323 274q131 1 220 -107t89 -269z" glyph-name="infinity" horiz-adv-x="1705" unicode="∞"/><glyph d="M903 1427q0 -49 -28 -77t-74 -27q-76 1 -101 65t-34 64q-68 0 -94 -166t-26 -678t-85 -745q-86 -233 -268 -234q-61 0 -105 34t-43 82q0 48 28 79t70 31q108 0 115 -101q4 -31 25 -30q67 0 93 172t26 678q0 504 85 738q86 234 269 234q66 0 106 -35t41 -84z" glyph-name="integral" horiz-adv-x="948" unicode="∫"/><glyph d="M565 557q107 0 295 -70q188 -69 280 -69t176 35q85 35 214 125v-93q-217 -147 -387 -147q-106 0 -297 71t-280 71t-174 -36q-85 -35 -214 -125v93q205 145 387 145zM568 803q-92 0 -176 -35q-85 -35 -214 -125v92q218 148 387 148q103 0 293 -71t280 -71t174 36 q83 36 218 126v-94q-208 -147 -387 -145q-107 0 -295 70t-280 69z" glyph-name="approxequal" horiz-adv-x="1705" unicode="≈"/><glyph d="M1452 387h-711l-254 -324l-61 48l215 276h-387v82h436l221 283h-657v79h709l254 326l63 -49l-217 -277h389v-79h-440l-219 -283h659v-82z" glyph-name="notequal" horiz-adv-x="1705" unicode="≠"/><glyph d="M1442 49h-1178v80h1178v-80zM1442 293l-1178 405v70l1178 403v-88l-1043 -350l1043 -352v-88z" glyph-name="lessequal" horiz-adv-x="1705" unicode="≤"/><glyph d="M1442 49h-1178v80h1178v-80zM1442 698l-1178 -405v88l1043 352l-1043 350v88l1178 -403v-70z" glyph-name="greaterequal" horiz-adv-x="1705" unicode="≥"/><glyph d="M891 592l-385 817l-385 -817l385 -825zM1006 592l-500 -1069l-500 1069l500 1061z" glyph-name="lozenge" horiz-adv-x="1011" unicode="◊"/><glyph d="M238 23q0 -19 -14 -31t-34 -12q-18 0 -32 12t-15 31v1388q1 19 15 31t32 12t32 -12t16 -31v-1388zM254 1640q0 -24 -16 -40t-40 -16t-41 16q-17 18 -17 42t16 41q16 19 41 19t41 -20t16 -42z" glyph-name="uniE000" horiz-adv-x="380" unicode=""/><glyph d="M1272 741q0 -233 233 -338q-115 -250 -206 -344t-203 -94q-51 0 -131 33t-125 33t-129 -33t-137 -33q-119 0 -248 176q-102 141 -158 297t-55 299q0 219 125 357t323 137q68 0 154 -34t122 -34t124 35t177 35q190 0 335 -164q-102 -66 -152 -145q-49 -80 -49 -183z M1167 1552q0 -131 -103 -234t-204 -104h-16l-4 3h-4l-2 14v22q0 123 96 230q98 106 235 131l2 -23v-39z" glyph-name="uniE001" horiz-adv-x="1617" unicode=""/><glyph d="M535 862q-160 0 -272 -123q-111 -123 -111 -285t112 -277q112 -116 271 -116q113 0 207 60t141 162v358q-47 101 -141 161t-207 60zM1159 1237q0 -43 -45 -43h-137v-1171q0 -19 -13 -31q-14 -12 -32 -12t-33 12q-14 12 -14 31v112q-155 -160 -351 -160q-196 -1 -336 141 t-141 339q1 197 141 347t337 148q111 0 203 -47t147 -115v406h-283q-18 0 -33 12q-14 12 -14 30t14 32q14 12 33 12h283v223q0 41 46 41t46 -41v-223h137q45 0 45 -43z" glyph-name="uniE002" horiz-adv-x="1093" unicode=""/><glyph glyph-name="uniE003" horiz-adv-x="679" unicode=""/><glyph d="M532 471q0 -21 -13 -35t-34 -14h-354q-20 0 -34 14q-13 14 -13 34t13 36q13 14 34 14h354q20 0 34 -14q13 -15 13 -35z" glyph-name="uniE004" horiz-adv-x="616" unicode=""/></font>
</defs>
</svg>
